<svg width="50" height="52" viewBox="0 0 50 52" fill="none" xmlns="http://www.w3.org/2000/svg">
<path d="M50 26C50 31.1423 48.5338 36.1691 45.7867 40.4448C43.0397 44.7205 39.1352 48.053 34.5671 50.0209C29.9989 51.9887 24.9723 52.5036 20.1227 51.5004C15.2732 50.4972 10.8187 48.0209 7.32234 44.3848C3.82603 40.7486 1.44501 36.1158 0.480381 31.0723C-0.484249 26.0288 0.0108337 20.8011 1.90302 16.0502C3.79521 11.2993 6.99953 7.23871 11.1108 4.38179C15.222 1.52487 20.0555 0 25 0C31.6304 0 37.9893 2.73928 42.6777 7.61522C47.3661 12.4912 50 19.1044 50 26ZM39.2857 24.1429H17.5893L27.5536 13.7299L25 11.1429L10.7143 26L25 40.8571L27.5536 38.207L17.5893 27.8571H39.2857V24.1429Z" fill="#A0A0A0"/>
</svg>
