<svg width="50" height="52" viewBox="0 0 50 52" fill="none" xmlns="http://www.w3.org/2000/svg">
<path d="M0 26C0 31.1423 1.46622 36.1691 4.21326 40.4448C6.96029 44.7205 10.8648 48.053 15.4329 50.0209C20.0011 51.9887 25.0277 52.5036 29.8773 51.5004C34.7268 50.4972 39.1813 48.0209 42.6777 44.3848C46.174 40.7486 48.555 36.1158 49.5196 31.0723C50.4842 26.0288 49.9892 20.8011 48.097 16.0502C46.2048 11.2993 43.0005 7.23871 38.8892 4.38179C34.778 1.52487 29.9445 0 25 0C18.3696 0 12.0107 2.73928 7.32233 7.61522C2.63392 12.4912 0 19.1044 0 26ZM10.7143 24.1429H32.4107L22.4464 13.7299L25 11.1429L39.2857 26L25 40.8571L22.4464 38.207L32.4107 27.8571H10.7143V24.1429Z" fill="#A0A0A0"/>
</svg>
