<svg width="97" height="79" viewBox="0 0 97 79" fill="none" xmlns="http://www.w3.org/2000/svg">
<circle cx="66.5" cy="46.5" r="30.5" fill="#7FB2F0"/>
<path d="M53.4286 41.8049C62.9929 33.1693 72 25.0868 72 18.1415C72 12.4561 67.5119 8 61.7857 8C58.5667 8 55.4405 9.50585 53.4286 11.8415C51.3857 9.50585 48.2905 8 45.0714 8C39.3452 8 34.8571 12.4561 34.8571 18.1415C34.8571 25.0868 43.8643 33.1693 53.4286 41.8049ZM45.0714 14.1463C46.4333 14.1463 47.8262 14.7917 48.7238 15.8366L53.4286 21.3376L58.1333 15.8366C59.031 14.7917 60.4238 14.1463 61.7857 14.1463C64.0762 14.1463 65.8095 15.8673 65.8095 18.1415C65.8095 21.5834 59.4952 27.8834 53.4286 33.4766C47.3619 27.8834 41.0476 21.5527 41.0476 18.1415C41.0476 15.8673 42.781 14.1463 45.0714 14.1463ZM62.7143 51.0244H56.5238C56.5238 47.3366 54.2024 44.0176 50.7357 42.7268L31.6691 35.6585H7V69.4634H25.5714V65.038L47.2381 71L72 63.3171V60.2439C72 55.1424 67.8524 51.0244 62.7143 51.0244ZM13.1905 63.3171V41.8049H19.381V63.3171H13.1905ZM47.1452 64.5771L25.5714 58.6459V41.8049H30.5548L48.569 48.4737C49.6214 48.8732 50.3333 49.8873 50.3333 51.0244C50.3333 51.0244 44.1738 50.8707 43.2143 50.5634L35.8476 48.1356L33.8976 53.9746L41.2643 56.4024C42.8429 56.9249 44.4833 57.2015 46.1548 57.2015H62.7143C63.9214 57.2015 65.0048 57.9083 65.5 58.9224L47.1452 64.5771Z" fill="#343839"/>
</svg>
