<svg width="20" height="20" viewBox="0 0 20 20" fill="none" xmlns="http://www.w3.org/2000/svg">
<g clip-path="url(#clip0_644_1051)">
<path d="M3.264 8.57899C3.20042 8.64379 3.12456 8.69526 3.04085 8.73039C2.95715 8.76553 2.86728 8.78363 2.7765 8.78363C2.68572 8.78363 2.59585 8.76553 2.51215 8.73039C2.42844 8.69526 2.35258 8.64379 2.289 8.57899C2.15959 8.44733 2.08707 8.2701 2.08707 8.08549C2.08707 7.90088 2.15959 7.72365 2.289 7.59199L8.32 1.49999C9.68 0.443991 11.048 -0.0630086 12.41 0.00599141C14.126 0.0939914 15.462 0.747991 16.596 1.82099C17.752 2.91499 18.5 4.47599 18.5 6.36799C18.5 7.81999 18.078 9.09799 17.187 10.232L8.684 18.992C7.824 19.697 6.868 20.038 5.844 19.997C4.544 19.943 3.577 19.523 2.858 18.812C2.016 17.981 1.5 16.96 1.5 15.587C1.5 14.495 1.877 13.487 2.655 12.541L10.139 4.89999C10.739 4.25999 11.326 3.87999 11.926 3.78799C12.3265 3.72492 12.7363 3.76074 13.1197 3.89233C13.5032 4.02392 13.8487 4.2473 14.126 4.54299C14.658 5.10599 14.886 5.80799 14.806 6.60699C14.751 7.15199 14.528 7.65399 14.118 8.13499L7.238 15.183C7.17483 15.248 7.09935 15.2998 7.01596 15.3354C6.93256 15.371 6.84292 15.3896 6.75226 15.3901C6.6616 15.3907 6.57173 15.3732 6.4879 15.3387C6.40408 15.3041 6.32796 15.2532 6.264 15.189C6.13378 15.0581 6.06019 14.8813 6.05906 14.6967C6.05794 14.5121 6.12938 14.3344 6.258 14.202L13.105 7.18999C13.305 6.95499 13.41 6.71799 13.435 6.46599C13.475 6.06599 13.379 5.77099 13.13 5.50799C13.0042 5.3733 12.8471 5.27177 12.6727 5.21245C12.4982 5.15314 12.3118 5.13786 12.13 5.16799C11.887 5.20499 11.547 5.42599 11.128 5.87199L3.675 13.479C3.138 14.134 2.878 14.829 2.878 15.588C2.878 16.542 3.223 17.225 3.82 17.814C4.295 18.284 4.94 18.564 5.9 18.604C6.58 18.631 7.21 18.406 7.758 17.962L16.155 9.31199C16.8 8.48499 17.122 7.51199 17.122 6.36899C17.122 4.88699 16.545 3.68499 15.654 2.84099C14.744 1.97899 13.704 1.47099 12.341 1.40099C11.333 1.34899 10.276 1.74099 9.224 2.54699L3.264 8.57899Z" fill="black"/>
</g>
<defs>
<clipPath id="clip0_644_1051">
<rect width="20" height="20" fill="white"/>
</clipPath>
</defs>
</svg>
