<svg width="34" height="34" viewBox="0 0 34 34" fill="none" xmlns="http://www.w3.org/2000/svg">
<path fill-rule="evenodd" clip-rule="evenodd" d="M4.90737 4.90725C2.83337 6.98409 2.83337 10.3218 2.83337 16.9999C2.83337 23.6781 2.83337 27.0172 4.90737 29.0912C6.98421 31.1666 10.3219 31.1666 17 31.1666C23.6782 31.1666 27.0173 31.1666 29.0913 29.0912C31.1667 27.0186 31.1667 23.6781 31.1667 16.9999C31.1667 10.3218 31.1667 6.98267 29.0913 4.90725C27.0187 2.83325 23.6782 2.83325 17 2.83325C10.3219 2.83325 6.98279 2.83325 4.90737 4.90725ZM19.4792 14.1666C19.4792 14.7531 19.9552 15.2291 20.5417 15.2291H21.5192L18.6675 18.0808C18.6346 18.1138 18.5955 18.14 18.5524 18.1578C18.5094 18.1757 18.4633 18.1849 18.4167 18.1849C18.3701 18.1849 18.324 18.1757 18.281 18.1578C18.2379 18.14 18.1989 18.1138 18.166 18.0808L15.9191 15.834C15.4542 15.3694 14.8239 15.1085 14.1667 15.1085C13.5095 15.1085 12.8792 15.3694 12.4143 15.834L9.16587 19.0824C9.06148 19.1797 8.97776 19.297 8.91968 19.4273C8.86161 19.5577 8.83039 19.6984 8.82787 19.841C8.82535 19.9837 8.8516 20.1254 8.90503 20.2577C8.95847 20.39 9.03801 20.5102 9.1389 20.6111C9.2398 20.712 9.35998 20.7915 9.49228 20.8449C9.62458 20.8984 9.76629 20.9246 9.90895 20.9221C10.0516 20.9196 10.1923 20.8883 10.3226 20.8303C10.453 20.7722 10.5703 20.6885 10.6675 20.5841L13.916 17.3357C13.9489 17.3027 13.9879 17.2765 14.031 17.2587C14.074 17.2408 14.1201 17.2316 14.1667 17.2316C14.2133 17.2316 14.2594 17.2408 14.3024 17.2587C14.3455 17.2765 14.3846 17.3027 14.4175 17.3357L16.6643 19.5825C17.1292 20.0471 17.7595 20.308 18.4167 20.308C19.0739 20.308 19.7042 20.0471 20.1691 19.5825L23.0209 16.7322V17.7083C23.0209 17.99 23.1328 18.2603 23.3321 18.4596C23.5313 18.6588 23.8016 18.7708 24.0834 18.7708C24.3652 18.7708 24.6354 18.6588 24.8347 18.4596C25.0339 18.2603 25.1459 17.99 25.1459 17.7083V14.1666C25.1459 13.8848 25.0339 13.6145 24.8347 13.4153C24.6354 13.216 24.3652 13.1041 24.0834 13.1041H20.5417C20.2599 13.1041 19.9897 13.216 19.7904 13.4153C19.5912 13.6145 19.4792 13.8848 19.4792 14.1666Z" fill="#343839"/>
</svg>
