<svg width="19" height="23" viewBox="0 0 19 23" fill="none" xmlns="http://www.w3.org/2000/svg">
<path d="M11.8747 11.4985V20.7271C11.9222 21.0785 11.8034 21.4532 11.5303 21.6992C11.4205 21.8077 11.29 21.8939 11.1464 21.9526C11.0028 22.0114 10.8488 22.0416 10.6933 22.0416C10.5378 22.0416 10.3838 22.0114 10.2402 21.9526C10.0965 21.8939 9.96604 21.8077 9.8562 21.6992L7.46966 19.3452C7.34016 19.2203 7.24169 19.0676 7.18196 18.899C7.12223 18.7303 7.10285 18.5504 7.12533 18.3731V11.4985H7.08971L0.250656 2.85556C0.057842 2.61141 -0.0291593 2.30191 0.00866227 1.99469C0.0464838 1.68747 0.206053 1.4075 0.452503 1.21596C0.678096 1.052 0.927437 0.958313 1.18865 0.958313H17.8113C18.0726 0.958313 18.3219 1.052 18.5475 1.21596C18.7939 1.4075 18.9535 1.68747 18.9913 1.99469C19.0292 2.30191 18.9422 2.61141 18.7493 2.85556L11.9103 11.4985H11.8747Z" fill="#4E4E4E"/>
</svg>
