<svg width="89" height="73" viewBox="0 0 89 73" fill="none" xmlns="http://www.w3.org/2000/svg">
<circle cx="58" cy="41.5" r="30.5" fill="#7FB2F0"/>
<path d="M43.2658 30.2342L37 27.375L43.2658 24.5159L46.125 18.25L48.9841 24.5159L55.25 27.375L48.9841 30.2342L46.125 36.5L43.2658 30.2342ZM12.6666 42.5834L15.5258 36.3175L21.7916 33.4584L15.5258 30.5992L12.6666 24.3334L9.80746 30.5992L3.54163 33.4584L9.80746 36.3175L12.6666 42.5834ZM26.3541 27.375L29.6695 20.0446L37 16.7292L29.6695 13.4138L26.3541 6.08337L23.0387 13.4138L15.7083 16.7292L23.0387 20.0446L26.3541 27.375ZM14.1875 62.3542L32.4375 44.0738L44.6041 56.2405L70.4583 27.1621L66.1695 22.8734L44.6041 47.1155L32.4375 34.9488L9.62496 57.7917L14.1875 62.3542Z" fill="#343839"/>
</svg>
