<svg width="29" height="30" viewBox="0 0 29 30" fill="none" xmlns="http://www.w3.org/2000/svg">
<path d="M13.2915 21.25H15.7082V13.75H13.2915V21.25ZM14.4998 11.25C14.8422 11.25 15.1294 11.13 15.3614 10.89C15.5934 10.65 15.709 10.3533 15.7082 10C15.7082 9.64583 15.5922 9.34875 15.3602 9.10875C15.1282 8.86875 14.8414 8.74917 14.4998 8.75C14.1575 8.75 13.8703 8.87 13.6383 9.11C13.4063 9.35 13.2907 9.64667 13.2915 10C13.2915 10.3542 13.4075 10.6513 13.6395 10.8913C13.8715 11.1313 14.1583 11.2508 14.4998 11.25ZM14.4998 27.5C12.8283 27.5 11.2575 27.1717 9.78734 26.515C8.3172 25.8583 7.03838 24.9679 5.95088 23.8438C4.86338 22.7188 4.00264 21.3958 3.36867 19.875C2.7347 18.3542 2.41731 16.7292 2.4165 15C2.4165 13.2708 2.73389 11.6458 3.36867 10.125C4.00345 8.60417 4.86418 7.28125 5.95088 6.15625C7.03838 5.03125 8.3172 4.14083 9.78734 3.485C11.2575 2.82917 12.8283 2.50083 14.4998 2.5C16.1714 2.5 17.7422 2.82833 19.2123 3.485C20.6825 4.14167 21.9613 5.03208 23.0488 6.15625C24.1363 7.28125 24.9974 8.60417 25.6322 10.125C26.267 11.6458 26.584 13.2708 26.5832 15C26.5832 16.7292 26.2658 18.3542 25.631 19.875C24.9962 21.3958 24.1355 22.7188 23.0488 23.8438C21.9613 24.9688 20.6825 25.8596 19.2123 26.5162C17.7422 27.1729 16.1714 27.5008 14.4998 27.5Z" fill="#A0A0A0"/>
</svg>
