<svg width="89" height="72" viewBox="0 0 89 72" fill="none" xmlns="http://www.w3.org/2000/svg">
<circle cx="58.5" cy="38.5" r="30.5" fill="#7FB2F0"/>
<path d="M36.66 59.55C36.12 60.09 35.16 60.18 34.53 59.55C34.249 59.2668 34.0913 58.884 34.0913 58.485C34.0913 58.086 34.249 57.7032 34.53 57.42L44.7 47.25L40.47 43.02L30.3 53.19C29.73 53.79 28.77 53.76 28.17 53.19C27.889 52.9068 27.7313 52.524 27.7313 52.125C27.7313 51.726 27.889 51.3432 28.17 51.06L38.34 40.89L34.11 36.66L23.94 46.83C23.4 47.37 22.44 47.46 21.81 46.83C21.5353 46.5435 21.382 46.1619 21.382 45.765C21.382 45.3681 21.5353 44.9865 21.81 44.7L31.98 34.53L27.72 30.3L17.55 40.47C17.01 41.01 16.05 41.1 15.42 40.47C15.1453 40.1835 14.992 39.8019 14.992 39.405C14.992 39.0081 15.1453 38.6265 15.42 38.34L28.56 25.2L34.17 30.78C37.02 33.63 41.94 33.6 44.79 30.78C47.73 27.84 47.73 23.1 44.79 20.16L39.21 14.58L40.05 13.74C42.39 11.4 46.2 11.4 48.54 13.74L61.26 26.46C63.6 28.8 63.6 32.61 61.26 34.95L36.66 59.55ZM65.49 39.21C67.7374 36.9561 68.9995 33.903 68.9995 30.72C68.9995 27.537 67.7374 24.4839 65.49 22.23L52.77 9.51C50.5161 7.26255 47.463 6.00049 44.28 6.00049C41.097 6.00049 38.0439 7.26255 35.79 9.51L34.95 10.35L34.11 9.51C31.8561 7.26255 28.803 6.00049 25.62 6.00049C22.437 6.00049 19.3839 7.26255 17.13 9.51L6.51 20.13C4.4805 22.1526 3.2434 24.8357 3.02322 27.6925C2.80305 30.5493 3.61439 33.3903 5.31 35.7L9.66 31.35C9.08008 30.2177 8.87507 28.9303 9.07459 27.6739C9.27411 26.4175 9.86783 25.257 10.77 24.36L21.39 13.74C23.73 11.4 27.54 11.4 29.88 13.74L40.56 24.42C41.1 24.96 41.19 25.92 40.56 26.55C39.93 27.18 38.97 27.09 38.43 26.55L28.56 16.71L11.16 34.08C8.22 36.99 8.22 41.76 11.16 44.7C12.33 45.87 13.83 46.59 15.42 46.8C15.6301 48.4132 16.3677 49.9116 17.5181 51.062C18.6684 52.2123 20.1668 52.9499 21.78 53.16C21.9901 54.7732 22.7277 56.2716 23.8781 57.422C25.0284 58.5723 26.5268 59.3099 28.14 59.52C28.35 61.14 29.07 62.61 30.24 63.78C31.65 65.19 33.54 65.97 35.55 65.97C37.56 65.97 39.45 65.19 40.86 63.78L65.49 39.21Z" fill="#343839"/>
</svg>
