<svg width="34" height="34" viewBox="0 0 34 34" fill="none" xmlns="http://www.w3.org/2000/svg">
<g clip-path="url(#clip0_1013_1360)">
<path d="M17 2.83325C18.2693 2.83325 19.499 3.00042 20.6692 3.3135L17.6573 6.32392C17.4288 6.55332 17.2273 6.80809 17.0567 7.08325H17C15.0387 7.08325 13.1214 7.66486 11.4906 8.75451C9.85981 9.84417 8.58876 11.3929 7.83819 13.205C7.08763 15.017 6.89124 17.0109 7.27388 18.9346C7.65652 20.8582 8.60099 22.6252 9.98786 24.0121C11.3747 25.3989 13.1417 26.3434 15.0654 26.726C16.989 27.1087 18.9829 26.9123 20.7949 26.1617C22.607 25.4112 24.1558 24.1401 25.2454 22.5093C26.3351 20.8785 26.9167 18.9613 26.9167 16.9999V16.9433C27.1887 16.7733 27.4437 16.5735 27.6746 16.3412L30.6864 13.3308C30.9995 14.5009 31.1667 15.7306 31.1667 16.9999C31.1667 24.8242 24.8243 31.1666 17 31.1666C9.17575 31.1666 2.83333 24.8242 2.83333 16.9999C2.83333 9.17567 9.17575 2.83325 17 2.83325ZM16.4135 9.94067C16.4135 11.1463 16.354 12.3688 16.4192 13.573L15.6542 14.338C15.391 14.6012 15.1823 14.9136 15.0399 15.2574C14.8974 15.6012 14.8241 15.9697 14.8241 16.3419C14.8241 16.714 14.8974 17.0825 15.0399 17.4264C15.1823 17.7702 15.391 18.0826 15.6542 18.3458C15.9173 18.6089 16.2297 18.8177 16.5736 18.9601C16.9174 19.1025 17.2859 19.1758 17.658 19.1758C18.0302 19.1758 18.3987 19.1025 18.7425 18.9601C19.0864 18.8177 19.3988 18.6089 19.6619 18.3458L20.4269 17.5808C21.6311 17.6459 22.8523 17.5864 24.0593 17.5864C23.9473 18.9327 23.4528 20.219 22.6338 21.2934C21.8149 22.3679 20.7058 23.1857 19.4373 23.6506C18.1688 24.1154 16.7939 24.2077 15.4746 23.9167C14.1554 23.6258 12.9469 22.9636 11.9916 22.0083C11.0363 21.0531 10.3741 19.8445 10.0832 18.5253C9.7922 17.206 9.88457 15.8311 10.3494 14.5626C10.8142 13.2941 11.632 12.185 12.7065 11.3661C13.7809 10.5472 15.0672 10.0526 16.4135 9.94067ZM26.214 3.01317C26.4726 3.12038 26.6936 3.3018 26.8492 3.53452C27.0047 3.76723 27.0879 4.04083 27.0881 4.32075V6.91325H29.6792C29.9593 6.91331 30.2332 6.99643 30.4661 7.1521C30.699 7.30777 30.8805 7.529 30.9877 7.78783C31.0949 8.04665 31.123 8.33145 31.0683 8.60622C31.0137 8.88098 30.8788 9.13338 30.6808 9.3315L25.67 14.3366C25.4044 14.6023 25.0441 14.7516 24.6684 14.7517H21.25L18.6589 17.3428C18.3931 17.6084 18.0326 17.7575 17.6568 17.7574C17.281 17.7573 16.9207 17.6079 16.655 17.342C16.3894 17.0762 16.2402 16.7158 16.2404 16.34C16.2405 15.9642 16.3899 15.6038 16.6558 15.3382L19.2468 12.7499V9.33009C19.2467 9.14382 19.2833 8.95936 19.3545 8.78725C19.4257 8.61515 19.5302 8.45877 19.6619 8.32709L24.6698 3.31917C24.868 3.12093 25.1204 2.98591 25.3953 2.93119C25.6702 2.87647 25.9551 2.9045 26.214 3.01175V3.01317Z" fill="#4E4E4E"/>
</g>
<defs>
<clipPath id="clip0_1013_1360">
<rect width="34" height="34" fill="white"/>
</clipPath>
</defs>
</svg>
