<svg width="93" height="72" viewBox="0 0 93 72" fill="none" xmlns="http://www.w3.org/2000/svg">
<circle cx="62.5" cy="38.5" r="30.5" fill="#7FB2F0"/>
<path d="M36 20C41.5162 19.9817 46.9256 21.5204 51.6064 24.4392C56.2871 27.358 60.0491 31.5385 62.46 36.5C57.51 46.61 47.4 53 36 53C24.6 53 14.49 46.61 9.54 36.5C11.9509 31.5385 15.7129 27.358 20.3936 24.4392C25.0744 21.5204 30.4838 19.9817 36 20ZM36 14C21 14 8.19 23.33 3 36.5C8.19 49.67 21 59 36 59C51 59 63.81 49.67 69 36.5C63.81 23.33 51 14 36 14ZM36 29C37.9891 29 39.8968 29.7902 41.3033 31.1967C42.7098 32.6032 43.5 34.5109 43.5 36.5C43.5 38.4891 42.7098 40.3968 41.3033 41.8033C39.8968 43.2098 37.9891 44 36 44C34.0109 44 32.1032 43.2098 30.6967 41.8033C29.2902 40.3968 28.5 38.4891 28.5 36.5C28.5 34.5109 29.2902 32.6032 30.6967 31.1967C32.1032 29.7902 34.0109 29 36 29ZM36 23C28.56 23 22.5 29.06 22.5 36.5C22.5 43.94 28.56 50 36 50C43.44 50 49.5 43.94 49.5 36.5C49.5 29.06 43.44 23 36 23Z" fill="#343839"/>
</svg>
