<svg width="22" height="22" viewBox="0 0 22 22" fill="none" xmlns="http://www.w3.org/2000/svg">
<g clip-path="url(#clip0_247_176)">
<path d="M11 0C4.92486 0 0 4.92486 0 11C0 17.0751 4.92486 22 11 22C15.0775 22 18.6338 19.7798 20.5337 16.4839L16.6611 14.2562C15.5323 16.2141 13.4223 17.5353 11 17.5353C7.39066 17.5353 4.46472 14.6093 4.46472 11C4.46472 7.39066 7.39066 4.46472 11 4.46472C12.5471 4.46472 13.9651 5.00593 15.0834 5.90551L12.1951 7.95997L22 11.2296V0.982905L18.8069 3.25488C16.8139 1.24579 14.0535 0 11 0Z" fill="#16193B"/>
</g>
<defs>
<clipPath id="clip0_247_176">
<rect width="22" height="22" fill="white"/>
</clipPath>
</defs>
</svg>
