<svg width="18" height="20" viewBox="0 0 18 20" fill="none" xmlns="http://www.w3.org/2000/svg">
<path d="M2.57143 1C1.15313 1 0 2.15313 0 3.57143V16.4286C0 17.8469 1.15313 19 2.57143 19H15.4286C16.8469 19 18 17.8469 18 16.4286V3.57143C18 2.15313 16.8469 1 15.4286 1H2.57143ZM14.5085 4.375L10.3379 9.14018L15.2437 15.625H11.4027L8.39732 11.6915L4.95402 15.625H3.04554L7.50536 10.5263L2.80045 4.375H6.73795L9.45804 7.97098L12.6 4.375H14.5085ZM12.9897 14.4839L6.16339 5.4558H5.02634L11.929 14.4839H12.9857H12.9897Z" fill="#16193B"/>
</svg>
