<svg width="23" height="15" viewBox="0 0 23 15" fill="none" xmlns="http://www.w3.org/2000/svg">
<path d="M11.5 4.5C10.6682 4.5 9.87044 4.81607 9.28226 5.37868C8.69407 5.94129 8.36364 6.70435 8.36364 7.5C8.36364 8.29565 8.69407 9.05871 9.28226 9.62132C9.87044 10.1839 10.6682 10.5 11.5 10.5C12.3318 10.5 13.1296 10.1839 13.7177 9.62132C14.3059 9.05871 14.6364 8.29565 14.6364 7.5C14.6364 6.70435 14.3059 5.94129 13.7177 5.37868C13.1296 4.81607 12.3318 4.5 11.5 4.5ZM11.5 12.5C10.1136 12.5 8.78406 11.9732 7.80376 11.0355C6.82346 10.0979 6.27273 8.82608 6.27273 7.5C6.27273 6.17392 6.82346 4.90215 7.80376 3.96447C8.78406 3.02678 10.1136 2.5 11.5 2.5C12.8864 2.5 14.2159 3.02678 15.1962 3.96447C16.1765 4.90215 16.7273 6.17392 16.7273 7.5C16.7273 8.82608 16.1765 10.0979 15.1962 11.0355C14.2159 11.9732 12.8864 12.5 11.5 12.5ZM11.5 0C6.27273 0 1.80864 3.11 0 7.5C1.80864 11.89 6.27273 15 11.5 15C16.7273 15 21.1914 11.89 23 7.5C21.1914 3.11 16.7273 0 11.5 0Z" fill="#16193B"/>
</svg>
