<svg width="88" height="88" viewBox="0 0 88 88" fill="none" xmlns="http://www.w3.org/2000/svg">
<path d="M44.1734 3.26709C38.9675 3.26709 33.8124 4.24148 29.0027 6.13431C24.1931 8.02735 19.8231 10.8018 16.1418 14.2995C12.4606 17.7973 9.54068 21.9496 7.54836 26.5195C5.55626 31.0895 4.53076 35.9878 4.53076 40.9342C4.53076 45.8807 5.55626 50.7789 7.54836 55.3489C9.54068 59.9189 12.4606 64.0711 16.1418 67.569C19.8231 71.0666 24.1931 73.8411 29.0027 75.7341C33.8124 77.6269 38.9675 78.6013 44.1734 78.6013V59.7678C41.5704 59.7678 38.9929 59.2807 36.5881 58.3341C34.1832 57.3876 31.9981 56.0004 30.1576 54.2516C28.317 52.5028 26.857 50.4265 25.861 48.1415C24.8647 45.8565 24.3521 43.4075 24.3521 40.9342C24.3521 38.4609 24.8647 36.0119 25.861 33.7269C26.857 31.4419 28.317 29.3657 30.1576 27.6168C31.9981 25.868 34.1832 24.4808 36.5881 23.5344C38.9929 22.5877 41.5704 22.1007 44.1734 22.1007V3.26709Z" fill="#ADD5F7"/>
<path d="M44.1734 53.4902C51.4715 53.4902 57.3875 47.869 57.3875 40.9345C57.3875 34.0001 51.4715 28.3789 44.1734 28.3789C36.8753 28.3789 30.9592 34.0001 30.9592 40.9345C30.9592 47.869 36.8753 53.4902 44.1734 53.4902Z" fill="#ADD5F7"/>
<path d="M4.53076 40.9341C4.53076 45.8805 5.55626 50.7788 7.54836 55.3488C9.54068 59.9187 12.4606 64.0709 16.1418 67.5688C19.8231 71.0665 24.1931 73.8409 29.0027 75.734C33.8124 77.6268 38.9675 78.6012 44.1734 78.6012C49.3793 78.6012 54.5344 77.6268 59.3441 75.734C64.1537 73.8409 68.5237 71.0665 72.205 67.5688C75.8861 64.0709 78.8061 59.9187 80.7984 55.3488C82.7905 50.7788 83.816 45.8805 83.816 40.9341H63.9947C63.9947 43.4074 63.4821 45.8564 62.4858 48.1414C61.4898 50.4264 60.0298 52.5026 58.1892 54.2515C56.3487 56.0003 54.1636 57.3875 51.7587 58.3339C49.3539 59.2806 46.7764 59.7676 44.1734 59.7676C41.5704 59.7676 38.9929 59.2806 36.5881 58.3339C34.1832 57.3875 31.9981 56.0003 30.1576 54.2515C28.317 52.5026 26.857 50.4264 25.861 48.1414C24.8647 45.8564 24.3521 43.4074 24.3521 40.9341H4.53076Z" fill="#7FB2F0"/>
<path d="M57.3875 40.9343C57.3875 37.6043 55.9952 34.4108 53.5172 32.056C51.039 29.7013 47.678 28.3784 44.1733 28.3784C40.6687 28.3784 37.3077 29.7013 34.8295 32.056C32.3512 34.4108 30.959 37.6043 30.959 40.9343H44.1733H57.3875Z" fill="#7FB2F0"/>
</svg>
