<svg width="123" height="134" viewBox="0 0 123 134" fill="none" xmlns="http://www.w3.org/2000/svg">
<g clip-path="url(#clip0_342_264)">
<path d="M61.1734 0.267212C55.9675 0.267212 50.8124 1.24161 46.0027 3.13443C41.1931 5.02747 36.8231 7.80193 33.1418 11.2996C29.4606 14.7975 26.5407 18.9497 24.5484 23.5197C22.5563 28.0897 21.5308 32.9879 21.5308 37.9343C21.5308 42.8808 22.5563 47.779 24.5484 52.349C26.5407 56.919 29.4606 61.0712 33.1418 64.5691C36.8231 68.0667 41.1931 70.8412 46.0027 72.7342C50.8124 74.6271 55.9675 75.6015 61.1734 75.6015V56.7679C58.5704 56.7679 55.9929 56.2808 53.5881 55.3342C51.1832 54.3878 48.9981 53.0005 47.1576 51.2517C45.317 49.5029 43.857 47.4267 42.861 45.1417C41.8647 42.8567 41.3521 40.4077 41.3521 37.9343C41.3521 35.461 41.8647 33.012 42.861 30.727C43.857 28.442 45.317 26.3658 47.1576 24.617C48.9981 22.8681 51.1832 21.4809 53.5881 20.5345C55.9929 19.5879 58.5704 19.1008 61.1734 19.1008V0.267212Z" fill="#ADD5F7"/>
<path d="M61.1734 50.4899C68.4715 50.4899 74.3875 44.8687 74.3875 37.9343C74.3875 30.9999 68.4715 25.3787 61.1734 25.3787C53.8753 25.3787 47.9592 30.9999 47.9592 37.9343C47.9592 44.8687 53.8753 50.4899 61.1734 50.4899Z" fill="#ADD5F7"/>
<path d="M21.5308 37.9343C21.5308 42.8808 22.5563 47.779 24.5484 52.349C26.5407 56.919 29.4606 61.0712 33.1418 64.5691C36.8231 68.0667 41.1931 70.8412 46.0027 72.7342C50.8124 74.6271 55.9675 75.6014 61.1734 75.6014C66.3793 75.6014 71.5344 74.6271 76.3441 72.7342C81.1537 70.8412 85.5237 68.0667 89.205 64.5691C92.8861 61.0712 95.8061 56.919 97.7984 52.349C99.7905 47.779 100.816 42.8808 100.816 37.9343H80.9947C80.9947 40.4077 80.4821 42.8567 79.4858 45.1417C78.4898 47.4267 77.0298 49.5029 75.1892 51.2517C73.3487 53.0005 71.1636 54.3878 68.7587 55.3342C66.3539 56.2808 63.7764 56.7679 61.1734 56.7679C58.5704 56.7679 55.9929 56.2808 53.5881 55.3342C51.1832 54.3878 48.9981 53.0005 47.1576 51.2517C45.317 49.5029 43.857 47.4267 42.861 45.1417C41.8647 42.8567 41.3521 40.4077 41.3521 37.9343H21.5308Z" fill="#7FB2F0"/>
<path d="M74.3875 37.9343C74.3875 34.6043 72.9952 31.4108 70.5172 29.056C68.039 26.7013 64.678 25.3784 61.1733 25.3784C57.6687 25.3784 54.3077 26.7013 51.8295 29.056C49.3512 31.4108 47.959 34.6043 47.959 37.9343H61.1733H74.3875Z" fill="#7FB2F0"/>
</g>
<path d="M21.147 112.82H16.4808C16.3956 112.217 16.2216 111.68 15.9588 111.212C15.696 110.736 15.3587 110.331 14.9467 109.997C14.5348 109.663 14.0589 109.408 13.5192 109.23C12.9865 109.053 12.4077 108.964 11.7827 108.964C10.6534 108.964 9.66974 109.244 8.83168 109.805C7.99361 110.359 7.34375 111.169 6.8821 112.234C6.42045 113.293 6.18963 114.578 6.18963 116.091C6.18963 117.646 6.42045 118.953 6.8821 120.011C7.35085 121.07 8.00426 121.869 8.84233 122.408C9.6804 122.948 10.6499 123.218 11.7507 123.218C12.3686 123.218 12.9403 123.136 13.4659 122.973C13.9986 122.81 14.4709 122.572 14.8828 122.259C15.2947 121.94 15.6357 121.553 15.9055 121.098C16.1825 120.643 16.3743 120.125 16.4808 119.543L21.147 119.564C21.0263 120.565 20.7244 121.531 20.2415 122.462C19.7656 123.385 19.1229 124.212 18.3132 124.944C17.5107 125.668 16.5518 126.244 15.4368 126.67C14.3288 127.089 13.0753 127.298 11.6761 127.298C9.73011 127.298 7.99006 126.858 6.45597 125.977C4.92898 125.097 3.72159 123.822 2.83381 122.153C1.95312 120.484 1.51278 118.463 1.51278 116.091C1.51278 113.712 1.96023 111.688 2.85511 110.018C3.75 108.349 4.96449 107.078 6.49858 106.205C8.03267 105.324 9.75852 104.884 11.6761 104.884C12.9403 104.884 14.1122 105.061 15.1918 105.416C16.2784 105.771 17.2408 106.29 18.0788 106.972C18.9169 107.646 19.5987 108.474 20.1243 109.454C20.657 110.434 20.9979 111.556 21.147 112.82ZM31.7631 127.32C30.1083 127.32 28.6772 126.968 27.4698 126.265C26.2695 125.555 25.3427 124.567 24.6893 123.303C24.0359 122.032 23.7092 120.558 23.7092 118.882C23.7092 117.192 24.0359 115.714 24.6893 114.45C25.3427 113.179 26.2695 112.192 27.4698 111.489C28.6772 110.778 30.1083 110.423 31.7631 110.423C33.418 110.423 34.8455 110.778 36.0458 111.489C37.2532 112.192 38.1836 113.179 38.837 114.45C39.4904 115.714 39.8171 117.192 39.8171 118.882C39.8171 120.558 39.4904 122.032 38.837 123.303C38.1836 124.567 37.2532 125.555 36.0458 126.265C34.8455 126.968 33.418 127.32 31.7631 127.32ZM31.7844 123.804C32.5373 123.804 33.1658 123.591 33.6701 123.165C34.1744 122.732 34.5543 122.142 34.81 121.396C35.0728 120.651 35.2042 119.802 35.2042 118.85C35.2042 117.898 35.0728 117.05 34.81 116.304C34.5543 115.558 34.1744 114.969 33.6701 114.536C33.1658 114.102 32.5373 113.886 31.7844 113.886C31.0245 113.886 30.3853 114.102 29.8668 114.536C29.3555 114.969 28.9684 115.558 28.7056 116.304C28.4499 117.05 28.3221 117.898 28.3221 118.85C28.3221 119.802 28.4499 120.651 28.7056 121.396C28.9684 122.142 29.3555 122.732 29.8668 123.165C30.3853 123.591 31.0245 123.804 31.7844 123.804ZM47.3065 105.182V127H42.7681V105.182H47.3065ZM55.4803 105.182V127H50.9419V105.182H55.4803ZM66.5732 127.32C64.8899 127.32 63.4411 126.979 62.2266 126.297C61.0192 125.608 60.0888 124.635 59.4354 123.378C58.782 122.114 58.4553 120.619 58.4553 118.893C58.4553 117.21 58.782 115.732 59.4354 114.461C60.0888 113.19 61.0085 112.199 62.1946 111.489C63.3878 110.778 64.7869 110.423 66.392 110.423C67.4716 110.423 68.4766 110.597 69.407 110.945C70.3445 111.286 71.1612 111.801 71.8572 112.49C72.5604 113.179 73.1072 114.045 73.4979 115.089C73.8885 116.126 74.0838 117.341 74.0838 118.733V119.979H60.2663V117.167H69.8118C69.8118 116.513 69.6697 115.935 69.3857 115.43C69.1016 114.926 68.7074 114.532 68.2031 114.248C67.706 113.957 67.1271 113.811 66.4666 113.811C65.7777 113.811 65.1669 113.971 64.6342 114.29C64.1087 114.603 63.6967 115.026 63.3984 115.558C63.1001 116.084 62.9474 116.67 62.9403 117.316V119.99C62.9403 120.8 63.0895 121.499 63.3878 122.089C63.6932 122.678 64.1229 123.133 64.6768 123.452C65.2308 123.772 65.8878 123.932 66.6477 123.932C67.152 123.932 67.6136 123.861 68.0327 123.719C68.4517 123.577 68.8104 123.364 69.1087 123.08C69.407 122.795 69.6342 122.447 69.7905 122.036L73.9879 122.312C73.7749 123.321 73.3381 124.202 72.6776 124.955C72.0241 125.7 71.179 126.283 70.142 126.702C69.1122 127.114 67.9226 127.32 66.5732 127.32ZM84.4389 127.32C82.7628 127.32 81.321 126.964 80.1136 126.254C78.9134 125.537 77.9901 124.543 77.3438 123.271C76.7045 122 76.3849 120.537 76.3849 118.882C76.3849 117.206 76.7081 115.736 77.3544 114.472C78.0078 113.2 78.9347 112.21 80.1349 111.499C81.3352 110.782 82.7628 110.423 84.4176 110.423C85.8452 110.423 87.0952 110.683 88.1676 111.201C89.2401 111.719 90.0888 112.447 90.7138 113.385C91.3388 114.322 91.6832 115.423 91.7472 116.688H87.4645C87.3438 115.871 87.0241 115.214 86.5057 114.717C85.9943 114.212 85.3232 113.96 84.4922 113.96C83.7891 113.96 83.1747 114.152 82.6491 114.536C82.1307 114.912 81.7259 115.462 81.4347 116.187C81.1435 116.911 80.9979 117.788 80.9979 118.818C80.9979 119.862 81.1399 120.75 81.424 121.482C81.7152 122.213 82.1236 122.771 82.6491 123.154C83.1747 123.538 83.7891 123.729 84.4922 123.729C85.0107 123.729 85.4759 123.623 85.8878 123.41C86.3068 123.197 86.6513 122.888 86.9212 122.483C87.1982 122.071 87.3793 121.577 87.4645 121.002H91.7472C91.6761 122.252 91.3352 123.353 90.7244 124.305C90.1207 125.249 89.2862 125.988 88.2209 126.521C87.1555 127.053 85.8949 127.32 84.4389 127.32ZM103.357 110.636V114.045H93.5023V110.636H103.357ZM95.7395 106.716H100.278V121.972C100.278 122.391 100.342 122.717 100.47 122.952C100.597 123.179 100.775 123.339 101.002 123.431C101.237 123.523 101.507 123.57 101.812 123.57C102.025 123.57 102.238 123.552 102.451 123.516C102.664 123.474 102.828 123.442 102.941 123.42L103.655 126.798C103.428 126.869 103.108 126.95 102.696 127.043C102.284 127.142 101.784 127.202 101.194 127.224C100.1 127.266 99.1415 127.121 98.3176 126.787C97.5009 126.453 96.8652 125.935 96.4107 125.232C95.9561 124.528 95.7324 123.641 95.7395 122.568V106.716ZM110.979 127.309C109.935 127.309 109.005 127.128 108.188 126.766C107.371 126.396 106.725 125.853 106.249 125.136C105.78 124.411 105.546 123.509 105.546 122.43C105.546 121.521 105.713 120.757 106.047 120.139C106.381 119.521 106.835 119.024 107.41 118.648C107.986 118.271 108.639 117.987 109.371 117.795C110.109 117.604 110.883 117.469 111.693 117.391C112.645 117.291 113.412 117.199 113.994 117.114C114.577 117.021 114.999 116.886 115.262 116.709C115.525 116.531 115.656 116.268 115.656 115.92V115.857C115.656 115.182 115.443 114.66 115.017 114.29C114.598 113.921 114.001 113.737 113.227 113.737C112.41 113.737 111.76 113.918 111.278 114.28C110.795 114.635 110.475 115.082 110.319 115.622L106.121 115.281C106.334 114.287 106.753 113.428 107.378 112.703C108.003 111.972 108.809 111.411 109.797 111.02C110.791 110.622 111.942 110.423 113.248 110.423C114.157 110.423 115.028 110.53 115.858 110.743C116.697 110.956 117.439 111.286 118.085 111.734C118.738 112.181 119.253 112.756 119.63 113.46C120.006 114.156 120.194 114.99 120.194 115.963V127H115.89V124.731H115.763C115.5 125.242 115.148 125.693 114.708 126.084C114.268 126.467 113.738 126.769 113.121 126.989C112.503 127.202 111.789 127.309 110.979 127.309ZM112.279 124.177C112.947 124.177 113.536 124.045 114.047 123.783C114.559 123.513 114.96 123.151 115.251 122.696C115.542 122.241 115.688 121.727 115.688 121.151V119.415C115.546 119.507 115.351 119.592 115.102 119.67C114.861 119.741 114.587 119.809 114.282 119.873C113.976 119.93 113.671 119.983 113.366 120.033C113.06 120.075 112.783 120.114 112.535 120.15C112.002 120.228 111.537 120.352 111.139 120.523C110.741 120.693 110.432 120.924 110.212 121.215C109.992 121.499 109.882 121.854 109.882 122.281C109.882 122.898 110.106 123.371 110.553 123.697C111.008 124.017 111.583 124.177 112.279 124.177Z" fill="#F1F1F1"/>
<defs>
<clipPath id="clip0_342_264">
<rect width="79" height="76" fill="white" transform="translate(22)"/>
</clipPath>
</defs>
</svg>
