<svg width="272" height="332" viewBox="0 0 272 332" fill="none" xmlns="http://www.w3.org/2000/svg">
<path d="M117.99 124.63V152.63H110.08V124.63C110.08 113.99 102 105.34 92.08 105.34C82.16 105.34 74.08 113.99 74.08 124.63V152.63H66.17V124.63C66.17 109.39 77.8001 97 92.1001 97C106.4 97 117.99 109.39 117.99 124.63Z" fill="#C7C7C7"/>
<path d="M66.13 131.9L74.04 132.22V152.61H66.13V131.9Z" fill="#A6A6A6"/>
<path d="M117.99 134.01V152.61H110.08V133.69L117.99 134.01Z" fill="#A6A6A6"/>
<path d="M128.12 136.68H56V202.11H128.12V136.68Z" fill="#7FB2F0"/>
<path opacity="0.1" d="M128.12 136.68H92.0601V202.11H128.12V136.68Z" fill="black"/>
<path d="M95.11 171.79L98.11 186.11H85.32L88.32 171.79C87.137 171.054 86.2259 169.953 85.7245 168.653C85.2232 167.354 85.1589 165.926 85.5415 164.586C85.924 163.247 86.7325 162.068 87.8446 161.229C88.9568 160.39 90.3119 159.937 91.705 159.937C93.0981 159.937 94.4533 160.39 95.5654 161.229C96.6776 162.068 97.4861 163.247 97.8686 164.586C98.2512 165.926 98.1869 167.354 97.6856 168.653C97.1842 169.953 96.273 171.054 95.09 171.79H95.11Z" fill="#263238"/>
<path d="M100.39 311.187C100.392 312.447 100.02 313.679 99.3219 314.727C98.6236 315.776 97.63 316.594 96.4668 317.078C95.3036 317.562 94.023 317.69 92.787 317.446C91.551 317.202 90.415 316.597 89.5227 315.708C88.6305 314.819 88.022 313.684 87.7743 312.449C87.5265 311.214 87.6507 309.933 88.131 308.768C88.6113 307.604 89.4262 306.607 90.4726 305.906C91.519 305.204 92.75 304.829 94.0099 304.827C94.8464 304.825 95.675 304.989 96.4483 305.308C97.2217 305.627 97.9247 306.095 98.5171 306.685C99.1095 307.276 99.5799 307.977 99.9012 308.75C100.223 309.522 100.389 310.35 100.39 311.187Z" fill="#0047C5"/>
<path d="M118.17 298.426C118.172 299.687 117.8 300.919 117.101 301.968C116.403 303.017 115.408 303.835 114.245 304.319C113.081 304.802 111.8 304.93 110.563 304.685C109.327 304.441 108.191 303.835 107.299 302.944C106.407 302.054 105.8 300.919 105.553 299.683C105.306 298.447 105.432 297.166 105.914 296.001C106.396 294.836 107.212 293.841 108.26 293.141C109.308 292.44 110.54 292.066 111.8 292.066C112.636 292.065 113.464 292.229 114.237 292.548C115.01 292.867 115.712 293.335 116.304 293.926C116.895 294.516 117.365 295.218 117.685 295.99C118.005 296.763 118.17 297.59 118.17 298.426Z" fill="#0047C5"/>
<path d="M118.25 325.417C118.147 326.653 117.686 327.833 116.924 328.812C116.162 329.791 115.131 330.527 113.958 330.93C112.785 331.333 111.519 331.386 110.316 331.082C109.113 330.778 108.025 330.13 107.184 329.218C106.343 328.306 105.786 327.168 105.58 325.945C105.375 324.721 105.53 323.464 106.027 322.327C106.524 321.191 107.341 320.223 108.378 319.543C109.416 318.862 110.629 318.499 111.87 318.497C113.632 318.572 115.293 319.342 116.489 320.639C117.684 321.936 118.318 323.654 118.25 325.417Z" fill="#0047C5"/>
<path d="M110 324.607C109.73 325.007 105.5 322.607 100.54 319.237C95.5799 315.867 91.7999 312.817 92.0699 312.417C92.3399 312.017 96.5799 314.417 101.53 317.787C106.48 321.157 110.28 324.207 110 324.607Z" fill="#0047C5"/>
<path d="M110.51 298.027C110.81 298.407 107.51 301.437 103.21 304.797C98.91 308.157 95.13 310.557 94.83 310.177C94.53 309.797 97.83 306.767 102.13 303.407C106.43 300.047 110.22 297.607 110.51 298.027Z" fill="#0047C5"/>
<path d="M228.77 216.836L212.38 210.836L196.17 216.746C194.1 217.746 192.28 218.356 192.28 220.336V230.196C192.248 237.101 194.097 243.884 197.63 249.816C201.109 255.748 206.323 260.471 212.57 263.346C219.2 261.136 224.15 255.246 227.18 250.206C230.714 244.271 232.564 237.484 232.53 230.576V221.716C232.613 220.583 232.276 219.459 231.582 218.558C230.888 217.658 229.887 217.045 228.77 216.836Z" fill="#EBEBEB"/>
<path d="M228.77 216.836C229.115 216.916 229.45 217.033 229.77 217.186C230.77 217.585 231.586 218.34 232.06 219.306C232.384 220.012 232.551 220.78 232.55 221.556C232.55 222.396 232.55 223.306 232.55 224.296C232.55 226.296 232.55 228.516 232.55 231.016C232.527 237 231.099 242.895 228.38 248.226C226.75 251.422 224.695 254.382 222.27 257.026C219.624 259.952 216.305 262.19 212.6 263.546H212.53H212.45C207.068 261.083 202.437 257.235 199.03 252.396C194.994 246.699 192.619 239.993 192.17 233.026C192.05 231.386 192.07 229.766 192.07 228.176V223.526C192.07 222.756 192.07 221.996 192.07 221.246C192.07 220.866 192.07 220.506 192.07 220.116C192.097 219.716 192.213 219.326 192.41 218.976C192.849 218.337 193.459 217.835 194.17 217.526C194.81 217.176 195.47 216.896 196.1 216.596L212.35 210.676H212.44L224.49 215.176L227.69 216.396L228.51 216.716L228.79 216.846L228.5 216.756L227.67 216.466L224.44 215.316L212.35 210.926H212.44L196.23 216.926C195.6 217.236 194.94 217.526 194.32 217.866C193.685 218.153 193.141 218.61 192.75 219.186C192.463 219.84 192.359 220.559 192.45 221.266V223.546C192.45 225.076 192.45 226.636 192.45 228.216C192.45 229.796 192.45 231.416 192.56 233.036C193.025 239.915 195.381 246.532 199.37 252.156C202.742 256.925 207.312 260.719 212.62 263.156H212.47C216.117 261.82 219.387 259.621 222 256.746C224.44 254.131 226.516 251.198 228.17 248.026C230.866 242.761 232.3 236.941 232.36 231.026C232.36 228.526 232.36 226.276 232.36 224.306C232.36 222.336 232.55 220.606 231.92 219.376C231.472 218.427 230.693 217.673 229.73 217.256C229.41 217.106 229.16 217.006 228.99 216.946L228.77 216.836Z" fill="#263238"/>
<path d="M223.82 243.286H220.38V224.546C220.38 222.425 219.537 220.39 218.037 218.89C216.537 217.389 214.502 216.546 212.38 216.546C210.258 216.546 208.223 217.389 206.723 218.89C205.223 220.39 204.38 222.425 204.38 224.546V243.286H200.94V224.546C200.94 221.512 202.145 218.603 204.291 216.457C206.436 214.312 209.346 213.106 212.38 213.106C215.414 213.106 218.324 214.312 220.469 216.457C222.615 218.603 223.82 221.512 223.82 224.546V243.286Z" fill="#455A64"/>
<g opacity="0.4">
<path d="M223.82 243.286H220.38V224.546C220.38 222.425 219.537 220.39 218.037 218.89C216.537 217.389 214.502 216.546 212.38 216.546C210.258 216.546 208.223 217.389 206.723 218.89C205.223 220.39 204.38 222.425 204.38 224.546V243.286H200.94V224.546C200.94 221.512 202.145 218.603 204.291 216.457C206.436 214.312 209.346 213.106 212.38 213.106C215.414 213.106 218.324 214.312 220.469 216.457C222.615 218.603 223.82 221.512 223.82 224.546V243.286Z" fill="black"/>
</g>
<path d="M224.4 234.946H200.35C198.478 234.946 196.96 236.464 196.96 238.336V251.336C196.96 253.209 198.478 254.726 200.35 254.726H224.4C226.272 254.726 227.79 253.209 227.79 251.336V238.336C227.79 236.464 226.272 234.946 224.4 234.946Z" fill="#0047C5"/>
<g opacity="0.5">
<path d="M214.95 242.266C214.954 241.785 214.824 241.312 214.574 240.902C214.324 240.491 213.964 240.158 213.534 239.941C213.105 239.724 212.623 239.631 212.144 239.673C211.665 239.715 211.207 239.89 210.822 240.179C210.437 240.468 210.141 240.858 209.966 241.307C209.791 241.755 209.746 242.243 209.834 242.716C209.922 243.189 210.141 243.628 210.465 243.983C210.79 244.338 211.207 244.596 211.67 244.726V248.586H213.08V244.726C213.617 244.576 214.09 244.254 214.428 243.81C214.766 243.366 214.949 242.824 214.95 242.266Z" fill="black"/>
</g>
<path d="M198.6 252.856C198.53 252.856 198.48 249.556 198.48 245.486C198.48 241.416 198.53 238.116 198.6 238.116C198.67 238.116 198.73 241.416 198.73 245.486C198.73 249.556 198.67 252.856 198.6 252.856Z" fill="#FAFAFA"/>
<path d="M210.36 245.566C210.249 245.532 210.147 245.474 210.06 245.396C209.8 245.209 209.574 244.979 209.39 244.716C209.07 244.291 208.848 243.801 208.74 243.28C208.631 242.759 208.639 242.221 208.762 241.703C208.885 241.186 209.121 240.702 209.452 240.286C209.784 239.87 210.203 239.532 210.68 239.296C210.961 239.152 211.26 239.048 211.57 238.986C211.79 238.986 211.92 238.986 211.92 238.986C211.519 239.109 211.13 239.27 210.76 239.466C210.324 239.709 209.943 240.04 209.642 240.438C209.341 240.836 209.127 241.292 209.012 241.777C208.897 242.263 208.885 242.767 208.976 243.257C209.067 243.748 209.259 244.214 209.54 244.626C209.786 244.963 210.06 245.277 210.36 245.566Z" fill="#FAFAFA"/>
<path d="M256.84 137.967C257.481 137.58 258.17 137.281 258.89 137.077L259.31 135.077L262.73 135.017L263.22 137.017C263.947 137.196 264.646 137.472 265.3 137.837L267.03 136.707L269.49 139.077L268.42 140.847C268.802 141.472 269.101 142.144 269.31 142.847L271.31 143.267L271.37 146.687L269.37 147.177C269.19 147.903 268.914 148.603 268.55 149.257L269.68 150.987L267.31 153.447L265.54 152.377C264.899 152.763 264.21 153.062 263.49 153.267L263.07 155.267L259.65 155.327L259.16 153.327C258.433 153.147 257.734 152.871 257.08 152.507L255.35 153.637L252.89 151.257L253.96 149.497C253.574 148.856 253.274 148.166 253.07 147.447L251.07 147.027L251.01 143.607L253.01 143.107C253.191 142.384 253.467 141.688 253.83 141.037L252.7 139.307L255.07 136.847L256.84 137.917V137.967ZM258.67 142.527C258.166 143.049 257.828 143.709 257.698 144.423C257.569 145.137 257.655 145.874 257.944 146.539C258.234 147.205 258.714 147.77 259.324 148.162C259.935 148.555 260.648 148.758 261.374 148.745C262.099 148.733 262.805 148.505 263.401 148.092C263.998 147.678 264.458 147.097 264.724 146.422C264.99 145.746 265.05 145.007 264.896 144.298C264.743 143.589 264.382 142.941 263.86 142.437C263.513 142.102 263.104 141.838 262.656 141.662C262.207 141.485 261.728 141.398 261.246 141.407C260.764 141.415 260.289 141.518 259.847 141.71C259.405 141.902 259.005 142.18 258.67 142.527Z" fill="#0047C5"/>
<path d="M258.67 142.526C258.862 142.29 259.092 142.087 259.35 141.926C259.946 141.541 260.64 141.335 261.35 141.335C262.06 141.335 262.754 141.541 263.35 141.926C263.913 142.295 264.368 142.805 264.67 143.406C264.828 143.722 264.939 144.059 265 144.406C265.065 144.78 265.065 145.162 265 145.536C264.901 146.332 264.551 147.074 264 147.656C263.438 148.229 262.71 148.61 261.92 148.746C261.546 148.811 261.164 148.811 260.79 148.746C260.444 148.698 260.108 148.601 259.79 148.456C259.178 148.174 258.65 147.736 258.26 147.186C257.928 146.706 257.712 146.155 257.63 145.576C257.508 144.742 257.678 143.891 258.11 143.166C258.262 142.901 258.458 142.665 258.69 142.466C258.69 142.466 258.47 142.706 258.18 143.206C257.789 143.923 257.648 144.75 257.78 145.556C257.864 146.11 258.08 146.635 258.41 147.086C258.783 147.605 259.287 148.016 259.87 148.276C260.187 148.418 260.525 148.51 260.87 148.546C261.224 148.606 261.586 148.606 261.94 148.546C262.682 148.418 263.364 148.059 263.89 147.52C264.416 146.982 264.759 146.291 264.87 145.546C264.97 144.846 264.859 144.132 264.55 143.496C264.268 142.92 263.84 142.427 263.31 142.066C262.734 141.69 262.064 141.483 261.376 141.468C260.689 141.454 260.011 141.634 259.42 141.986C259.159 142.151 258.909 142.331 258.67 142.526Z" fill="#455A64"/>
<path d="M256.84 137.966L256.73 137.906L256.39 137.706C256.08 137.526 255.63 137.266 255.06 136.916C254.45 137.546 253.66 138.386 252.7 139.396V139.326L253.84 141.046C253.488 141.697 253.219 142.389 253.04 143.106L251.04 143.606L251.1 143.536C251.1 144.606 251.1 145.756 251.17 146.956L251.1 146.876L253.1 147.286H253.15C253.359 147.989 253.658 148.661 254.04 149.286V149.336L252.97 151.106V150.996L255.44 153.366H255.32L257.04 152.226H257.09H257.15C257.779 152.58 258.451 152.852 259.15 153.036H259.21V153.096C259.37 153.726 259.54 154.416 259.71 155.096L259.61 155.016L263.03 154.956L262.93 155.036C263.06 154.396 263.2 153.706 263.35 153.036V152.976H263.41C264.112 152.772 264.785 152.476 265.41 152.096H265.47H265.52L267.29 153.166H267.16L269.54 150.706V150.836L268.4 149.106V149.046C268.757 148.401 269.029 147.712 269.21 146.996V146.936H269.27L271.27 146.446L271.2 146.546C271.2 145.38 271.18 144.24 271.14 143.126L271.22 143.216L269.22 142.796H269.17V142.736C268.966 142.034 268.67 141.361 268.29 140.736V140.686L269.37 138.926V139.036L266.91 136.646H267.02L265.28 137.776C264.653 137.415 263.98 137.139 263.28 136.956L262.79 134.956L262.85 135.006H259.43H259.48C259.3 135.816 259.16 136.476 259.04 137.006C258.498 137.155 257.972 137.356 257.47 137.606L257.11 137.806L256.98 137.866L257.1 137.786L257.46 137.576C257.956 137.311 258.479 137.1 259.02 136.946L259.42 134.946L262.84 134.866H262.89C263.05 135.486 263.21 136.146 263.39 136.866L263.34 136.816C264.074 136.988 264.781 137.261 265.44 137.626H265.36L267.09 136.486H267.14H267.19L269.65 138.856L269.7 138.906V138.966L268.63 140.736V140.636C269.02 141.283 269.323 141.979 269.53 142.706L269.46 142.646L271.46 143.056H271.53V143.136C271.53 144.246 271.53 145.386 271.6 146.556V146.636H271.52L269.52 147.126L269.6 147.056C269.415 147.789 269.136 148.495 268.77 149.156V149.046L269.9 150.776L269.95 150.846L269.89 150.906L267.51 153.366L267.45 153.436L267.38 153.386L265.61 152.316H265.72C265.072 152.705 264.376 153.007 263.65 153.216L263.72 153.136C263.58 153.836 263.44 154.526 263.3 155.136V155.216H263.21L259.79 155.276H259.71V155.196C259.54 154.506 259.37 153.816 259.22 153.196L259.29 153.266C258.556 153.087 257.85 152.812 257.19 152.446H257.29L255.56 153.576H255.5L255.44 153.516L252.98 151.136H252.93V151.076L254 149.306V149.396C253.61 148.75 253.31 148.054 253.11 147.326L253.17 147.396L251.17 146.966H251.1V146.896C251.1 145.696 251.1 144.556 251.05 143.476V143.416H251.11L253.11 142.936L253.06 142.986C253.239 142.255 253.518 141.551 253.89 140.896V140.956L252.76 139.226L255.15 136.776L256.45 137.586L256.79 137.796L256.84 137.966Z" fill="#263238"/>
<path d="M236.47 134.866C236.852 134.637 237.262 134.459 237.69 134.336L237.94 133.126H239.99L240.29 134.326C240.723 134.435 241.14 134.599 241.53 134.816L242.53 134.136L244 135.566L243.36 136.616C243.589 137.002 243.768 137.415 243.89 137.846L245.17 138.026V140.076L243.97 140.366C243.86 140.802 243.695 141.222 243.48 141.616L244.16 142.616L242.73 144.096L241.67 143.456C241.288 143.686 240.878 143.864 240.45 143.986L240.2 145.196H238.15L237.85 143.986C237.416 143.881 236.999 143.716 236.61 143.496L235.61 144.176L234.13 142.756L234.77 141.696C234.542 141.314 234.364 140.904 234.24 140.476L233.03 140.216V138.216L234.17 138.026C234.27 137.592 234.432 137.175 234.65 136.786L233.98 135.786L235.4 134.316L236.46 134.956L236.47 134.866ZM237.56 137.596C237.258 137.91 237.056 138.306 236.979 138.734C236.903 139.163 236.955 139.604 237.129 140.003C237.303 140.402 237.592 140.74 237.958 140.975C238.325 141.209 238.752 141.33 239.187 141.322C239.622 141.313 240.045 141.176 240.402 140.927C240.759 140.679 241.035 140.33 241.193 139.924C241.352 139.519 241.387 139.076 241.294 138.651C241.201 138.226 240.984 137.838 240.67 137.536C240.248 137.135 239.685 136.915 239.103 136.927C238.52 136.938 237.966 137.179 237.56 137.596Z" fill="#0047C5"/>
<path d="M237.56 137.597C237.675 137.454 237.814 137.332 237.97 137.237C238.393 136.961 238.898 136.841 239.4 136.897C239.89 136.944 240.351 137.15 240.712 137.484C241.073 137.819 241.315 138.262 241.4 138.747C241.43 138.972 241.43 139.201 241.4 139.427C241.331 139.902 241.118 140.345 240.79 140.697C240.453 141.04 240.015 141.268 239.54 141.347C239.318 141.381 239.092 141.381 238.87 141.347C238.652 141.319 238.44 141.258 238.24 141.167C237.876 141.002 237.562 140.743 237.33 140.417C237.121 140.121 236.99 139.777 236.95 139.417C236.871 138.942 236.948 138.454 237.17 138.027C237.263 137.868 237.381 137.726 237.52 137.607C237.411 137.75 237.311 137.901 237.22 138.057C236.982 138.482 236.894 138.975 236.97 139.457C237.025 139.788 237.155 140.103 237.35 140.377C237.577 140.685 237.88 140.929 238.23 141.087C238.417 141.171 238.616 141.225 238.82 141.247C239.032 141.281 239.248 141.281 239.46 141.247C239.909 141.171 240.323 140.954 240.64 140.626C240.956 140.299 241.16 139.878 241.22 139.427C241.25 139.214 241.25 138.999 241.22 138.787C241.184 138.585 241.12 138.39 241.03 138.207C240.861 137.861 240.607 137.565 240.29 137.347C240.01 137.164 239.692 137.048 239.36 137.007C238.874 136.948 238.382 137.05 237.96 137.297C237.822 137.39 237.688 137.49 237.56 137.597Z" fill="#455A64"/>
<path d="M236.47 134.867H236.4L236.2 134.757L235.4 134.287L233.99 135.767L234.68 136.767C234.465 137.153 234.303 137.567 234.2 137.997L232.99 138.297C232.99 138.947 232.99 139.627 232.99 140.297L234.2 140.547C234.319 140.973 234.498 141.38 234.73 141.757L234.09 142.817V142.747L235.57 144.167H235.49L236.49 143.487C236.875 143.704 237.289 143.866 237.72 143.967C237.82 144.347 237.92 144.757 238.02 145.167L237.96 145.117H240.01L239.95 145.167C240.03 144.777 240.11 144.367 240.2 143.947C240.625 143.824 241.032 143.646 241.41 143.417L242.47 144.057H242.39L243.81 142.587V142.667L243.14 141.667C243.355 141.279 243.52 140.866 243.63 140.437L244.83 140.137V140.197C244.83 139.497 244.83 138.817 244.83 138.147V138.207L243.62 137.947C243.493 137.523 243.315 137.117 243.09 136.737C243.31 136.367 243.53 136.017 243.74 135.677V135.737L242.27 134.317H242.33L241.33 134.997H241.28C240.894 134.779 240.48 134.615 240.05 134.507C239.94 134.067 239.85 133.677 239.76 133.307H237.76C237.66 133.787 237.57 134.187 237.5 134.517C237.175 134.604 236.86 134.725 236.56 134.877L236.34 134.987H236.27L236.34 134.937L236.55 134.817C236.849 134.656 237.164 134.529 237.49 134.437L237.74 133.227H239.79C239.877 133.593 239.977 133.993 240.09 134.427C240.526 134.535 240.947 134.699 241.34 134.917L242.34 134.237L243.82 135.657C243.62 136.007 243.4 136.357 243.19 136.717V136.667C243.421 137.051 243.599 137.465 243.72 137.897L245.17 138.027C245.17 138.697 245.17 139.377 245.17 140.077L243.97 140.367H244.02C243.907 140.806 243.739 141.229 243.52 141.627V141.557C243.74 141.907 243.97 142.247 244.2 142.557L242.78 144.027L241.72 143.387H241.79C241.401 143.618 240.984 143.8 240.55 143.927V143.877C240.46 144.297 240.38 144.707 240.3 145.087H238.25H238.2V145.037C238.1 144.627 238 144.207 237.9 143.837H237.95C237.511 143.728 237.087 143.564 236.69 143.347H236.75L235.75 144.027L234.28 142.607L234.93 141.547V141.607C234.694 141.22 234.512 140.803 234.39 140.367L233.18 140.107C233.18 139.397 233.18 138.707 233.18 138.107L234.39 137.817C234.498 137.38 234.663 136.96 234.88 136.567L234.21 135.567L235.64 134.097L236.42 134.587L236.62 134.707L236.47 134.867Z" fill="#263238"/>
<path d="M236.82 159.626C237.173 159.39 237.561 159.211 237.97 159.096C238.929 158.824 239.945 158.833 240.899 159.122C241.853 159.411 242.704 159.968 243.35 160.726C243.959 161.446 244.363 162.317 244.52 163.246C244.6 163.747 244.6 164.256 244.52 164.756C244.459 165.282 244.317 165.794 244.1 166.276C243.636 167.301 242.859 168.152 241.88 168.706C240.9 169.252 239.772 169.469 238.66 169.326C238.135 169.266 237.622 169.124 237.14 168.906C236.677 168.699 236.249 168.423 235.87 168.086C235.206 167.511 234.698 166.779 234.392 165.955C234.086 165.132 233.993 164.245 234.12 163.376C234.301 162.221 234.872 161.162 235.74 160.376C236.031 160.085 236.369 159.845 236.74 159.666C236.393 159.916 236.059 160.183 235.74 160.466C234.927 161.274 234.406 162.33 234.26 163.466C234.149 164.295 234.247 165.138 234.545 165.919C234.844 166.7 235.334 167.394 235.97 167.936C236.333 168.251 236.741 168.511 237.18 168.706C237.892 169.026 238.669 169.174 239.449 169.139C240.228 169.105 240.989 168.888 241.67 168.506C242.592 167.984 243.324 167.182 243.76 166.216C243.977 165.767 244.115 165.283 244.17 164.786C244.245 164.309 244.245 163.824 244.17 163.346C244.038 162.52 243.7 161.74 243.188 161.078C242.676 160.416 242.007 159.893 241.24 159.556C240.197 159.092 239.028 158.99 237.92 159.266C237.548 159.369 237.181 159.49 236.82 159.626Z" fill="#263238"/>
<path d="M236.17 152.797L236.04 152.667L235.66 152.267L234.2 150.687H234.25L230.17 153.027V152.937C230.43 153.777 230.71 154.707 231.01 155.707C230.273 156.43 229.634 157.247 229.11 158.137V158.187H229.05L226.17 158.047L226.27 157.977C225.87 159.427 225.44 160.977 224.99 162.577L224.93 162.447L227.48 163.817H227.54V164.027C227.529 165.058 227.654 166.087 227.91 167.087V167.167L227.85 167.217L225.71 169.157V168.987L228.05 173.157L227.89 173.097L230.66 172.267H230.74L230.8 172.327C231.523 173.064 232.34 173.703 233.23 174.227H233.3V174.317C233.25 175.217 233.2 176.207 233.15 177.207L233.05 177.057L237.65 178.347L237.48 178.417L238.86 175.877V175.797H238.95C239.978 175.818 241.005 175.697 242 175.437H242.08L242.14 175.497L244.08 177.647H243.9L248.07 175.307L248 175.477C247.72 174.547 247.45 173.617 247.18 172.707V172.617L247.24 172.557C247.991 171.838 248.641 171.021 249.17 170.127V170.057H249.26L252.15 170.207L252 170.317C252.45 168.747 252.88 167.207 253.3 165.707L253.37 165.867L250.83 164.487H250.76V164.407C250.778 163.375 250.657 162.346 250.4 161.347V161.267H250.46L252.6 159.337V159.487L250.27 155.317L250.4 155.367L247.63 156.187H247.57H247.52C246.799 155.445 245.986 154.8 245.1 154.267H245.05V154.027C245.11 152.977 245.16 152.027 245.21 151.147L245.27 151.237L240.67 149.917H240.75L239.35 152.447C238.57 152.432 237.79 152.489 237.02 152.617L236.45 152.727H236.26C236.26 152.727 236.32 152.727 236.44 152.667L237.01 152.537C237.78 152.381 238.564 152.304 239.35 152.307L240.71 149.757V149.707L245.32 150.977H245.38V151.047C245.38 151.937 245.29 152.877 245.24 153.927V153.847C246.146 154.377 246.976 155.026 247.71 155.777H247.61L250.37 154.947H250.46V155.027C251.213 156.36 251.997 157.747 252.81 159.187L252.86 159.277L252.79 159.337L250.65 161.277V161.157C250.911 162.179 251.036 163.231 251.02 164.287L250.95 164.167L253.5 165.537L253.59 165.587V165.697L252.3 170.297V170.407H252.17L249.28 170.267L249.41 170.197C248.88 171.108 248.227 171.942 247.47 172.677V172.537C247.75 173.447 248.02 174.367 248.3 175.307V175.417L248.2 175.467L244.03 177.817H243.93L243.85 177.737L241.91 175.587L242.06 175.637C241.034 175.895 239.978 176.019 238.92 176.007L239.06 175.927C238.58 176.797 238.11 177.667 237.68 178.467L237.62 178.567H237.51L232.91 177.277H232.8V177.157C232.85 176.157 232.9 175.157 232.95 174.277L233.02 174.407C232.11 173.851 231.276 173.178 230.54 172.407H230.68L227.91 173.227H227.81L227.75 173.137L225.42 168.957L225.37 168.867L225.45 168.797L227.59 166.867V166.997C227.333 165.974 227.212 164.921 227.23 163.867L227.29 163.967L224.75 162.587H224.67V162.497C225.12 160.877 225.56 159.347 225.97 157.897V157.817H226.17L229.05 157.977H228.96C229.499 157.071 230.154 156.241 230.91 155.507V155.597C230.62 154.597 230.35 153.667 230.1 152.827V152.767H230.16L234.34 150.447L235.75 152.057L236.12 152.477C236.158 152.579 236.175 152.688 236.17 152.797Z" fill="#263238"/>
<path d="M227.09 94.0264L204.32 91.3064C203.946 91.2618 203.584 91.1439 203.255 90.9594C202.926 90.775 202.637 90.5275 202.404 90.2313C202.171 89.9351 201.999 89.5959 201.897 89.233C201.795 88.8701 201.765 88.4907 201.81 88.1164L205.56 56.5864C205.598 56.2077 205.712 55.8405 205.894 55.5061C206.075 55.1716 206.322 54.8767 206.619 54.6385C206.916 54.4002 207.257 54.2234 207.623 54.1184C207.989 54.0133 208.372 53.982 208.75 54.0264L223.17 55.7864L232.98 68.6464L230.25 91.4964C230.164 92.2501 229.784 92.9394 229.192 93.4134C228.6 93.8875 227.844 94.1079 227.09 94.0264Z" fill="#EBEBEB"/>
<path d="M227.09 94.0266C227.256 94.0143 227.423 94.0143 227.59 94.0266C228.07 93.9958 228.532 93.837 228.93 93.5666C229.252 93.3583 229.528 93.0855 229.74 92.7654C229.951 92.4453 230.094 92.0848 230.16 91.7066C230.26 90.7733 230.38 89.7133 230.52 88.5266C231.07 83.7266 231.85 76.8966 232.79 68.6666V68.8166L222.96 55.9866L223.17 56.0266L214.83 55.0266L210.47 54.5066C209.75 54.4366 208.96 54.2866 208.29 54.2866C207.949 54.3032 207.614 54.3867 207.305 54.5326C206.996 54.6784 206.719 54.8837 206.49 55.1366C206.161 55.4873 205.939 55.9244 205.85 56.3966C205.78 56.8766 205.73 57.3966 205.66 57.9266C205.54 58.9266 205.42 59.9866 205.29 61.0066C205.05 63.0066 204.81 65.0066 204.57 67.0066C204.1 70.9466 203.64 74.7466 203.2 78.3666C202.98 80.1766 202.77 81.9466 202.56 83.6666C202.46 84.5166 202.35 85.3666 202.25 86.1966L202.1 87.4366C202.037 87.8267 202.007 88.2215 202.01 88.6166C202.058 89.1698 202.276 89.6945 202.634 90.1189C202.992 90.5432 203.473 90.8463 204.01 90.9866C204.34 91.0666 204.74 91.0966 205.11 91.1466L209.4 91.6766L222.4 93.3066L225.92 93.7766L226.83 93.9066C226.936 93.9133 227.041 93.9369 227.14 93.9766H226.83L225.91 93.8966L222.37 93.5266L209.37 92.0566L205.07 91.5666C204.68 91.5324 204.293 91.4756 203.91 91.3966C203.506 91.2972 203.127 91.1132 202.8 90.8566C202.46 90.5942 202.179 90.264 201.974 89.8869C201.769 89.5099 201.645 89.0943 201.61 88.6666C201.598 88.2447 201.628 87.8226 201.7 87.4066C201.7 86.9966 201.79 86.5766 201.84 86.1666C201.94 85.3366 202.04 84.4866 202.14 83.6266C202.34 81.9166 202.54 80.1466 202.76 78.3366C203.18 74.7066 203.63 70.9066 204.1 66.9666C204.33 64.9666 204.57 62.9666 204.81 60.9666L205.17 57.8866C205.24 57.3666 205.28 56.8866 205.37 56.3166C205.473 55.7509 205.737 55.2267 206.13 54.8066C206.408 54.5056 206.743 54.2623 207.115 54.0907C207.488 53.9191 207.89 53.8226 208.3 53.8066C209.13 53.8066 209.81 53.9566 210.56 54.0266L214.92 54.5466L223.26 55.5466H223.36L223.43 55.6266L233.17 68.5166L233.22 68.5866V68.6766C232.22 76.8966 231.36 83.6766 230.76 88.5166C230.61 89.7166 230.49 90.7666 230.35 91.6966C230.273 92.0952 230.114 92.4734 229.884 92.8074C229.653 93.1413 229.355 93.4237 229.01 93.6366C228.586 93.9007 228.099 94.0458 227.6 94.0566C227.429 94.0708 227.258 94.0607 227.09 94.0266Z" fill="#263238"/>
<path d="M223.17 55.7866L222.17 64.6666C222.124 65.0177 222.148 65.3744 222.241 65.716C222.334 66.0576 222.494 66.3773 222.712 66.6565C222.93 66.9357 223.201 67.1688 223.509 67.3422C223.818 67.5156 224.158 67.6259 224.51 67.6666L233.04 68.6666L223.17 55.7866Z" fill="#F5F5F5"/>
<path d="M222.17 65.4565C222.101 66.1287 222.261 66.8044 222.624 67.3743C222.987 67.9442 223.532 68.3748 224.17 68.5965C224.257 68.6354 224.347 68.6656 224.44 68.6865C225.54 69.0265 232.71 71.2065 232.73 71.0365C232.75 70.8665 233.02 68.6465 233.02 68.6465L224.49 67.6465C224.49 67.6465 222.35 67.3065 222.17 65.4565Z" fill="#E0E0E0"/>
<path d="M220.27 64.0764C218.499 64.0683 216.73 63.9279 214.98 63.6564C213.214 63.5178 211.461 63.2369 209.74 62.8164C211.511 62.8245 213.28 62.9649 215.03 63.2364C216.796 63.375 218.549 63.6559 220.27 64.0764Z" fill="#263238"/>
<path d="M226.48 69.9064C226.48 70.0164 222.57 69.6464 217.79 69.0764C213.01 68.5064 209.12 67.9464 209.14 67.8364C212.052 67.967 214.956 68.2441 217.84 68.6664C222.62 69.2364 226.5 69.7864 226.48 69.9064Z" fill="#263238"/>
<path d="M227.54 74.2766C227.54 74.3966 223.29 73.9766 218.07 73.3566C212.85 72.7366 208.63 72.1366 208.64 72.0266C208.65 71.9166 212.9 72.3266 218.12 72.9466C223.34 73.5666 227.56 74.1666 227.54 74.2766Z" fill="#263238"/>
<path d="M227.07 78.2265C227.07 78.3465 222.82 77.9365 217.6 77.3065C212.38 76.6765 208.17 76.0865 208.17 76.0265C208.17 75.9665 212.42 76.3265 217.65 76.9465C222.88 77.5665 227.09 78.1165 227.07 78.2265Z" fill="#263238"/>
<path d="M226.6 82.1863C226.6 82.2963 222.35 81.8863 217.13 81.2663C211.91 80.6463 207.68 80.0463 207.7 79.9263C207.72 79.8063 211.95 80.2263 217.17 80.8463C222.39 81.4663 226.62 82.0263 226.6 82.1863Z" fill="#263238"/>
<path d="M226.17 86.1364C226.17 86.2464 221.91 85.8364 216.69 85.2164C211.47 84.5964 207.25 83.9964 207.27 83.8764C207.29 83.7564 211.52 84.1764 216.74 84.8064C221.96 85.4364 226.17 86.0264 226.17 86.1364Z" fill="#263238"/>
<path d="M233.01 68.6467C231.94 68.6679 230.87 68.6044 229.81 68.4567L226.36 68.0967L224.31 67.8667C223.916 67.8203 223.536 67.6945 223.192 67.4968C222.848 67.2991 222.548 67.0337 222.31 66.7167C222.051 66.3825 221.898 65.9785 221.87 65.5567C221.869 65.1786 221.896 64.8009 221.95 64.4267C222.04 63.7267 222.13 63.0467 222.21 62.4267L222.68 58.9867C222.782 57.9201 222.969 56.8633 223.24 55.8267C223.26 56.897 223.194 57.9672 223.04 59.0267C222.94 60.0267 222.82 61.2267 222.69 62.4867C222.61 63.1367 222.54 63.8167 222.46 64.4867C222.367 64.8093 222.344 65.1479 222.39 65.4803C222.437 65.8127 222.552 66.1317 222.73 66.4167C223.55 67.5867 225.18 67.4167 226.44 67.6167L229.89 68.0867C230.943 68.1895 231.987 68.3767 233.01 68.6467Z" fill="#263238"/>
<path d="M95.1699 17.3365C96.7603 16.6318 98.1096 15.477 99.0514 14.0145C99.9932 12.552 100.486 10.8459 100.47 9.10647C100.573 7.95369 100.436 6.79202 100.067 5.695C99.6982 4.59799 99.1055 3.58953 98.3265 2.7335C97.5476 1.87747 96.5993 1.19251 95.5419 0.721994C94.4845 0.251477 93.3409 0.00565406 92.1835 9.63921e-05C91.0261 -0.00546127 89.8801 0.229366 88.8182 0.689706C87.7563 1.15005 86.8016 1.82587 86.0144 2.67438C85.2273 3.52289 84.6249 4.52561 84.2454 5.61903C83.8659 6.71245 83.7177 7.87275 83.8099 9.02646C83.7788 10.7805 84.2673 12.5045 85.214 13.9815C86.1607 15.4584 87.5232 16.6223 89.1299 17.3265C76.2899 19.2665 76.8799 33.2165 76.8799 33.2165L107.23 33.3565C107.23 33.3565 107.92 19.2565 95.1699 17.3365Z" fill="#0047C5"/>
<path d="M189.69 240.126C190.728 240.126 191.57 239.285 191.57 238.246C191.57 237.208 190.728 236.366 189.69 236.366C188.652 236.366 187.81 237.208 187.81 238.246C187.81 239.285 188.652 240.126 189.69 240.126Z" fill="#263238"/>
<path d="M189.69 238.246C189.47 238.268 189.249 238.268 189.03 238.246L187.14 238.296L180.14 238.376L157.14 238.456H149.82L149.74 238.326C146.25 231.976 143.12 226.486 140.74 222.626C139.57 220.706 138.59 219.186 137.87 218.186C137.601 217.801 137.3 217.44 136.97 217.106C136.888 217.023 136.789 216.958 136.68 216.916C136.61 216.916 136.57 216.916 136.57 216.916C136.57 216.916 136.57 216.856 136.69 216.866C136.817 216.889 136.935 216.948 137.03 217.036C137.397 217.334 137.732 217.669 138.03 218.036C138.81 219.036 139.82 220.506 141.03 222.416C143.45 226.236 146.64 231.696 150.16 238.046L149.94 237.906H157.11L180.11 237.976L187.11 238.066H189C189.237 238.097 189.469 238.157 189.69 238.246Z" fill="#263238"/>
<path d="M192.55 81.886C193.588 81.886 194.43 81.0443 194.43 80.006C194.43 78.9677 193.588 78.126 192.55 78.126C191.512 78.126 190.67 78.9677 190.67 80.006C190.67 81.0443 191.512 81.886 192.55 81.886Z" fill="#263238"/>
<path d="M192.55 80.026C192.348 80.0537 192.142 80.0537 191.94 80.026H190.2L183.77 80.106L162.58 80.186H152.9L153.08 80.106L143.26 90.866C142.07 92.146 141.11 93.186 140.39 93.946L139.61 94.746C139.43 94.926 139.33 95.016 139.32 95.006C139.384 94.8939 139.461 94.7898 139.55 94.696L140.27 93.836L143.03 90.666L152.72 79.776L152.79 79.686H162.58L183.77 79.766L190.2 79.846L191.94 79.896C192.147 79.9175 192.352 79.961 192.55 80.026Z" fill="#263238"/>
<path d="M100.17 289.436C99.7211 289.79 99.1775 290.003 98.6077 290.047C98.0379 290.092 97.4677 289.967 96.9691 289.688C96.4704 289.409 96.0658 288.988 95.8063 288.479C95.5468 287.969 95.4441 287.395 95.5112 286.827C95.5783 286.26 95.8122 285.725 96.1833 285.29C96.5543 284.855 97.046 284.54 97.596 284.385C98.146 284.23 98.7297 284.241 99.2733 284.417C99.8169 284.594 100.296 284.928 100.65 285.376C100.886 285.674 101.062 286.015 101.166 286.381C101.269 286.746 101.3 287.129 101.255 287.506C101.211 287.884 101.092 288.248 100.906 288.58C100.719 288.911 100.469 289.202 100.17 289.436Z" fill="#263238"/>
<path d="M98.08 286.756C97.94 286.756 96.3899 274.086 94.6299 258.416C92.8699 242.746 91.56 230.026 91.7 230.026C91.84 230.026 93.39 242.706 95.15 258.376C96.91 274.046 98.22 286.746 98.08 286.756Z" fill="#263238"/>
<path d="M92.27 42.2961C93.3083 42.2961 94.15 41.4544 94.15 40.4161C94.15 39.3778 93.3083 38.5361 92.27 38.5361C91.2317 38.5361 90.39 39.3778 90.39 40.4161C90.39 41.4544 91.2317 42.2961 92.27 42.2961Z" fill="#263238"/>
<path d="M92.05 40.416C92.2 40.416 92.3101 46.936 92.3101 54.986C92.3101 63.036 92.2 69.566 92.05 69.566C91.9 69.566 91.79 63.026 91.79 55.026C91.79 47.026 91.91 40.416 92.05 40.416Z" fill="#263238"/>
<path d="M213.18 158.406C214.218 158.406 215.06 157.564 215.06 156.526C215.06 155.488 214.218 154.646 213.18 154.646C212.142 154.646 211.3 155.488 211.3 156.526C211.3 157.564 212.142 158.406 213.18 158.406Z" fill="#263238"/>
<path d="M212.52 156.526C212.52 156.666 203.83 156.786 193.11 156.786C182.39 156.786 173.7 156.666 173.7 156.526C173.7 156.386 182.39 156.266 193.11 156.266C203.83 156.266 212.52 156.376 212.52 156.526Z" fill="#263238"/>
<path d="M84.78 241.876H84.52L83.78 241.816L80.9 241.566C79.63 241.496 78.1 241.236 76.3 240.966C74.5 240.696 72.47 240.276 70.2 239.806C64.8264 238.567 59.5675 236.874 54.48 234.746C51.4037 233.467 48.3992 232.022 45.48 230.416C42.2571 228.687 39.1685 226.718 36.24 224.526H36.5L20.69 232.026L20.25 232.236L20.32 231.756C20.53 230.426 20.75 228.996 20.98 227.566C21.82 222.206 22.64 216.986 23.43 211.986L23.51 212.216C17.86 206.922 13.108 200.745 9.44 193.926C6.518 188.508 4.22317 182.774 2.59999 176.836C1.51487 172.902 0.735886 168.89 0.270004 164.836C0.110004 163.416 0.03 162.316 0 161.576C0 161.226 0 160.946 0 160.726C0 160.506 0 160.446 0 160.446C0.0111127 160.539 0.0111127 160.633 0 160.726C0 160.936 -7.93487e-06 161.216 0.0699921 161.566C0.129992 162.306 0.239998 163.406 0.419998 164.816C0.962079 168.834 1.79086 172.807 2.89999 176.706C4.55663 182.615 6.87463 188.318 9.81 193.706C13.4749 200.461 18.2019 206.582 23.81 211.836L23.91 211.926V212.056C23.13 217.056 22.31 222.276 21.47 227.636C21.25 229.066 21.03 230.496 20.82 231.826L20.45 231.546L36.25 224.106L36.39 224.046L36.51 224.136C39.4148 226.318 42.4765 228.284 45.67 230.016C48.5906 231.622 51.5949 233.071 54.67 234.356C59.7277 236.496 64.9517 238.218 70.29 239.506C72.55 239.996 74.57 240.506 76.36 240.726C78.15 240.946 79.68 241.296 80.93 241.406L83.81 241.736L84.55 241.826C84.6279 241.837 84.7048 241.853 84.78 241.876Z" fill="#263238"/>
<path d="M164.78 150.246C164.78 150.246 164.78 149.856 164.72 149.076C164.66 148.296 164.72 147.136 164.56 145.626C164.268 141.212 163.575 136.834 162.49 132.546C161.695 129.452 160.692 126.415 159.49 123.456C158.106 119.925 156.433 116.513 154.49 113.256C149.717 105.303 143.476 98.3296 136.1 92.7059C122.054 82.035 104.591 76.8673 87 78.1759C83.7431 78.4108 80.5058 78.8652 77.31 79.5359C74.0329 80.2429 70.806 81.1649 67.65 82.2959C54.2072 87.1935 42.5157 95.9621 34.05 107.496C31.8389 110.511 29.8726 113.697 28.17 117.026C27.28 118.676 26.52 120.406 25.74 122.126C24.96 123.846 24.32 125.646 23.74 127.466C18.8131 142.277 18.8131 158.285 23.74 173.096C24.32 174.916 25.04 176.676 25.74 178.436C26.44 180.196 27.27 181.896 28.16 183.546C29.8714 186.859 31.8408 190.032 34.05 193.036C42.5195 204.572 54.214 213.344 67.66 218.246C70.8159 219.377 74.0429 220.299 77.32 221.006C80.5159 221.673 83.7533 222.124 87.01 222.356C93.2436 222.84 99.5138 222.504 105.66 221.356C116.722 219.287 127.149 214.664 136.11 207.856C143.489 202.228 149.733 195.252 154.51 187.296C156.45 184.04 158.122 180.632 159.51 177.106C160.712 174.143 161.715 171.103 162.51 168.006C163.596 163.718 164.289 159.34 164.58 154.926C164.72 153.416 164.69 152.256 164.74 151.486C164.79 150.716 164.8 150.306 164.8 150.306C164.8 150.306 164.8 151.906 164.69 154.936C164.265 162.574 162.6 170.093 159.76 177.196C158.372 180.741 156.699 184.169 154.76 187.446C149.987 195.454 143.732 202.479 136.33 208.146C122.229 218.911 104.673 224.137 86.98 222.836C83.6818 222.589 80.4043 222.118 77.17 221.426C73.8676 220.711 70.6143 219.786 67.43 218.656C53.8893 213.732 42.1105 204.907 33.58 193.296C31.3575 190.272 29.3748 187.079 27.65 183.746C26.75 182.076 25.99 180.336 25.2 178.596C24.41 176.856 23.77 175.056 23.2 173.216C18.233 158.302 18.233 142.18 23.2 127.266C23.78 125.436 24.5 123.666 25.2 121.886C25.9 120.106 26.74 118.416 27.64 116.746C29.3644 113.411 31.3506 110.217 33.58 107.196C42.1109 95.589 53.885 86.7653 67.42 81.8359C70.6031 80.7047 73.8567 79.7827 77.16 79.0759C80.3751 78.4021 83.6328 77.951 86.91 77.7259C93.1769 77.2415 99.4802 77.5777 105.66 78.7259C116.782 80.8253 127.26 85.4925 136.26 92.3559C143.66 98.0226 149.911 105.048 154.68 113.056C156.623 116.334 158.295 119.765 159.68 123.316C162.523 130.418 164.189 137.937 164.61 145.576C164.82 148.656 164.78 150.246 164.78 150.246Z" fill="#263238"/>
<path d="M92.2701 230.486C70.7318 230.486 50.0757 221.93 34.8459 206.7C19.6161 191.47 11.0601 170.814 11.0601 149.276C11.0601 127.738 19.6161 107.082 34.8459 91.8518C50.0757 76.6219 70.7318 68.0659 92.2701 68.0659C92.6679 68.0659 93.0494 68.224 93.3307 68.5053C93.612 68.7866 93.7701 69.1681 93.7701 69.5659C93.7701 69.9637 93.612 70.3453 93.3307 70.6266C93.0494 70.9079 92.6679 71.0659 92.2701 71.0659C76.8012 71.0639 61.6791 75.6492 48.8162 84.2418C35.9533 92.8344 25.9274 105.048 20.0063 119.339C14.0853 133.63 12.535 149.356 15.5516 164.528C18.5682 179.7 26.0162 193.636 36.9537 204.575C47.8912 215.514 61.8268 222.964 76.9984 225.982C92.1699 229.001 107.896 227.453 122.187 221.533C136.479 215.614 148.694 205.59 157.289 192.728C165.883 179.866 170.47 164.745 170.47 149.276C170.47 148.878 170.628 148.497 170.909 148.215C171.191 147.934 171.572 147.776 171.97 147.776C172.368 147.776 172.749 147.934 173.031 148.215C173.312 148.497 173.47 148.878 173.47 149.276C173.446 170.805 164.884 191.446 149.661 206.67C134.439 221.895 113.799 230.459 92.2701 230.486Z" fill="#263238"/>
</svg>
