<svg width="1440" height="691" viewBox="0 0 1440 691" fill="none" xmlns="http://www.w3.org/2000/svg">
<path d="M-23 706C121.333 598.167 483.2 409.7 776 518.5C1068.8 627.3 1355.33 502.167 1462 426" stroke="url(#paint0_linear_753_657)" stroke-width="2" stroke-dasharray="10 10"/>
<path d="M1285.56 66.6225L1286.12 66.7613C1286.1 66.6974 1286.07 66.6394 1286.02 66.5947L1285.56 66.6225Z" fill="#263238"/>
<path d="M1269.84 110.2H1269.85V119.971H1269.84V110.2Z" fill="#EB9481"/>
<path d="M1269.59 467.571H1269.84V467.39L1269.59 467.571Z" fill="#EB9481"/>
<path d="M1212.27 479.41C1215.32 478.022 1282.5 417.29 1283.59 413.348C1284.02 411.863 1275.74 401.565 1265.37 389.394C1263.14 386.771 1237.02 344.983 1237.02 344.983L1189.95 382.302L1221.96 428.503C1221.96 428.503 1206.69 463.283 1205.92 467.738C1205.14 472.193 1209.22 480.756 1212.27 479.41Z" fill="#EB9481"/>
<path d="M1211.41 453.096C1209.27 457.842 1207.42 462.713 1205.86 467.682C1205.14 472.137 1209.16 480.756 1212.22 479.409C1215.27 478.063 1282.45 417.289 1283.54 413.362C1283.88 412.14 1278.51 405.132 1270.92 396.042C1257.35 411.807 1214.55 460.882 1211.41 456.316C1211.12 455.262 1211.12 454.15 1211.41 453.096Z" fill="#263238"/>
<path d="M1260.89 381.553L1213.28 420.829C1213.28 420.829 1147.07 328.634 1145.17 294.937C1143.78 269.026 1182.17 220.743 1208.29 179.413C1210.81 175.402 1209.27 160.191 1209.18 157.651L1260.93 157.749C1261.55 163.577 1265.61 192.903 1256.89 207.184C1238.96 236.55 1210.01 279.171 1208.9 288.4C1207.79 297.63 1260.89 381.553 1260.89 381.553Z" fill="#37474F"/>
<path d="M1210.22 406.395C1217.82 399.955 1215.55 401.704 1223.22 395.292C1226.98 392.183 1245.82 376.501 1249.8 374.169C1249.9 374.169 1249.99 374.252 1249.92 374.322C1246.84 377.75 1227.72 393.03 1223.86 396.083C1216.07 402.301 1218.24 400.427 1210.38 406.561C1210.38 406.585 1210.37 406.608 1210.35 406.626C1210.33 406.643 1210.31 406.657 1210.29 406.663C1210.26 406.67 1210.24 406.67 1210.21 406.664C1210.19 406.658 1210.17 406.646 1210.15 406.628C1210.13 406.611 1210.12 406.589 1210.11 406.565C1210.11 406.541 1210.11 406.516 1210.12 406.492C1210.12 406.468 1210.14 406.446 1210.15 406.429C1210.17 406.412 1210.19 406.4 1210.22 406.395Z" fill="#263238"/>
<path d="M1204.32 279.754C1206.05 276.367 1207.91 273.036 1209.87 269.747C1213.76 263.099 1217.99 256.674 1222.15 250.192C1226.49 243.42 1230.84 236.656 1235.2 229.902C1239.11 223.823 1243.08 217.758 1246.48 211.374C1249.96 205.124 1252.49 198.394 1253.99 191.403C1255.52 183.715 1255.2 175.804 1254.53 168.032C1254.36 166.089 1254.18 164.16 1254 162.217C1254 161.884 1254.55 161.814 1254.59 162.147C1255.66 169.754 1256.03 177.443 1255.68 185.116C1255.1 192.166 1253.31 199.063 1250.38 205.504C1247.45 211.902 1244.05 218.072 1240.19 223.962C1236.03 230.527 1231.87 237.05 1227.7 243.572C1223.54 250.095 1219.2 256.771 1215.05 263.433C1213.02 266.666 1211.04 269.928 1209.15 273.245C1207.2 276.495 1205.44 279.854 1203.87 283.306C1203.08 285.026 1202.58 286.872 1202.42 288.761C1202.35 290.712 1202.71 292.654 1203.47 294.451C1204.86 298.018 1206.72 301.39 1208.41 304.86C1211.8 311.702 1215.24 318.516 1218.79 325.275C1225.93 338.834 1245.16 370.755 1246.18 372.392C1246.25 372.517 1246.07 372.614 1245.98 372.503C1237.81 359.444 1227.87 344.233 1220.52 330.688C1216.81 323.924 1213.24 317.105 1209.79 310.231C1208.05 306.807 1206.35 303.356 1204.68 299.877C1203.15 296.713 1201.39 293.452 1201.29 289.857C1201.2 286.263 1202.72 282.904 1204.32 279.754Z" fill="#263238"/>
<path d="M1210.98 157.624C1214.31 174.722 1223.94 223.907 1229.22 251.109C1238.27 236.647 1248.73 220.576 1256.89 207.156C1265.61 192.875 1261.55 163.55 1260.93 157.721L1210.98 157.624Z" fill="#263238"/>
<path d="M1200.9 513.648C1204.08 514.661 1294.67 513.384 1298.05 511.149C1299.36 510.303 1299.94 497.104 1300.19 481.13C1300.19 477.689 1299.43 425.103 1299.43 425.103L1238.83 425.783L1241.79 481.783C1241.79 481.783 1207.32 497.785 1203.83 500.643C1200.35 503.502 1197.73 512.634 1200.9 513.648Z" fill="#EB9481"/>
<path d="M1217.64 493.316C1212.91 495.485 1208.32 497.932 1203.87 500.644C1200.39 503.503 1197.73 512.635 1200.9 513.634C1204.08 514.633 1294.67 513.384 1298.05 511.15C1299.12 510.47 1299.71 501.657 1300.01 489.818C1279.42 492.691 1214.87 501.268 1215.53 495.772C1215.62 495.259 1216.41 494.384 1217.64 493.316Z" fill="#263238"/>
<path d="M1209.18 157.749C1209.18 157.749 1219.43 207.711 1219.97 209.307C1224.98 211.411 1229.84 213.826 1234.55 216.538L1238.21 470.514L1303.55 470.944C1303.55 470.944 1295.45 336.323 1295.68 327.663C1296.04 313.784 1290.03 219.91 1290.87 217.551C1299.4 193.458 1286.01 157.873 1286.01 157.873L1209.18 157.749Z" fill="#37474F"/>
<path d="M1240.67 458.397C1259.1 457.606 1294.79 457.939 1299.3 458.716C1299.4 458.716 1299.4 458.911 1299.3 458.924C1294.74 459.66 1251.42 459.743 1240.67 458.688C1240.64 458.679 1240.61 458.659 1240.59 458.633C1240.57 458.607 1240.56 458.575 1240.56 458.543C1240.56 458.51 1240.57 458.479 1240.59 458.452C1240.61 458.426 1240.64 458.407 1240.67 458.397Z" fill="#263238"/>
<path d="M1288.77 393.751C1287.73 374.655 1286.6 355.558 1285.51 336.461C1284.41 317.364 1283.33 298.254 1282.23 279.157C1281.69 269.609 1281.18 260.06 1280.6 250.512L1279.72 236.189C1279.25 231.477 1279.04 226.741 1279.11 222.006C1279.37 216.843 1281.64 212.291 1282.93 207.364C1284.09 202.675 1284.65 197.858 1284.61 193.027C1284.61 183.063 1282.59 173.209 1280.69 163.48C1280.58 162.939 1279.75 163.175 1279.86 163.716C1282.07 172.637 1283.41 181.752 1283.87 190.932C1284.01 195.51 1283.62 200.089 1282.69 204.574C1281.76 208.876 1279.92 212.901 1278.8 217.065C1277.69 221.228 1278.18 226.003 1278.46 230.471C1278.75 235.246 1278.99 240.02 1279.24 244.794C1279.75 254.148 1280.3 263.502 1280.83 272.87C1283.01 310.869 1285.12 348.882 1287.44 386.882C1288.77 408.268 1289.78 429.641 1291.55 451.056C1291.55 451.208 1291.81 451.208 1291.8 451.056C1291.07 431.945 1289.82 412.848 1288.77 393.751Z" fill="#263238"/>
<path d="M1278.94 187.67C1277.85 187.226 1276.63 187.087 1275.5 186.74C1274.31 186.387 1273.14 185.956 1272 185.45C1269.85 184.471 1267.83 183.206 1266.01 181.689C1264.27 180.112 1262.95 178.122 1262.18 175.901C1261.71 174.722 1261.26 173.528 1260.79 172.335C1260.57 171.752 1260.33 171.155 1260.1 170.572C1260.01 170.336 1259.4 169.087 1259.31 168.698C1259.33 168.718 1259.35 168.729 1259.38 168.729C1259.41 168.729 1259.44 168.718 1259.46 168.698H1259.53C1259.54 168.677 1259.55 168.65 1259.55 168.622C1259.55 168.594 1259.54 168.568 1259.53 168.546C1259.46 168.407 1259.44 168.393 1259.29 168.351C1259.26 168.344 1259.23 168.346 1259.2 168.359C1259.17 168.371 1259.14 168.393 1259.13 168.421C1258.89 168.809 1259.13 169.184 1259.21 169.601C1259.39 170.392 1259.57 171.169 1259.76 171.946C1260.11 173.334 1260.43 174.722 1260.82 176.026C1261.44 178.561 1262.77 180.867 1264.65 182.674C1266.62 184.404 1268.88 185.758 1271.34 186.671C1272.59 187.159 1273.89 187.54 1275.21 187.809C1276.42 188.122 1277.68 188.216 1278.93 188.087C1279.17 188.003 1279.05 187.74 1278.94 187.67Z" fill="#263238"/>
<path d="M1226.16 201.369C1226.05 199.079 1225.91 196.803 1225.75 194.513C1225.39 189.294 1224.93 184.062 1224.11 178.913C1224.04 178.497 1223.47 178.65 1223.5 179.024C1223.78 183.077 1224.18 187.129 1224.48 191.168C1224.79 195.207 1225.21 199.245 1225.21 203.27C1225.21 204.477 1225.1 206.531 1223.6 206.851C1221.6 207.267 1220.7 204.616 1220.24 203.173C1219.15 199.545 1218.37 195.83 1217.92 192.07C1217.34 187.809 1217.06 183.507 1216.73 179.232C1216.73 179.08 1216.46 179.094 1216.45 179.232C1216.28 187.712 1216.25 196.581 1219.22 204.644C1219.44 205.472 1219.87 206.227 1220.48 206.828C1221.09 207.429 1221.85 207.854 1222.68 208.058H1222.76C1222.76 208.058 1222.76 208.155 1222.76 208.197C1222.76 208.238 1222.86 208.683 1222.89 208.919C1222.92 209.154 1222.96 209.307 1223 209.515C1223.04 209.723 1223.12 210.334 1223.22 210.75C1223.24 210.822 1223.28 210.886 1223.33 210.932C1223.39 210.978 1223.46 211.003 1223.53 211.003C1223.61 211.003 1223.68 210.978 1223.73 210.932C1223.79 210.886 1223.83 210.822 1223.85 210.75C1223.9 210.731 1223.94 210.697 1223.97 210.653C1224.01 210.608 1224.02 210.555 1224.03 210.501C1224 209.671 1223.83 208.854 1223.51 208.086C1224 207.995 1224.47 207.782 1224.85 207.467C1225.24 207.152 1225.54 206.744 1225.73 206.282C1226.26 204.701 1226.41 203.017 1226.16 201.369Z" fill="#263238"/>
<path d="M1219.92 208.821C1226.37 211.643 1232.56 215.024 1238.42 218.925C1238.65 219.077 1238.42 219.438 1238.22 219.299C1231.98 216.135 1225.59 213.082 1219.53 209.584C1219.43 209.533 1219.35 209.443 1219.32 209.335C1219.28 209.227 1219.29 209.11 1219.34 209.008C1219.39 208.907 1219.48 208.831 1219.59 208.795C1219.7 208.76 1219.82 208.769 1219.92 208.821Z" fill="#263238"/>
<path d="M1236.39 342.068C1236.39 341.457 1236.2 341.221 1236.17 341.971C1236.02 346.134 1236.07 352.227 1236.03 356.446C1236.03 361.415 1236.03 366.369 1236.03 371.324C1236.03 376.279 1236.21 381.247 1236.41 386.215L1236.71 393.64C1236.81 395.361 1236.71 398.748 1236.88 400.455C1236.88 401.218 1237.11 401.357 1237.18 400.594C1237.31 398.109 1237.31 396.125 1237.39 393.654L1237.47 386.202C1237.47 381.247 1237.47 376.279 1237.47 371.324C1237.47 366.369 1237.29 361.401 1237.1 356.446C1236.91 351.492 1236.75 347.023 1236.39 342.068Z" fill="#263238"/>
<path d="M1203.79 87.2743C1203.77 87.4535 1203.81 87.6361 1203.91 87.7872C1204.01 87.9383 1204.16 88.0472 1204.33 88.0931L1207.26 88.3707C1210.19 81.0984 1213.27 75.3388 1212.44 77.601C1211.16 81.1485 1210.39 84.8581 1210.15 88.6205L1215.94 89.0646C1218.71 76.1993 1222.07 66.7064 1221.76 69.6348C1220.54 81.5286 1221.04 85.373 1221.64 89.481C1235.61 90.508 1253.95 91.6183 1267.22 92.1318C1269.05 85.0399 1270.7 77.3373 1270.92 77.8925C1272.56 81.9589 1272.81 87.8156 1272.67 92.3261C1276.9 92.451 1280.28 92.4787 1282.39 92.3261C1282.39 92.3261 1283.62 86.3445 1283.84 84.3737C1284.43 79.3425 1284.14 74.2468 1282.98 69.3156C1281.6 64.4472 1279.74 59.7283 1277.43 55.2289V55.1318C1276.02 52.1313 1274.96 48.9787 1274.27 45.7361C1274.26 45.713 1274.26 45.6897 1274.27 45.6667C1273.8 43.3019 1273.53 40.9017 1273.46 38.4915C1273.21 29.6648 1268.88 21.9484 1261.23 19.4364C1247.23 4.36438 1232.33 10.2211 1227.44 21.4071C1226.97 22.5035 1226.5 23.7526 1226.05 25.1266C1224.35 30.1783 1222.74 36.7567 1221.29 41.7807C1220.75 43.7694 1220.09 45.725 1219.32 47.6374C1215.05 56.9638 1206.39 61.9878 1203.79 87.2743Z" fill="#263238"/>
<path d="M1264.37 21.9751C1266.83 23.3203 1268.9 25.2801 1270.38 27.6637C1271.86 30.0472 1272.7 32.7732 1272.81 35.576C1272.89 39.2908 1273.42 42.9822 1274.39 46.5678C1275.73 50.0548 1277.56 53.3277 1279.85 56.2827C1283.4 60.8744 1285.5 66.4309 1285.85 72.229C1286.15 78.6548 1285.55 86.2185 1283.29 92.1446C1285.12 85.3672 1285.64 78.2999 1284.81 71.327C1284 64.3877 1280.48 59.8495 1276.93 54.4646C1274.05 50.1845 1272.34 45.2293 1271.96 40.0865C1271.71 36.9084 1271.89 33.5914 1270.81 30.5798C1269.53 26.9714 1266.79 24.6259 1264.04 22.5441C1263.62 22.3221 1264 21.7392 1264.37 21.9751Z" fill="#263238"/>
<path d="M1210.19 57.5175C1213.98 52.6046 1217.89 48.4272 1220.25 42.2512C1222.39 36.6999 1223.74 30.7182 1225.91 25.1252C1225.91 25.0281 1226.07 25.1252 1226.04 25.1252C1222.62 35.0622 1221.63 45.1657 1215.23 53.4373C1211.76 57.9339 1208.29 62.0974 1205.9 67.5378C1203.45 73.2571 1202.04 79.3664 1201.74 85.5798C1201.74 85.6026 1201.75 85.6269 1201.74 85.6505C1201.74 85.6741 1201.73 85.6965 1201.71 85.7158C1201.7 85.735 1201.68 85.7507 1201.66 85.7615C1201.64 85.7723 1201.62 85.778 1201.59 85.778C1201.57 85.778 1201.54 85.7723 1201.52 85.7615C1201.5 85.7507 1201.48 85.735 1201.47 85.7158C1201.45 85.6965 1201.45 85.6741 1201.44 85.6505C1201.44 85.6269 1201.44 85.6026 1201.45 85.5798C1200.98 75.4893 1204.07 65.5551 1210.19 57.5175Z" fill="#263238"/>
<path d="M1176.45 30.26L1185.43 71.3958C1185.83 72.6171 1185.21 73.5608 1184.04 73.5331L1162.99 72.8669C1162.35 72.7957 1161.74 72.5443 1161.23 72.1416C1160.72 71.7388 1160.34 71.2012 1160.13 70.5908L1151.14 29.4689C1150.75 28.2476 1151.37 27.3039 1152.52 27.3317L1173.58 27.9978C1174.22 28.0653 1174.83 28.3136 1175.34 28.7139C1175.85 29.1142 1176.23 29.6502 1176.45 30.26Z" fill="#37474F"/>
<path d="M1173.95 30.1631L1182.93 71.2988C1183.33 72.5062 1182.71 73.4639 1181.54 73.4222L1160.48 72.7561C1159.84 72.6852 1159.23 72.4353 1158.73 72.0351C1158.23 71.6348 1157.85 71.1006 1157.63 70.4939L1148.6 29.3581C1148.21 28.1507 1148.83 27.1931 1149.99 27.2347L1171.04 27.9009C1171.69 27.9608 1172.31 28.2056 1172.83 28.6064C1173.34 29.0072 1173.73 29.5474 1173.95 30.1631Z" fill="#455A64"/>
<path d="M1168.12 31.8426C1168.12 32.0778 1168.16 32.3113 1168.25 32.5299C1168.34 32.7485 1168.47 32.948 1168.63 33.1168C1168.79 33.2856 1168.99 33.4205 1169.2 33.5139C1169.42 33.6072 1169.65 33.6571 1169.89 33.6607C1170.36 33.6607 1170.82 33.4721 1171.15 33.1364C1171.49 32.8006 1171.68 32.3452 1171.68 31.8704C1171.68 31.3956 1171.49 30.9402 1171.15 30.6044C1170.82 30.2687 1170.36 30.0801 1169.89 30.0801C1169.42 30.0837 1168.97 30.2706 1168.64 30.6003C1168.31 30.9301 1168.13 31.3763 1168.12 31.8426Z" fill="#263238"/>
<path d="M1242.36 94.2123C1229.87 119.318 1202.35 151.669 1191.27 151.572C1186 151.572 1176.58 152.557 1169.79 146.354C1155.01 132.794 1142.98 107.244 1140.74 92.7273C1139.95 87.5507 1165.22 76.9892 1168.82 81.2637C1177.26 91.2701 1186.86 110.742 1188.4 110.658C1194.08 110.436 1216.6 92.3943 1232.44 79.7787C1251.58 64.4292 1247.34 84.206 1242.36 94.2123Z" fill="#EB9481"/>
<path d="M1140.73 66.1232C1143.61 55.7422 1145.95 53.5216 1143.74 43.4597C1142.28 36.8674 1145.88 33.1064 1150.4 38.4773C1157.81 47.2624 1156.9 61.4462 1155.18 66.2343L1140.73 66.1232Z" fill="#EB9481"/>
<path d="M1141.87 97.2242C1141.87 97.2242 1137.54 82.5686 1139.52 71.2021C1140.91 63.3469 1145.78 46.5679 1168.07 38.1714C1173.36 36.1729 1182.29 37.0889 1174.84 43.473C1169.55 48.0112 1164.82 49.288 1162.23 52.494C1162.23 52.494 1173.47 55.006 1175.26 60.3769C1176.82 65.0773 1178.05 69.8819 1178.94 74.755C1178.08 75.1204 1177.2 75.431 1176.3 75.6849C1176.3 75.6849 1177.49 80.8615 1173.59 87.9395L1141.87 97.2242Z" fill="#EB9481"/>
<path d="M1142.02 63.9016C1145.27 61.2786 1152.26 55.8105 1159.52 53.3263C1167.6 50.5506 1183.89 47.4418 1185.89 53.4234C1187.28 57.809 1181.21 59.5438 1181.21 59.5438C1181.21 59.5438 1188.15 59.6687 1188.66 63.9155C1189.07 67.7876 1184.25 68.8562 1184.25 68.8562C1184.25 68.8562 1188.5 69.6612 1188.16 73.4639C1187.76 78.0299 1178.95 75.6012 1174.55 79.8757C1173.58 80.8472 1142.02 63.9016 1142.02 63.9016Z" fill="#EB9481"/>
<path d="M1161.02 62.3482C1167.25 59.3595 1174.24 58.3427 1181.06 59.4337C1181.23 59.4337 1181.29 59.6141 1181.13 59.6141C1174.34 59.7281 1167.59 60.6601 1161.03 62.3898C1161.03 62.3898 1160.98 62.376 1161.02 62.3482Z" fill="#263238"/>
<path d="M1164.03 70.4104C1167.19 69.0225 1176.6 66.8852 1184.22 68.7033C1184.39 68.7033 1184.45 68.8976 1184.22 68.8837C1177.44 68.652 1170.66 69.1921 1164 70.4936C1164 70.4936 1163.99 70.4243 1164.03 70.4104Z" fill="#263238"/>
<path d="M1230.87 116.986L1210.05 95.1833C1210.05 95.1833 1225.59 80.9856 1237 75.4481C1248.41 69.9106 1250.28 77.3217 1245.55 88.7437C1240.82 100.166 1230.87 116.986 1230.87 116.986Z" fill="#7FB2F0"/>
<path opacity="0.1" d="M1230.87 116.986L1210.05 95.1833C1210.05 95.1833 1225.59 80.9856 1237 75.4481C1248.41 69.9106 1250.28 77.3217 1245.55 88.7437C1240.82 100.166 1230.87 116.986 1230.87 116.986Z" fill="black"/>
<path d="M1211.63 138.721L1201.85 184.617C1201.85 184.617 1277.29 190.696 1296.13 190.613C1296.13 190.613 1286.54 102.97 1267.81 79.7655C1258.45 68.1492 1246.55 68.1909 1238.52 75.3521C1236.48 77.1702 1211.72 105.774 1208.57 117.112C1205.8 127.091 1211.63 138.721 1211.63 138.721Z" fill="#EBEBEB"/>
<path d="M1246.84 70.897H1254.85C1252.22 70.2583 1249.47 70.2583 1246.84 70.897Z" fill="#7FB2F0"/>
<path d="M1238.6 75.2827H1263.41C1263.07 74.9912 1262.71 74.7137 1262.34 74.4639H1239.58C1239.25 74.7276 1238.92 74.9912 1238.6 75.2827Z" fill="#7FB2F0"/>
<path d="M1234.64 79.6684H1267.73L1267.05 78.8496H1235.32L1234.64 79.6684Z" fill="#7FB2F0"/>
<path d="M1230.9 84.0674H1270.73C1270.57 83.7898 1270.41 83.5122 1270.23 83.2485H1231.56L1230.9 84.0674Z" fill="#7FB2F0"/>
<path d="M1227.3 88.4389H1273.1C1272.98 88.1614 1272.84 87.8838 1272.7 87.6201H1227.95L1227.3 88.4389Z" fill="#7FB2F0"/>
<path d="M1223.83 92.8247H1275.18C1275.06 92.5471 1274.95 92.2696 1274.84 92.0059H1224.54L1223.83 92.8247Z" fill="#7FB2F0"/>
<path d="M1220.49 97.2102H1276.85L1276.54 96.3774H1221.11L1220.49 97.2102Z" fill="#7FB2F0"/>
<path d="M1217.31 101.596H1278.37C1278.28 101.305 1278.19 101.041 1278.1 100.764H1217.86L1217.31 101.596Z" fill="#7FB2F0"/>
<path d="M1214.33 105.982H1279.86L1279.58 105.149H1214.88L1214.33 105.982Z" fill="#7FB2F0"/>
<path d="M1211.65 110.437H1281.16C1281.16 110.146 1281.01 109.882 1280.93 109.604H1212.13C1211.95 109.813 1211.8 110.09 1211.65 110.437Z" fill="#7FB2F0"/>
<path d="M1209.41 114.753H1282.4C1282.33 114.475 1282.25 114.197 1282.18 113.92H1209.79C1209.65 114.197 1209.52 114.475 1209.41 114.753Z" fill="#7FB2F0"/>
<path d="M1208.12 119.124H1283.55L1283.34 118.306H1208.27C1208.27 118.583 1208.16 118.847 1208.12 119.124Z" fill="#7FB2F0"/>
<path d="M1207.82 122.691C1207.82 122.968 1207.82 123.246 1207.82 123.51H1284.61C1284.61 123.232 1284.47 122.955 1284.41 122.691H1207.82Z" fill="#7FB2F0"/>
<path d="M1208.11 127.091C1208.11 127.368 1208.19 127.646 1208.25 127.91H1285.65C1285.65 127.646 1285.54 127.368 1285.47 127.091H1208.11Z" fill="#7FB2F0"/>
<path d="M1209.01 131.462C1209.08 131.74 1209.15 132.018 1209.23 132.281H1286.63C1286.63 132.004 1286.51 131.74 1286.45 131.462H1209.01Z" fill="#7FB2F0"/>
<path d="M1210.41 135.847L1210.73 136.666H1287.55C1287.55 136.388 1287.45 136.125 1287.38 135.847H1210.41Z" fill="#7FB2F0"/>
<path d="M1211.13 141.052H1288.44C1288.44 140.775 1288.34 140.511 1288.27 140.233H1211.31L1211.13 141.052Z" fill="#7FB2F0"/>
<path d="M1210.2 145.438H1289.31C1289.31 145.16 1289.21 144.897 1289.16 144.619H1210.4L1210.2 145.438Z" fill="#7FB2F0"/>
<path d="M1209.26 149.823H1290.09C1290.09 149.546 1289.99 149.268 1289.95 148.991H1209.45L1209.26 149.823Z" fill="#7FB2F0"/>
<path d="M1208.27 154.209H1290.87C1290.87 153.932 1290.77 153.654 1290.73 153.376H1208.51L1208.27 154.209Z" fill="#7FB2F0"/>
<path d="M1207.4 158.594H1291.55C1291.55 158.317 1291.46 158.039 1291.41 157.762H1207.58L1207.4 158.594Z" fill="#7FB2F0"/>
<path d="M1206.46 162.981H1292.31L1292.18 162.148H1206.64L1206.46 162.981Z" fill="#7FB2F0"/>
<path d="M1205.5 167.339H1292.93C1292.93 167.061 1292.84 166.783 1292.79 166.506H1205.64L1205.5 167.339Z" fill="#7FB2F0"/>
<path d="M1204.6 171.737H1293.65L1293.53 170.918H1204.71L1204.6 171.737Z" fill="#7FB2F0"/>
<path d="M1203.65 176.124H1294.32L1294.2 175.305H1203.83L1203.65 176.124Z" fill="#7FB2F0"/>
<path d="M1202.72 180.509H1294.88C1294.88 180.245 1294.79 179.968 1294.76 179.69H1202.9L1202.72 180.509Z" fill="#7FB2F0"/>
<path d="M1201.85 184.616L1205.29 184.894H1295.43C1295.43 184.63 1295.43 184.367 1295.33 184.075H1201.96L1201.85 184.616Z" fill="#7FB2F0"/>
<path d="M1253.67 188.461C1257.95 188.752 1262.19 189.03 1266.29 189.28H1295.97C1295.97 189.044 1295.97 188.766 1295.88 188.461H1253.67Z" fill="#7FB2F0"/>
<path d="M1208.98 130.893C1208.37 128.162 1208.18 125.356 1208.4 122.566C1209.11 116.949 1211.04 111.554 1214.05 106.759C1215.67 103.983 1217.61 101.429 1219.22 98.6677C1219.23 98.6604 1219.23 98.6521 1219.24 98.6433C1219.24 98.6344 1219.24 98.6252 1219.24 98.6162C1219.24 98.6072 1219.23 98.5985 1219.23 98.5907C1219.22 98.5828 1219.22 98.576 1219.21 98.5705C1219.2 98.565 1219.2 98.5611 1219.19 98.5588C1219.18 98.5565 1219.17 98.5561 1219.16 98.5573C1219.15 98.5586 1219.14 98.5617 1219.13 98.5663C1219.13 98.571 1219.12 98.5771 1219.11 98.5844C1217.61 100.386 1216.22 102.277 1214.95 104.247C1214.97 104.178 1215.01 104.113 1215.05 104.053C1215.49 102.97 1215.95 101.901 1216.43 100.847C1216.43 100.736 1216.3 100.638 1216.24 100.749C1215.69 101.776 1215.16 102.803 1214.66 103.844C1214.35 104.524 1214.09 105.232 1213.85 105.898C1212.26 108.304 1210.87 110.839 1209.69 113.476C1207.23 118.664 1206.55 124.514 1207.73 130.13C1208.54 133.166 1209.82 136.056 1211.52 138.693C1211.54 138.713 1211.56 138.727 1211.58 138.732C1211.61 138.738 1211.64 138.735 1211.66 138.723C1211.68 138.712 1211.7 138.693 1211.71 138.67C1211.72 138.647 1211.72 138.621 1211.72 138.596C1210.54 136.108 1209.61 133.51 1208.94 130.838" fill="#263238"/>
<path d="M1256.09 76.2532C1255.52 77.6411 1247.02 86.1347 1240.35 84.7746C1238.18 84.3305 1240.08 72.3673 1240.08 72.3673V71.4513L1239.22 58.6415L1255.23 51.5634L1257.52 50.6475C1257.52 50.6475 1257.52 54.1726 1257.52 58.5582V59.946C1257.52 60.5983 1257.52 61.3339 1257.52 61.9445C1257.52 62.5552 1257.52 62.9438 1257.52 63.4712C1257.52 63.9985 1257.52 64.5259 1257.52 65.0533C1257.3 68.8153 1256.82 72.5576 1256.09 76.2532Z" fill="#EB9481"/>
<path d="M1257.42 58.5582C1255.63 61.8392 1253.14 64.6917 1250.14 66.918C1247.14 69.1442 1243.69 70.6911 1240.03 71.4513L1239.17 58.6415L1255.17 51.5634L1257.46 50.6475C1257.46 50.6475 1257.46 54.1726 1257.42 58.5582Z" fill="#263238"/>
<path d="M1223.39 39.4061C1221.04 61.8199 1234.2 65.7752 1239.03 66.2471C1243.41 66.7051 1258.46 67.6349 1263.07 45.6514C1267.67 23.668 1258.04 15.4242 1248.05 13.8559C1238.06 12.2876 1225.73 16.9924 1223.39 39.4061Z" fill="#EB9481"/>
<path d="M1228.37 34.5767C1228.89 34.5533 1229.4 34.5023 1229.91 34.424C1230.47 34.4454 1231.01 34.2792 1231.47 33.9521C1231.59 33.8232 1231.66 33.6583 1231.68 33.4828C1231.7 33.3073 1231.65 33.1309 1231.56 32.9807C1231.33 32.7088 1231.04 32.5035 1230.7 32.3862C1230.37 32.269 1230.01 32.2442 1229.66 32.3145C1228.94 32.3464 1228.25 32.6427 1227.73 33.1472C1227.62 33.2688 1227.54 33.4219 1227.51 33.5872C1227.48 33.7525 1227.5 33.9225 1227.57 34.0757C1227.64 34.2288 1227.75 34.3582 1227.9 34.4474C1228.04 34.5366 1228.2 34.5816 1228.37 34.5767Z" fill="#263238"/>
<path d="M1243.12 36.2854C1242.62 36.1574 1242.12 35.9999 1241.64 35.8135C1241.1 35.7146 1240.61 35.4413 1240.25 35.0363C1240.16 34.8869 1240.11 34.7099 1240.13 34.5338C1240.15 34.3577 1240.22 34.1926 1240.35 34.0648C1240.63 33.8503 1240.96 33.7131 1241.31 33.6668C1241.66 33.6206 1242.02 33.6669 1242.35 33.8011C1243.05 33.9838 1243.66 34.4184 1244.07 35.0225C1244.16 35.1671 1244.2 35.3354 1244.19 35.5055C1244.19 35.6756 1244.13 35.8395 1244.03 35.9759C1243.92 36.1123 1243.78 36.2147 1243.62 36.27C1243.46 36.3252 1243.29 36.3305 1243.12 36.2854Z" fill="#263238"/>
<path d="M1239.17 41.6279C1239.17 41.6279 1239.28 41.7112 1239.26 41.7806C1239.03 43.2933 1239 45.0698 1240.31 45.7498C1240.31 45.7498 1240.31 45.847 1240.31 45.8331C1238.64 45.389 1238.7 43.0297 1239.17 41.6279Z" fill="#263238"/>
<path d="M1240.74 40.2118C1243.21 40.3506 1242.76 45.2774 1240.47 45.1525C1238.18 45.0276 1238.65 40.1008 1240.74 40.2118Z" fill="#263238"/>
<path d="M1241.68 40.5581C1242.08 40.8773 1242.46 41.4047 1242.97 41.5157C1243.48 41.6267 1244.07 41.141 1244.51 40.683C1244.51 40.683 1244.59 40.683 1244.59 40.7524C1244.53 41.6961 1244.07 42.6398 1243.04 42.6815C1242.01 42.7231 1241.51 41.8349 1241.36 40.8634C1241.33 40.683 1241.51 40.4332 1241.68 40.5581Z" fill="#263238"/>
<path d="M1230.73 40.4756C1230.73 40.4756 1230.6 40.4756 1230.6 40.6005C1230.52 42.141 1230.17 43.8758 1228.76 44.2783V44.3616C1230.48 44.2644 1230.91 41.9467 1230.73 40.4756Z" fill="#263238"/>
<path d="M1229.49 38.7679C1227.05 38.3793 1226.46 43.3062 1228.72 43.6531C1230.98 44.0001 1231.55 39.101 1229.49 38.7679Z" fill="#263238"/>
<path d="M1228.43 38.976C1228.01 39.1842 1227.57 39.6144 1227.11 39.5867C1226.65 39.5589 1226.22 38.976 1225.94 38.4209C1225.94 38.4209 1225.87 38.4209 1225.86 38.4209C1225.72 39.3646 1225.86 40.3778 1226.79 40.6692C1227.72 40.9607 1228.3 40.1973 1228.63 39.2814C1228.7 39.1703 1228.61 38.8789 1228.43 38.976Z" fill="#263238"/>
<path d="M1237.93 53.8397C1237.54 54.1728 1237.16 54.6586 1236.54 54.6724C1235.98 54.6447 1235.42 54.4881 1234.92 54.2144C1234.92 54.2144 1234.82 54.2145 1234.85 54.2977C1235.06 54.6081 1235.34 54.8573 1235.68 55.0186C1236.01 55.1799 1236.38 55.2473 1236.75 55.2137C1237.07 55.1451 1237.36 54.9846 1237.58 54.7525C1237.81 54.5203 1237.96 54.2269 1238.02 53.9091C1238.1 53.8258 1237.99 53.7842 1237.93 53.8397Z" fill="#263238"/>
<path d="M1232.1 47.6641C1232.1 47.6641 1231.56 49.9125 1231.45 50.995C1231.45 51.0921 1231.7 51.1615 1232.06 51.2309C1232.97 51.4928 1233.93 51.5019 1234.84 51.2573C1235.75 51.0126 1236.57 50.5236 1237.22 49.8431C1237.31 49.7459 1237.22 49.621 1237.07 49.6765C1235.6 50.4694 1233.92 50.771 1232.27 50.537C1232.27 50.2317 1233.34 46.7204 1233.17 46.6927C1232.33 46.6781 1231.49 46.7809 1230.67 46.998C1231.67 42.2793 1233.45 37.7688 1234.35 33.1195C1234.35 33.0863 1234.35 33.0532 1234.33 33.0254C1234.31 32.9976 1234.28 32.9766 1234.25 32.9656C1234.22 32.9546 1234.18 32.9542 1234.15 32.9644C1234.12 32.9747 1234.09 32.995 1234.07 33.0224C1232.05 37.8085 1230.51 42.7827 1229.47 47.8723C1229.37 48.3858 1231.66 47.8029 1232.1 47.6641Z" fill="#263238"/>
<path d="M1232.33 50.9678C1232.84 51.8708 1233.58 52.6258 1234.48 53.1606C1234.98 53.4372 1235.55 53.5535 1236.11 53.4936C1237.35 53.341 1237.5 52.2584 1237.43 51.287C1237.38 50.7759 1237.27 50.2727 1237.1 49.7881C1235.68 50.6813 1234 51.0947 1232.33 50.9678Z" fill="#263238"/>
<path d="M1234.48 53.1596C1234.98 53.4362 1235.55 53.5525 1236.11 53.4927C1237.35 53.34 1237.5 52.2575 1237.43 51.286C1236.8 51.2242 1236.17 51.375 1235.63 51.7145C1235.1 52.0539 1234.69 52.5625 1234.48 53.1596Z" fill="#FF9ABB"/>
<path d="M1261.36 44.6945C1257.2 45.3745 1255.81 35.9788 1255.81 35.9788C1255.81 35.9788 1238.13 33.7166 1236.07 19.4912C1234.09 25.3952 1229.91 30.3097 1224.4 33.217C1224.4 33.217 1224.4 17.5205 1236.68 13.9815C1236.68 13.9815 1251.87 7.73615 1261.03 19.63C1270.19 31.5238 1264.11 44.2365 1261.36 44.6945Z" fill="#263238"/>
<path d="M1236.03 18.4365C1235.92 20.6519 1236.28 22.8662 1237.09 24.9316C1237.87 27.033 1239.07 28.951 1240.63 30.5663C1241.02 30.967 1241.43 31.3469 1241.86 31.7043L1242.48 32.2595L1243.18 32.7313C1243.65 33.0367 1244.11 33.3559 1244.57 33.6334C1245.02 33.911 1245.57 34.1331 1246.07 34.369C1246.32 34.48 1246.57 34.6188 1246.81 34.716L1247.61 34.9935L1249.17 35.5209C1250.24 35.7707 1251.33 35.965 1252.41 36.1454C1251.38 35.743 1250.33 35.4654 1249.33 35.0629L1247.84 34.4106L1247.11 34.0914L1246.41 33.6889C1245.94 33.4114 1245.48 33.1477 1245.02 32.8979C1244.57 32.6481 1244.16 32.2733 1243.73 31.968L1243.08 31.4962L1242.5 30.9688C1242.09 30.6285 1241.71 30.2622 1241.35 29.8724C1239.12 27.5304 1237.52 24.6673 1236.68 21.5453C1236.38 20.5294 1236.16 19.4894 1236.03 18.4365Z" fill="#263238"/>
<path d="M1258.82 46.5956C1258.82 46.5956 1263.86 39.6563 1267.02 41.4605C1270.19 43.2647 1266.3 53.396 1262.53 54.7283C1262.05 54.9306 1261.55 55.0356 1261.03 55.037C1260.52 55.0385 1260.01 54.9364 1259.54 54.7369C1259.07 54.5373 1258.64 54.2445 1258.28 53.8758C1257.92 53.5071 1257.64 53.0701 1257.46 52.5911L1258.82 46.5956Z" fill="#EB9481"/>
<path d="M1265.84 44.3887V44.4858C1263.19 45.5128 1261.76 47.9138 1260.75 50.4258C1260.91 50.1656 1261.12 49.9428 1261.37 49.7727C1261.63 49.6027 1261.91 49.4893 1262.21 49.4405C1262.51 49.3918 1262.82 49.4087 1263.11 49.4901C1263.41 49.5715 1263.68 49.7156 1263.91 49.9123C1263.91 49.9123 1263.91 50.065 1263.84 50.0511C1263.39 49.8927 1262.89 49.8811 1262.42 50.0179C1261.96 50.1547 1261.55 50.4331 1261.25 50.8144C1260.76 51.4595 1260.33 52.1522 1259.97 52.8823C1259.85 53.1182 1259.42 52.9794 1259.51 52.7157C1259.54 49.371 1262.23 44.6662 1265.84 44.3887Z" fill="#263238"/>
<path d="M1259.26 19.3799C1257.25 18.6305 1255.34 7.37502 1262.73 2.00406C1270.13 -3.3669 1279.61 2.76737 1275.64 11.9965C1273.13 17.8255 1263.52 20.962 1259.26 19.3799Z" fill="#263238"/>
<path d="M1273.09 1.35059C1275.27 3.17764 1276.78 5.69256 1277.35 8.48411C1277.64 9.78274 1277.59 11.1361 1277.2 12.408C1276.8 13.6798 1276.08 14.8252 1275.1 15.7287C1273.03 17.5755 1270.49 18.8187 1267.76 19.3232C1266.37 19.6309 1264.95 19.8075 1263.52 19.8506C1262.09 19.9505 1260.64 19.7906 1259.26 19.3787C1260.57 20.0994 1262.01 20.5257 1263.5 20.6278C1264.98 20.785 1266.48 20.7617 1267.97 20.5584C1271.03 20.2296 1273.91 18.9482 1276.21 16.8945C1277.37 15.794 1278.22 14.3982 1278.65 12.8558C1279.03 11.3204 1279 9.71374 1278.57 8.19267C1278.17 6.73981 1277.47 5.38392 1276.53 4.20761C1275.59 3.0313 1274.42 2.05921 1273.09 1.35059Z" fill="#263238"/>
<path d="M1269.2 81.5405C1287.77 109.478 1298.26 146.672 1296.96 154.86C1295.46 163.868 1282.75 194.317 1269.64 207.737C1266.19 211.276 1240.01 182.243 1243.55 178.315C1250.37 170.737 1263.9 148.407 1264.5 143.314C1265.05 138.609 1258.2 108.34 1256.39 91.1305C1254.59 74.6013 1260.57 68.5364 1269.2 81.5405Z" fill="#EB9481"/>
<path d="M1244.36 177.386C1244.36 177.386 1230.15 183.632 1221.04 188.156C1215.96 190.682 1207.64 195.789 1204.75 199.356C1200.45 204.671 1185.81 229.708 1191.8 233.386C1197.23 236.717 1207.07 213.623 1207.07 213.623C1207.07 213.623 1195.08 236.05 1202.35 238.868C1209.62 241.685 1217.27 214.081 1217.27 214.081C1217.27 214.081 1205.46 237.411 1213.41 239.062C1219.38 240.422 1227.7 215.83 1227.7 215.83C1227.7 215.83 1217.7 235.953 1223.82 237.549C1230.59 239.312 1239.71 217.093 1239.71 217.093C1255.96 218.48 1264.29 212.554 1269.7 207.614C1271.03 206.42 1244.36 177.386 1244.36 177.386Z" fill="#EB9481"/>
<path d="M1210.68 205.587C1209.18 208.168 1207.64 210.777 1206.36 213.484C1205.08 216.19 1203.92 218.952 1202.9 221.811C1201.51 225.463 1200.54 229.263 1200.02 233.136C1201.4 226.335 1205.85 216.565 1207.12 213.858C1208.4 211.152 1209.52 208.307 1210.79 205.67C1210.81 205.573 1210.72 205.531 1210.68 205.587Z" fill="#263238"/>
<path d="M1220.54 210.001C1218.77 213.373 1216.88 216.676 1215.24 220.132C1213.6 223.588 1212.47 226.988 1211.08 230.541C1210.98 230.818 1211.16 230.777 1211.27 230.541C1212.8 227.043 1214.46 223.935 1216.03 220.465C1217.6 216.995 1219.02 213.526 1220.7 210.056C1220.65 209.973 1220.57 209.945 1220.54 210.001Z" fill="#263238"/>
<path d="M1229.69 212.249C1226.83 217.374 1224.51 222.778 1222.75 228.375C1222.65 228.653 1222.89 228.584 1223 228.375C1225.19 222.977 1226.89 218.661 1229.84 212.429C1229.91 212.263 1229.76 212.151 1229.69 212.249Z" fill="#263238"/>
<path d="M1287.05 110.2L1257.46 115.904C1257.46 115.904 1253.92 95.1555 1255.43 82.5955C1256.95 70.0355 1264.19 72.4504 1271.23 82.5955C1278.26 92.7407 1287.05 110.2 1287.05 110.2Z" fill="#7FB2F0"/>
<path opacity="0.1" d="M1287.05 110.2L1257.46 115.904C1257.46 115.904 1253.92 95.1555 1255.43 82.5955C1256.95 70.0355 1264.19 72.4504 1271.23 82.5955C1278.26 92.7407 1287.05 110.2 1287.05 110.2Z" fill="black"/>
<path d="M257.99 170.63V198.63H250.08V170.63C250.08 159.99 242 151.34 232.08 151.34C222.16 151.34 214.08 159.99 214.08 170.63V198.63H206.17V170.63C206.17 155.39 217.8 143 232.1 143C246.4 143 257.99 155.39 257.99 170.63Z" fill="#C7C7C7"/>
<path d="M206.13 177.9L214.04 178.22V198.61H206.13V177.9Z" fill="#A6A6A6"/>
<path d="M257.99 180.01V198.61H250.08V179.69L257.99 180.01Z" fill="#A6A6A6"/>
<path d="M268.12 182.68H196V248.11H268.12V182.68Z" fill="#7FB2F0"/>
<path opacity="0.1" d="M268.12 182.68H232.06V248.11H268.12V182.68Z" fill="black"/>
<path d="M235.11 217.79L238.11 232.11H225.32L228.32 217.79C227.137 217.054 226.226 215.953 225.725 214.653C225.223 213.354 225.159 211.926 225.541 210.586C225.924 209.247 226.733 208.068 227.845 207.229C228.957 206.39 230.312 205.937 231.705 205.937C233.098 205.937 234.453 206.39 235.565 207.229C236.678 208.068 237.486 209.247 237.869 210.586C238.251 211.926 238.187 213.354 237.686 214.653C237.184 215.953 236.273 217.054 235.09 217.79H235.11Z" fill="#263238"/>
<path d="M240.39 357.187C240.392 358.447 240.02 359.679 239.322 360.727C238.624 361.776 237.63 362.594 236.467 363.078C235.304 363.562 234.023 363.69 232.787 363.446C231.551 363.202 230.415 362.597 229.523 361.708C228.63 360.819 228.022 359.684 227.774 358.449C227.527 357.214 227.651 355.933 228.131 354.768C228.611 353.604 229.426 352.607 230.473 351.906C231.519 351.204 232.75 350.829 234.01 350.827C234.846 350.825 235.675 350.989 236.448 351.308C237.222 351.627 237.925 352.095 238.517 352.685C239.11 353.276 239.58 353.977 239.901 354.75C240.223 355.522 240.389 356.35 240.39 357.187Z" fill="#0047C5"/>
<path d="M258.17 344.426C258.172 345.687 257.8 346.919 257.101 347.968C256.403 349.017 255.408 349.835 254.245 350.319C253.081 350.802 251.8 350.93 250.563 350.685C249.327 350.441 248.191 349.835 247.299 348.944C246.407 348.054 245.8 346.919 245.553 345.683C245.306 344.447 245.432 343.166 245.914 342.001C246.396 340.836 247.212 339.841 248.26 339.141C249.308 338.44 250.54 338.066 251.8 338.066C252.636 338.065 253.464 338.229 254.237 338.548C255.01 338.867 255.712 339.335 256.304 339.926C256.895 340.516 257.365 341.218 257.685 341.99C258.005 342.763 258.17 343.59 258.17 344.426Z" fill="#0047C5"/>
<path d="M258.25 371.417C258.147 372.653 257.686 373.833 256.924 374.812C256.162 375.791 255.131 376.527 253.958 376.93C252.785 377.333 251.519 377.386 250.316 377.082C249.113 376.778 248.025 376.13 247.184 375.218C246.343 374.306 245.786 373.168 245.58 371.945C245.375 370.721 245.53 369.464 246.027 368.327C246.524 367.191 247.341 366.223 248.378 365.543C249.416 364.862 250.629 364.499 251.87 364.497C253.632 364.572 255.293 365.342 256.489 366.639C257.684 367.936 258.318 369.654 258.25 371.417Z" fill="#0047C5"/>
<path d="M250 370.607C249.73 371.007 245.5 368.607 240.54 365.237C235.58 361.867 231.8 358.817 232.07 358.417C232.34 358.017 236.58 360.417 241.53 363.787C246.48 367.157 250.28 370.207 250 370.607Z" fill="#0047C5"/>
<path d="M250.51 344.027C250.81 344.407 247.51 347.437 243.21 350.797C238.91 354.157 235.13 356.557 234.83 356.177C234.53 355.797 237.83 352.767 242.13 349.407C246.43 346.047 250.22 343.607 250.51 344.027Z" fill="#0047C5"/>
<path d="M368.77 262.836L352.38 256.836L336.17 262.746C334.1 263.746 332.28 264.356 332.28 266.336V276.196C332.248 283.101 334.097 289.884 337.63 295.816C341.109 301.748 346.323 306.471 352.57 309.346C359.2 307.136 364.15 301.246 367.18 296.206C370.714 290.271 372.564 283.484 372.53 276.576V267.716C372.613 266.583 372.276 265.459 371.582 264.558C370.888 263.658 369.887 263.045 368.77 262.836Z" fill="#EBEBEB"/>
<path d="M368.77 262.836C369.115 262.916 369.45 263.033 369.77 263.186C370.77 263.585 371.586 264.34 372.06 265.306C372.384 266.012 372.551 266.78 372.55 267.556C372.55 268.396 372.55 269.306 372.55 270.296C372.55 272.296 372.55 274.516 372.55 277.016C372.527 283 371.099 288.895 368.38 294.226C366.75 297.422 364.695 300.382 362.27 303.026C359.624 305.952 356.305 308.19 352.6 309.546H352.53H352.45C347.068 307.083 342.437 303.235 339.03 298.396C334.994 292.699 332.619 285.993 332.17 279.026C332.05 277.386 332.07 275.766 332.07 274.176V269.526C332.07 268.756 332.07 267.996 332.07 267.246C332.07 266.866 332.07 266.506 332.07 266.116C332.097 265.716 332.213 265.326 332.41 264.976C332.849 264.337 333.459 263.835 334.17 263.526C334.81 263.176 335.47 262.896 336.1 262.596L352.35 256.676H352.44L364.49 261.176L367.69 262.396L368.51 262.716L368.79 262.846L368.5 262.756L367.67 262.466L364.44 261.316L352.35 256.926H352.44L336.23 262.926C335.6 263.236 334.94 263.526 334.32 263.866C333.685 264.153 333.141 264.61 332.75 265.186C332.463 265.84 332.359 266.559 332.45 267.266V269.546C332.45 271.076 332.45 272.636 332.45 274.216C332.45 275.796 332.45 277.416 332.56 279.036C333.025 285.915 335.381 292.532 339.37 298.156C342.742 302.925 347.312 306.719 352.62 309.156H352.47C356.117 307.82 359.387 305.621 362 302.746C364.44 300.131 366.516 297.198 368.17 294.026C370.866 288.761 372.3 282.941 372.36 277.026C372.36 274.526 372.36 272.276 372.36 270.306C372.36 268.336 372.55 266.606 371.92 265.376C371.472 264.427 370.693 263.673 369.73 263.256C369.41 263.106 369.16 263.006 368.99 262.946L368.77 262.836Z" fill="#263238"/>
<path d="M363.82 289.286H360.38V270.546C360.38 268.425 359.537 266.39 358.037 264.89C356.537 263.389 354.502 262.546 352.38 262.546C350.258 262.546 348.223 263.389 346.723 264.89C345.223 266.39 344.38 268.425 344.38 270.546V289.286H340.94V270.546C340.94 267.512 342.145 264.603 344.291 262.457C346.436 260.312 349.346 259.106 352.38 259.106C355.414 259.106 358.324 260.312 360.469 262.457C362.615 264.603 363.82 267.512 363.82 270.546V289.286Z" fill="#455A64"/>
<g opacity="0.4">
<path d="M363.82 289.286H360.38V270.546C360.38 268.425 359.537 266.39 358.037 264.89C356.537 263.389 354.502 262.546 352.38 262.546C350.258 262.546 348.223 263.389 346.723 264.89C345.223 266.39 344.38 268.425 344.38 270.546V289.286H340.94V270.546C340.94 267.512 342.145 264.603 344.291 262.457C346.436 260.312 349.346 259.106 352.38 259.106C355.414 259.106 358.324 260.312 360.469 262.457C362.615 264.603 363.82 267.512 363.82 270.546V289.286Z" fill="black"/>
</g>
<path d="M364.4 280.946H340.35C338.478 280.946 336.96 282.464 336.96 284.336V297.336C336.96 299.209 338.478 300.726 340.35 300.726H364.4C366.272 300.726 367.79 299.209 367.79 297.336V284.336C367.79 282.464 366.272 280.946 364.4 280.946Z" fill="#0047C5"/>
<g opacity="0.5">
<path d="M354.95 288.266C354.954 287.785 354.824 287.312 354.574 286.902C354.324 286.491 353.964 286.158 353.534 285.941C353.105 285.724 352.623 285.631 352.144 285.673C351.665 285.715 351.207 285.89 350.822 286.179C350.437 286.468 350.141 286.858 349.966 287.307C349.791 287.755 349.746 288.243 349.834 288.716C349.922 289.189 350.141 289.628 350.465 289.983C350.79 290.338 351.207 290.596 351.67 290.726V294.586H353.08V290.726C353.617 290.576 354.09 290.254 354.428 289.81C354.766 289.366 354.949 288.824 354.95 288.266Z" fill="black"/>
</g>
<path d="M338.6 298.856C338.53 298.856 338.48 295.556 338.48 291.486C338.48 287.416 338.53 284.116 338.6 284.116C338.67 284.116 338.73 287.416 338.73 291.486C338.73 295.556 338.67 298.856 338.6 298.856Z" fill="#FAFAFA"/>
<path d="M350.36 291.566C350.249 291.532 350.147 291.474 350.06 291.396C349.8 291.209 349.574 290.979 349.39 290.716C349.07 290.291 348.848 289.801 348.74 289.28C348.631 288.759 348.639 288.221 348.762 287.703C348.885 287.186 349.121 286.702 349.452 286.286C349.784 285.87 350.203 285.532 350.68 285.296C350.961 285.152 351.26 285.048 351.57 284.986C351.79 284.986 351.92 284.986 351.92 284.986C351.519 285.109 351.13 285.27 350.76 285.466C350.324 285.709 349.943 286.04 349.642 286.438C349.341 286.836 349.127 287.292 349.012 287.777C348.897 288.263 348.885 288.767 348.976 289.257C349.067 289.748 349.259 290.214 349.54 290.626C349.786 290.963 350.06 291.277 350.36 291.566Z" fill="#FAFAFA"/>
<path d="M396.84 183.967C397.481 183.58 398.17 183.281 398.89 183.077L399.31 181.077L402.73 181.017L403.22 183.017C403.947 183.196 404.646 183.472 405.3 183.837L407.03 182.707L409.49 185.077L408.42 186.847C408.802 187.472 409.101 188.144 409.31 188.847L411.31 189.267L411.37 192.687L409.37 193.177C409.19 193.903 408.914 194.603 408.55 195.257L409.68 196.987L407.31 199.447L405.54 198.377C404.899 198.763 404.21 199.062 403.49 199.267L403.07 201.267L399.65 201.327L399.16 199.327C398.433 199.147 397.734 198.871 397.08 198.507L395.35 199.637L392.89 197.257L393.96 195.497C393.574 194.856 393.274 194.166 393.07 193.447L391.07 193.027L391.01 189.607L393.01 189.107C393.191 188.384 393.467 187.688 393.83 187.037L392.7 185.307L395.07 182.847L396.84 183.917V183.967ZM398.67 188.527C398.166 189.049 397.828 189.709 397.698 190.423C397.569 191.137 397.655 191.874 397.944 192.539C398.234 193.205 398.714 193.77 399.324 194.162C399.935 194.555 400.648 194.758 401.374 194.745C402.099 194.733 402.805 194.505 403.401 194.092C403.998 193.678 404.458 193.097 404.724 192.422C404.99 191.746 405.05 191.007 404.896 190.298C404.743 189.589 404.382 188.941 403.86 188.437C403.513 188.102 403.104 187.838 402.656 187.662C402.207 187.485 401.728 187.398 401.246 187.407C400.764 187.415 400.289 187.518 399.847 187.71C399.405 187.902 399.005 188.18 398.67 188.527Z" fill="#0047C5"/>
<path d="M398.67 188.526C398.862 188.29 399.092 188.087 399.35 187.926C399.946 187.541 400.64 187.335 401.35 187.335C402.06 187.335 402.754 187.541 403.35 187.926C403.913 188.295 404.368 188.805 404.67 189.406C404.828 189.722 404.939 190.059 405 190.406C405.065 190.78 405.065 191.162 405 191.536C404.901 192.332 404.551 193.074 404 193.656C403.438 194.229 402.71 194.61 401.92 194.746C401.546 194.811 401.164 194.811 400.79 194.746C400.444 194.698 400.108 194.601 399.79 194.456C399.178 194.174 398.65 193.736 398.26 193.186C397.928 192.706 397.712 192.155 397.63 191.576C397.508 190.742 397.678 189.891 398.11 189.166C398.262 188.901 398.458 188.665 398.69 188.466C398.69 188.466 398.47 188.706 398.18 189.206C397.789 189.923 397.648 190.75 397.78 191.556C397.864 192.11 398.08 192.635 398.41 193.086C398.783 193.605 399.287 194.016 399.87 194.276C400.187 194.418 400.525 194.51 400.87 194.546C401.224 194.606 401.586 194.606 401.94 194.546C402.682 194.418 403.364 194.059 403.89 193.52C404.416 192.982 404.759 192.291 404.87 191.546C404.97 190.846 404.859 190.132 404.55 189.496C404.268 188.92 403.84 188.427 403.31 188.066C402.734 187.69 402.064 187.483 401.376 187.468C400.689 187.454 400.011 187.634 399.42 187.986C399.159 188.151 398.909 188.331 398.67 188.526Z" fill="#455A64"/>
<path d="M396.84 183.966L396.73 183.906L396.39 183.706C396.08 183.526 395.63 183.266 395.06 182.916C394.45 183.546 393.66 184.386 392.7 185.396V185.326L393.84 187.046C393.488 187.697 393.219 188.389 393.04 189.106L391.04 189.606L391.1 189.536C391.1 190.606 391.1 191.756 391.17 192.956L391.1 192.876L393.1 193.286H393.15C393.359 193.989 393.658 194.661 394.04 195.286V195.336L392.97 197.106V196.996L395.44 199.366H395.32L397.04 198.226H397.09H397.15C397.779 198.58 398.451 198.852 399.15 199.036H399.21V199.096C399.37 199.726 399.54 200.416 399.71 201.096L399.61 201.016L403.03 200.956L402.93 201.036C403.06 200.396 403.2 199.706 403.35 199.036V198.976H403.41C404.112 198.772 404.785 198.476 405.41 198.096H405.47H405.52L407.29 199.166H407.16L409.54 196.706V196.836L408.4 195.106V195.046C408.757 194.401 409.029 193.712 409.21 192.996V192.936H409.27L411.27 192.446L411.2 192.546C411.2 191.38 411.18 190.24 411.14 189.126L411.22 189.216L409.22 188.796H409.17V188.736C408.966 188.034 408.67 187.361 408.29 186.736V186.686L409.37 184.926V185.036L406.91 182.646H407.02L405.28 183.776C404.653 183.415 403.98 183.139 403.28 182.956L402.79 180.956L402.85 181.006H399.43H399.48C399.3 181.816 399.16 182.476 399.04 183.006C398.498 183.155 397.972 183.356 397.47 183.606L397.11 183.806L396.98 183.866L397.1 183.786L397.46 183.576C397.956 183.311 398.479 183.1 399.02 182.946L399.42 180.946L402.84 180.866H402.89C403.05 181.486 403.21 182.146 403.39 182.866L403.34 182.816C404.074 182.988 404.781 183.261 405.44 183.626H405.36L407.09 182.486H407.14H407.19L409.65 184.856L409.7 184.906V184.966L408.63 186.736V186.636C409.02 187.283 409.323 187.979 409.53 188.706L409.46 188.646L411.46 189.056H411.53V189.136C411.53 190.246 411.53 191.386 411.6 192.556V192.636H411.52L409.52 193.126L409.6 193.056C409.415 193.789 409.136 194.495 408.77 195.156V195.046L409.9 196.776L409.95 196.846L409.89 196.906L407.51 199.366L407.45 199.436L407.38 199.386L405.61 198.316H405.72C405.072 198.705 404.376 199.007 403.65 199.216L403.72 199.136C403.58 199.836 403.44 200.526 403.3 201.136V201.216H403.21L399.79 201.276H399.71V201.196C399.54 200.506 399.37 199.816 399.22 199.196L399.29 199.266C398.556 199.087 397.85 198.812 397.19 198.446H397.29L395.56 199.576H395.5L395.44 199.516L392.98 197.136H392.93V197.076L394 195.306V195.396C393.61 194.75 393.31 194.054 393.11 193.326L393.17 193.396L391.17 192.966H391.1V192.896C391.1 191.696 391.1 190.556 391.05 189.476V189.416H391.11L393.11 188.936L393.06 188.986C393.239 188.255 393.518 187.551 393.89 186.896V186.956L392.76 185.226L395.15 182.776L396.45 183.586L396.79 183.796L396.84 183.966Z" fill="#263238"/>
<path d="M376.47 180.866C376.852 180.637 377.262 180.459 377.69 180.336L377.94 179.126H379.99L380.29 180.326C380.723 180.435 381.14 180.599 381.53 180.816L382.53 180.136L384 181.566L383.36 182.616C383.589 183.002 383.768 183.415 383.89 183.846L385.17 184.026V186.076L383.97 186.366C383.86 186.802 383.695 187.222 383.48 187.616L384.16 188.616L382.73 190.096L381.67 189.456C381.288 189.686 380.878 189.864 380.45 189.986L380.2 191.196H378.15L377.85 189.986C377.416 189.881 376.999 189.716 376.61 189.496L375.61 190.176L374.13 188.756L374.77 187.696C374.542 187.314 374.364 186.904 374.24 186.476L373.03 186.216V184.216L374.17 184.026C374.27 183.592 374.432 183.175 374.65 182.786L373.98 181.786L375.4 180.316L376.46 180.956L376.47 180.866ZM377.56 183.596C377.258 183.91 377.056 184.306 376.979 184.734C376.903 185.163 376.955 185.604 377.129 186.003C377.303 186.402 377.592 186.74 377.958 186.975C378.325 187.209 378.752 187.33 379.187 187.322C379.622 187.313 380.045 187.176 380.402 186.927C380.759 186.679 381.035 186.33 381.193 185.924C381.352 185.519 381.387 185.076 381.294 184.651C381.201 184.226 380.984 183.838 380.67 183.536C380.248 183.135 379.685 182.915 379.103 182.927C378.52 182.938 377.966 183.179 377.56 183.596Z" fill="#0047C5"/>
<path d="M377.56 183.597C377.675 183.454 377.814 183.332 377.97 183.237C378.393 182.961 378.898 182.841 379.4 182.897C379.89 182.944 380.351 183.15 380.712 183.484C381.073 183.819 381.315 184.262 381.4 184.747C381.43 184.972 381.43 185.201 381.4 185.427C381.331 185.902 381.118 186.345 380.79 186.697C380.453 187.04 380.015 187.268 379.54 187.347C379.318 187.381 379.092 187.381 378.87 187.347C378.652 187.319 378.44 187.258 378.24 187.167C377.876 187.002 377.562 186.743 377.33 186.417C377.121 186.121 376.99 185.777 376.95 185.417C376.871 184.942 376.948 184.454 377.17 184.027C377.263 183.868 377.381 183.726 377.52 183.607C377.411 183.75 377.311 183.901 377.22 184.057C376.982 184.482 376.894 184.975 376.97 185.457C377.025 185.788 377.155 186.103 377.35 186.377C377.577 186.685 377.88 186.929 378.23 187.087C378.417 187.171 378.616 187.225 378.82 187.247C379.032 187.281 379.248 187.281 379.46 187.247C379.909 187.171 380.323 186.954 380.64 186.626C380.956 186.299 381.16 185.878 381.22 185.427C381.25 185.214 381.25 184.999 381.22 184.787C381.184 184.585 381.12 184.39 381.03 184.207C380.861 183.861 380.607 183.565 380.29 183.347C380.01 183.164 379.692 183.048 379.36 183.007C378.874 182.948 378.382 183.05 377.96 183.297C377.822 183.39 377.688 183.49 377.56 183.597Z" fill="#455A64"/>
<path d="M376.47 180.867H376.4L376.2 180.757L375.4 180.287L373.99 181.767L374.68 182.767C374.465 183.153 374.303 183.567 374.2 183.997L372.99 184.297C372.99 184.947 372.99 185.627 372.99 186.297L374.2 186.547C374.319 186.973 374.498 187.38 374.73 187.757L374.09 188.817V188.747L375.57 190.167H375.49L376.49 189.487C376.875 189.704 377.289 189.866 377.72 189.967C377.82 190.347 377.92 190.757 378.02 191.167L377.96 191.117H380.01L379.95 191.167C380.03 190.777 380.11 190.367 380.2 189.947C380.625 189.824 381.032 189.646 381.41 189.417L382.47 190.057H382.39L383.81 188.587V188.667L383.14 187.667C383.355 187.279 383.52 186.866 383.63 186.437L384.83 186.137V186.197C384.83 185.497 384.83 184.817 384.83 184.147V184.207L383.62 183.947C383.493 183.523 383.315 183.117 383.09 182.737C383.31 182.367 383.53 182.017 383.74 181.677V181.737L382.27 180.317H382.33L381.33 180.997H381.28C380.894 180.779 380.48 180.615 380.05 180.507C379.94 180.067 379.85 179.677 379.76 179.307H377.76C377.66 179.787 377.57 180.187 377.5 180.517C377.175 180.604 376.86 180.725 376.56 180.877L376.34 180.987H376.27L376.34 180.937L376.55 180.817C376.849 180.656 377.164 180.529 377.49 180.437L377.74 179.227H379.79C379.877 179.593 379.977 179.993 380.09 180.427C380.526 180.535 380.947 180.699 381.34 180.917L382.34 180.237L383.82 181.657C383.62 182.007 383.4 182.357 383.19 182.717V182.667C383.421 183.051 383.599 183.465 383.72 183.897L385.17 184.027C385.17 184.697 385.17 185.377 385.17 186.077L383.97 186.367H384.02C383.907 186.806 383.739 187.229 383.52 187.627V187.557C383.74 187.907 383.97 188.247 384.2 188.557L382.78 190.027L381.72 189.387H381.79C381.401 189.618 380.984 189.8 380.55 189.927V189.877C380.46 190.297 380.38 190.707 380.3 191.087H378.25H378.2V191.037C378.1 190.627 378 190.207 377.9 189.837H377.95C377.511 189.728 377.087 189.564 376.69 189.347H376.75L375.75 190.027L374.28 188.607L374.93 187.547V187.607C374.694 187.22 374.512 186.803 374.39 186.367L373.18 186.107C373.18 185.397 373.18 184.707 373.18 184.107L374.39 183.817C374.498 183.38 374.663 182.96 374.88 182.567L374.21 181.567L375.64 180.097L376.42 180.587L376.62 180.707L376.47 180.867Z" fill="#263238"/>
<path d="M376.82 205.626C377.173 205.39 377.561 205.211 377.97 205.096C378.929 204.824 379.945 204.833 380.899 205.122C381.853 205.411 382.704 205.968 383.35 206.726C383.959 207.446 384.363 208.317 384.52 209.246C384.6 209.747 384.6 210.256 384.52 210.756C384.459 211.282 384.317 211.794 384.1 212.276C383.636 213.301 382.859 214.152 381.88 214.706C380.9 215.252 379.772 215.469 378.66 215.326C378.135 215.266 377.622 215.124 377.14 214.906C376.677 214.699 376.249 214.423 375.87 214.086C375.206 213.511 374.698 212.779 374.392 211.955C374.086 211.132 373.993 210.245 374.12 209.376C374.301 208.221 374.872 207.162 375.74 206.376C376.031 206.085 376.369 205.845 376.74 205.666C376.393 205.916 376.059 206.183 375.74 206.466C374.927 207.274 374.406 208.33 374.26 209.466C374.149 210.295 374.247 211.138 374.545 211.919C374.844 212.7 375.334 213.394 375.97 213.936C376.333 214.251 376.741 214.511 377.18 214.706C377.892 215.026 378.669 215.174 379.449 215.139C380.228 215.105 380.989 214.888 381.67 214.506C382.592 213.984 383.324 213.182 383.76 212.216C383.977 211.767 384.115 211.283 384.17 210.786C384.245 210.309 384.245 209.824 384.17 209.346C384.038 208.52 383.7 207.74 383.188 207.078C382.676 206.416 382.007 205.893 381.24 205.556C380.197 205.092 379.028 204.99 377.92 205.266C377.548 205.369 377.181 205.49 376.82 205.626Z" fill="#263238"/>
<path d="M376.17 198.797L376.04 198.667L375.66 198.267L374.2 196.687H374.25L370.17 199.027V198.937C370.43 199.777 370.71 200.707 371.01 201.707C370.273 202.43 369.634 203.247 369.11 204.137V204.187H369.05L366.17 204.047L366.27 203.977C365.87 205.427 365.44 206.977 364.99 208.577L364.93 208.447L367.48 209.817H367.54V210.027C367.529 211.058 367.654 212.087 367.91 213.087V213.167L367.85 213.217L365.71 215.157V214.987L368.05 219.157L367.89 219.097L370.66 218.267H370.74L370.8 218.327C371.523 219.064 372.34 219.703 373.23 220.227H373.3V220.317C373.25 221.217 373.2 222.207 373.15 223.207L373.05 223.057L377.65 224.347L377.48 224.417L378.86 221.877V221.797H378.95C379.978 221.818 381.005 221.697 382 221.437H382.08L382.14 221.497L384.08 223.647H383.9L388.07 221.307L388 221.477C387.72 220.547 387.45 219.617 387.18 218.707V218.617L387.24 218.557C387.991 217.838 388.641 217.021 389.17 216.127V216.057H389.26L392.15 216.207L392 216.317C392.45 214.747 392.88 213.207 393.3 211.707L393.37 211.867L390.83 210.487H390.76V210.407C390.778 209.375 390.657 208.346 390.4 207.347V207.267H390.46L392.6 205.337V205.487L390.27 201.317L390.4 201.367L387.63 202.187H387.57H387.52C386.799 201.445 385.986 200.8 385.1 200.267H385.05V200.027C385.11 198.977 385.16 198.027 385.21 197.147L385.27 197.237L380.67 195.917H380.75L379.35 198.447C378.57 198.432 377.79 198.489 377.02 198.617L376.45 198.727H376.26C376.26 198.727 376.32 198.727 376.44 198.667L377.01 198.537C377.78 198.381 378.564 198.304 379.35 198.307L380.71 195.757V195.707L385.32 196.977H385.38V197.047C385.38 197.937 385.29 198.877 385.24 199.927V199.847C386.146 200.377 386.976 201.026 387.71 201.777H387.61L390.37 200.947H390.46V201.027C391.213 202.36 391.997 203.747 392.81 205.187L392.86 205.277L392.79 205.337L390.65 207.277V207.157C390.911 208.179 391.036 209.231 391.02 210.287L390.95 210.167L393.5 211.537L393.59 211.587V211.697L392.3 216.297V216.407H392.17L389.28 216.267L389.41 216.197C388.88 217.108 388.227 217.942 387.47 218.677V218.537C387.75 219.447 388.02 220.367 388.3 221.307V221.417L388.2 221.467L384.03 223.817H383.93L383.85 223.737L381.91 221.587L382.06 221.637C381.034 221.895 379.978 222.019 378.92 222.007L379.06 221.927C378.58 222.797 378.11 223.667 377.68 224.467L377.62 224.567H377.51L372.91 223.277H372.8V223.157C372.85 222.157 372.9 221.157 372.95 220.277L373.02 220.407C372.11 219.851 371.276 219.178 370.54 218.407H370.68L367.91 219.227H367.81L367.75 219.137L365.42 214.957L365.37 214.867L365.45 214.797L367.59 212.867V212.997C367.333 211.974 367.212 210.921 367.23 209.867L367.29 209.967L364.75 208.587H364.67V208.497C365.12 206.877 365.56 205.347 365.97 203.897V203.817H366.17L369.05 203.977H368.96C369.499 203.071 370.154 202.241 370.91 201.507V201.597C370.62 200.597 370.35 199.667 370.1 198.827V198.767H370.16L374.34 196.447L375.75 198.057L376.12 198.477C376.158 198.579 376.175 198.688 376.17 198.797Z" fill="#263238"/>
<path d="M367.09 140.026L344.32 137.306C343.946 137.262 343.584 137.144 343.255 136.959C342.926 136.775 342.637 136.528 342.404 136.231C342.171 135.935 341.999 135.596 341.897 135.233C341.795 134.87 341.765 134.491 341.81 134.116L345.56 102.586C345.598 102.208 345.712 101.84 345.894 101.506C346.075 101.172 346.322 100.877 346.619 100.638C346.916 100.4 347.257 100.223 347.623 100.118C347.989 100.013 348.372 99.982 348.75 100.026L363.17 101.786L372.98 114.646L370.25 137.496C370.164 138.25 369.784 138.939 369.192 139.413C368.6 139.888 367.844 140.108 367.09 140.026Z" fill="#EBEBEB"/>
<path d="M367.09 140.027C367.256 140.014 367.423 140.014 367.59 140.027C368.07 139.996 368.532 139.837 368.93 139.567C369.252 139.358 369.528 139.085 369.74 138.765C369.951 138.445 370.094 138.085 370.16 137.707C370.26 136.773 370.38 135.713 370.52 134.527C371.07 129.727 371.85 122.897 372.79 114.667V114.817L362.96 101.987L363.17 102.027L354.83 101.027L350.47 100.507C349.75 100.437 348.96 100.287 348.29 100.287C347.949 100.303 347.614 100.387 347.305 100.533C346.996 100.678 346.719 100.884 346.49 101.137C346.161 101.487 345.939 101.924 345.85 102.397C345.78 102.877 345.73 103.397 345.66 103.927C345.54 104.927 345.42 105.987 345.29 107.007C345.05 109.007 344.81 111.007 344.57 113.007C344.1 116.947 343.64 120.747 343.2 124.367C342.98 126.177 342.77 127.947 342.56 129.667C342.46 130.517 342.35 131.367 342.25 132.197L342.1 133.437C342.037 133.827 342.007 134.221 342.01 134.617C342.058 135.17 342.276 135.695 342.634 136.119C342.992 136.543 343.473 136.846 344.01 136.987C344.34 137.067 344.74 137.097 345.11 137.147L349.4 137.677L362.4 139.307L365.92 139.777L366.83 139.907C366.936 139.913 367.041 139.937 367.14 139.977H366.83L365.91 139.897L362.37 139.527L349.37 138.057L345.07 137.567C344.68 137.532 344.293 137.476 343.91 137.397C343.506 137.297 343.127 137.113 342.8 136.857C342.46 136.594 342.179 136.264 341.974 135.887C341.769 135.51 341.645 135.094 341.61 134.667C341.598 134.245 341.628 133.823 341.7 133.407C341.7 132.997 341.79 132.577 341.84 132.167C341.94 131.337 342.04 130.487 342.14 129.627C342.34 127.917 342.54 126.147 342.76 124.337C343.18 120.707 343.63 116.907 344.1 112.967C344.33 110.967 344.57 108.967 344.81 106.967L345.17 103.887C345.24 103.367 345.28 102.887 345.37 102.317C345.473 101.751 345.737 101.227 346.13 100.807C346.408 100.506 346.743 100.262 347.115 100.091C347.488 99.9191 347.89 99.8226 348.3 99.8066C349.13 99.8066 349.81 99.9566 350.56 100.027L354.92 100.547L363.26 101.547H363.36L363.43 101.627L373.17 114.517L373.22 114.587V114.677C372.22 122.897 371.36 129.677 370.76 134.517C370.61 135.717 370.49 136.767 370.35 137.697C370.273 138.095 370.114 138.473 369.884 138.807C369.653 139.141 369.355 139.424 369.01 139.637C368.586 139.901 368.099 140.046 367.6 140.057C367.429 140.071 367.258 140.061 367.09 140.027Z" fill="#263238"/>
<path d="M363.17 101.787L362.17 110.667C362.124 111.018 362.148 111.374 362.241 111.716C362.334 112.058 362.494 112.377 362.712 112.656C362.93 112.936 363.201 113.169 363.509 113.342C363.818 113.516 364.158 113.626 364.51 113.667L373.04 114.667L363.17 101.787Z" fill="#F5F5F5"/>
<path d="M362.17 111.457C362.101 112.129 362.261 112.804 362.624 113.374C362.987 113.944 363.532 114.375 364.17 114.597C364.257 114.635 364.347 114.666 364.44 114.687C365.54 115.027 372.71 117.207 372.73 117.037C372.75 116.867 373.02 114.647 373.02 114.647L364.49 113.647C364.49 113.647 362.35 113.307 362.17 111.457Z" fill="#E0E0E0"/>
<path d="M360.27 110.076C358.499 110.068 356.73 109.928 354.98 109.656C353.214 109.518 351.461 109.237 349.74 108.816C351.511 108.825 353.28 108.965 355.03 109.236C356.796 109.375 358.549 109.656 360.27 110.076Z" fill="#263238"/>
<path d="M366.48 115.906C366.48 116.016 362.57 115.646 357.79 115.076C353.01 114.506 349.12 113.946 349.14 113.836C352.052 113.967 354.956 114.244 357.84 114.666C362.62 115.236 366.5 115.786 366.48 115.906Z" fill="#263238"/>
<path d="M367.54 120.277C367.54 120.397 363.29 119.977 358.07 119.357C352.85 118.737 348.63 118.137 348.64 118.027C348.65 117.917 352.9 118.327 358.12 118.947C363.34 119.567 367.56 120.167 367.54 120.277Z" fill="#263238"/>
<path d="M367.07 124.227C367.07 124.347 362.82 123.937 357.6 123.307C352.38 122.677 348.17 122.087 348.17 122.027C348.17 121.967 352.42 122.327 357.65 122.947C362.88 123.567 367.09 124.117 367.07 124.227Z" fill="#263238"/>
<path d="M366.6 128.186C366.6 128.296 362.35 127.886 357.13 127.266C351.91 126.646 347.68 126.046 347.7 125.926C347.72 125.806 351.95 126.226 357.17 126.846C362.39 127.466 366.62 128.026 366.6 128.186Z" fill="#263238"/>
<path d="M366.17 132.136C366.17 132.246 361.91 131.836 356.69 131.216C351.47 130.596 347.25 129.996 347.27 129.876C347.29 129.756 351.52 130.176 356.74 130.806C361.96 131.436 366.17 132.026 366.17 132.136Z" fill="#263238"/>
<path d="M373.01 114.647C371.94 114.668 370.87 114.604 369.81 114.457L366.36 114.097L364.31 113.867C363.916 113.82 363.536 113.694 363.192 113.497C362.848 113.299 362.548 113.034 362.31 112.717C362.051 112.383 361.898 111.979 361.87 111.557C361.869 111.179 361.896 110.801 361.95 110.427C362.04 109.727 362.13 109.047 362.21 108.427L362.68 104.987C362.782 103.92 362.969 102.863 363.24 101.827C363.26 102.897 363.194 103.967 363.04 105.027C362.94 106.027 362.82 107.227 362.69 108.487C362.61 109.137 362.54 109.817 362.46 110.487C362.367 110.809 362.344 111.148 362.39 111.48C362.437 111.813 362.552 112.132 362.73 112.417C363.55 113.587 365.18 113.417 366.44 113.617L369.89 114.087C370.943 114.189 371.987 114.377 373.01 114.647Z" fill="#263238"/>
<path d="M235.17 63.3365C236.76 62.6318 238.11 61.477 239.051 60.0145C239.993 58.552 240.486 56.8459 240.47 55.1065C240.573 53.9537 240.436 52.792 240.067 51.695C239.698 50.598 239.105 49.5895 238.327 48.7335C237.548 47.8775 236.599 47.1925 235.542 46.722C234.484 46.2515 233.341 46.0057 232.183 46.0001C231.026 45.9945 229.88 46.2294 228.818 46.6897C227.756 47.15 226.802 47.8259 226.014 48.6744C225.227 49.5229 224.625 50.5256 224.245 51.619C223.866 52.7124 223.718 53.8728 223.81 55.0265C223.779 56.7805 224.267 58.5045 225.214 59.9815C226.161 61.4584 227.523 62.6223 229.13 63.3265C216.29 65.2665 216.88 79.2165 216.88 79.2165L247.23 79.3565C247.23 79.3565 247.92 65.2565 235.17 63.3365Z" fill="#0047C5"/>
<path d="M329.69 286.126C330.728 286.126 331.57 285.285 331.57 284.246C331.57 283.208 330.728 282.366 329.69 282.366C328.652 282.366 327.81 283.208 327.81 284.246C327.81 285.285 328.652 286.126 329.69 286.126Z" fill="#263238"/>
<path d="M329.69 284.246C329.47 284.268 329.249 284.268 329.03 284.246L327.14 284.296L320.14 284.376L297.14 284.456H289.82L289.74 284.326C286.25 277.976 283.12 272.486 280.74 268.626C279.57 266.706 278.59 265.186 277.87 264.186C277.601 263.801 277.3 263.44 276.97 263.106C276.888 263.023 276.789 262.958 276.68 262.916C276.61 262.916 276.57 262.916 276.57 262.916C276.57 262.916 276.57 262.856 276.69 262.866C276.817 262.889 276.935 262.948 277.03 263.036C277.397 263.334 277.732 263.669 278.03 264.036C278.81 265.036 279.82 266.506 281.03 268.416C283.45 272.236 286.64 277.696 290.16 284.046L289.94 283.906H297.11L320.11 283.976L327.11 284.066H329C329.237 284.097 329.469 284.157 329.69 284.246Z" fill="#263238"/>
<path d="M332.55 127.886C333.588 127.886 334.43 127.044 334.43 126.006C334.43 124.968 333.588 124.126 332.55 124.126C331.512 124.126 330.67 124.968 330.67 126.006C330.67 127.044 331.512 127.886 332.55 127.886Z" fill="#263238"/>
<path d="M332.55 126.026C332.348 126.054 332.142 126.054 331.94 126.026H330.2L323.77 126.106L302.58 126.186H292.9L293.08 126.106L283.26 136.866C282.07 138.146 281.11 139.186 280.39 139.946L279.61 140.746C279.43 140.926 279.33 141.016 279.32 141.006C279.384 140.894 279.461 140.79 279.55 140.696L280.27 139.836L283.03 136.666L292.72 125.776L292.79 125.686H302.58L323.77 125.766L330.2 125.846L331.94 125.896C332.147 125.917 332.352 125.961 332.55 126.026Z" fill="#263238"/>
<path d="M240.17 335.436C239.721 335.79 239.177 336.003 238.608 336.047C238.038 336.092 237.468 335.967 236.969 335.688C236.47 335.409 236.066 334.988 235.806 334.479C235.547 333.969 235.444 333.395 235.511 332.827C235.578 332.26 235.812 331.725 236.183 331.29C236.554 330.855 237.046 330.54 237.596 330.385C238.146 330.23 238.73 330.241 239.273 330.417C239.817 330.594 240.296 330.928 240.65 331.376C240.886 331.674 241.062 332.015 241.166 332.381C241.269 332.746 241.3 333.129 241.255 333.506C241.211 333.884 241.092 334.248 240.906 334.58C240.719 334.911 240.469 335.202 240.17 335.436Z" fill="#263238"/>
<path d="M238.08 332.756C237.94 332.756 236.39 320.086 234.63 304.416C232.87 288.746 231.56 276.026 231.7 276.026C231.84 276.026 233.39 288.706 235.15 304.376C236.91 320.046 238.22 332.746 238.08 332.756Z" fill="#263238"/>
<path d="M232.27 88.2961C233.308 88.2961 234.15 87.4544 234.15 86.4161C234.15 85.3778 233.308 84.5361 232.27 84.5361C231.232 84.5361 230.39 85.3778 230.39 86.4161C230.39 87.4544 231.232 88.2961 232.27 88.2961Z" fill="#263238"/>
<path d="M232.05 86.416C232.2 86.416 232.31 92.936 232.31 100.986C232.31 109.036 232.2 115.566 232.05 115.566C231.9 115.566 231.79 109.026 231.79 101.026C231.79 93.026 231.91 86.416 232.05 86.416Z" fill="#263238"/>
<path d="M353.18 204.406C354.218 204.406 355.06 203.564 355.06 202.526C355.06 201.488 354.218 200.646 353.18 200.646C352.142 200.646 351.3 201.488 351.3 202.526C351.3 203.564 352.142 204.406 353.18 204.406Z" fill="#263238"/>
<path d="M352.52 202.526C352.52 202.666 343.83 202.786 333.11 202.786C322.39 202.786 313.7 202.666 313.7 202.526C313.7 202.386 322.39 202.266 333.11 202.266C343.83 202.266 352.52 202.376 352.52 202.526Z" fill="#263238"/>
<path d="M224.78 287.876H224.52L223.78 287.816L220.9 287.566C219.63 287.496 218.1 287.236 216.3 286.966C214.5 286.696 212.47 286.276 210.2 285.806C204.826 284.567 199.568 282.874 194.48 280.746C191.404 279.467 188.399 278.022 185.48 276.416C182.257 274.687 179.169 272.718 176.24 270.526H176.5L160.69 278.026L160.25 278.236L160.32 277.756C160.53 276.426 160.75 274.996 160.98 273.566C161.82 268.206 162.64 262.986 163.43 257.986L163.51 258.216C157.86 252.922 153.108 246.745 149.44 239.926C146.518 234.508 144.223 228.774 142.6 222.836C141.515 218.902 140.736 214.89 140.27 210.836C140.11 209.416 140.03 208.316 140 207.576C140 207.226 140 206.946 140 206.726C140 206.506 140 206.446 140 206.446C140.011 206.539 140.011 206.633 140 206.726C140 206.936 140 207.216 140.07 207.566C140.13 208.306 140.24 209.406 140.42 210.816C140.962 214.834 141.791 218.807 142.9 222.706C144.557 228.615 146.875 234.318 149.81 239.706C153.475 246.461 158.202 252.582 163.81 257.836L163.91 257.926V258.056C163.13 263.056 162.31 268.276 161.47 273.636C161.25 275.066 161.03 276.496 160.82 277.826L160.45 277.546L176.25 270.106L176.39 270.046L176.51 270.136C179.415 272.318 182.476 274.284 185.67 276.016C188.591 277.622 191.595 279.071 194.67 280.356C199.728 282.496 204.952 284.218 210.29 285.506C212.55 285.996 214.57 286.506 216.36 286.726C218.15 286.946 219.68 287.296 220.93 287.406L223.81 287.736L224.55 287.826C224.628 287.837 224.705 287.853 224.78 287.876Z" fill="#263238"/>
<path d="M304.78 196.246C304.78 196.246 304.78 195.856 304.72 195.076C304.66 194.296 304.72 193.136 304.56 191.626C304.268 187.212 303.575 182.834 302.49 178.546C301.695 175.452 300.692 172.415 299.49 169.456C298.106 165.925 296.433 162.513 294.49 159.256C289.717 151.303 283.476 144.33 276.1 138.706C262.054 128.035 244.591 122.867 227 124.176C223.743 124.411 220.506 124.865 217.31 125.536C214.033 126.243 210.806 127.165 207.65 128.296C194.207 133.194 182.516 141.962 174.05 153.496C171.839 156.511 169.873 159.697 168.17 163.026C167.28 164.676 166.52 166.406 165.74 168.126C164.96 169.846 164.32 171.646 163.74 173.466C158.813 188.277 158.813 204.285 163.74 219.096C164.32 220.916 165.04 222.676 165.74 224.436C166.44 226.196 167.27 227.896 168.16 229.546C169.871 232.859 171.841 236.032 174.05 239.036C182.52 250.572 194.214 259.344 207.66 264.246C210.816 265.377 214.043 266.299 217.32 267.006C220.516 267.673 223.753 268.124 227.01 268.356C233.244 268.84 239.514 268.504 245.66 267.356C256.722 265.287 267.149 260.664 276.11 253.856C283.489 248.228 289.733 241.252 294.51 233.296C296.45 230.04 298.122 226.632 299.51 223.106C300.712 220.143 301.715 217.103 302.51 214.006C303.596 209.718 304.289 205.34 304.58 200.926C304.72 199.416 304.69 198.256 304.74 197.486C304.79 196.716 304.8 196.306 304.8 196.306C304.8 196.306 304.8 197.906 304.69 200.936C304.265 208.574 302.6 216.093 299.76 223.196C298.372 226.741 296.699 230.169 294.76 233.446C289.987 241.454 283.732 248.479 276.33 254.146C262.229 264.911 244.673 270.137 226.98 268.836C223.682 268.589 220.404 268.118 217.17 267.426C213.868 266.711 210.614 265.786 207.43 264.656C193.889 259.732 182.111 250.907 173.58 239.296C171.357 236.272 169.375 233.079 167.65 229.746C166.75 228.076 165.99 226.336 165.2 224.596C164.41 222.856 163.77 221.056 163.2 219.216C158.233 204.302 158.233 188.18 163.2 173.266C163.78 171.436 164.5 169.666 165.2 167.886C165.9 166.106 166.74 164.416 167.64 162.746C169.364 159.411 171.351 156.217 173.58 153.196C182.111 141.589 193.885 132.765 207.42 127.836C210.603 126.705 213.857 125.783 217.16 125.076C220.375 124.402 223.633 123.951 226.91 123.726C233.177 123.242 239.48 123.578 245.66 124.726C256.782 126.825 267.26 131.493 276.26 138.356C283.66 144.023 289.911 151.048 294.68 159.056C296.623 162.334 298.295 165.765 299.68 169.316C302.523 176.418 304.189 183.937 304.61 191.576C304.82 194.656 304.78 196.246 304.78 196.246Z" fill="#263238"/>
<path d="M232.27 276.486C210.732 276.486 190.076 267.93 174.846 252.7C159.616 237.47 151.06 216.814 151.06 195.276C151.06 173.738 159.616 153.082 174.846 137.852C190.076 122.622 210.732 114.066 232.27 114.066C232.668 114.066 233.049 114.224 233.331 114.505C233.612 114.787 233.77 115.168 233.77 115.566C233.77 115.964 233.612 116.345 233.331 116.627C233.049 116.908 232.668 117.066 232.27 117.066C216.801 117.064 201.679 121.649 188.816 130.242C175.953 138.834 165.927 151.048 160.006 165.339C154.085 179.63 152.535 195.356 155.552 210.528C158.568 225.7 166.016 239.636 176.954 250.575C187.891 261.514 201.827 268.964 216.998 271.982C232.17 275.001 247.896 273.453 262.187 267.533C276.479 261.614 288.694 251.59 297.289 238.728C305.883 225.866 310.47 210.745 310.47 195.276C310.47 194.878 310.628 194.497 310.909 194.215C311.191 193.934 311.572 193.776 311.97 193.776C312.368 193.776 312.749 193.934 313.031 194.215C313.312 194.497 313.47 194.878 313.47 195.276C313.446 216.805 304.884 237.446 289.661 252.67C274.439 267.895 253.799 276.459 232.27 276.486Z" fill="#263238"/>
<defs>
<linearGradient id="paint0_linear_753_657" x1="97" y1="556.5" x2="1088.25" y2="594.16" gradientUnits="userSpaceOnUse">
<stop offset="0.338542" stop-color="#1557D7"/>
<stop offset="1" stop-color="#43A5FF"/>
</linearGradient>
</defs>
</svg>
