<svg width="165" height="514" viewBox="0 0 165 514" fill="none" xmlns="http://www.w3.org/2000/svg">
<path d="M146.564 66.6225L147.119 66.7613C147.103 66.6974 147.07 66.6394 147.021 66.5947L146.564 66.6225Z" fill="#263238"/>
<path d="M130.839 110.2H130.853V119.971H130.839V110.2Z" fill="#EB9481"/>
<path d="M130.589 467.571H130.839V467.39L130.589 467.571Z" fill="#EB9481"/>
<path d="M73.2715 479.41C76.3248 478.022 143.497 417.29 144.593 413.348C145.023 411.863 136.738 401.565 126.371 389.394C124.136 386.771 98.0168 344.983 98.0168 344.983L50.9549 382.302L82.9587 428.503C82.9587 428.503 67.6924 463.283 66.9152 467.738C66.138 472.193 70.2183 480.756 73.2715 479.41Z" fill="#EB9481"/>
<path d="M72.4109 453.096C70.2692 457.842 68.4154 462.713 66.8595 467.682C66.1378 472.137 70.1625 480.756 73.2158 479.409C76.2691 478.063 143.455 417.289 144.537 413.362C144.884 412.14 139.513 405.132 131.922 396.042C118.349 411.807 75.5474 460.882 72.4109 456.316C72.1221 455.262 72.1221 454.15 72.4109 453.096Z" fill="#263238"/>
<path d="M121.888 381.553L74.2845 420.829C74.2845 420.829 8.07035 328.634 6.16901 294.937C4.78116 269.026 43.169 220.743 69.2883 179.413C71.8141 175.402 70.2736 160.191 70.1765 157.651L121.929 157.749C122.554 163.577 126.606 192.903 117.891 207.184C99.9597 236.55 71.0092 279.171 69.8989 288.4C68.7886 297.63 121.888 381.553 121.888 381.553Z" fill="#37474F"/>
<path d="M71.2175 406.395C78.8229 399.955 76.5468 401.704 84.2216 395.292C87.9827 392.183 106.816 376.501 110.799 374.169C110.896 374.169 110.993 374.252 110.924 374.322C107.843 377.75 88.7183 393.03 84.86 396.083C77.0742 402.301 79.2392 400.427 71.384 406.561C71.3784 406.585 71.3665 406.608 71.3495 406.626C71.3324 406.643 71.3108 406.657 71.287 406.663C71.2632 406.67 71.238 406.67 71.2141 406.664C71.1901 406.658 71.1682 406.646 71.1507 406.628C71.1332 406.611 71.1207 406.589 71.1145 406.565C71.1083 406.541 71.1086 406.516 71.1154 406.492C71.1222 406.468 71.1353 406.446 71.1532 406.429C71.1712 406.412 71.1934 406.4 71.2175 406.395Z" fill="#263238"/>
<path d="M65.319 279.754C67.0538 276.367 68.9135 273.036 70.8704 269.747C74.7563 263.099 78.9893 256.674 83.1528 250.192C87.4921 243.42 91.8407 236.656 96.1986 229.902C100.112 223.823 104.082 217.758 107.482 211.374C110.955 205.124 113.485 198.394 114.99 191.403C116.517 183.715 116.197 175.804 115.531 168.032C115.365 166.089 115.184 164.16 115.004 162.217C115.004 161.884 115.545 161.814 115.587 162.147C116.659 169.754 117.026 177.443 116.683 185.116C116.1 192.166 114.307 199.063 111.382 205.504C108.45 211.902 105.045 218.072 101.195 223.962C97.0313 230.527 92.8677 237.05 88.7042 243.572C84.5407 250.095 80.1967 256.771 76.047 263.433C74.0208 266.666 72.0362 269.928 70.1487 273.245C68.1998 276.495 66.439 279.854 64.8749 283.306C64.0757 285.026 63.5826 286.872 63.4176 288.761C63.3499 290.712 63.7099 292.654 64.4724 294.451C65.8603 298.018 67.72 301.39 69.4131 304.86C72.7995 311.702 76.2413 318.516 79.7942 325.275C86.9277 338.834 106.163 370.755 107.176 372.392C107.246 372.517 107.065 372.614 106.982 372.503C98.8077 359.444 88.8707 344.233 81.5152 330.688C77.8142 323.924 74.2382 317.105 70.7871 310.231C69.0477 306.807 67.3452 303.356 65.6798 299.877C64.1532 296.713 62.3906 293.452 62.2935 289.857C62.1963 286.263 63.723 282.904 65.319 279.754Z" fill="#263238"/>
<path d="M71.9807 157.624C75.3115 174.722 84.9431 223.907 90.217 251.109C99.2657 236.647 109.73 220.576 117.891 207.156C126.606 192.875 122.554 163.55 121.929 157.721L71.9807 157.624Z" fill="#263238"/>
<path d="M61.905 513.648C65.0832 514.661 155.668 513.384 159.054 511.149C160.359 510.303 160.942 497.104 161.192 481.13C161.192 477.689 160.428 425.103 160.428 425.103L99.8348 425.783L102.791 481.783C102.791 481.783 68.3168 497.785 64.8333 500.643C61.3498 503.502 58.7268 512.634 61.905 513.648Z" fill="#EB9481"/>
<path d="M78.6423 493.316C73.9127 495.485 69.3155 497.932 64.8749 500.644C61.3914 503.503 58.7267 512.635 61.9049 513.634C65.0831 514.633 155.668 513.384 159.054 511.15C160.123 510.47 160.706 501.657 161.011 489.818C140.415 492.691 75.8667 501.268 76.5328 495.772C76.6161 495.259 77.4072 494.384 78.6423 493.316Z" fill="#263238"/>
<path d="M70.1765 157.749C70.1765 157.749 80.4327 207.711 80.9739 209.307C85.9776 211.411 90.8445 213.826 95.5463 216.538L99.2103 470.514L164.55 470.944C164.55 470.944 156.445 336.323 156.681 327.663C157.042 313.784 151.032 219.91 151.865 217.551C160.4 193.458 147.008 157.873 147.008 157.873L70.1765 157.749Z" fill="#37474F"/>
<path d="M101.667 458.397C120.097 457.606 155.793 457.939 160.303 458.716C160.4 458.716 160.4 458.911 160.303 458.924C155.737 459.66 112.423 459.743 101.667 458.688C101.636 458.679 101.609 458.659 101.589 458.633C101.57 458.607 101.56 458.575 101.56 458.543C101.56 458.51 101.57 458.479 101.589 458.452C101.609 458.426 101.636 458.407 101.667 458.397Z" fill="#263238"/>
<path d="M149.77 393.751C148.729 374.655 147.605 355.558 146.508 336.461C145.412 317.364 144.329 298.254 143.233 279.157C142.692 269.609 142.178 260.06 141.595 250.512L140.721 236.189C140.247 231.477 140.043 226.741 140.11 222.006C140.374 216.843 142.636 212.291 143.927 207.364C145.087 202.675 145.652 197.858 145.606 193.027C145.606 183.063 143.594 173.209 141.692 163.48C141.581 162.939 140.749 163.175 140.86 163.716C143.07 172.637 144.414 181.752 144.87 190.932C145.013 195.51 144.617 200.089 143.691 204.574C142.761 208.876 140.915 212.901 139.805 217.065C138.695 221.228 139.18 226.003 139.458 230.471C139.749 235.246 139.985 240.02 140.235 244.794C140.749 254.148 141.304 263.502 141.831 272.87C144.01 310.869 146.12 348.882 148.437 386.882C149.77 408.268 150.783 429.641 152.545 451.056C152.545 451.208 152.809 451.208 152.795 451.056C152.073 431.945 150.824 412.848 149.77 393.751Z" fill="#263238"/>
<path d="M139.944 187.67C138.847 187.226 137.626 187.087 136.502 186.74C135.309 186.387 134.141 185.956 133.004 185.45C130.846 184.471 128.829 183.206 127.009 181.689C125.266 180.112 123.949 178.122 123.178 175.901C122.707 174.722 122.262 173.528 121.791 172.335C121.569 171.752 121.333 171.155 121.097 170.572C121.013 170.336 120.403 169.087 120.306 168.698C120.326 168.718 120.354 168.729 120.382 168.729C120.41 168.729 120.438 168.718 120.458 168.698H120.528C120.545 168.677 120.554 168.65 120.554 168.622C120.554 168.594 120.545 168.568 120.528 168.546C120.458 168.407 120.444 168.393 120.292 168.351C120.26 168.344 120.227 168.346 120.197 168.359C120.167 168.371 120.142 168.393 120.125 168.421C119.889 168.809 120.125 169.184 120.208 169.601C120.389 170.392 120.569 171.169 120.764 171.946C121.111 173.334 121.43 174.722 121.818 176.026C122.438 178.561 123.767 180.867 125.649 182.674C127.616 184.404 129.883 185.758 132.338 186.671C133.594 187.159 134.89 187.54 136.21 187.809C137.424 188.122 138.683 188.216 139.93 188.087C140.166 188.003 140.055 187.74 139.944 187.67Z" fill="#263238"/>
<path d="M87.1637 201.369C87.0527 199.079 86.9139 196.803 86.7474 194.513C86.3865 189.294 85.9285 184.062 85.1097 178.913C85.0403 178.497 84.4713 178.65 84.4991 179.024C84.7766 183.077 85.1791 187.129 85.4844 191.168C85.7897 195.207 86.2061 199.245 86.2061 203.27C86.2061 204.477 86.0951 206.531 84.5962 206.851C82.5977 207.267 81.6956 204.616 81.2376 203.173C80.1503 199.545 79.3749 195.83 78.9199 192.07C78.337 187.809 78.0594 183.507 77.7264 179.232C77.7264 179.08 77.4627 179.094 77.4488 179.232C77.2823 187.712 77.2545 196.581 80.2245 204.644C80.4382 205.472 80.8724 206.227 81.4809 206.828C82.0894 207.429 82.8494 207.854 83.6802 208.058H83.7635C83.7635 208.058 83.7635 208.155 83.7635 208.197C83.7635 208.238 83.8606 208.683 83.8884 208.919C83.9162 209.154 83.9578 209.307 83.9994 209.515C84.041 209.723 84.1243 210.334 84.2215 210.75C84.2366 210.822 84.276 210.886 84.3328 210.932C84.3897 210.978 84.4606 211.003 84.5337 211.003C84.6069 211.003 84.6779 210.978 84.7347 210.932C84.7916 210.886 84.8308 210.822 84.846 210.75C84.8974 210.731 84.942 210.697 84.9741 210.653C85.0062 210.608 85.0244 210.555 85.0264 210.501C85.001 209.671 84.8271 208.854 84.5129 208.086C85.0046 207.995 85.4656 207.782 85.8536 207.467C86.2416 207.152 86.5441 206.744 86.7335 206.282C87.2626 204.701 87.4101 203.017 87.1637 201.369Z" fill="#263238"/>
<path d="M80.9185 208.821C87.3679 211.643 93.5581 215.024 99.4184 218.925C99.6544 219.077 99.4184 219.438 99.2241 219.299C92.9788 216.135 86.5947 213.082 80.5298 209.584C80.4286 209.533 80.352 209.443 80.3169 209.335C80.2817 209.227 80.291 209.11 80.3425 209.008C80.394 208.907 80.4837 208.831 80.5917 208.795C80.6997 208.76 80.8173 208.769 80.9185 208.821Z" fill="#263238"/>
<path d="M97.3922 342.068C97.3922 341.457 97.1979 341.221 97.1702 341.971C97.0175 346.134 97.073 352.227 97.0314 356.446C97.0314 361.415 97.0314 366.369 97.0314 371.324C97.0314 376.279 97.2118 381.247 97.4061 386.215L97.7114 393.64C97.8086 395.361 97.7114 398.748 97.878 400.455C97.878 401.218 98.1139 401.357 98.1833 400.594C98.3082 398.109 98.3082 396.125 98.3915 393.654L98.4748 386.202C98.4748 381.247 98.4748 376.279 98.4748 371.324C98.4748 366.369 98.2943 361.401 98.1 356.446C97.9057 351.492 97.7531 347.023 97.3922 342.068Z" fill="#263238"/>
<path d="M64.7914 87.2743C64.765 87.4535 64.8057 87.6361 64.9055 87.7872C65.0054 87.9383 65.1575 88.0472 65.3327 88.0931L68.2611 88.3707C71.1894 81.0984 74.2704 75.3388 73.4377 77.601C72.161 81.1485 71.3901 84.8581 71.1478 88.6205L76.9351 89.0646C79.7108 76.1993 83.0694 66.7064 82.7641 69.6348C81.5428 81.5286 82.0424 85.373 82.6392 89.481C96.6148 90.508 114.948 91.6183 128.216 92.1318C130.048 85.0399 131.7 77.3373 131.922 77.8925C133.559 81.9589 133.809 87.8156 133.67 92.3261C137.903 92.451 141.276 92.4787 143.385 92.3261C143.385 92.3261 144.62 86.3445 144.842 84.3737C145.433 79.3425 145.142 74.2468 143.982 69.3156C142.604 64.4472 140.745 59.7283 138.431 55.2289V55.1318C137.02 52.1313 135.958 48.9787 135.266 45.7361C135.263 45.713 135.263 45.6897 135.266 45.6667C134.796 43.3019 134.527 40.9017 134.461 38.4915C134.212 29.6648 129.881 21.9484 122.234 19.4364C108.231 4.36438 93.3256 10.2211 88.4404 21.4071C87.9685 22.5035 87.4966 23.7526 87.0525 25.1266C85.3455 30.1783 83.7356 36.7567 82.2922 41.7807C81.7491 43.7694 81.0911 45.725 80.3214 47.6374C76.0469 56.9638 67.3867 61.9878 64.7914 87.2743Z" fill="#263238"/>
<path d="M125.371 21.9751C127.833 23.3203 129.904 25.2801 131.382 27.6637C132.861 30.0472 133.697 32.7732 133.809 35.576C133.886 39.2908 134.417 42.9822 135.391 46.5678C136.726 50.0548 138.563 53.3277 140.846 56.2827C144.404 60.8744 146.498 66.4309 146.855 72.229C147.146 78.6548 146.55 86.2185 144.287 92.1446C146.125 85.3672 146.643 78.2999 145.814 71.327C144.995 64.3877 141.484 59.8495 137.931 54.4646C135.055 50.1845 133.343 45.2293 132.963 40.0865C132.713 36.9084 132.893 33.5914 131.811 30.5798C130.534 26.9714 127.786 24.6259 125.038 22.5441C124.622 22.3221 124.996 21.7392 125.371 21.9751Z" fill="#263238"/>
<path d="M71.1897 57.5175C74.9785 52.6046 78.8922 48.4272 81.2516 42.2512C83.3889 36.6999 84.735 30.7182 86.914 25.1252C86.914 25.0281 87.0666 25.1252 87.0389 25.1252C83.6248 35.0622 82.6255 45.1657 76.2276 53.4373C72.758 57.9339 69.2883 62.0974 66.9012 67.5378C64.4538 73.2571 63.044 79.3664 62.7377 85.5798C62.7448 85.6026 62.7465 85.6269 62.7425 85.6505C62.7386 85.6741 62.7291 85.6965 62.715 85.7158C62.7008 85.735 62.6822 85.7507 62.6609 85.7615C62.6395 85.7723 62.6159 85.778 62.592 85.778C62.568 85.778 62.5444 85.7723 62.5231 85.7615C62.5017 85.7507 62.4832 85.735 62.469 85.7158C62.4548 85.6965 62.4453 85.6741 62.4414 85.6505C62.4374 85.6269 62.4391 85.6026 62.4462 85.5798C61.976 75.4893 65.0712 65.5551 71.1897 57.5175Z" fill="#263238"/>
<path d="M37.451 30.26L46.4304 71.3958C46.8329 72.6171 46.2084 73.5608 45.0426 73.5331L23.9889 72.8669C23.3462 72.7957 22.7367 72.5443 22.2309 72.1416C21.725 71.7388 21.3433 71.2012 21.13 70.5908L12.1367 29.4689C11.7481 28.2476 12.3726 27.3039 13.5246 27.3317L34.5782 27.9978C35.2217 28.0653 35.833 28.3136 36.3414 28.7139C36.8498 29.1142 37.2345 29.6502 37.451 30.26Z" fill="#37474F"/>
<path d="M34.9531 30.1631L43.9325 71.2988C44.3349 72.5062 43.7104 73.4639 42.5446 73.4222L21.4771 72.7561C20.838 72.6852 20.2318 72.4353 19.7285 72.0351C19.2252 71.6348 18.8451 71.1006 18.632 70.4939L9.59716 29.3581C9.20856 28.1507 9.83309 27.1931 10.985 27.2347L32.0386 27.9009C32.6896 27.9608 33.3098 28.2056 33.8261 28.6064C34.3425 29.0072 34.7335 29.5474 34.9531 30.1631Z" fill="#455A64"/>
<path d="M29.124 31.8426C29.1203 32.0778 29.163 32.3113 29.2496 32.5299C29.3362 32.7485 29.465 32.948 29.6287 33.1168C29.7924 33.2856 29.9877 33.4205 30.2035 33.5139C30.4193 33.6072 30.6514 33.6571 30.8865 33.6607C31.3614 33.6607 31.8167 33.4721 32.1525 33.1364C32.4882 32.8006 32.6769 32.3452 32.6769 31.8704C32.6769 31.3956 32.4882 30.9402 32.1525 30.6044C31.8167 30.2687 31.3614 30.0801 30.8865 30.0801C30.4202 30.0837 29.974 30.2706 29.6442 30.6003C29.3145 30.9301 29.1276 31.3763 29.124 31.8426Z" fill="#263238"/>
<path d="M103.36 94.2123C90.8692 119.318 63.3482 151.669 52.2732 151.572C46.9994 151.572 37.5759 152.557 30.7893 146.354C16.0088 132.794 3.97614 107.244 1.74171 92.7273C0.950638 87.5507 26.2233 76.9892 29.8178 81.2637C38.256 91.2701 47.8598 110.742 49.4003 110.658C55.0766 110.436 77.6014 92.3943 93.4367 79.7787C112.575 64.4292 108.342 84.206 103.36 94.2123Z" fill="#EB9481"/>
<path d="M1.72792 66.1232C4.61464 55.7422 6.94624 53.5216 4.73957 43.4597C3.28233 36.8674 6.87683 33.1064 11.4012 38.4773C18.8123 47.2624 17.8963 61.4462 16.1754 66.2343L1.72792 66.1232Z" fill="#EB9481"/>
<path d="M2.86597 97.2242C2.86597 97.2242 -1.46411 82.5686 0.520508 71.2021C1.90836 63.3469 6.77971 46.5679 29.0685 38.1714C34.3562 36.1729 43.2939 37.0889 35.8412 43.473C30.5535 48.0112 25.821 49.288 23.2257 52.494C23.2257 52.494 34.4672 55.006 36.2575 60.3769C37.8196 65.0773 39.0485 69.8819 39.9353 74.755C39.0769 75.1204 38.1962 75.431 37.2984 75.6849C37.2984 75.6849 38.492 80.8615 34.5922 87.9395L2.86597 97.2242Z" fill="#EB9481"/>
<path d="M3.01867 63.9016C6.26623 61.2786 13.261 55.8105 20.5194 53.3263C28.5967 50.5506 44.89 47.4418 46.8885 53.4234C48.2763 57.809 42.2114 59.5438 42.2114 59.5438C42.2114 59.5438 49.1507 59.6687 49.6642 63.9155C50.0666 67.7876 45.2508 68.8562 45.2508 68.8562C45.2508 68.8562 49.4976 69.6612 49.1646 73.4639C48.7621 78.0299 39.9493 75.6012 35.5498 79.8757C34.5783 80.8472 3.01867 63.9016 3.01867 63.9016Z" fill="#EB9481"/>
<path d="M22.0184 62.3482C28.2462 59.3595 35.2378 58.3427 42.0589 59.4337C42.2254 59.4337 42.2948 59.6141 42.1283 59.6141C35.3424 59.7281 28.595 60.6601 22.0322 62.3898C22.0322 62.3898 21.9768 62.376 22.0184 62.3482Z" fill="#263238"/>
<path d="M25.0298 70.4104C28.1941 69.0225 37.6037 66.8852 45.223 68.7033C45.3895 68.7033 45.445 68.8976 45.223 68.8837C38.4434 68.652 31.6595 69.1921 25.0021 70.4936C25.0021 70.4936 24.9882 70.4243 25.0298 70.4104Z" fill="#263238"/>
<path d="M91.8685 116.986L71.0508 95.1833C71.0508 95.1833 86.5947 80.9856 98.0028 75.4481C109.411 69.9106 111.284 77.3217 106.552 88.7437C101.819 100.166 91.8685 116.986 91.8685 116.986Z" fill="#7FB2F0"/>
<path opacity="0.1" d="M91.8685 116.986L71.0508 95.1833C71.0508 95.1833 86.5947 80.9856 98.0028 75.4481C109.411 69.9106 111.284 77.3217 106.552 88.7437C101.819 100.166 91.8685 116.986 91.8685 116.986Z" fill="black"/>
<path d="M72.6331 138.721L62.8488 184.617C62.8488 184.617 138.292 190.696 157.125 190.613C157.125 190.613 147.535 102.97 128.813 79.7655C119.445 68.1492 107.551 68.1909 99.5157 75.3521C97.4756 77.1702 72.7164 105.774 69.566 117.112C66.8041 127.091 72.6331 138.721 72.6331 138.721Z" fill="#EBEBEB"/>
<path d="M107.843 70.897H115.851C113.22 70.2583 110.474 70.2583 107.843 70.897Z" fill="#7FB2F0"/>
<path d="M99.5989 75.2827H124.414C124.067 74.9912 123.706 74.7137 123.345 74.4639H100.584C100.251 74.7276 99.9181 74.9912 99.5989 75.2827Z" fill="#7FB2F0"/>
<path d="M95.6435 79.6684H128.73L128.05 78.8496H96.3235L95.6435 79.6684Z" fill="#7FB2F0"/>
<path d="M91.8962 84.0674H131.727C131.575 83.7898 131.408 83.5122 131.228 83.2485H92.5623L91.8962 84.0674Z" fill="#7FB2F0"/>
<path d="M88.3019 88.4389H134.101C133.976 88.1614 133.837 87.8838 133.698 87.6201H88.9542L88.3019 88.4389Z" fill="#7FB2F0"/>
<path d="M84.8322 92.8247H136.183C136.058 92.5471 135.947 92.2696 135.836 92.0059H85.5401L84.8322 92.8247Z" fill="#7FB2F0"/>
<path d="M81.4874 97.2102H137.848L137.543 96.3774H82.1119L81.4874 97.2102Z" fill="#7FB2F0"/>
<path d="M78.3093 101.596H139.375C139.277 101.305 139.194 101.041 139.097 100.764H78.8644L78.3093 101.596Z" fill="#7FB2F0"/>
<path d="M75.3253 105.982H140.859L140.582 105.149H75.8805L75.3253 105.982Z" fill="#7FB2F0"/>
<path d="M72.6469 110.437H142.164C142.164 110.146 142.011 109.882 141.928 109.604H73.1326C72.9522 109.813 72.7995 110.09 72.6469 110.437Z" fill="#7FB2F0"/>
<path d="M70.4125 114.753H143.399C143.33 114.475 143.247 114.197 143.177 113.92H70.7872C70.6484 114.197 70.5235 114.475 70.4125 114.753Z" fill="#7FB2F0"/>
<path d="M69.1217 119.124H144.551L144.343 118.306H69.2743C69.2743 118.583 69.1633 118.847 69.1217 119.124Z" fill="#7FB2F0"/>
<path d="M68.8165 122.691C68.8165 122.968 68.8165 123.246 68.8165 123.51H145.606C145.606 123.232 145.467 122.955 145.412 122.691H68.8165Z" fill="#7FB2F0"/>
<path d="M69.1078 127.091C69.1078 127.368 69.1911 127.646 69.2466 127.91H146.647C146.647 127.646 146.536 127.368 146.466 127.091H69.1078Z" fill="#7FB2F0"/>
<path d="M70.01 131.462C70.0794 131.74 70.1488 132.018 70.2321 132.281H147.632C147.632 132.004 147.507 131.74 147.452 131.462H70.01Z" fill="#7FB2F0"/>
<path d="M71.4117 135.847L71.7309 136.666H148.548C148.548 136.388 148.451 136.125 148.382 135.847H71.4117Z" fill="#7FB2F0"/>
<path d="M72.1333 141.052H149.436C149.436 140.775 149.339 140.511 149.27 140.233H72.3137L72.1333 141.052Z" fill="#7FB2F0"/>
<path d="M71.2035 145.438H150.311C150.311 145.16 150.214 144.897 150.158 144.619H71.3978L71.2035 145.438Z" fill="#7FB2F0"/>
<path d="M70.2598 149.823H151.088C151.088 149.546 150.991 149.268 150.949 148.991H70.4542L70.2598 149.823Z" fill="#7FB2F0"/>
<path d="M69.2744 154.209H151.865C151.865 153.932 151.768 153.654 151.726 153.376H69.5104L69.2744 154.209Z" fill="#7FB2F0"/>
<path d="M68.4001 158.594H152.545C152.545 158.317 152.462 158.039 152.406 157.762H68.5805L68.4001 158.594Z" fill="#7FB2F0"/>
<path d="M67.4565 162.981H153.309L153.184 162.148H67.6369L67.4565 162.981Z" fill="#7FB2F0"/>
<path d="M66.4986 167.339H153.933C153.933 167.061 153.836 166.783 153.794 166.506H66.6374L66.4986 167.339Z" fill="#7FB2F0"/>
<path d="M65.5966 171.737H154.655L154.53 170.918H65.7076L65.5966 171.737Z" fill="#7FB2F0"/>
<path d="M64.6529 176.124H155.321L155.196 175.305H64.8332L64.6529 176.124Z" fill="#7FB2F0"/>
<path d="M63.723 180.509H155.876C155.876 180.245 155.793 179.968 155.765 179.69H63.9035L63.723 180.509Z" fill="#7FB2F0"/>
<path d="M62.8487 184.616L66.2906 184.894H156.431C156.431 184.63 156.431 184.367 156.334 184.075H62.9598L62.8487 184.616Z" fill="#7FB2F0"/>
<path d="M114.671 188.461C118.945 188.752 123.192 189.03 127.286 189.28H156.972C156.972 189.044 156.972 188.766 156.875 188.461H114.671Z" fill="#7FB2F0"/>
<path d="M69.9822 130.893C69.374 128.162 69.1776 125.356 69.3993 122.566C70.108 116.949 72.0358 111.554 75.0478 106.759C76.6716 103.983 78.6146 101.429 80.2245 98.6677C80.23 98.6604 80.2339 98.6521 80.2362 98.6433C80.2385 98.6344 80.239 98.6252 80.2377 98.6162C80.2364 98.6072 80.2333 98.5985 80.2287 98.5907C80.2241 98.5828 80.2179 98.576 80.2106 98.5705C80.2033 98.565 80.195 98.5611 80.1862 98.5588C80.1773 98.5565 80.1682 98.5561 80.1592 98.5573C80.1501 98.5586 80.1415 98.5617 80.1336 98.5663C80.1258 98.571 80.1189 98.5771 80.1135 98.5844C78.6125 100.386 77.2221 102.277 75.9499 104.247C75.9738 104.178 76.0065 104.113 76.0471 104.053C76.4912 102.97 76.9492 101.901 77.4349 100.847C77.4349 100.736 77.2961 100.638 77.2406 100.749C76.6855 101.776 76.1581 102.803 75.6585 103.844C75.3532 104.524 75.0894 105.232 74.8535 105.898C73.2577 108.304 71.8651 110.839 70.69 113.476C68.234 118.664 67.5466 124.514 68.7331 130.13C69.5369 133.166 70.8156 136.056 72.5219 138.693C72.5378 138.713 72.56 138.727 72.5849 138.732C72.6097 138.738 72.6357 138.735 72.6584 138.723C72.6812 138.712 72.6994 138.693 72.7099 138.67C72.7204 138.647 72.7227 138.621 72.7163 138.596C71.5359 136.108 70.6061 133.51 69.9406 130.838" fill="#263238"/>
<path d="M117.086 76.2532C116.517 77.6411 108.023 86.1347 101.348 84.7746C99.1826 84.3305 101.084 72.3673 101.084 72.3673V71.4513L100.224 58.6415L116.225 51.5634L118.515 50.6475C118.515 50.6475 118.515 54.1726 118.515 58.5582V59.946C118.515 60.5983 118.515 61.3339 118.515 61.9445C118.515 62.5552 118.515 62.9438 118.515 63.4712C118.515 63.9985 118.515 64.5259 118.515 65.0533C118.299 68.8153 117.822 72.5576 117.086 76.2532Z" fill="#EB9481"/>
<path d="M118.418 58.5582C116.627 61.8392 114.144 64.6917 111.142 66.918C108.139 69.1442 104.688 70.6911 101.028 71.4513L100.168 58.6415L116.17 51.5634L118.46 50.6475C118.46 50.6475 118.46 54.1726 118.418 58.5582Z" fill="#263238"/>
<path d="M84.3881 39.4061C82.0427 61.8199 95.1994 65.7752 100.029 66.2471C104.415 66.7051 119.459 67.6349 124.067 45.6514C128.674 23.668 119.043 15.4242 109.05 13.8559C99.0576 12.2876 86.7336 16.9924 84.3881 39.4061Z" fill="#EB9481"/>
<path d="M89.3704 34.5767C89.8862 34.5533 90.4005 34.5023 90.9109 34.424C91.4672 34.4454 92.0146 34.2792 92.4653 33.9521C92.5857 33.8232 92.6604 33.6583 92.678 33.4828C92.6955 33.3073 92.6549 33.1309 92.5624 32.9807C92.3347 32.7088 92.0379 32.5035 91.7033 32.3862C91.3687 32.269 91.0086 32.2442 90.6611 32.3145C89.9378 32.3464 89.2513 32.6427 88.7319 33.1472C88.6164 33.2688 88.5396 33.4219 88.5112 33.5872C88.4828 33.7525 88.5042 33.9225 88.5726 34.0757C88.641 34.2288 88.7533 34.3582 88.8953 34.4474C89.0374 34.5366 89.2027 34.5816 89.3704 34.5767Z" fill="#263238"/>
<path d="M104.123 36.2854C103.619 36.1574 103.123 35.9999 102.638 35.8135C102.103 35.7146 101.615 35.4413 101.25 35.0363C101.156 34.8869 101.114 34.7099 101.131 34.5338C101.149 34.3577 101.225 34.1926 101.347 34.0648C101.629 33.8503 101.961 33.7131 102.312 33.6668C102.662 33.6206 103.019 33.6669 103.346 33.8011C104.05 33.9838 104.662 34.4184 105.067 35.0225C105.157 35.1671 105.201 35.3354 105.194 35.5055C105.186 35.6756 105.128 35.8395 105.026 35.9759C104.924 36.1123 104.783 36.2147 104.622 36.27C104.461 36.3252 104.287 36.3305 104.123 36.2854Z" fill="#263238"/>
<path d="M100.168 41.6279C100.168 41.6279 100.279 41.7112 100.265 41.7806C100.029 43.2933 100.001 45.0698 101.306 45.7498C101.306 45.7498 101.306 45.847 101.306 45.8331C99.6405 45.389 99.696 43.0297 100.168 41.6279Z" fill="#263238"/>
<path d="M101.736 40.2118C104.206 40.3506 103.762 45.2774 101.472 45.1525C99.1824 45.0276 99.6543 40.1008 101.736 40.2118Z" fill="#263238"/>
<path d="M102.68 40.5581C103.082 40.8773 103.457 41.4047 103.971 41.5157C104.484 41.6267 105.067 41.141 105.511 40.683C105.511 40.683 105.594 40.683 105.594 40.7524C105.525 41.6961 105.067 42.6398 104.04 42.6815C103.013 42.7231 102.513 41.8349 102.361 40.8634C102.333 40.683 102.513 40.4332 102.68 40.5581Z" fill="#263238"/>
<path d="M91.7296 40.4756C91.7296 40.4756 91.6047 40.4756 91.6047 40.6005C91.5214 42.141 91.1744 43.8758 89.7588 44.2783V44.3616C91.4798 44.2644 91.91 41.9467 91.7296 40.4756Z" fill="#263238"/>
<path d="M90.4945 38.7679C88.0519 38.3793 87.4551 43.3062 89.7173 43.6531C91.9795 44.0001 92.5485 39.101 90.4945 38.7679Z" fill="#263238"/>
<path d="M89.426 38.976C89.0096 39.1842 88.5655 39.6144 88.1075 39.5867C87.6495 39.5589 87.2193 38.976 86.9418 38.4209C86.9418 38.4209 86.8724 38.4209 86.8585 38.4209C86.7197 39.3646 86.8585 40.3778 87.7883 40.6692C88.7182 40.9607 89.3011 40.1973 89.6342 39.2814C89.7036 39.1703 89.6064 38.8789 89.426 38.976Z" fill="#263238"/>
<path d="M98.9324 53.8397C98.5438 54.1728 98.1552 54.6586 97.5446 54.6724C96.9756 54.6447 96.4204 54.4881 95.9208 54.2144C95.9208 54.2144 95.8237 54.2145 95.8514 54.2977C96.0558 54.6081 96.3406 54.8573 96.6755 55.0186C97.0103 55.1799 97.3826 55.2473 97.7528 55.2137C98.0685 55.1451 98.3569 54.9846 98.5816 54.7525C98.8064 54.5203 98.9574 54.2269 99.0157 53.9091C99.099 53.8258 98.988 53.7842 98.9324 53.8397Z" fill="#263238"/>
<path d="M93.1038 47.6641C93.1038 47.6641 92.5625 49.9125 92.4515 50.995C92.4515 51.0921 92.7013 51.1615 93.0621 51.2309C93.9674 51.4928 94.9271 51.5019 95.8371 51.2573C96.7472 51.0126 97.5729 50.5236 98.2249 49.8431C98.3081 49.7459 98.2249 49.621 98.0722 49.6765C96.6048 50.4694 94.9218 50.771 93.2703 50.537C93.2703 50.2317 94.3389 46.7204 94.1724 46.6927C93.3295 46.6781 92.4888 46.7809 91.6743 46.998C92.6735 42.2793 94.45 37.7688 95.3521 33.1195C95.3542 33.0863 95.3454 33.0532 95.327 33.0254C95.3086 32.9976 95.2816 32.9766 95.2501 32.9656C95.2187 32.9546 95.1845 32.9542 95.1527 32.9644C95.121 32.9747 95.0935 32.995 95.0745 33.0224C93.0532 37.8085 91.5098 42.7827 90.4668 47.8723C90.3697 48.3858 92.6596 47.8029 93.1038 47.6641Z" fill="#263238"/>
<path d="M93.326 50.9678C93.8435 51.8708 94.5843 52.6258 95.4772 53.1606C95.9759 53.4372 96.5477 53.5535 97.1149 53.4936C98.35 53.341 98.5027 52.2584 98.4333 51.287C98.3822 50.7759 98.2704 50.2727 98.1002 49.7881C96.6757 50.6813 95.0026 51.0947 93.326 50.9678Z" fill="#263238"/>
<path d="M95.4771 53.1596C95.9758 53.4362 96.5476 53.5525 97.1147 53.4927C98.3499 53.34 98.5026 52.2575 98.4332 51.286C97.8022 51.2242 97.1685 51.375 96.633 51.7145C96.0974 52.0539 95.6906 52.5625 95.4771 53.1596Z" fill="#FF9ABB"/>
<path d="M122.36 44.6945C118.196 45.3745 116.808 35.9788 116.808 35.9788C116.808 35.9788 99.1271 33.7166 97.0731 19.4912C95.0887 25.3952 90.9096 30.3097 85.4013 33.217C85.4013 33.217 85.4013 17.5205 97.6837 13.9815C97.6837 13.9815 112.867 7.73615 122.027 19.63C131.186 31.5238 125.108 44.2365 122.36 44.6945Z" fill="#263238"/>
<path d="M97.0314 18.4365C96.9172 20.6519 97.2768 22.8662 98.0862 24.9316C98.8664 27.033 100.071 28.951 101.625 30.5663C102.017 30.967 102.429 31.3469 102.86 31.7043L103.485 32.2595L104.179 32.7313C104.651 33.0367 105.109 33.3559 105.567 33.6334C106.025 33.911 106.566 34.1331 107.066 34.369C107.315 34.48 107.565 34.6188 107.815 34.716L108.606 34.9935L110.174 35.5209C111.243 35.7707 112.325 35.965 113.408 36.1454C112.381 35.743 111.326 35.4654 110.327 35.0629L108.842 34.4106L108.106 34.0914L107.412 33.6889C106.941 33.4114 106.483 33.1477 106.025 32.8979C105.567 32.6481 105.164 32.2733 104.734 31.968L104.082 31.4962L103.499 30.9688C103.092 30.6285 102.707 30.2622 102.347 29.8724C100.12 27.5304 98.5172 24.6673 97.6837 21.5453C97.3785 20.5294 97.1603 19.4894 97.0314 18.4365Z" fill="#263238"/>
<path d="M119.82 46.5956C119.82 46.5956 124.858 39.6563 128.022 41.4605C131.186 43.2647 127.3 53.396 123.525 54.7283C123.054 54.9306 122.546 55.0356 122.033 55.037C121.519 55.0385 121.011 54.9364 120.538 54.7369C120.065 54.5373 119.637 54.2445 119.28 53.8758C118.923 53.5071 118.644 53.0701 118.46 52.5911L119.82 46.5956Z" fill="#EB9481"/>
<path d="M126.842 44.3887V44.4858C124.191 45.5128 122.762 47.9138 121.749 50.4258C121.907 50.1656 122.12 49.9428 122.373 49.7727C122.626 49.6027 122.912 49.4893 123.213 49.4405C123.513 49.3918 123.821 49.4087 124.115 49.4901C124.408 49.5715 124.681 49.7156 124.913 49.9123C124.913 49.9123 124.913 50.065 124.844 50.0511C124.386 49.8927 123.889 49.8811 123.424 50.0179C122.959 50.1547 122.548 50.4331 122.249 50.8144C121.755 51.4595 121.327 52.1522 120.972 52.8823C120.847 53.1182 120.417 52.9794 120.514 52.7157C120.541 49.371 123.234 44.6662 126.842 44.3887Z" fill="#263238"/>
<path d="M120.264 19.3799C118.252 18.6305 116.336 7.37502 123.734 2.00406C131.131 -3.3669 140.61 2.76737 136.641 11.9965C134.129 17.8255 124.525 20.962 120.264 19.3799Z" fill="#263238"/>
<path d="M134.087 1.35059C136.274 3.17764 137.776 5.69256 138.347 8.48411C138.642 9.78274 138.59 11.1361 138.195 12.408C137.8 13.6798 137.077 14.8252 136.099 15.7287C134.027 17.5755 131.487 18.8187 128.757 19.3232C127.366 19.6309 125.949 19.8075 124.525 19.8506C123.087 19.9505 121.644 19.7906 120.264 19.3787C121.567 20.0994 123.011 20.5257 124.497 20.6278C125.984 20.785 127.484 20.7617 128.966 20.5584C132.029 20.2296 134.913 18.9482 137.209 16.8945C138.374 15.794 139.218 14.3982 139.652 12.8558C140.028 11.3204 139.999 9.71374 139.569 8.19267C139.167 6.73981 138.474 5.38392 137.532 4.20761C136.589 3.0313 135.417 2.05921 134.087 1.35059Z" fill="#263238"/>
<path d="M130.201 81.5405C148.77 109.478 159.262 146.672 157.958 154.86C156.459 163.868 143.746 194.317 130.645 207.737C127.189 211.276 101.014 182.243 104.553 178.315C111.368 170.737 124.899 148.407 125.496 143.314C126.051 138.609 119.195 108.34 117.391 91.1305C115.587 74.6013 121.568 68.5364 130.201 81.5405Z" fill="#EB9481"/>
<path d="M105.358 177.386C105.358 177.386 91.1469 183.632 82.0426 188.156C76.9631 190.682 68.636 195.789 65.7493 199.356C61.447 204.671 46.8052 229.708 52.8007 233.386C58.2272 236.717 68.067 213.623 68.067 213.623C68.067 213.623 56.076 236.05 63.3484 238.868C70.6207 241.685 78.2677 214.081 78.2677 214.081C78.2677 214.081 66.4571 237.411 74.4095 239.062C80.3772 240.422 88.7043 215.83 88.7043 215.83C88.7043 215.83 78.6979 235.953 84.8183 237.549C91.591 239.312 100.709 217.093 100.709 217.093C116.961 218.48 125.288 212.554 130.701 207.614C132.033 206.42 105.358 177.386 105.358 177.386Z" fill="#EB9481"/>
<path d="M71.6755 205.587C70.1766 208.168 68.6361 210.777 67.3592 213.484C66.0824 216.19 64.9166 218.952 63.9035 221.811C62.511 225.463 61.5424 229.263 61.0168 233.136C62.4046 226.335 66.8458 216.565 68.1226 213.858C69.3994 211.152 70.5235 208.307 71.7865 205.67C71.8142 205.573 71.7171 205.531 71.6755 205.587Z" fill="#263238"/>
<path d="M81.5431 210.001C79.7666 213.373 77.8792 216.676 76.2415 220.132C74.6038 223.588 73.4658 226.988 72.078 230.541C71.9808 230.818 72.1613 230.777 72.2723 230.541C73.7989 227.043 75.4643 223.935 77.0326 220.465C78.6009 216.995 80.0165 213.526 81.6958 210.056C81.6541 209.973 81.5708 209.945 81.5431 210.001Z" fill="#263238"/>
<path d="M90.6888 212.249C87.8328 217.374 85.5077 222.778 83.7496 228.375C83.6524 228.653 83.8884 228.584 83.9994 228.375C86.1922 222.977 87.8854 218.661 90.8415 212.429C90.9109 212.263 90.7582 212.151 90.6888 212.249Z" fill="#263238"/>
<path d="M148.049 110.2L118.46 115.904C118.46 115.904 114.921 95.1555 116.433 82.5955C117.946 70.0355 125.191 72.4504 132.227 82.5955C139.263 92.7407 148.049 110.2 148.049 110.2Z" fill="#7FB2F0"/>
<path opacity="0.1" d="M148.049 110.2L118.46 115.904C118.46 115.904 114.921 95.1555 116.433 82.5955C117.946 70.0355 125.191 72.4504 132.227 82.5955C139.263 92.7407 148.049 110.2 148.049 110.2Z" fill="black"/>
</svg>
