<svg width="1170" height="584" viewBox="0 0 1170 584" fill="none" xmlns="http://www.w3.org/2000/svg">
<path d="M398.55 282.05L411.9 281.77L418.48 281.66C420.67 281.61 422.84 281.66 425.03 281.6L424.58 282.05L424.53 270.86L425.03 271.36L411.79 271.29C407.37 271.29 402.96 271.18 398.55 271.13L398.82 270.86C398.82 272.69 398.73 274.53 398.69 276.39L398.55 282.05ZM398.55 282.05L398.4 276.51C398.4 274.64 398.29 272.76 398.27 270.86V270.55H398.55C402.96 270.55 407.37 270.4 411.79 270.39L425.03 270.33H425.53V270.83L425.47 282.02V282.55H425.03C422.79 282.55 420.56 282.55 418.33 282.5L411.67 282.39L398.55 282.05Z" fill="#EBEBEB"/>
<path d="M413.32 296.16L426.67 295.88L433.25 295.77C435.44 295.72 437.62 295.77 439.8 295.71L439.35 296.16V284.97L439.85 285.47L426.61 285.4C422.19 285.4 417.78 285.29 413.37 285.24L413.64 284.97C413.64 286.8 413.55 288.64 413.51 290.5L413.32 296.16ZM413.32 296.16L413.18 290.62C413.13 288.75 413.06 286.87 413.04 284.97V284.7H413.32C417.73 284.65 422.14 284.55 426.56 284.54L439.8 284.48H440.3V284.98L440.24 296.17V296.62H439.8C437.57 296.62 435.33 296.62 433.1 296.57L426.44 296.46L413.32 296.16Z" fill="#EBEBEB"/>
<path d="M35.48 373.4L48.84 373.12L55.42 373.01C57.6 373.01 59.78 373.01 61.96 372.95L61.52 373.4L61.46 362.21L61.96 362.71L48.72 362.64C44.31 362.64 39.9 362.53 35.48 362.48L35.75 362.21C35.75 364.04 35.67 365.88 35.62 367.74L35.48 373.4ZM35.48 373.4L35.34 367.86C35.29 365.99 35.23 364.11 35.21 362.21V361.94H35.48C39.9 361.89 44.31 361.79 48.72 361.78L61.96 361.72H62.46V362.22V373.41V373.86H62.01C59.78 373.86 57.54 373.86 55.32 373.81L48.64 373.68L35.48 373.4Z" fill="#EBEBEB"/>
<path d="M50.26 387.5H76.74V376.31H50.26V387.5Z" fill="#EBEBEB"/>
<path d="M104.09 164.41L117.45 164.13L124.03 164.02C126.21 163.97 128.39 164.02 130.57 163.97L130.13 164.41L130.07 153.22L130.57 153.72L117.33 153.66C112.92 153.66 108.5 153.55 104.09 153.49L104.36 153.22C104.36 155.05 104.28 156.9 104.23 158.76L104.09 164.41ZM104.09 164.41L103.95 158.88C103.95 157.01 103.84 155.12 103.82 153.22V152.95H104.09C108.5 152.9 112.92 152.79 117.33 152.79L130.57 152.72H131.07V153.22L131.02 164.41V164.86H130.58C128.35 164.86 126.11 164.86 123.89 164.8L117.23 164.69L104.09 164.41Z" fill="#EBEBEB"/>
<path d="M74.8701 125.95C75.3667 125.646 75.9377 125.485 76.5201 125.485C77.1024 125.485 77.6734 125.646 78.1701 125.95L79.0201 126.44C79.3101 126.59 79.6001 126.74 79.9001 126.88C80.428 127.122 80.8791 127.505 81.2037 127.987C81.5283 128.468 81.7139 129.03 81.7401 129.61L81.8601 133.67L95.1001 133.26L94.9701 129.2C94.9568 128.617 95.1047 128.041 95.3976 127.537C95.6905 127.032 96.117 126.618 96.6301 126.34C97.2078 126.038 97.7686 125.704 98.3101 125.34C98.7855 125.005 99.3447 124.807 99.9254 124.77C100.506 124.733 101.086 124.858 101.6 125.13L105.17 127.04L111.43 115.37L107.86 113.45C107.348 113.174 106.923 112.762 106.631 112.259C106.34 111.756 106.194 111.181 106.21 110.6C106.231 109.933 106.211 109.265 106.15 108.6C106.086 108.013 106.189 107.42 106.447 106.889C106.705 106.359 107.109 105.912 107.61 105.6L111.06 103.55L104.06 92.3002L100.64 94.4102C100.145 94.7144 99.5759 94.8755 98.9951 94.8755C98.4142 94.8755 97.8448 94.7144 97.3501 94.4102C97.0801 94.2402 96.7901 94.0802 96.5101 93.9302C96.2301 93.7802 95.9301 93.6202 95.6301 93.4902C95.1006 93.2474 94.6486 92.863 94.3239 92.3795C93.9992 91.8959 93.8145 91.3321 93.7901 90.7502L93.6401 86.6602L80.4001 87.0702L80.5301 91.0702C80.548 91.6543 80.402 92.2318 80.1086 92.7373C79.8152 93.2427 79.3862 93.656 78.8701 93.9302C78.2924 94.2329 77.7316 94.5667 77.1901 94.9302C76.7155 95.2678 76.1562 95.4663 75.575 95.5034C74.9937 95.5405 74.4137 95.4147 73.9001 95.1402L70.3301 93.2302L64.0701 104.99L67.6401 106.91C68.1517 107.185 68.5762 107.598 68.866 108.102C69.1557 108.605 69.2991 109.18 69.2801 109.76C69.2674 110.428 69.2907 111.095 69.3501 111.76C69.4132 112.347 69.3097 112.94 69.0515 113.47C68.7933 114.001 68.3907 114.448 67.8901 114.76L64.4401 116.9L71.4401 128.15L74.8701 125.95ZM78.1801 105.05C79.1907 103.157 80.74 101.606 82.6321 100.593C84.5242 99.5808 86.6741 99.1521 88.8099 99.3614C90.9457 99.5707 92.9715 100.409 94.631 101.769C96.2905 103.13 97.5093 104.952 98.1331 107.006C98.757 109.059 98.7579 111.251 98.1357 113.305C97.5136 115.359 96.2964 117.182 94.638 118.544C92.9796 119.906 90.9545 120.746 88.8189 120.957C86.6833 121.168 84.533 120.741 82.6401 119.73C80.1041 118.373 78.2103 116.065 77.3742 113.313C76.538 110.56 76.8279 107.589 78.1801 105.05Z" fill="#EBEBEB"/>
<path d="M1111.36 37.8986C1111.36 37.8986 1102.86 105.94 1088.88 121.251C1072.17 139.615 1059.91 136.93 1053.22 146.402C1046.45 136.919 1034.28 139.615 1017.57 121.24C1003.59 105.929 995.112 37.8874 995.112 37.8874C1031.89 20.0581 1053.28 0 1053.28 0C1053.84 0.635172 1075.12 20.3144 1111.36 37.8986Z" fill="#37474F"/>
<path d="M1053.18 0.0222915V146.402C1046.4 136.919 1034.24 139.615 1017.52 121.24C1003.55 105.929 995.067 37.8874 995.067 37.8874C1031.84 20.0581 1053.24 0 1053.24 0L1053.18 0.0222915Z" fill="#455A64"/>
<path d="M1102.38 43.3811C1102.38 43.3811 1095.2 100.859 1083.43 113.796C1069.25 129.33 1058.92 127.046 1053.25 135.046C1047.53 127.046 1037.25 129.33 1023.06 113.796C1011.27 100.859 1004.12 43.3811 1004.12 43.3811C1035.21 28.2818 1053.26 11.3662 1053.26 11.3662C1053.26 11.3662 1071.23 28.2818 1102.38 43.3811Z" fill="#455A64"/>
<path d="M1004.04 43.3809C1004.04 43.3809 1011.21 100.847 1022.98 113.796C1037.14 129.319 1047.42 127.056 1053.15 135.035V11.3438C1052.63 11.9566 1034.65 28.5157 1004.04 43.3809Z" fill="#37474F"/>
<path d="M1069.3 89.3236C1078.2 80.4243 1078.2 65.9956 1069.3 57.0963C1060.4 48.197 1045.97 48.1969 1037.07 57.0963C1028.17 65.9956 1028.17 80.4243 1037.07 89.3236C1045.97 98.223 1060.4 98.223 1069.3 89.3236Z" fill="#4E7AC7"/>
<path d="M1050.58 88.0103L1040.43 77.4575L1044.2 73.8359L1049.79 79.6528L1061.85 61.1548L1066.23 64.0075L1050.58 88.0103Z" fill="white"/>
<path d="M1150.75 156.643H962.429C959.898 156.659 957.395 157.174 955.063 158.16C952.731 159.145 950.617 160.582 948.841 162.386C947.066 164.191 945.664 166.328 944.716 168.675C943.769 171.023 943.294 173.534 943.319 176.065V563.855C943.274 568.957 945.257 573.868 948.833 577.508C952.408 581.148 957.283 583.219 962.385 583.266H1150.71C1153.24 583.249 1155.74 582.733 1158.07 581.748C1160.4 580.762 1162.52 579.328 1164.3 577.525C1166.07 575.722 1167.48 573.587 1168.43 571.241C1169.38 568.896 1169.86 566.386 1169.84 563.855V176.065C1169.86 173.537 1169.39 171.028 1168.44 168.684C1167.49 166.339 1166.09 164.204 1164.32 162.4C1162.55 160.597 1160.44 159.16 1158.11 158.172C1155.78 157.184 1153.28 156.664 1150.75 156.643ZM1157.92 551.864C1157.92 562.072 1150.27 570.329 1140.85 570.329H972.325C962.875 570.329 955.231 562.072 955.231 551.864V190.752C955.231 169.959 962.875 168.945 972.325 168.945H1006.08C1008.04 168.945 1009.64 171.174 1009.64 173.937V175.129C1009.64 181.637 1013.19 181.637 1017.58 181.637H1095.58C1099.96 181.637 1103.48 181.637 1103.48 175.141V173.937C1103.48 171.174 1105.05 168.945 1107.05 168.945H1140.81C1150.24 168.945 1157.88 171.708 1157.88 190.752L1157.92 551.864Z" fill="#263238"/>
<path d="M1067.22 173.536H1045.93C1045.75 173.536 1045.58 173.502 1045.42 173.436C1045.26 173.37 1045.12 173.273 1045 173.151C1044.87 173.029 1044.78 172.884 1044.71 172.724C1044.65 172.565 1044.61 172.394 1044.61 172.221C1044.61 171.872 1044.75 171.538 1045 171.291C1045.24 171.045 1045.58 170.906 1045.93 170.906H1067.22C1067.57 170.906 1067.9 171.045 1068.15 171.291C1068.4 171.538 1068.54 171.872 1068.54 172.221C1068.54 172.394 1068.5 172.565 1068.44 172.724C1068.37 172.884 1068.27 173.029 1068.15 173.151C1068.03 173.273 1067.88 173.37 1067.72 173.436C1067.57 173.502 1067.39 173.536 1067.22 173.536Z" fill="white"/>
<path d="M1157.98 190.752V551.864C1157.98 562.072 1150.34 570.329 1140.91 570.329H972.325C962.875 570.329 955.231 562.072 955.231 551.864V190.752C955.231 169.959 962.875 168.945 972.325 168.945H1006.08C1008.04 168.945 1009.64 171.173 1009.64 173.937V175.129C1009.64 181.637 1013.19 181.637 1017.58 181.637H1095.58C1099.97 181.637 1103.48 181.637 1103.48 175.141V173.937C1103.48 171.173 1105.06 168.945 1107.06 168.945H1140.82C1150.28 168.945 1157.98 171.708 1157.98 190.752Z" fill="white"/>
<path d="M975.746 204.537L969.751 198.932L975.746 193.315L976.671 194.307L971.745 198.932L976.671 203.556L975.746 204.537Z" fill="#C7C7C7"/>
<path d="M1142.23 195.433C1142.23 195.666 1142.16 195.895 1142.03 196.089C1141.9 196.283 1141.71 196.435 1141.5 196.524C1141.28 196.613 1141.05 196.637 1140.82 196.591C1140.59 196.546 1140.38 196.433 1140.21 196.268C1140.05 196.103 1139.93 195.892 1139.89 195.663C1139.84 195.434 1139.87 195.197 1139.96 194.981C1140.04 194.765 1140.2 194.58 1140.39 194.451C1140.58 194.321 1140.81 194.252 1141.05 194.252C1141.2 194.25 1141.36 194.28 1141.5 194.338C1141.64 194.397 1141.78 194.484 1141.89 194.594C1142 194.704 1142.08 194.835 1142.14 194.979C1142.2 195.123 1142.23 195.277 1142.23 195.433Z" fill="#C7C7C7"/>
<path d="M1142.23 199.623C1142.23 199.856 1142.16 200.085 1142.03 200.279C1141.9 200.473 1141.71 200.625 1141.5 200.714C1141.28 200.803 1141.05 200.827 1140.82 200.781C1140.59 200.736 1140.38 200.623 1140.21 200.458C1140.05 200.293 1139.93 200.082 1139.89 199.853C1139.84 199.624 1139.87 199.386 1139.96 199.171C1140.04 198.955 1140.2 198.77 1140.39 198.641C1140.58 198.511 1140.81 198.441 1141.05 198.441C1141.2 198.44 1141.36 198.47 1141.5 198.528C1141.64 198.587 1141.78 198.674 1141.89 198.784C1142 198.894 1142.08 199.025 1142.14 199.169C1142.2 199.313 1142.23 199.467 1142.23 199.623Z" fill="#C7C7C7"/>
<path d="M1142.23 203.813C1142.23 204.046 1142.16 204.275 1142.03 204.469C1141.9 204.663 1141.71 204.814 1141.5 204.904C1141.28 204.993 1141.05 205.017 1140.82 204.971C1140.59 204.926 1140.38 204.813 1140.21 204.648C1140.05 204.483 1139.93 204.272 1139.89 204.043C1139.84 203.814 1139.87 203.576 1139.96 203.361C1140.04 203.145 1140.2 202.96 1140.39 202.83C1140.58 202.701 1140.81 202.631 1141.05 202.631C1141.2 202.63 1141.36 202.659 1141.5 202.718C1141.64 202.777 1141.78 202.864 1141.89 202.974C1142 203.084 1142.08 203.215 1142.14 203.359C1142.2 203.503 1142.23 203.657 1142.23 203.813Z" fill="#C7C7C7"/>
<path d="M1000.25 177.057L999.927 177.38L999.737 177.559C998.902 176.728 997.773 176.262 996.595 176.262C995.417 176.262 994.288 176.728 993.453 177.559L993.274 177.369L992.951 177.046L993.363 176.678C993.662 176.447 993.983 176.245 994.322 176.077C994.722 175.874 995.15 175.732 995.592 175.653C995.798 175.612 996.007 175.582 996.216 175.564H996.773H997.197C997.596 175.612 997.989 175.705 998.367 175.843C998.636 175.945 998.897 176.067 999.147 176.21C999.411 176.362 999.661 176.537 999.894 176.734L1000.24 177.046L1000.25 177.057Z" fill="#C7C7C7"/>
<path d="M994.489 178.584L993.965 178.071C994.664 177.377 995.61 176.988 996.595 176.988C997.58 176.988 998.526 177.377 999.225 178.071L998.701 178.584C998.142 178.027 997.384 177.715 996.595 177.715C995.806 177.715 995.049 178.027 994.489 178.584Z" fill="#C7C7C7"/>
<path d="M998.188 179.108L997.676 179.609C997.529 179.465 997.355 179.351 997.163 179.275C996.972 179.198 996.767 179.161 996.562 179.164C996.354 179.16 996.149 179.198 995.957 179.277C995.765 179.355 995.592 179.472 995.447 179.62C995.28 179.442 995.102 179.275 994.935 179.108C995.143 178.885 995.395 178.708 995.675 178.586C995.955 178.465 996.256 178.402 996.562 178.402C996.867 178.402 997.168 178.465 997.448 178.586C997.728 178.708 997.98 178.885 998.188 179.108Z" fill="#C7C7C7"/>
<path d="M997.063 180.077C997.063 180.201 997.014 180.32 996.926 180.408C996.838 180.496 996.719 180.545 996.595 180.545C996.534 180.545 996.474 180.533 996.418 180.509C996.361 180.486 996.31 180.451 996.268 180.407C996.225 180.364 996.192 180.312 996.17 180.255C996.147 180.199 996.137 180.138 996.138 180.077C996.138 179.956 996.186 179.84 996.272 179.754C996.358 179.668 996.474 179.62 996.595 179.62C996.656 179.619 996.716 179.629 996.773 179.652C996.83 179.674 996.882 179.707 996.925 179.75C996.969 179.793 997.004 179.844 997.027 179.9C997.051 179.956 997.063 180.016 997.063 180.077Z" fill="#C7C7C7"/>
<path d="M968.447 178.038C968.447 177.771 968.526 177.509 968.675 177.288C968.824 177.066 969.035 176.893 969.282 176.791C969.529 176.689 969.8 176.663 970.062 176.716C970.324 176.769 970.564 176.899 970.753 177.088C970.941 177.278 971.068 177.519 971.119 177.782C971.17 178.044 971.141 178.315 971.038 178.562C970.934 178.808 970.759 179.017 970.536 179.164C970.313 179.311 970.051 179.388 969.784 179.386C969.607 179.386 969.433 179.351 969.27 179.283C969.107 179.215 968.959 179.116 968.835 178.991C968.71 178.865 968.612 178.716 968.545 178.553C968.479 178.389 968.445 178.214 968.447 178.038Z" fill="#C7C7C7"/>
<path d="M972.67 178.038C972.675 177.772 972.757 177.514 972.908 177.295C973.059 177.076 973.271 176.907 973.518 176.808C973.765 176.71 974.035 176.686 974.295 176.741C974.555 176.795 974.793 176.925 974.98 177.115C975.166 177.304 975.292 177.544 975.342 177.805C975.393 178.066 975.365 178.336 975.262 178.581C975.159 178.826 974.987 179.036 974.765 179.183C974.544 179.33 974.284 179.409 974.019 179.409C973.84 179.409 973.662 179.373 973.497 179.304C973.332 179.235 973.183 179.133 973.057 179.006C972.932 178.878 972.833 178.727 972.766 178.561C972.7 178.395 972.667 178.217 972.67 178.038Z" fill="#C7C7C7"/>
<path d="M976.905 178.038C976.909 177.772 976.992 177.514 977.143 177.295C977.294 177.076 977.506 176.907 977.752 176.808C977.999 176.71 978.269 176.686 978.53 176.741C978.79 176.795 979.028 176.925 979.214 177.115C979.4 177.304 979.527 177.544 979.577 177.805C979.627 178.066 979.599 178.336 979.497 178.581C979.394 178.826 979.221 179.036 979 179.183C978.779 179.33 978.519 179.409 978.253 179.409C978.074 179.409 977.897 179.373 977.732 179.304C977.567 179.235 977.417 179.133 977.292 179.006C977.166 178.878 977.067 178.727 977.001 178.561C976.934 178.395 976.902 178.217 976.905 178.038Z" fill="#C7C7C7"/>
<path d="M981.139 178.038C981.143 177.772 981.227 177.513 981.378 177.294C981.529 177.075 981.742 176.906 981.989 176.807C982.237 176.709 982.508 176.686 982.768 176.741C983.028 176.797 983.266 176.928 983.452 177.119C983.638 177.309 983.764 177.551 983.813 177.812C983.862 178.074 983.832 178.344 983.728 178.589C983.623 178.834 983.449 179.042 983.226 179.188C983.003 179.334 982.742 179.411 982.476 179.409C982.298 179.409 982.121 179.373 981.957 179.304C981.792 179.234 981.643 179.133 981.519 179.005C981.394 178.877 981.296 178.726 981.231 178.56C981.166 178.394 981.135 178.216 981.139 178.038Z" fill="#C7C7C7"/>
<path d="M985.374 178.038C985.378 177.772 985.461 177.513 985.613 177.294C985.764 177.075 985.977 176.906 986.224 176.807C986.471 176.709 986.742 176.686 987.003 176.741C987.263 176.797 987.501 176.928 987.687 177.119C987.873 177.309 987.998 177.551 988.047 177.812C988.096 178.074 988.067 178.344 987.962 178.589C987.858 178.834 987.683 179.042 987.461 179.188C987.238 179.334 986.977 179.411 986.711 179.409C986.532 179.409 986.356 179.373 986.191 179.304C986.027 179.234 985.878 179.133 985.753 179.005C985.629 178.877 985.531 178.726 985.466 178.56C985.401 178.394 985.369 178.216 985.374 178.038Z" fill="#C7C7C7"/>
<path d="M1142.73 180.98H1131.78V175.898H1142.73V180.98ZM1132.35 180.412H1142.16V176.467H1132.35V180.412Z" fill="#C7C7C7"/>
<path d="M1139.74 176.768H1132.69V180.111H1139.74V176.768Z" fill="#C7C7C7"/>
<path d="M1143.7 177.08H1142.73V179.787H1143.7V177.08Z" fill="#C7C7C7"/>
<path d="M986.031 548.254H984.482V555.33H981.607V551.719H976.503V555.33H973.628V548.254H972.091L979.055 541.044L986.031 548.254Z" fill="#EBEBEB"/>
<path d="M1141.08 541.044H1124.28V543.44H1141.08V541.044Z" fill="#EBEBEB"/>
<path d="M1141.08 546.983H1124.28V549.379H1141.08V546.983Z" fill="#EBEBEB"/>
<path d="M1141.08 552.923H1124.28V555.319H1141.08V552.923Z" fill="#EBEBEB"/>
<path d="M1061.36 547.229L1056.58 552.332L1051.8 547.229L1052.65 546.449L1056.58 550.639L1060.51 546.449L1061.36 547.229Z" fill="#EBEBEB"/>
<path d="M1056.58 557.603C1054.86 557.603 1053.18 557.094 1051.76 556.14C1050.33 555.186 1049.22 553.831 1048.56 552.244C1047.9 550.658 1047.73 548.913 1048.07 547.229C1048.4 545.545 1049.23 543.998 1050.44 542.784C1051.66 541.57 1053.2 540.743 1054.89 540.408C1056.57 540.074 1058.32 540.245 1059.9 540.902C1061.49 541.56 1062.84 542.672 1063.8 544.1C1064.75 545.527 1065.26 547.206 1065.26 548.922C1065.25 551.223 1064.34 553.427 1062.71 555.054C1061.08 556.681 1058.88 557.597 1056.58 557.603ZM1056.58 541.389C1055.09 541.389 1053.63 541.831 1052.39 542.659C1051.16 543.487 1050.19 544.663 1049.62 546.04C1049.05 547.416 1048.9 548.931 1049.19 550.392C1049.48 551.853 1050.2 553.195 1051.25 554.249C1052.31 555.302 1053.65 556.02 1055.11 556.311C1056.57 556.601 1058.09 556.452 1059.46 555.882C1060.84 555.312 1062.02 554.346 1062.84 553.107C1063.67 551.869 1064.11 550.412 1064.11 548.922C1064.11 546.925 1063.32 545.008 1061.91 543.596C1060.49 542.183 1058.58 541.389 1056.58 541.389Z" fill="#EBEBEB"/>
<path d="M1043.62 517.732C1043.62 518.305 1043.45 518.865 1043.13 519.342C1042.81 519.818 1042.36 520.19 1041.83 520.409C1041.3 520.628 1040.72 520.686 1040.16 520.574C1039.6 520.462 1039.08 520.186 1038.67 519.781C1038.27 519.376 1037.99 518.86 1037.88 518.297C1037.77 517.735 1037.83 517.153 1038.05 516.624C1038.27 516.094 1038.64 515.642 1039.11 515.323C1039.59 515.005 1040.15 514.835 1040.72 514.835C1041.1 514.834 1041.48 514.907 1041.83 515.053C1042.19 515.198 1042.51 515.411 1042.77 515.68C1043.04 515.95 1043.26 516.27 1043.4 516.622C1043.55 516.974 1043.62 517.351 1043.62 517.732Z" fill="#DBDBDB"/>
<path d="M1061.28 517.732C1061.28 518.601 1061.02 519.449 1060.54 520.171C1060.06 520.894 1059.37 521.456 1058.57 521.789C1057.77 522.121 1056.89 522.208 1056.04 522.038C1055.18 521.869 1054.4 521.451 1053.79 520.837C1053.17 520.223 1052.76 519.44 1052.59 518.589C1052.42 517.737 1052.5 516.854 1052.84 516.052C1053.17 515.25 1053.73 514.564 1054.45 514.082C1055.17 513.599 1056.02 513.342 1056.89 513.342C1058.06 513.342 1059.17 513.804 1060 514.628C1060.82 515.451 1061.28 516.568 1061.28 517.732Z" fill="#4E7AC7"/>
<path d="M1075.96 517.732C1075.96 518.305 1075.79 518.865 1075.47 519.342C1075.15 519.818 1074.7 520.19 1074.17 520.409C1073.64 520.628 1073.06 520.686 1072.5 520.574C1071.93 520.462 1071.42 520.186 1071.01 519.781C1070.61 519.376 1070.33 518.86 1070.22 518.297C1070.11 517.735 1070.16 517.153 1070.38 516.624C1070.6 516.094 1070.97 515.642 1071.45 515.323C1071.93 515.005 1072.49 514.835 1073.06 514.835C1073.44 514.834 1073.82 514.907 1074.17 515.053C1074.52 515.198 1074.84 515.411 1075.11 515.68C1075.38 515.95 1075.6 516.27 1075.74 516.622C1075.89 516.974 1075.96 517.351 1075.96 517.732Z" fill="#DBDBDB"/>
<path d="M1095.06 437.01H1016.85V461.882H1095.06V437.01Z" fill="#4E7AC7"/>
<path d="M1038.75 452.934V446.248C1038.75 446.165 1038.76 446.083 1038.79 446.007C1038.83 445.931 1038.87 445.861 1038.93 445.803C1038.99 445.745 1039.06 445.699 1039.13 445.668C1039.21 445.637 1039.29 445.622 1039.37 445.624C1039.46 445.622 1039.54 445.637 1039.62 445.668C1039.69 445.699 1039.76 445.744 1039.82 445.802C1039.88 445.861 1039.93 445.93 1039.96 446.006C1039.99 446.083 1040.01 446.165 1040.01 446.248V452.343H1043.11C1043.28 452.343 1043.44 452.41 1043.56 452.529C1043.68 452.648 1043.74 452.81 1043.74 452.978C1043.74 453.147 1043.68 453.308 1043.56 453.427C1043.44 453.547 1043.28 453.613 1043.11 453.613H1039.37C1039.29 453.614 1039.2 453.596 1039.12 453.561C1039.04 453.526 1038.97 453.475 1038.91 453.411C1038.85 453.347 1038.81 453.272 1038.78 453.19C1038.75 453.107 1038.74 453.02 1038.75 452.934Z" fill="white"/>
<path d="M1051.01 446.56C1051.75 447.337 1052.16 448.371 1052.16 449.446C1052.16 450.521 1051.75 451.555 1051.01 452.332C1050.66 452.714 1050.25 453.02 1049.78 453.231C1049.31 453.442 1048.8 453.553 1048.29 453.558C1047.76 453.557 1047.24 453.447 1046.76 453.236C1046.28 453.025 1045.85 452.718 1045.49 452.332C1044.76 451.548 1044.36 450.517 1044.36 449.446C1044.36 448.375 1044.76 447.344 1045.49 446.56C1045.85 446.172 1046.28 445.863 1046.76 445.652C1047.24 445.441 1047.76 445.332 1048.29 445.334C1048.8 445.336 1049.31 445.447 1049.78 445.658C1050.25 445.869 1050.67 446.176 1051.01 446.56ZM1050.86 449.446C1050.86 448.707 1050.58 447.994 1050.08 447.451C1049.86 447.199 1049.58 446.996 1049.27 446.856C1048.96 446.716 1048.63 446.642 1048.29 446.638C1047.94 446.636 1047.6 446.708 1047.28 446.848C1046.96 446.988 1046.67 447.194 1046.44 447.451C1045.93 447.992 1045.65 448.706 1045.66 449.446C1045.65 450.183 1045.93 450.894 1046.44 451.429C1046.67 451.688 1046.96 451.896 1047.28 452.038C1047.6 452.18 1047.94 452.253 1048.29 452.254C1048.63 452.248 1048.96 452.171 1049.27 452.029C1049.58 451.887 1049.86 451.683 1050.08 451.429C1050.57 450.885 1050.83 450.176 1050.82 449.446H1050.86Z" fill="white"/>
<path d="M1054.02 449.457C1054.03 448.674 1054.27 447.912 1054.7 447.256C1055.12 446.599 1055.72 446.074 1056.43 445.739C1057.14 445.404 1057.92 445.272 1058.7 445.358C1059.48 445.443 1060.22 445.744 1060.84 446.225C1060.97 446.332 1061.06 446.488 1061.08 446.659C1061.1 446.83 1061.05 447.003 1060.95 447.139C1060.84 447.275 1060.69 447.363 1060.51 447.384C1060.34 447.405 1060.17 447.357 1060.03 447.25C1059.52 446.853 1058.89 446.638 1058.24 446.638C1057.86 446.632 1057.48 446.703 1057.12 446.846C1056.77 446.99 1056.45 447.203 1056.18 447.473C1055.91 447.726 1055.69 448.031 1055.54 448.37C1055.4 448.71 1055.32 449.076 1055.32 449.446C1055.32 449.816 1055.4 450.182 1055.54 450.521C1055.69 450.86 1055.91 451.166 1056.18 451.418C1056.45 451.688 1056.77 451.902 1057.12 452.045C1057.48 452.189 1057.86 452.26 1058.24 452.254C1058.79 452.25 1059.33 452.1 1059.8 451.819V450.259H1058.16C1057.99 450.254 1057.83 450.182 1057.71 450.06C1057.59 449.937 1057.52 449.773 1057.52 449.602C1057.52 449.432 1057.59 449.271 1057.71 449.152C1057.83 449.033 1057.99 448.967 1058.16 448.967H1060.39C1060.48 448.964 1060.56 448.978 1060.64 449.008C1060.72 449.039 1060.8 449.085 1060.86 449.144C1060.92 449.203 1060.97 449.274 1061 449.353C1061.04 449.431 1061.06 449.516 1061.06 449.602V452.131C1061.07 452.194 1061.07 452.258 1061.06 452.321C1061.02 452.436 1060.94 452.535 1060.84 452.599C1060.22 453.081 1059.49 453.382 1058.71 453.469C1057.93 453.557 1057.15 453.427 1056.44 453.094C1055.74 452.761 1055.14 452.238 1054.71 451.584C1054.28 450.93 1054.05 450.171 1054.03 449.39L1054.02 449.457Z" fill="white"/>
<path d="M1063.76 446.192C1063.75 446.11 1063.77 446.028 1063.8 445.951C1063.83 445.875 1063.88 445.806 1063.94 445.747C1063.99 445.689 1064.06 445.643 1064.14 445.612C1064.22 445.582 1064.3 445.566 1064.38 445.568C1064.46 445.566 1064.55 445.581 1064.62 445.612C1064.7 445.643 1064.77 445.688 1064.83 445.746C1064.89 445.804 1064.94 445.873 1064.97 445.95C1065.01 446.026 1065.02 446.109 1065.03 446.192V452.878C1065.02 453.046 1064.95 453.204 1064.83 453.321C1064.71 453.437 1064.55 453.502 1064.38 453.502C1064.3 453.504 1064.22 453.488 1064.14 453.458C1064.06 453.427 1063.99 453.381 1063.94 453.323C1063.88 453.264 1063.83 453.195 1063.8 453.119C1063.77 453.042 1063.75 452.96 1063.76 452.878V446.192Z" fill="white"/>
<path d="M1068.41 452.933C1068.41 453.099 1068.35 453.258 1068.23 453.375C1068.11 453.492 1067.96 453.557 1067.79 453.557C1067.62 453.557 1067.47 453.492 1067.35 453.375C1067.23 453.258 1067.17 453.099 1067.17 452.933V446.247C1067.16 446.146 1067.19 446.045 1067.23 445.954C1067.28 445.863 1067.34 445.784 1067.42 445.724C1067.56 445.632 1067.72 445.595 1067.88 445.62C1068.04 445.645 1068.19 445.729 1068.29 445.857L1071.98 450.961V446.292C1071.98 446.211 1072 446.132 1072.03 446.057C1072.06 445.983 1072.1 445.915 1072.16 445.859C1072.22 445.802 1072.28 445.756 1072.36 445.726C1072.43 445.695 1072.51 445.679 1072.59 445.679C1072.76 445.679 1072.91 445.743 1073.03 445.858C1073.15 445.972 1073.21 446.128 1073.22 446.292V452.978C1073.21 453.143 1073.15 453.3 1073.03 453.416C1072.91 453.532 1072.76 453.599 1072.59 453.602C1072.5 453.601 1072.41 453.579 1072.33 453.538C1072.25 453.498 1072.18 453.44 1072.12 453.368L1072.07 453.301L1068.41 448.231V452.933Z" fill="white"/>
<path d="M1075.52 244.474V252.62H1069.76V244.474C1069.76 236.674 1063.87 230.423 1056.62 230.423C1049.38 230.423 1043.49 236.719 1043.49 244.474V264.867H1037.64V244.474C1037.64 233.331 1046.12 224.338 1056.58 224.338C1067.04 224.338 1075.52 233.376 1075.52 244.474Z" fill="#C7C7C7"/>
<path d="M1037.68 252.643L1043.44 252.877V264.867H1037.68V252.643Z" fill="#A6A6A6"/>
<path d="M1082.87 258.036H1030.29V305.73H1082.87V258.036Z" fill="#4E7AC7"/>
<path opacity="0.1" d="M1082.87 258.036H1056.58V305.73H1082.87V258.036Z" fill="#16193B"/>
<path d="M1058.81 283.633L1061.04 294.063H1051.7L1053.93 283.633C1053.06 283.096 1052.4 282.292 1052.03 281.343C1051.66 280.394 1051.62 279.351 1051.9 278.373C1052.17 277.394 1052.76 276.534 1053.58 275.921C1054.39 275.308 1055.38 274.976 1056.4 274.976C1057.41 274.976 1058.4 275.308 1059.22 275.921C1060.03 276.534 1060.62 277.394 1060.9 278.373C1061.18 279.351 1061.13 280.394 1060.76 281.343C1060.39 282.292 1059.73 283.096 1058.86 283.633H1058.81Z" fill="#263238"/>
<path d="M1124.29 358.36H988.884V381.538H1124.29V358.36Z" fill="white"/>
<path d="M1124.83 382.095H988.327V357.803H1124.83V382.095ZM989.441 380.981H1123.72V358.917H989.441V380.981Z" fill="#EBEBEB"/>
<path d="M1002.94 364.756H1001.82V374.663H1002.94V364.756Z" fill="#37474F"/>
<path d="M1007.34 369.146H997.431V370.261H1007.34V369.146Z" fill="#37474F"/>
<path d="M1005.49 365.802L998.486 372.804L999.274 373.592L1006.28 366.59L1005.49 365.802Z" fill="#37474F"/>
<path d="M999.266 365.808L998.478 366.596L1005.48 373.601L1006.27 372.813L999.266 365.808Z" fill="#37474F"/>
<path d="M1019.74 364.756H1018.63V374.663H1019.74V364.756Z" fill="#37474F"/>
<path d="M1024.14 369.146H1014.23V370.261H1024.14V369.146Z" fill="#37474F"/>
<path d="M1022.29 365.813L1015.29 372.816L1016.07 373.604L1023.08 366.602L1022.29 365.813Z" fill="#37474F"/>
<path d="M1016.07 365.804L1015.29 366.592L1022.29 373.597L1023.08 372.809L1016.07 365.804Z" fill="#37474F"/>
<path d="M1036.54 364.756H1035.43V374.663H1036.54V364.756Z" fill="#37474F"/>
<path d="M1040.95 369.146H1031.04V370.261H1040.95V369.146Z" fill="#37474F"/>
<path d="M1039.1 365.814L1032.09 372.817L1032.88 373.605L1039.88 366.603L1039.1 365.814Z" fill="#37474F"/>
<path d="M1032.88 365.801L1032.09 366.589L1039.1 373.594L1039.89 372.806L1032.88 365.801Z" fill="#37474F"/>
<path d="M1053.36 364.756H1052.24V374.663H1053.36V364.756Z" fill="#37474F"/>
<path d="M1057.75 369.146H1047.84V370.261H1057.75V369.146Z" fill="#37474F"/>
<path d="M1055.91 365.815L1048.9 372.817L1049.69 373.606L1056.69 366.603L1055.91 365.815Z" fill="#37474F"/>
<path d="M1049.7 365.812L1048.91 366.6L1055.91 373.605L1056.7 372.817L1049.7 365.812Z" fill="#37474F"/>
<path d="M1070.16 364.756H1069.05V374.663H1070.16V364.756Z" fill="#37474F"/>
<path d="M1074.55 369.146H1064.65V370.261H1074.55V369.146Z" fill="#37474F"/>
<path d="M1072.71 365.815L1065.7 372.818L1066.49 373.606L1073.5 366.604L1072.71 365.815Z" fill="#37474F"/>
<path d="M1066.49 365.797L1065.71 366.585L1072.71 373.59L1073.5 372.802L1066.49 365.797Z" fill="#37474F"/>
<path d="M1086.97 364.756H1085.85V374.663H1086.97V364.756Z" fill="#37474F"/>
<path d="M1091.37 369.146H1081.46V370.261H1091.37V369.146Z" fill="#37474F"/>
<path d="M1089.52 365.808L1082.51 372.811L1083.3 373.599L1090.3 366.596L1089.52 365.808Z" fill="#37474F"/>
<path d="M1083.3 365.794L1082.51 366.582L1089.52 373.586L1090.31 372.799L1083.3 365.794Z" fill="#37474F"/>
<path d="M1112.72 373.526C1111.51 373.453 1110.33 373.116 1109.27 372.539C1108.2 371.961 1107.28 371.157 1106.56 370.183L1106.31 369.848L1106.56 369.525C1107.23 368.519 1108.14 367.693 1109.21 367.123C1110.28 366.552 1111.47 366.254 1112.69 366.254C1113.9 366.254 1115.09 366.552 1116.16 367.123C1117.23 367.693 1118.14 368.519 1118.82 369.525L1119.05 369.848L1118.82 370.183C1118.1 371.149 1117.19 371.949 1116.14 372.526C1115.08 373.103 1113.92 373.444 1112.72 373.526ZM1107.73 369.893C1108.3 370.685 1109.06 371.329 1109.93 371.774C1110.8 372.218 1111.76 372.45 1112.74 372.45C1113.72 372.45 1114.69 372.218 1115.56 371.774C1116.43 371.329 1117.18 370.685 1117.76 369.893C1117.18 369.101 1116.43 368.457 1115.56 368.012C1114.69 367.568 1113.72 367.336 1112.74 367.336C1111.76 367.336 1110.8 367.568 1109.93 368.012C1109.06 368.457 1108.3 369.101 1107.73 369.893Z" fill="#EBEBEB"/>
<path d="M1112.71 372.4C1114.09 372.4 1115.22 371.278 1115.22 369.893C1115.22 368.508 1114.09 367.386 1112.71 367.386C1111.32 367.386 1110.2 368.508 1110.2 369.893C1110.2 371.278 1111.32 372.4 1112.71 372.4Z" fill="#EBEBEB"/>
<path d="M1116.84 364.866L1107.93 373.77L1108.72 374.557L1117.63 365.654L1116.84 364.866Z" fill="#EBEBEB"/>
<path d="M1020.17 334.223H1018.39V337.355C1018.39 337.567 1018.31 337.771 1018.16 337.922C1018.01 338.072 1017.8 338.157 1017.59 338.157C1017.38 338.157 1017.17 338.072 1017.02 337.922C1016.87 337.771 1016.79 337.567 1016.79 337.355V328.83C1016.79 328.725 1016.81 328.621 1016.85 328.525C1016.89 328.428 1016.95 328.34 1017.02 328.267C1017.1 328.193 1017.19 328.135 1017.28 328.096C1017.38 328.057 1017.48 328.037 1017.59 328.039H1020.17C1020.6 328.013 1021.02 328.075 1021.42 328.219C1021.81 328.363 1022.18 328.586 1022.48 328.876C1022.79 329.165 1023.04 329.515 1023.2 329.903C1023.37 330.291 1023.46 330.709 1023.46 331.131C1023.46 331.554 1023.37 331.971 1023.2 332.359C1023.04 332.747 1022.79 333.097 1022.48 333.386C1022.18 333.676 1021.81 333.9 1021.42 334.044C1021.02 334.187 1020.6 334.249 1020.17 334.223ZM1018.39 332.619H1020.17C1020.38 332.637 1020.59 332.611 1020.78 332.545C1020.98 332.478 1021.16 332.371 1021.31 332.232C1021.47 332.092 1021.59 331.922 1021.67 331.732C1021.75 331.543 1021.8 331.338 1021.8 331.131C1021.8 330.924 1021.75 330.719 1021.67 330.53C1021.59 330.341 1021.47 330.17 1021.31 330.031C1021.16 329.891 1020.98 329.784 1020.78 329.717C1020.59 329.651 1020.38 329.626 1020.17 329.643H1018.39V332.619Z" fill="#4E7AC7"/>
<path d="M1029.37 335.761H1025.86L1025.14 337.644C1025.08 337.791 1024.98 337.917 1024.85 338.006C1024.71 338.095 1024.56 338.144 1024.4 338.146C1024.31 338.163 1024.21 338.163 1024.12 338.146C1023.92 338.071 1023.76 337.92 1023.67 337.726C1023.58 337.532 1023.57 337.311 1023.64 337.11L1026.84 328.596C1026.9 328.446 1027.01 328.318 1027.15 328.228C1027.28 328.139 1027.44 328.093 1027.61 328.095C1027.77 328.09 1027.93 328.136 1028.06 328.226C1028.2 328.315 1028.31 328.445 1028.36 328.596L1031.56 337.11C1031.64 337.311 1031.63 337.532 1031.54 337.726C1031.45 337.92 1031.28 338.071 1031.08 338.146C1030.99 338.165 1030.9 338.165 1030.81 338.146C1030.65 338.146 1030.49 338.098 1030.36 338.008C1030.23 337.919 1030.13 337.792 1030.07 337.644L1029.37 335.761ZM1028.78 334.179L1027.61 331.07L1026.49 334.179H1028.78Z" fill="#4E7AC7"/>
<path d="M1032.98 335.639C1033.04 335.554 1033.12 335.483 1033.21 335.431C1033.31 335.379 1033.41 335.347 1033.51 335.337C1033.62 335.328 1033.72 335.341 1033.82 335.376C1033.92 335.41 1034.02 335.466 1034.09 335.538C1034.87 336.199 1035.84 336.59 1036.86 336.653C1037.5 336.666 1038.13 336.479 1038.66 336.118C1038.84 336.009 1038.99 335.858 1039.1 335.677C1039.21 335.497 1039.27 335.292 1039.29 335.082C1039.29 334.919 1039.24 334.76 1039.15 334.625C1039.04 334.45 1038.89 334.302 1038.72 334.19C1038.1 333.842 1037.43 333.611 1036.73 333.51C1036.09 333.4 1035.46 333.209 1034.86 332.942C1034.32 332.707 1033.85 332.32 1033.52 331.828C1033.3 331.475 1033.18 331.064 1033.19 330.647C1033.2 330.231 1033.3 329.824 1033.5 329.457C1033.69 329.09 1033.97 328.772 1034.3 328.529C1035.04 328.022 1035.91 327.757 1036.8 327.772C1037.94 327.82 1039.04 328.208 1039.95 328.886C1040.03 328.94 1040.1 329.009 1040.16 329.09C1040.21 329.171 1040.25 329.261 1040.27 329.357C1040.29 329.452 1040.29 329.55 1040.27 329.645C1040.25 329.74 1040.21 329.831 1040.15 329.911C1040.1 329.995 1040.04 330.067 1039.96 330.124C1039.88 330.181 1039.79 330.221 1039.69 330.242C1039.59 330.263 1039.49 330.264 1039.4 330.246C1039.3 330.227 1039.21 330.189 1039.13 330.134C1038.47 329.596 1037.65 329.273 1036.8 329.209C1036.22 329.199 1035.66 329.371 1035.18 329.699C1035.02 329.794 1034.89 329.927 1034.8 330.087C1034.7 330.246 1034.65 330.427 1034.64 330.613C1034.63 330.754 1034.66 330.895 1034.74 331.014C1034.84 331.165 1034.98 331.293 1035.13 331.393C1035.68 331.719 1036.3 331.935 1036.93 332.028C1037.62 332.15 1038.29 332.352 1038.93 332.63C1039.51 332.888 1040.02 333.305 1040.38 333.834C1040.6 334.203 1040.72 334.627 1040.72 335.059C1040.71 335.503 1040.59 335.937 1040.37 336.324C1040.15 336.712 1039.84 337.042 1039.47 337.288C1038.7 337.841 1037.76 338.13 1036.81 338.113C1035.45 338.051 1034.15 337.541 1033.11 336.664C1032.96 336.542 1032.87 336.368 1032.84 336.178C1032.82 335.987 1032.87 335.795 1032.98 335.639Z" fill="#4E7AC7"/>
<path d="M1042.48 335.639C1042.54 335.562 1042.62 335.499 1042.71 335.453C1042.79 335.406 1042.89 335.377 1042.99 335.368C1043.08 335.359 1043.18 335.369 1043.28 335.398C1043.37 335.427 1043.46 335.475 1043.53 335.538C1044.31 336.199 1045.28 336.59 1046.29 336.653C1046.94 336.668 1047.57 336.481 1048.1 336.118C1048.28 336.009 1048.43 335.858 1048.54 335.677C1048.65 335.497 1048.71 335.292 1048.72 335.082C1048.73 334.919 1048.68 334.76 1048.59 334.625C1048.48 334.448 1048.33 334.299 1048.16 334.19C1047.55 333.841 1046.88 333.611 1046.18 333.51C1045.54 333.402 1044.92 333.211 1044.32 332.942C1043.78 332.705 1043.31 332.318 1042.97 331.828C1042.75 331.473 1042.64 331.064 1042.64 330.647C1042.65 330.231 1042.75 329.824 1042.95 329.457C1043.14 329.09 1043.42 328.772 1043.75 328.529C1044.49 328.022 1045.36 327.757 1046.25 327.772C1047.39 327.82 1048.49 328.208 1049.4 328.886C1049.48 328.94 1049.55 329.009 1049.61 329.09C1049.66 329.171 1049.7 329.261 1049.72 329.357C1049.74 329.452 1049.74 329.55 1049.72 329.645C1049.7 329.74 1049.66 329.831 1049.6 329.911C1049.55 329.995 1049.49 330.067 1049.41 330.124C1049.33 330.181 1049.24 330.221 1049.14 330.242C1049.04 330.263 1048.94 330.264 1048.85 330.246C1048.75 330.227 1048.66 330.189 1048.58 330.134C1047.91 329.596 1047.1 329.273 1046.25 329.209C1045.67 329.199 1045.11 329.371 1044.63 329.699C1044.47 329.794 1044.34 329.927 1044.24 330.087C1044.15 330.246 1044.1 330.427 1044.09 330.613C1044.08 330.754 1044.11 330.895 1044.19 331.014C1044.29 331.165 1044.42 331.293 1044.58 331.393C1045.13 331.717 1045.75 331.933 1046.38 332.028C1047.07 332.15 1047.74 332.352 1048.38 332.63C1048.96 332.886 1049.46 333.303 1049.82 333.834C1050.05 334.2 1050.17 334.626 1050.16 335.059C1050.15 335.502 1050.03 335.936 1049.81 336.323C1049.6 336.711 1049.29 337.042 1048.92 337.288C1048.14 337.843 1047.21 338.132 1046.25 338.113C1044.89 338.051 1043.59 337.541 1042.55 336.664C1042.41 336.531 1042.33 336.353 1042.32 336.164C1042.31 335.975 1042.37 335.788 1042.48 335.639Z" fill="#4E7AC7"/>
<path d="M1065.41 329.231L1061.86 337.644C1061.85 337.695 1061.82 337.74 1061.78 337.778C1061.78 337.778 1061.78 337.834 1061.72 337.867L1061.62 337.934C1061.62 337.934 1061.55 338.012 1061.48 338.023H1061.36H1061.01H1060.91C1060.86 338.01 1060.82 337.978 1060.79 337.934L1060.69 337.867C1060.69 337.867 1060.69 337.811 1060.64 337.778C1060.63 337.734 1060.63 337.689 1060.64 337.644L1058.74 333.187L1056.85 337.644C1056.85 337.644 1056.85 337.745 1056.79 337.778L1056.7 337.867C1056.67 337.883 1056.64 337.906 1056.61 337.934L1056.5 338.023C1056.47 338.015 1056.43 338.015 1056.39 338.023H1056.03H1055.92C1055.87 338.004 1055.83 337.974 1055.79 337.934C1055.79 337.934 1055.73 337.934 1055.69 337.867L1055.62 337.778C1055.62 337.778 1055.62 337.689 1055.54 337.644L1051.99 329.22C1051.92 329.03 1051.94 328.822 1052.02 328.639C1052.1 328.456 1052.25 328.312 1052.44 328.236C1052.62 328.159 1052.83 328.156 1053.02 328.227C1053.21 328.298 1053.36 328.438 1053.45 328.618L1056.28 335.304L1058.15 330.847C1058.21 330.7 1058.32 330.575 1058.45 330.488C1058.58 330.401 1058.74 330.355 1058.9 330.357C1059.06 330.359 1059.21 330.406 1059.35 330.492C1059.48 330.579 1059.59 330.702 1059.66 330.847L1061.52 335.304L1064.34 328.618C1064.42 328.424 1064.58 328.27 1064.77 328.191C1064.97 328.111 1065.19 328.113 1065.38 328.195C1065.51 328.336 1065.58 328.518 1065.59 328.709C1065.59 328.899 1065.53 329.085 1065.41 329.231Z" fill="#4E7AC7"/>
<path d="M1075.52 329.287C1076.46 330.275 1076.98 331.585 1076.98 332.947C1076.98 334.31 1076.46 335.62 1075.52 336.608C1075.08 337.088 1074.55 337.472 1073.96 337.737C1073.36 338.001 1072.72 338.14 1072.07 338.146C1071.41 338.142 1070.75 338.004 1070.14 337.74C1069.53 337.475 1068.98 337.09 1068.53 336.608C1067.61 335.609 1067.1 334.303 1067.1 332.947C1067.1 331.592 1067.61 330.286 1068.53 329.287C1068.98 328.802 1069.53 328.416 1070.14 328.152C1070.75 327.887 1071.4 327.75 1072.07 327.749C1072.72 327.752 1073.36 327.89 1073.96 328.154C1074.55 328.419 1075.09 328.805 1075.52 329.287ZM1075.33 332.942C1075.33 332.009 1074.98 331.11 1074.35 330.423C1074.07 330.102 1073.71 329.844 1073.32 329.668C1072.93 329.491 1072.5 329.399 1072.07 329.398C1071.63 329.395 1071.19 329.485 1070.79 329.661C1070.39 329.838 1070.02 330.098 1069.73 330.423C1069.09 331.108 1068.74 332.008 1068.75 332.942C1068.74 333.876 1069.09 334.778 1069.73 335.46C1070.03 335.786 1070.39 336.046 1070.79 336.225C1071.19 336.403 1071.63 336.496 1072.07 336.497C1072.5 336.491 1072.93 336.395 1073.32 336.217C1073.71 336.039 1074.06 335.781 1074.35 335.46C1074.97 334.768 1075.31 333.869 1075.29 332.942H1075.33Z" fill="#4E7AC7"/>
<path d="M1086.48 336.953C1086.51 337.052 1086.53 337.157 1086.52 337.261C1086.51 337.366 1086.49 337.468 1086.44 337.561C1086.39 337.655 1086.33 337.738 1086.25 337.806C1086.17 337.874 1086.08 337.925 1085.98 337.956C1085.87 337.974 1085.76 337.974 1085.65 337.956C1085.46 337.961 1085.26 337.907 1085.1 337.8C1084.9 337.676 1084.74 337.504 1084.63 337.299C1084.4 336.75 1084.29 336.155 1084.33 335.561C1084.33 335.34 1084.26 335.125 1084.15 334.937C1084.04 334.764 1083.89 334.622 1083.71 334.524C1083.47 334.365 1083.2 334.249 1082.91 334.179H1081.21V337.31C1081.21 337.415 1081.18 337.519 1081.14 337.616C1081.1 337.713 1081.04 337.801 1080.96 337.874C1080.89 337.948 1080.8 338.006 1080.7 338.044C1080.6 338.083 1080.5 338.103 1080.39 338.101C1080.18 338.101 1079.98 338.018 1079.83 337.87C1079.69 337.721 1079.6 337.52 1079.6 337.31V328.785C1079.6 328.681 1079.62 328.578 1079.66 328.481C1079.7 328.384 1079.76 328.296 1079.83 328.223C1079.9 328.149 1079.99 328.091 1080.09 328.051C1080.19 328.012 1080.29 327.993 1080.39 327.994H1082.98C1083.62 327.992 1084.24 328.186 1084.76 328.552C1085.28 328.917 1085.68 329.435 1085.89 330.034C1086.11 330.634 1086.14 331.285 1085.97 331.9C1085.8 332.514 1085.44 333.061 1084.95 333.466C1085.14 333.619 1085.31 333.799 1085.45 334C1085.77 334.46 1085.93 335.004 1085.93 335.561C1085.91 335.848 1085.93 336.137 1085.99 336.419C1086.11 336.458 1086.22 336.528 1086.3 336.621C1086.39 336.715 1086.45 336.83 1086.48 336.953ZM1084.44 331.137C1084.44 330.94 1084.4 330.745 1084.33 330.563C1084.25 330.382 1084.14 330.216 1084 330.077C1083.87 329.939 1083.7 329.829 1083.52 329.754C1083.34 329.68 1083.14 329.642 1082.95 329.643H1081.17V332.619H1082.95C1083.34 332.619 1083.72 332.463 1084 332.185C1084.28 331.908 1084.44 331.531 1084.44 331.137Z" fill="#4E7AC7"/>
<path d="M1088.83 337.355V328.83C1088.83 328.726 1088.85 328.622 1088.89 328.525C1088.93 328.429 1088.98 328.341 1089.06 328.267C1089.13 328.193 1089.22 328.135 1089.32 328.096C1089.41 328.057 1089.52 328.037 1089.62 328.039H1091.32C1092.62 328.1 1093.85 328.659 1094.75 329.6C1095.65 330.541 1096.15 331.791 1096.15 333.092C1096.15 334.393 1095.65 335.644 1094.75 336.585C1093.85 337.526 1092.62 338.085 1091.32 338.146H1089.62C1089.41 338.146 1089.21 338.062 1089.06 337.914C1088.91 337.766 1088.83 337.564 1088.83 337.355ZM1090.43 336.541H1091.32C1092.21 336.491 1093.03 336.106 1093.64 335.464C1094.25 334.823 1094.58 333.974 1094.58 333.092C1094.58 332.21 1094.25 331.361 1093.64 330.72C1093.03 330.079 1092.21 329.693 1091.32 329.643H1090.43V336.541Z" fill="#4E7AC7"/>
<path d="M925 126.47H954.508V114H925V126.47Z" fill="#EBEBEB"/>
<path d="M910 79.3296H939.508V66.8602H910V79.3296Z" fill="#EBEBEB"/>
<path d="M1150.62 113.47C1150.83 113.117 1151.13 112.829 1151.49 112.638C1151.85 112.447 1152.26 112.361 1152.67 112.39H1154.04C1154.44 112.369 1154.84 112.457 1155.19 112.646C1155.54 112.835 1155.84 113.116 1156.04 113.46L1157.46 115.93L1165.46 111.29L1164.04 108.83C1163.84 108.476 1163.74 108.072 1163.75 107.664C1163.76 107.255 1163.89 106.859 1164.12 106.52C1164.37 106.127 1164.6 105.727 1164.81 105.32C1165 104.95 1165.28 104.639 1165.64 104.423C1165.99 104.207 1166.4 104.095 1166.81 104.1H1169.65V94.82H1166.81C1166.4 94.8266 1165.99 94.7166 1165.64 94.5026C1165.28 94.2886 1165 93.9792 1164.81 93.61C1164.6 93.1967 1164.37 92.796 1164.12 92.41C1163.89 92.0707 1163.76 91.6746 1163.75 91.2664C1163.74 90.8582 1163.84 90.4542 1164.04 90.1L1165.46 87.63L1157.46 83L1156.03 85.47C1155.83 85.8158 1155.53 86.0993 1155.18 86.2898C1154.83 86.4802 1154.43 86.5702 1154.03 86.55C1153.8 86.55 1153.57 86.55 1153.34 86.55C1153.11 86.55 1152.89 86.55 1152.66 86.55C1152.25 86.5751 1151.85 86.4876 1151.48 86.2971C1151.12 86.1067 1150.82 85.8205 1150.61 85.47L1149.19 83L1141.19 87.63L1142.61 90.09C1142.81 90.4442 1142.91 90.8482 1142.9 91.2564C1142.89 91.6646 1142.76 92.0607 1142.53 92.4C1142.28 92.7933 1142.05 93.1933 1141.84 93.6C1141.66 93.9711 1141.37 94.2825 1141.02 94.4984C1140.66 94.7142 1140.25 94.8257 1139.84 94.82H1137V104.1H1139.84C1140.25 104.095 1140.66 104.207 1141.01 104.423C1141.37 104.639 1141.65 104.95 1141.84 105.32C1142.05 105.733 1142.28 106.134 1142.53 106.52C1142.76 106.859 1142.89 107.255 1142.9 107.664C1142.91 108.072 1142.81 108.476 1142.61 108.83L1141.19 111.29L1149.19 115.93L1150.62 113.47ZM1145.75 99.47C1145.75 97.9664 1146.19 96.4961 1147.03 95.2449C1147.86 93.9938 1149.05 93.0181 1150.43 92.4414C1151.82 91.8646 1153.35 91.7127 1154.83 92.0048C1156.3 92.2969 1157.66 93.02 1158.72 94.0824C1159.78 95.1449 1160.51 96.4991 1160.8 97.9736C1161.1 99.4481 1160.95 100.977 1160.37 102.366C1159.8 103.755 1158.82 104.943 1157.57 105.778C1156.32 106.614 1154.85 107.06 1153.35 107.06C1151.34 107.055 1149.41 106.253 1147.99 104.831C1146.57 103.409 1145.77 101.481 1145.76 99.47H1145.75Z" fill="#EBEBEB"/>
<path d="M76.6 480.97C116.696 480.97 149.2 476.318 149.2 470.58C149.2 464.842 116.696 460.19 76.6 460.19C36.5041 460.19 4 464.842 4 470.58C4 476.318 36.5041 480.97 76.6 480.97Z" fill="#EBEBEB"/>
<path d="M0 447.5L35.75 447.26L71.5 447.17L143 447L214.5 447.16L250.25 447.25L286 447.5L250.25 447.74L214.5 447.83L143 448L71.5 447.83L35.75 447.74L0 447.5Z" fill="#263238"/>
<path d="M240.56 67.6899H267.04V56.4999H240.56V67.6899Z" fill="#EBEBEB"/>
<path d="M225.8 81.8004L239.15 81.5504L245.73 81.4403C247.92 81.4403 250.09 81.4403 252.28 81.4403L251.83 81.8804V70.6903L252.33 71.1903L239.08 71.0504C234.66 71.0504 230.25 70.9404 225.84 70.8804L226.11 70.6103C226.11 72.4403 226.02 74.2803 225.98 76.1503L225.8 81.8004ZM225.8 81.8004L225.65 76.2704C225.65 74.4004 225.54 72.5103 225.52 70.6103V70.3404H225.8C230.21 70.3404 234.62 70.1803 239.04 70.1703L252.28 70.1104H252.78V70.6103L252.72 81.8004V82.2503H252.28C250.04 82.2503 247.81 82.2503 245.58 82.1903L238.92 82.0803L225.8 81.8004Z" fill="#EBEBEB"/>
<path d="M227.46 144.22C227.814 144.427 228.102 144.728 228.293 145.091C228.484 145.453 228.57 145.862 228.54 146.27C228.54 146.49 228.54 146.72 228.54 146.95C228.54 147.18 228.54 147.41 228.54 147.64C228.561 148.039 228.473 148.437 228.284 148.789C228.095 149.142 227.814 149.436 227.47 149.64L225 151.06L229.64 159.06L232.08 157.71C232.435 157.509 232.839 157.41 233.246 157.424C233.654 157.438 234.05 157.565 234.39 157.79C234.78 158.04 235.18 158.28 235.59 158.49C235.954 158.67 236.261 158.948 236.477 159.292C236.692 159.636 236.807 160.034 236.81 160.44V163.28H246.08V160.44C246.08 160.035 246.194 159.638 246.408 159.293C246.621 158.949 246.927 158.671 247.29 158.49C247.703 158.281 248.104 158.047 248.49 157.79C248.83 157.565 249.226 157.438 249.634 157.424C250.041 157.41 250.445 157.509 250.8 157.71L253.27 159.13L257.9 151.13L255.43 149.7C255.086 149.495 254.805 149.201 254.615 148.849C254.425 148.497 254.333 148.1 254.35 147.7C254.35 147.47 254.35 147.25 254.35 147.02C254.35 146.79 254.35 146.56 254.35 146.34C254.324 145.932 254.411 145.525 254.601 145.163C254.792 144.801 255.079 144.499 255.43 144.29L257.9 142.87L253.27 134.87L250.81 136.29C250.456 136.494 250.052 136.594 249.644 136.58C249.235 136.566 248.839 136.438 248.5 136.21C248.113 135.964 247.713 135.734 247.3 135.52C246.929 135.336 246.617 135.05 246.402 134.696C246.186 134.342 246.074 133.935 246.08 133.52V130.68H236.83V133.52C236.835 133.934 236.723 134.342 236.507 134.695C236.291 135.049 235.98 135.335 235.61 135.52C235.197 135.726 234.796 135.957 234.41 136.21C234.069 136.437 233.671 136.565 233.261 136.579C232.852 136.593 232.446 136.493 232.09 136.29L229.64 134.87L225 142.87L227.46 144.22ZM241.46 139.35C242.964 139.348 244.434 139.792 245.685 140.626C246.936 141.46 247.912 142.646 248.489 144.035C249.065 145.423 249.217 146.952 248.925 148.427C248.633 149.902 247.91 151.257 246.848 152.321C245.785 153.385 244.431 154.109 242.956 154.403C241.482 154.697 239.953 154.548 238.564 153.973C237.175 153.398 235.987 152.424 235.152 151.174C234.316 149.924 233.87 148.454 233.87 146.95C233.873 144.937 234.673 143.007 236.095 141.583C237.518 140.158 239.447 139.355 241.46 139.35Z" fill="#EBEBEB"/>
<path d="M51.5517 254.786H152.549V233.87H51.5517V254.786Z" fill="#C7C7C7"/>
<path d="M125.443 254.613L128.264 281.345L163.187 531.592H173.163L145.61 281.345L143.379 254.613H125.443Z" fill="#C7C7C7"/>
<path d="M30.9092 531.592H40.8995L75.8224 281.345L78.6439 254.613H60.7074L58.4761 281.345L30.9092 531.592Z" fill="#C7C7C7"/>
<path d="M47.766 449.842H159.171V443.565H47.766V449.842Z" fill="#C7C7C7"/>
<path d="M145.61 280.41H128.264L125.443 254.613H143.379L145.61 280.41Z" fill="#A6A6A6"/>
<path d="M58.4761 280.41H75.8224L78.6438 254.613H60.7073L58.4761 280.41Z" fill="#A6A6A6"/>
<path d="M65.0258 133.348C69.3444 135.565 70.0929 143.209 83.5381 142.791C85.4527 142.791 87.0218 141.971 88.778 142.618C91.3547 143.554 93.3845 145.613 95.6733 147.11C97.5142 148.347 99.6102 149.154 101.806 149.471C106.018 149.969 110.272 148.986 113.84 146.692C116.043 145.339 117.885 143.468 120.016 141.999C122.146 140.531 135.001 137.422 137.175 130.195C138.614 125.603 138.341 120.378 132.856 113.67C131.593 112.473 130.733 110.914 130.395 109.207C130.398 107.711 130.738 106.235 131.388 104.888C132.142 103.36 132.418 101.639 132.18 99.9509C131.568 98.3367 130.581 96.8911 129.301 95.733C127.285 93.3002 127.66 89.7878 129.301 85.4692C129.951 83.6367 130.173 81.6793 129.948 79.7476C129.724 77.816 129.059 75.9616 128.005 74.3273C126.684 72.4549 125.126 70.7614 123.37 69.289C120.908 66.9569 120.491 64.7976 119.382 61.5011C117.295 55.1672 114.027 52.3314 110.184 50.3736C106.714 48.6318 106.83 49.294 103.116 49.8554C99.3528 47.5591 94.9231 46.6052 90.5486 47.1491C86.4891 47.6673 83.135 50.388 80.0689 52.9935C77.3338 55.3256 74.829 57.8303 74.685 61.7602C74.5987 64.0203 75.1457 66.266 75.0449 68.526C74.901 71.4051 73.3031 73.2333 71.3885 75.0471C68.5337 77.4749 66.5644 80.7807 65.7888 84.4472C65.2849 87.5134 68.3079 92.2782 64.7667 96.8127C61.6573 100.815 56.1295 105.45 54.69 110.459C50.2995 126.107 60.952 131.217 65.0258 133.348Z" fill="#263238"/>
<path d="M117.093 141.783C123.269 140.848 132.755 142.014 136.037 135.133C137.336 134.074 138.365 132.722 139.038 131.188C139.711 129.653 140.01 127.981 139.91 126.308C139.486 122.736 137.832 119.423 135.231 116.937C133.723 115.517 132.406 113.905 131.316 112.144C130.967 110.771 130.712 109.376 130.553 107.969C130.807 106.168 131.291 104.407 131.992 102.729C130.639 105.608 129.387 108.717 130.639 111.884C130.823 112.336 131.04 112.774 131.287 113.194C131.737 114.86 132.354 116.476 133.13 118.017C135.159 122.047 137.016 125.689 136.743 130.397C136.695 131.969 136.317 133.514 135.634 134.931C132.963 137.274 129.626 138.724 126.09 139.077C126.004 139.077 126.004 139.235 126.09 139.221C129.288 138.898 132.355 137.785 135.015 135.982C131.431 141.121 123.096 140.416 117.064 141.611C116.906 141.611 116.964 141.798 117.093 141.783ZM136.512 133.967V133.837C137.581 130.023 137.307 125.957 135.735 122.321C134.756 119.917 133.288 117.758 132.323 115.339C132.165 114.922 132.007 114.504 131.863 114.072C133.302 115.958 135.116 117.527 136.469 119.37C139.348 123.372 140.27 128.137 137.52 132.47C137.223 132.993 136.886 133.494 136.512 133.967Z" fill="#263238"/>
<path d="M122.564 68.3529C124.868 70.3553 127.064 72.4792 129.142 74.7156C130.592 76.1834 131.462 78.1266 131.59 80.1858C131.643 82.2605 130.988 84.2915 129.733 85.9439C129.272 86.6349 128.797 87.3834 128.379 88.06C128.281 89.4002 128.493 90.745 128.998 91.9899C130.006 94.3652 132.237 95.8335 133.317 98.2375C134.987 102.124 133.13 105.32 131.489 108.789C132.684 105.91 134.368 103.132 133.418 99.9073C132.669 97.273 130.74 95.8478 129.286 93.703C128.401 92.3406 127.904 90.7632 127.847 89.1397C126.551 91.7596 126.105 94.5235 128.394 97.273C128.495 97.4026 128.394 97.5753 128.221 97.4601C125.342 94.5811 126.091 90.9679 127.861 87.8729C127.97 86.0447 128.374 84.2462 129.056 82.5466C129.056 82.3739 129.387 82.5466 129.358 82.6762C129.099 84.0293 128.754 85.3825 128.567 86.7213L128.869 86.275C131.172 82.9785 132.079 79.0774 129.43 75.6225C127.444 72.9882 124.737 70.9153 122.521 68.4249C122.42 68.3961 122.506 68.2953 122.564 68.3529Z" fill="#263238"/>
<path d="M139.881 340.165C139.881 340.165 114.099 397.429 114.071 397.472C109.09 408.398 104.901 418.057 103.217 423.268C103.205 423.296 103.205 423.327 103.217 423.355C102.684 424.528 102.433 425.81 102.482 427.097C102.482 427.097 102.482 427.169 102.482 427.184C104.728 430.883 190.869 473.249 194.382 473.753C197.894 474.256 199.492 464.28 197.462 459.962C195.433 455.643 169.694 424.665 169.694 424.665L194.972 367.17L139.881 340.165Z" fill="#EB9481"/>
<path d="M119.368 385.668C119.368 385.668 114.099 397.386 114.07 397.429C109.09 408.355 104.901 418.014 103.216 423.225C103.205 423.253 103.205 423.284 103.216 423.312C102.82 424.525 102.574 425.782 102.482 427.054C102.482 427.054 102.482 427.126 102.482 427.141C104.728 430.84 190.869 473.206 194.381 473.709C197.894 474.213 199.492 464.237 197.462 459.919C195.432 455.6 169.694 424.622 169.694 424.622L175.236 412.76L119.368 385.668Z" fill="#EBEBEB"/>
<path d="M194.353 473.637C190.84 473.177 104.67 430.855 102.41 427.155C101.532 425.716 106.959 412.846 113.926 397.429L114.142 396.939L170.054 423.628L169.564 424.564C169.564 424.564 195.317 455.528 197.361 459.847C199.406 464.165 197.851 474.112 194.353 473.637Z" fill="#263238"/>
<path d="M197.189 471.191C198.441 472.544 195.562 477.568 194.31 477.438C193.057 477.309 99.3009 430.74 97.8613 429.588C96.4218 428.437 99.8335 423.01 101.834 423.629C103.835 424.248 197.189 471.191 197.189 471.191Z" fill="#4E7AC7"/>
<path d="M174.214 427.025C169.017 423.153 161.603 420.59 155.226 422.519C154.982 422.519 155.097 422.951 155.313 422.98C161.642 423.898 167.853 425.495 173.839 427.745C173.93 427.767 174.026 427.758 174.111 427.72C174.196 427.681 174.266 427.615 174.309 427.532C174.353 427.449 174.367 427.354 174.349 427.262C174.332 427.17 174.284 427.087 174.214 427.025Z" fill="white"/>
<path d="M177.122 431.546C171.925 427.659 164.511 425.111 158.134 427.04C157.89 427.112 158.005 427.457 158.221 427.5C164.549 428.413 170.761 430.006 176.747 432.251C176.839 432.284 176.939 432.283 177.03 432.249C177.121 432.214 177.196 432.147 177.242 432.061C177.287 431.975 177.3 431.876 177.278 431.781C177.256 431.686 177.201 431.602 177.122 431.546Z" fill="white"/>
<path d="M180.03 436.052C174.833 432.179 167.405 429.617 161.042 431.546C160.797 431.632 160.898 431.978 161.042 432.006C167.376 432.922 173.593 434.52 179.583 436.771C179.679 436.83 179.794 436.849 179.903 436.824C180.012 436.798 180.107 436.73 180.166 436.635C180.225 436.539 180.244 436.424 180.219 436.315C180.193 436.205 180.125 436.111 180.03 436.052Z" fill="white"/>
<path d="M123.701 413.58C118.979 407.39 109.306 414.703 114.07 420.908C118.835 427.112 128.423 419.785 123.701 413.58Z" fill="white"/>
<path d="M155.083 290.386C154.507 307.041 122.405 378.974 122.405 378.974L178.705 404.886C178.705 404.886 224.151 324.891 219.933 288.039C216.334 256.773 137.664 198.947 125.04 182.652C123.168 180.233 123.802 170.502 123.802 170.502H72.7273V182.695C92.2329 224.095 150.577 273.759 154.895 288.342C155.066 289.009 155.129 289.699 155.083 290.386Z" fill="#37474F"/>
<path d="M178.389 392.865C169.118 388.417 171.839 389.555 162.554 385.222C157.991 383.106 135.102 372.381 130.496 371.186C130.471 371.175 130.442 371.174 130.417 371.183C130.391 371.193 130.37 371.212 130.359 371.237C130.347 371.261 130.346 371.29 130.356 371.315C130.365 371.341 130.384 371.362 130.409 371.373C134.354 374.051 157.487 384.228 162.079 386.258C171.479 390.404 168.83 389.137 178.273 393.139C178.432 393.225 178.561 392.937 178.389 392.865Z" fill="#263238"/>
<path d="M85.5679 191.404C100.984 214.901 118.22 237.153 137.117 257.953C141.753 263.006 146.517 267.915 151.282 272.838C155.313 276.998 159.43 281.619 160.423 287.536C161.546 294.129 158.984 300.693 156.925 306.84C154.665 313.606 152.391 320.357 149.987 327.079C147.396 334.277 136.801 360.462 135.059 363.989C134.181 365.745 149.08 328.001 151.498 321.033C153.917 314.066 156.364 307.142 158.422 300.088C159.615 296.497 160.104 292.709 159.862 288.932C159.394 285.291 157.941 281.846 155.658 278.971C151.513 273.443 146.129 268.75 141.422 263.712C131.662 253.261 122.357 242.407 113.509 231.15C103.439 218.434 94.041 205.201 85.352 191.505C85.3454 191.491 85.3416 191.475 85.3409 191.46C85.3402 191.444 85.3427 191.429 85.348 191.414C85.3533 191.399 85.3615 191.386 85.3721 191.374C85.3827 191.363 85.3954 191.353 85.4096 191.347C85.4238 191.34 85.4391 191.336 85.4547 191.336C85.4704 191.335 85.486 191.337 85.5007 191.343C85.5154 191.348 85.5289 191.356 85.5404 191.367C85.552 191.377 85.5613 191.39 85.5679 191.404Z" fill="#263238"/>
<path d="M55.3378 465.015C55.3378 465.015 52.833 527.792 52.8186 527.836C53.1065 539.841 53.5672 550.364 54.2581 555.777C54.2522 555.81 54.2522 555.844 54.2581 555.877C54.3247 557.173 54.6945 558.436 55.3378 559.563V559.635C58.9654 561.967 154.982 562.514 158.336 561.405C161.69 560.297 158.796 550.638 155.097 547.643C151.397 544.649 114.689 528.008 114.689 528.008L116.604 465.274L55.3378 465.015Z" fill="#EB9481"/>
<path d="M53.2795 515.412C53.2795 515.412 52.79 527.792 52.7756 527.835C53.0635 539.841 53.5242 550.364 54.2152 555.777C54.2092 555.81 54.2092 555.844 54.2152 555.877C54.4453 557.145 54.8221 558.382 55.338 559.563V559.635C58.9656 561.967 154.982 562.514 158.336 561.405C161.69 560.297 158.797 550.637 155.097 547.643C151.398 544.649 114.69 528.008 114.69 528.008L115.078 515.312L53.2795 515.412Z" fill="#EBEBEB"/>
<path d="M158.264 561.29C154.91 562.398 58.9365 561.952 55.2513 559.62C53.8118 558.756 53.1064 544.764 52.689 527.821V527.288L114.589 526.885V527.936C114.589 527.936 151.268 544.548 155.01 547.542C158.753 550.537 161.632 560.196 158.264 561.29Z" fill="#263238"/>
<path d="M159.747 557.864C161.46 558.54 161.071 564.313 159.819 564.759C158.566 565.205 53.8983 564.27 52.1133 563.867C50.3283 563.464 51.0193 557.072 53.0922 556.755C55.1651 556.439 159.747 557.864 159.747 557.864Z" fill="#4E7AC7"/>
<path d="M119.8 528.181C113.437 526.957 105.635 527.907 100.755 532.413C100.568 532.586 100.755 532.859 101.014 532.787C107.099 530.857 113.372 529.583 119.728 528.987C119.835 528.996 119.941 528.963 120.023 528.894C120.106 528.825 120.157 528.727 120.167 528.62C120.176 528.513 120.143 528.407 120.074 528.324C120.005 528.242 119.907 528.19 119.8 528.181Z" fill="white"/>
<path d="M124.435 530.959C118.072 529.735 110.285 530.686 105.39 535.191C105.203 535.364 105.39 535.637 105.664 535.566C111.748 533.633 118.022 532.359 124.378 531.765C124.484 531.773 124.59 531.738 124.671 531.667C124.752 531.597 124.802 531.498 124.809 531.391C124.817 531.284 124.782 531.178 124.712 531.097C124.642 531.016 124.542 530.967 124.435 530.959Z" fill="white"/>
<path d="M128.97 533.752C122.607 532.529 114.805 533.464 109.925 537.984C109.723 538.157 109.925 538.431 110.184 538.359C116.268 536.426 122.542 535.152 128.898 534.558C129.004 534.568 129.111 534.535 129.193 534.466C129.275 534.397 129.327 534.298 129.337 534.191C129.346 534.084 129.313 533.978 129.244 533.896C129.175 533.813 129.076 533.762 128.97 533.752Z" fill="white"/>
<path d="M68.4806 538.129C61.5277 534.616 56.0575 545.413 63.0104 548.925C69.9633 552.437 75.4911 541.655 68.4806 538.129Z" fill="white"/>
<path d="M116.374 507.826L53.6104 508.344C53.6104 508.344 64.0613 252.008 57.0652 243.63C40.4243 223.721 43.073 197.176 54.2869 170.516H111.479C111.479 170.516 108.73 210.996 109.003 212.176C126.594 288.903 116.374 507.826 116.374 507.826Z" fill="#37474F"/>
<path d="M112.919 494.971C99.229 493.906 63.1689 495.072 58.62 495.763C58.5989 495.774 58.5811 495.79 58.5687 495.811C58.5564 495.831 58.5498 495.854 58.5498 495.878C58.5498 495.902 58.5564 495.925 58.5687 495.946C58.5811 495.966 58.5989 495.983 58.62 495.993C63.1257 496.9 104.469 495.605 112.905 495.274C112.937 495.265 112.967 495.247 112.988 495.22C113.009 495.194 113.022 495.162 113.023 495.128C113.025 495.094 113.016 495.061 112.997 495.032C112.978 495.004 112.951 494.983 112.919 494.971Z" fill="#263238"/>
<path d="M112.832 186.25C112.257 193.448 112.544 205.856 108.355 206.044C104.166 206.231 104.901 191.116 104.785 187.632C104.67 184.48 103.591 184.911 103.475 188.625C103.159 198.702 103.475 207.613 108.773 207.195C114.07 206.778 114.085 191.159 113.955 187.589C113.883 185.746 113.005 183.961 112.832 186.25Z" fill="#263238"/>
<path d="M108.6 206.519C108.34 209.064 108.393 211.631 108.759 214.163C108.831 214.364 109.637 214.163 109.723 214.033C110.212 212.983 109.824 208.031 109.953 206.692C109.976 206.512 109.927 206.331 109.816 206.188C109.761 206.117 109.693 206.058 109.616 206.013C109.538 205.969 109.452 205.94 109.363 205.929C109.184 205.906 109.003 205.955 108.859 206.066C108.716 206.177 108.623 206.34 108.6 206.519Z" fill="#263238"/>
<path d="M110.4 215.444C112.185 221.778 114.013 233.899 113.581 237.037C113.581 237.325 113.12 237.426 113.063 237.124C112.487 233.726 109.953 217.388 109.694 215.675C109.435 213.962 109.896 213.674 110.4 215.444Z" fill="#263238"/>
<path d="M99.3871 220.44C100.223 219.621 101.117 218.866 102.065 218.179C103 217.445 103.936 216.74 104.944 216.035C106.93 214.595 108.974 213.357 111.062 212.119C113.149 210.881 115.193 209.801 117.324 208.722C119.454 207.642 121.901 206.75 124.118 205.641C124.248 205.569 124.363 205.756 124.233 205.828C122.132 206.994 120.174 208.448 118.13 209.729C116.086 211.011 114.041 212.335 111.983 213.616C109.924 214.897 107.981 216.15 105.966 217.388C104.92 218.04 103.854 218.674 102.77 219.288C101.799 219.913 100.79 220.476 99.747 220.972C99.4015 221.102 99.2 220.655 99.3871 220.44Z" fill="#263238"/>
<path d="M63.0681 374.454C63.975 353.912 65.4145 330.966 65.76 310.452C65.9231 300.174 65.9999 289.891 65.9903 279.603C65.9903 269.397 65.9903 255.765 65.5297 245.573C65.2562 240.391 56.1296 236.389 54.2726 221.303C52.986 212.711 53.6703 203.939 56.2735 195.65C56.9211 193.635 57.6854 191.66 58.5624 189.734C58.5624 189.604 58.8071 189.734 58.7495 189.849C55.0965 198.32 53.579 207.559 54.3302 216.754C54.5956 221.389 55.5664 225.957 57.2092 230.3C59.6564 236.389 65.688 241.326 66.0047 244.565C66.4798 249.388 66.5517 253.562 66.6093 258.413C66.6669 263.265 66.7245 268.49 66.7533 273.529C66.8109 283.816 66.7821 294.099 66.6669 304.378C66.4366 324.848 65.8992 345.308 65.0546 365.759C64.1909 386.215 58.8935 488.637 58.548 490.998C58.548 491.257 58.0873 491.199 58.1017 490.998C58.7351 480.676 62.1468 394.996 63.0681 374.454Z" fill="#263238"/>
<path d="M96.9688 123.271C110.587 151.371 127.875 181.802 144.056 186.61C159.459 191.145 189.314 153.328 198.758 143.424C202.126 139.826 174.761 119.24 170.514 122.364C162.51 128.252 148.13 144.288 145.711 143.727C143.293 143.165 123.096 123.962 104.901 107.839C93.8739 98.065 87.5399 103.794 96.9688 123.271Z" fill="#EB9481"/>
<path d="M222.438 125.589C226.181 124.02 255 123.099 255 116.851C255 110.604 218.307 112.36 218.307 112.36L222.438 125.589Z" fill="#EB9481"/>
<path d="M167.16 126.323C172.198 120.061 176.632 113.368 181.008 112.072C184.046 111.208 216.665 112.619 221.776 112.317C226.886 112.014 245.053 112.475 245.485 116.938C246.075 123.257 224.54 123.2 222.251 126.439C214.319 137.58 184.161 154.077 184.161 154.077L167.16 126.323Z" fill="#EB9481"/>
<path d="M245.96 117.038C245.644 115.853 244.901 114.827 243.872 114.159C241.641 112.604 238.704 112.461 236.084 112.259C232.112 111.888 228.115 111.854 224.136 112.158C224.117 112.158 224.099 112.166 224.086 112.179C224.072 112.193 224.064 112.211 224.064 112.23C224.064 112.249 224.072 112.268 224.086 112.281C224.099 112.295 224.117 112.302 224.136 112.302C227.116 112.302 230.096 112.374 233.076 112.619C235.805 112.733 238.513 113.148 241.152 113.857C242.344 114.174 243.422 114.823 244.261 115.728C244.558 116.044 244.771 116.431 244.879 116.851C244.987 117.271 244.988 117.712 244.88 118.132C244.002 120.882 238.575 121.702 236.07 122.264C232.802 122.998 229.405 123.703 226.109 124.308C225.965 124.308 226.109 124.567 226.181 124.538C229.592 123.862 233.205 123.588 236.632 122.969C239.41 122.465 242.39 121.904 244.635 120.09C245.119 119.755 245.499 119.292 245.733 118.753C245.967 118.214 246.045 117.62 245.96 117.038Z" fill="#263238"/>
<path d="M195.232 103.43L196.182 98.57L252.893 109.645C253.406 109.745 253.859 110.045 254.151 110.479C254.443 110.913 254.551 111.445 254.45 111.959L254.257 112.947C254.157 113.461 253.857 113.913 253.423 114.205C252.989 114.498 252.457 114.605 251.944 114.505L195.232 103.43Z" fill="#4E7AC7"/>
<path opacity="0.1" d="M196.175 98.5803L195.226 103.44L202.064 104.776L203.013 99.9157L196.175 98.5803Z" fill="#16193B"/>
<path d="M174.487 92.3931L172.817 101.03C172.245 103.951 172.856 106.979 174.516 109.45C176.176 111.92 178.75 113.629 181.67 114.202C184.591 114.775 187.62 114.164 190.09 112.503C192.56 110.843 194.269 108.269 194.842 105.349L196.526 96.7117C196.81 95.2646 196.806 93.7758 196.514 92.3303C196.222 90.8848 195.648 89.511 194.826 88.2872C194.003 87.0634 192.947 86.0137 191.719 85.1979C190.49 84.3822 189.113 83.8164 187.666 83.5328C186.219 83.2493 184.73 83.2535 183.285 83.5453C181.839 83.8371 180.465 84.4108 179.242 85.2335C176.77 86.8951 175.06 89.4705 174.487 92.3931ZM193 94.538C192.697 95.8161 192.006 96.969 191.021 97.8379C190.036 98.7067 188.806 99.2487 187.501 99.3892C188.651 100.018 189.583 100.984 190.169 102.158C190.756 103.331 190.97 104.655 190.783 105.953C190.106 109.379 186.335 111.539 182.347 110.761C178.36 109.984 175.668 106.558 176.33 103.146C176.639 101.869 177.334 100.718 178.32 99.8498C179.307 98.9818 180.537 98.4389 181.843 98.2951C180.687 97.6722 179.751 96.7074 179.163 95.5325C178.576 94.3575 178.366 93.0299 178.561 91.7309C179.238 88.2904 183.009 86.1599 186.997 86.9373C190.984 87.7146 193.676 91.1119 193 94.538Z" fill="#4E7AC7"/>
<path d="M196.604 96.3807L194.796 105.635C194.7 106.126 195.021 106.603 195.513 106.699L195.965 106.787C196.456 106.883 196.933 106.562 197.029 106.071L198.836 96.8167C198.932 96.3251 198.611 95.8488 198.12 95.7528L197.667 95.6645C197.176 95.5685 196.7 95.8891 196.604 96.3807Z" fill="#4E7AC7"/>
<path d="M198.837 96.8211L197.03 106.075C196.934 106.567 197.254 107.043 197.746 107.139L198.198 107.227C198.69 107.323 199.166 107.003 199.262 106.511L201.069 97.2571C201.165 96.7655 200.845 96.2892 200.353 96.1932L199.901 96.1049C199.409 96.0089 198.933 96.3296 198.837 96.8211Z" fill="#4E7AC7"/>
<path d="M239.309 104.917L240.993 105.248L241.944 100.339L243.397 100.627L242.894 103.189L244.578 103.52L245.082 100.958L246.349 101.203L245.571 105.248L247.255 105.579L248.047 101.534L249.861 101.894L248.81 107.292L250.494 107.623L251.545 102.225L253.258 102.556L251.919 109.451L236.833 106.515L238.172 99.605L240.259 100.022L239.309 104.917Z" fill="#4E7AC7"/>
<path d="M46.0674 179.182L126.422 180.507L120.117 156.438C122.213 153.417 123.623 149.974 124.247 146.351C124.871 142.728 124.695 139.012 123.73 135.464C121.801 128.381 112.66 117.772 107.046 110.992C93.399 94.5813 81.5373 101.995 77.7513 106.213C63.3129 122.379 46.0674 179.182 46.0674 179.182Z" fill="#4E7AC7"/>
<path d="M85.6397 115.57V110.992L88.6771 114.389L91.9592 113.367L90.3613 116.246L91.9016 117.859L89.512 118.103V121.213L86.8921 119.025L84.7616 120.795L85.0063 118.175L81.8969 116.736L85.6397 115.57ZM119.872 167.004L117.338 169.322L115.006 168.084L115.827 170.747L112.804 172.316L115.683 173.554L114.977 175.857L117.079 175.051L119.152 177.671L119.469 174.245L123.787 172.805L119.584 170.977L119.872 167.004ZM90.4909 149.917L92.9525 154.811L95.3853 150.133L100.021 150.939L97.559 146.016L100.999 142.734L96.1194 142.906L95.1406 138.127L92.5782 143.079L86.0716 142.575L89.9007 146.534L86.3595 149.255L90.4909 149.917ZM109.651 121.63L110.831 119.644L108.615 119.845L107.852 118.017L106.657 120.004L104.713 119.529L105.879 121.227L104.44 122.667L106.786 122.451L108.082 124.869L108.615 122.624L110.371 123.257L109.651 121.63ZM71.9642 174.058L73.1446 172.086L70.9421 172.273L70.1648 170.445L68.9844 172.446L67.041 171.956L68.207 173.655L66.7675 175.094L69.1139 174.893L70.4095 177.311L70.9421 175.051L72.7128 175.699L71.9642 174.058ZM85.1791 138.372L86.3595 136.4L84.1426 136.587L83.3796 134.759L82.1992 136.76L80.2415 136.27L81.4075 137.969L79.968 139.408L82.3144 139.207L83.61 141.611L84.1426 139.365L85.9132 139.999L85.1791 138.372ZM70.8702 143.727L70.4671 142.431L69.6898 143.482L68.5813 143.094L68.9844 144.404L68.0199 145.066L69.2147 145.224V146.433L70.0352 145.31L71.6043 145.699L70.827 144.576L71.8059 144.044L70.8702 143.727ZM108.168 174.605L107.765 173.309L106.973 174.36L105.879 173.986L106.282 175.281L105.304 175.958L106.513 176.102V177.311L107.333 176.203L108.902 176.577L108.125 175.454L109.104 174.936L108.168 174.605ZM119.325 136.976L120.347 136.069L119.065 135.795L118.95 134.629L117.928 135.536L116.921 134.932L117.28 136.083L116.201 136.63L117.554 136.918L117.856 138.516L118.562 137.336L119.44 138.012L119.325 136.976ZM99.1712 161.289L100.179 160.382L98.8977 160.109L98.7826 158.943L97.7749 159.85L96.7528 159.245L97.1127 160.397L96.0331 160.944L97.3862 161.232L97.6885 162.83L98.3939 161.649L99.272 162.326L99.1712 161.289ZM57.6841 168.919L58.6918 168.012L57.4106 167.724L57.3098 166.558L56.2878 167.479L55.3377 166.86L55.6832 168.026L54.6035 168.559L55.9567 168.861L56.2734 170.445L56.9643 169.279L57.8424 169.955L57.6841 168.919Z" fill="white"/>
<path d="M98.6244 155.027C102.06 154.711 105.515 154.653 108.96 154.854C110.673 154.97 112.372 155.171 114.071 155.416C114.905 155.531 115.755 155.617 116.604 155.704C117.493 155.812 118.392 155.812 119.282 155.704C119.282 155.704 119.382 155.804 119.282 155.833C118.46 156.018 117.629 156.152 116.791 156.236C115.971 156.287 115.149 156.287 114.33 156.236C112.602 156.121 110.86 155.934 109.133 155.819C105.635 155.56 102.137 155.315 98.6244 155.315C98.5236 155.344 98.5236 155.041 98.6244 155.027Z" fill="#263238"/>
<path d="M90.8221 159.533C93.5531 158.737 96.326 158.093 99.1281 157.604C100.568 157.374 102.007 157.215 103.36 157.1L105.39 156.956C106.139 156.956 106.83 156.956 107.636 156.956C107.722 156.956 107.737 157.071 107.636 157.086C106.93 157.158 106.196 157.345 105.534 157.446L103.432 157.777L99.2289 158.439C96.4266 158.842 93.6244 159.293 90.8221 159.792C90.7069 159.792 90.6781 159.576 90.8221 159.533Z" fill="#263238"/>
<path d="M85.5679 105.306C85.9134 106.746 92.7656 116.031 99.3154 115.714C101.446 115.599 101.388 103.939 101.388 103.939L101.575 103.075L104.282 90.9972L90.1168 81.9282L88.0727 80.7334C88.0727 80.7334 87.5545 84.0875 86.9499 88.2621C86.9499 88.4636 86.9499 88.6508 86.9499 88.8523C86.9499 89.0539 86.8635 89.313 86.8347 89.5433C86.7339 90.1623 86.6332 90.7957 86.5612 91.4291C86.4892 92.0625 86.4316 92.3936 86.3741 92.8686L86.2013 94.3945C85.7458 98.0134 85.5342 101.659 85.5679 105.306Z" fill="#EB9481"/>
<path d="M87.0073 88.2477C88.2358 91.6346 90.1849 94.7144 92.72 97.2743C95.2551 99.8343 98.3158 101.813 101.69 103.075L104.282 90.9972L90.1167 81.9282L88.0726 80.7334C88.0726 80.7334 87.5543 84.0731 87.0073 88.2477Z" fill="#263238"/>
<path d="M121.311 71.2902C125.529 92.5952 113.235 97.5184 108.643 98.4253C104.483 99.2458 90.1742 101.491 83.7827 80.7479C77.3912 60.0043 85.9707 51.3096 95.414 48.9344C104.857 46.5592 117.108 49.9996 121.311 71.2902Z" fill="#EB9481"/>
<path d="M115.093 68.0368C114.618 68.1448 114.137 68.2265 113.653 68.2815C113.148 68.4474 112.603 68.4474 112.098 68.2815C111.952 68.1933 111.84 68.0596 111.777 67.9009C111.715 67.7422 111.706 67.5674 111.753 67.4034C111.896 67.0928 112.12 66.8262 112.401 66.6312C112.682 66.4363 113.01 66.3202 113.351 66.295C114.03 66.1363 114.745 66.2391 115.352 66.5829C115.476 66.6734 115.573 66.7972 115.631 66.9401C115.688 67.083 115.705 67.2393 115.678 67.391C115.651 67.5428 115.581 67.6838 115.478 67.798C115.374 67.9122 115.241 67.995 115.093 68.0368Z" fill="#263238"/>
<path d="M99.963 72.3981C100.448 72.324 100.929 72.223 101.403 72.0958C101.935 72.0651 102.442 71.8574 102.842 71.5056C102.951 71.3739 103.01 71.2085 103.01 71.0377C103.01 70.8669 102.951 70.7015 102.842 70.5699C102.6 70.328 102.296 70.1571 101.964 70.0759C101.631 69.9947 101.283 70.0062 100.956 70.1092C100.263 70.1986 99.63 70.5486 99.1857 71.0881C99.086 71.2182 99.0275 71.3751 99.0178 71.5387C99.0081 71.7023 99.0476 71.8651 99.1312 72.006C99.2149 72.147 99.3388 72.2596 99.4871 72.3295C99.6353 72.3994 99.8011 72.4233 99.963 72.3981Z" fill="#263238"/>
<path d="M103.159 75.1333C103.159 75.1333 103.058 75.1333 103.072 75.2773C103.332 76.7168 103.389 78.4442 102.151 79.1208C102.151 79.1208 102.151 79.2216 102.151 79.2072C103.749 78.7321 103.648 76.4577 103.159 75.1333Z" fill="#263238"/>
<path d="M101.633 73.7947C99.2576 73.9675 99.7758 78.7179 101.978 78.5452C104.181 78.3724 103.619 73.6508 101.633 73.7947Z" fill="#263238"/>
<path d="M100.726 74.1546C100.337 74.4569 99.992 74.9752 99.4882 75.0903C98.9843 75.2055 98.4373 74.7592 98.0486 74.3274C98.135 75.2343 98.5813 76.1268 99.5745 76.1556C100.568 76.1844 101.014 75.3062 101.144 74.3706C101.057 74.2554 100.885 74.0251 100.726 74.1546Z" fill="#263238"/>
<path d="M112.185 73.7515C112.185 73.7515 112.3 73.7515 112.3 73.8666C112.415 75.3062 112.775 77.0192 114.157 77.3647V77.451C112.501 77.3935 112.041 75.1622 112.185 73.7515Z" fill="#263238"/>
<path d="M113.336 72.0817C115.683 71.6642 116.345 76.4003 114.171 76.7745C111.998 77.1488 111.364 72.4416 113.336 72.0817Z" fill="#263238"/>
<path d="M114.358 72.2545C114.776 72.4561 115.208 72.8591 115.654 72.8159C116.1 72.7728 116.489 72.2113 116.748 71.6787C116.748 71.6787 116.748 71.6787 116.834 71.6787C116.978 72.5712 116.834 73.5645 115.971 73.8524C115.107 74.1403 114.531 73.4349 114.171 72.5568C114.114 72.4417 114.2 72.1682 114.358 72.2545Z" fill="#263238"/>
<path d="M105.836 87.5421C106.21 87.8732 106.599 88.3195 107.132 88.3339C107.682 88.2839 108.215 88.1222 108.701 87.8588C108.701 87.8588 108.787 87.8588 108.701 87.8588C108.51 88.1616 108.24 88.4071 107.921 88.5693C107.601 88.7314 107.244 88.8043 106.887 88.7801C106.612 88.7205 106.358 88.5872 106.153 88.3945C105.947 88.2018 105.798 87.9569 105.721 87.6861C105.721 87.6861 105.721 87.4989 105.836 87.5421Z" fill="#263238"/>
<path d="M111.321 81.4958C111.321 81.4958 111.897 83.6407 112.026 84.6772C112.026 84.7779 111.796 84.8499 111.436 84.9219C110.566 85.1909 109.64 85.2164 108.756 84.9956C107.873 84.7748 107.067 84.3162 106.427 83.6695C106.427 83.5831 106.427 83.4536 106.57 83.5112C108 84.2525 109.632 84.5101 111.22 84.2453C111.22 83.9574 110.112 80.5889 110.27 80.5601C111.083 80.5337 111.897 80.616 112.688 80.8049C111.638 76.2847 109.809 71.9662 108.874 67.4461C108.874 67.2877 109.075 67.2013 109.133 67.3453C111.18 71.9106 112.762 76.6707 113.854 81.5534C113.984 82.1292 111.767 81.611 111.321 81.4958Z" fill="#263238"/>
<path d="M111.292 84.5483C110.822 85.4643 110.123 86.2429 109.262 86.8083C108.784 87.1055 108.226 87.2464 107.664 87.2114C106.455 87.1106 106.225 86.0454 106.225 85.0953C106.262 84.6068 106.354 84.124 106.498 83.6558C107.958 84.4616 109.64 84.7747 111.292 84.5483Z" fill="#263238"/>
<path d="M109.262 86.8079C108.784 87.1051 108.226 87.246 107.664 87.2109C106.455 87.1102 106.225 86.0449 106.225 85.0948C106.851 84.9907 107.493 85.1038 108.046 85.4155C108.598 85.7271 109.028 86.2185 109.262 86.8079Z" fill="#FF9ABB"/>
<path d="M86.1579 82.6191C90.2318 82.6191 89.9583 73.2621 89.9583 73.2621C89.9583 73.2621 106.599 67.9503 106.081 53.8861C109.031 59.2233 113.923 63.2189 119.742 65.0424C119.742 65.0424 116.993 49.9274 104.512 48.675C104.512 48.675 88.7779 45.3497 82.0409 58.4206C75.3039 71.4915 83.4228 82.6622 86.1579 82.6191Z" fill="#263238"/>
<path d="M105.994 52.8491C106.491 54.9609 106.535 57.1538 106.124 59.2838C105.75 61.4507 104.926 63.5153 103.706 65.3442C103.404 65.8021 103.072 66.2397 102.712 66.6542L102.209 67.3019C102.021 67.5035 101.82 67.6906 101.618 67.8778C101.417 68.0649 100.841 68.6407 100.438 69.0006L99.1136 69.9795C98.8976 70.1378 98.6817 70.2962 98.4514 70.4401L97.746 70.8432L96.3065 71.6349C95.3276 72.0668 94.3199 72.4411 93.3123 72.8009C94.2336 72.2395 95.1836 71.7789 96.0762 71.2175L97.4005 70.325L98.0483 69.8787C98.2642 69.7204 98.4514 69.5476 98.6529 69.3749L99.8477 68.3672C100.236 68.0073 100.582 67.6187 100.942 67.2444L101.489 66.683L101.964 66.064C102.292 65.6655 102.594 65.2473 102.871 64.8116C104.039 63.0531 104.891 61.1046 105.39 59.0535C105.648 58.0372 105.826 57.0024 105.923 55.9585C106.029 54.9256 106.053 53.8858 105.994 52.8491Z" fill="#263238"/>
<path d="M79.8097 69.8213L78.802 71.8654L85.539 76.7886L87.6983 72.1965L79.8097 69.8213ZM85.0639 74.6869L80.4143 71.6639L80.6302 71.1888L85.8557 73.0746L85.0639 74.6869Z" fill="#4E7AC7"/>
<path d="M80.0978 66.2085L79.9395 68.483L88.044 70.5127L88.3175 65.4312L80.0978 66.2085ZM86.806 68.7277L81.3502 67.6912V67.1586L86.9068 66.9426L86.806 68.7277Z" fill="#4E7AC7"/>
<path d="M89.282 80.7909C89.282 80.7909 83.8262 74.5577 80.9615 76.5731C78.0969 78.5884 82.6889 87.9741 86.4173 88.9098C86.8876 89.0665 87.3849 89.1258 87.8789 89.0843C88.3729 89.0428 88.8533 88.9013 89.2909 88.6684C89.7285 88.4354 90.1141 88.116 90.4244 87.7293C90.7347 87.3427 90.9631 86.897 91.0958 86.4194L89.282 80.7909Z" fill="#EB9481"/>
<path d="M82.3433 79.2359C82.3433 79.2359 82.3433 79.3079 82.3433 79.3223C83.5585 79.7724 84.6656 80.4727 85.593 81.3778C86.5205 82.2829 87.2475 83.3727 87.7271 84.5766C87.554 84.3408 87.3317 84.1455 87.0756 84.0043C86.8195 83.8631 86.5357 83.7792 86.244 83.7587C85.9522 83.7381 85.6595 83.7814 85.3861 83.8853C85.1128 83.9893 84.8653 84.1515 84.6609 84.3607C84.6609 84.3607 84.6609 84.5046 84.7473 84.4902C85.1718 84.2999 85.645 84.2462 86.1015 84.3364C86.5579 84.4267 86.975 84.6565 87.2952 84.9941C87.8397 85.5653 88.3223 86.1926 88.7347 86.8654C88.8643 87.0813 89.2674 86.8654 89.1522 86.6639C88.8067 83.3674 85.8269 79.1784 82.3433 79.2359Z" fill="#263238"/>
<path d="M72.972 111.006C54.6613 142.59 27.2959 215.084 22.3439 225.449C18.9898 232.488 55.7841 251.043 57.3532 245.919C59.3397 239.369 84.8769 154.926 86.5468 117.254C87.3241 99.8068 78.8309 100.901 72.972 111.006Z" fill="#EB9481"/>
<path d="M42.3823 262.041C44.3256 260.343 45.2613 261.35 44.3832 265.842C43.5051 270.333 36.3939 287.435 42.555 289.378C48.7162 291.321 58.3898 267.152 59.2823 259.565C60.1748 251.979 58.7929 239.412 58.7929 239.412C55.957 243.759 48.1404 253.606 42.3823 262.041Z" fill="#EB9481"/>
<path d="M53.1785 288.442L7.11368 280.151C5.67415 280.036 4.79604 279.086 5.04076 278.02L9.25857 259.191C9.48934 258.635 9.89927 258.171 10.4234 257.874C10.9475 257.576 11.5559 257.463 12.152 257.55L58.2168 265.799C59.6564 265.928 60.5345 266.878 60.2898 267.929L56.0719 286.758C55.8551 287.328 55.4495 287.805 54.923 288.112C54.3964 288.418 53.7807 288.535 53.1785 288.442Z" fill="#A6A6A6"/>
<path d="M53.7111 286.226L7.55987 277.934C6.12034 277.804 5.25662 276.854 5.48695 275.803L9.71916 256.974C9.93328 256.406 10.3361 255.929 10.8603 255.622C11.3844 255.316 11.998 255.198 12.5982 255.29L58.7494 263.582C60.1889 263.697 61.0526 264.647 60.8223 265.698L56.6333 284.541C56.4132 285.115 56.0027 285.595 55.4707 285.901C54.9387 286.208 54.3174 286.323 53.7111 286.226Z" fill="#C7C7C7"/>
<path d="M52.8471 280.251C51.7819 279.848 50.7742 280.251 50.6015 281.144C50.5784 281.656 50.7254 282.161 51.0197 282.58C51.314 282.999 51.739 283.309 52.2281 283.461C53.2934 283.864 54.3011 283.461 54.4738 282.583C54.5002 282.069 54.3547 281.561 54.0601 281.138C53.7656 280.716 53.3388 280.404 52.8471 280.251Z" fill="#263238"/>
<path d="M24.8056 222.138C15.4055 234.806 7.085 249.719 6.88347 266.202C6.82248 268.032 7.37473 269.831 8.45255 271.312C8.23662 278.682 11.6483 281.014 11.6483 281.014C13.5485 287.938 17.4064 289.839 17.4064 289.839C17.4064 289.839 17.9534 295.784 22.1424 295.697C26.3315 295.611 28.6347 285.866 32.2191 278.754C40.6116 262.43 55.8705 243.889 58.7496 239.426L24.8056 222.138Z" fill="#EB9481"/>
<path d="M27.7995 257.781C25.2956 262.531 23.1169 267.447 21.2785 272.492C19.6049 278.15 18.3538 283.924 17.5357 289.767C17.5357 289.805 17.5205 289.842 17.4935 289.869C17.4666 289.896 17.4299 289.911 17.3918 289.911C17.3536 289.911 17.317 289.896 17.29 289.869C17.263 289.842 17.2478 289.805 17.2478 289.767C17.706 278.352 21.2805 267.28 27.5836 257.752C27.7276 257.449 27.9867 257.55 27.7995 257.781Z" fill="#263238"/>
<path d="M18.6876 251.288C16.6434 256.139 13.1022 264.676 11.821 281.029C11.821 281.029 11.7346 281.029 11.7202 281.029C11.1602 270.65 13.4924 260.319 18.4572 251.187C18.6156 250.9 18.8315 250.957 18.6876 251.288Z" fill="#263238"/>
<path d="M13.7354 247.891C10.5685 256.269 9.61837 261.955 8.49554 271.269H8.39478C8.56752 260.544 9.8343 256.658 13.4619 247.733C13.5915 247.473 13.8506 247.56 13.7354 247.891Z" fill="#263238"/>
</svg>
