<svg width="260" height="584" viewBox="0 0 260 584" fill="none" xmlns="http://www.w3.org/2000/svg">
<path d="M201.36 37.8986C201.36 37.8986 192.857 105.94 178.883 121.251C162.168 139.615 149.911 136.93 143.225 146.402C136.449 136.919 124.281 139.615 107.566 121.24C93.5921 105.929 85.1119 37.8874 85.1119 37.8874C121.885 20.0581 143.28 0 143.28 0C143.837 0.635172 165.121 20.3144 201.36 37.8986Z" fill="#37474F"/>
<path d="M143.18 0.0222915V146.402C136.405 136.919 124.236 139.615 107.521 121.24C93.5475 105.929 85.0674 37.8874 85.0674 37.8874C121.84 20.0581 143.236 0 143.236 0L143.18 0.0222915Z" fill="#455A64"/>
<path d="M192.378 43.3811C192.378 43.3811 185.202 100.859 173.434 113.796C159.249 129.33 148.919 127.046 143.247 135.046C137.53 127.046 127.245 129.33 113.06 113.796C101.27 100.859 94.1158 43.3811 94.1158 43.3811C125.206 28.2818 143.258 11.3662 143.258 11.3662C143.258 11.3662 161.232 28.2818 192.378 43.3811Z" fill="#455A64"/>
<path d="M94.0378 43.3809C94.0378 43.3809 101.214 100.847 112.982 113.796C127.145 129.319 137.419 127.056 143.147 135.035V11.3438C142.634 11.9566 124.649 28.5157 94.0378 43.3809Z" fill="#37474F"/>
<path d="M159.3 89.3236C168.199 80.4243 168.199 65.9956 159.3 57.0963C150.401 48.197 135.972 48.1969 127.073 57.0963C118.173 65.9956 118.173 80.4243 127.073 89.3236C135.972 98.223 150.401 98.223 159.3 89.3236Z" fill="#4E7AC7"/>
<path d="M140.584 88.0103L130.432 77.4575L134.198 73.8359L139.792 79.6528L151.85 61.1548L156.229 64.0075L140.584 88.0103Z" fill="white"/>
<path d="M240.752 156.643H52.4294C49.898 156.659 47.3946 157.174 45.0628 158.16C42.7311 159.145 40.6168 160.582 38.8413 162.386C37.0658 164.191 35.664 166.328 34.7163 168.675C33.7686 171.023 33.2936 173.534 33.3186 176.065V563.855C33.274 568.957 35.2575 573.868 38.8328 577.508C42.4082 581.148 47.2828 583.219 52.3849 583.266H240.708C243.239 583.249 245.742 582.733 248.073 581.748C250.405 580.762 252.52 579.328 254.296 577.525C256.073 575.722 257.477 573.587 258.429 571.241C259.38 568.896 259.86 566.386 259.841 563.855V176.065C259.863 173.537 259.387 171.028 258.439 168.684C257.492 166.339 256.092 164.204 254.319 162.4C252.547 160.597 250.436 159.16 248.109 158.172C245.781 157.184 243.281 156.664 240.752 156.643ZM247.918 551.864C247.918 562.072 240.273 570.329 230.846 570.329H62.3247C52.8752 570.329 45.2308 562.072 45.2308 551.864V190.752C45.2308 169.959 52.8752 168.945 62.3247 168.945H96.078C98.0392 168.945 99.6439 171.174 99.6439 173.937V175.129C99.6439 181.637 103.187 181.637 107.578 181.637H185.582C189.961 181.637 193.482 181.637 193.482 175.141V173.937C193.482 171.174 195.053 168.945 197.048 168.945H230.812C240.24 168.945 247.884 171.708 247.884 190.752L247.918 551.864Z" fill="#263238"/>
<path d="M157.222 173.536H135.927C135.754 173.536 135.583 173.502 135.424 173.436C135.264 173.37 135.119 173.273 134.997 173.151C134.875 173.029 134.778 172.884 134.712 172.724C134.646 172.565 134.612 172.394 134.612 172.221C134.612 171.872 134.75 171.538 134.997 171.291C135.244 171.045 135.578 170.906 135.927 170.906H157.222C157.57 170.906 157.905 171.045 158.152 171.291C158.398 171.538 158.537 171.872 158.537 172.221C158.537 172.394 158.503 172.565 158.437 172.724C158.37 172.884 158.274 173.029 158.152 173.151C158.029 173.273 157.884 173.37 157.725 173.436C157.565 173.502 157.394 173.536 157.222 173.536Z" fill="white"/>
<path d="M247.984 190.752V551.864C247.984 562.072 240.34 570.329 230.913 570.329H62.3248C52.8752 570.329 45.2308 562.072 45.2308 551.864V190.752C45.2308 169.959 52.8752 168.945 62.3248 168.945H96.078C98.0392 168.945 99.6439 171.173 99.6439 173.937V175.129C99.6439 181.637 103.187 181.637 107.578 181.637H185.582C189.972 181.637 193.482 181.637 193.482 175.141V173.937C193.482 171.173 195.065 168.945 197.059 168.945H230.824C240.284 168.945 247.984 171.708 247.984 190.752Z" fill="white"/>
<path d="M65.7457 204.537L59.7506 198.932L65.7457 193.315L66.6706 194.307L61.7453 198.932L66.6706 203.556L65.7457 204.537Z" fill="#C7C7C7"/>
<path d="M232.228 195.433C232.228 195.666 232.158 195.895 232.029 196.089C231.899 196.283 231.714 196.435 231.499 196.524C231.283 196.613 231.045 196.637 230.816 196.591C230.587 196.546 230.377 196.433 230.211 196.268C230.046 196.103 229.934 195.892 229.888 195.663C229.842 195.434 229.866 195.197 229.955 194.981C230.045 194.765 230.196 194.58 230.39 194.451C230.585 194.321 230.813 194.252 231.047 194.252C231.202 194.25 231.356 194.28 231.5 194.338C231.644 194.397 231.775 194.484 231.885 194.594C231.995 194.704 232.082 194.835 232.141 194.979C232.2 195.123 232.229 195.277 232.228 195.433Z" fill="#C7C7C7"/>
<path d="M232.228 199.623C232.228 199.856 232.158 200.085 232.029 200.279C231.899 200.473 231.714 200.625 231.499 200.714C231.283 200.803 231.045 200.827 230.816 200.781C230.587 200.736 230.377 200.623 230.211 200.458C230.046 200.293 229.934 200.082 229.888 199.853C229.842 199.624 229.866 199.386 229.955 199.171C230.045 198.955 230.196 198.77 230.39 198.641C230.585 198.511 230.813 198.441 231.047 198.441C231.202 198.44 231.356 198.47 231.5 198.528C231.644 198.587 231.775 198.674 231.885 198.784C231.995 198.894 232.082 199.025 232.141 199.169C232.2 199.313 232.229 199.467 232.228 199.623Z" fill="#C7C7C7"/>
<path d="M232.228 203.813C232.228 204.046 232.158 204.275 232.029 204.469C231.899 204.663 231.714 204.814 231.499 204.904C231.283 204.993 231.045 205.017 230.816 204.971C230.587 204.926 230.377 204.813 230.211 204.648C230.046 204.483 229.934 204.272 229.888 204.043C229.842 203.814 229.866 203.576 229.955 203.361C230.045 203.145 230.196 202.96 230.39 202.83C230.585 202.701 230.813 202.631 231.047 202.631C231.202 202.63 231.356 202.659 231.5 202.718C231.644 202.777 231.775 202.864 231.885 202.974C231.995 203.084 232.082 203.215 232.141 203.359C232.2 203.503 232.229 203.657 232.228 203.813Z" fill="#C7C7C7"/>
<path d="M90.2501 177.057L89.9269 177.38L89.7375 177.559C88.9024 176.728 87.7726 176.262 86.5951 176.262C85.4175 176.262 84.2878 176.728 83.4526 177.559L83.2743 177.369L82.9512 177.046L83.3635 176.678C83.6624 176.447 83.9834 176.245 84.3218 176.077C84.7224 175.874 85.1504 175.732 85.5922 175.653C85.7983 175.612 86.0067 175.582 86.2162 175.564H86.7734H87.1968C87.5962 175.612 87.9888 175.705 88.3668 175.843C88.6361 175.945 88.8969 176.067 89.1469 176.21C89.4112 176.362 89.6611 176.537 89.8935 176.734L90.2389 177.046L90.2501 177.057Z" fill="#C7C7C7"/>
<path d="M84.4889 178.584L83.9652 178.071C84.6645 177.377 85.6098 176.988 86.595 176.988C87.5803 176.988 88.5256 177.377 89.2249 178.071L88.7011 178.584C88.1415 178.027 87.3843 177.715 86.595 177.715C85.8057 177.715 85.0485 178.027 84.4889 178.584Z" fill="#C7C7C7"/>
<path d="M88.1884 179.108L87.6758 179.609C87.5287 179.465 87.3545 179.351 87.1633 179.275C86.972 179.198 86.7675 179.161 86.5615 179.164C86.3544 179.16 86.1487 179.198 85.957 179.277C85.7653 179.355 85.5918 179.472 85.4472 179.62C85.28 179.442 85.1017 179.275 84.9346 179.108C85.143 178.885 85.395 178.708 85.6748 178.586C85.9547 178.465 86.2565 178.402 86.5615 178.402C86.8665 178.402 87.1683 178.465 87.4482 178.586C87.728 178.708 87.98 178.885 88.1884 179.108Z" fill="#C7C7C7"/>
<path d="M87.063 180.077C87.063 180.201 87.0137 180.32 86.9259 180.408C86.8381 180.496 86.7191 180.545 86.595 180.545C86.534 180.545 86.4737 180.533 86.4175 180.509C86.3613 180.486 86.3105 180.451 86.2679 180.407C86.2253 180.364 86.1919 180.312 86.1696 180.255C86.1473 180.199 86.1366 180.138 86.1381 180.077C86.1381 179.956 86.1862 179.84 86.2719 179.754C86.3576 179.668 86.4738 179.62 86.595 179.62C86.6559 179.619 86.7165 179.629 86.7732 179.652C86.8299 179.674 86.8816 179.707 86.9252 179.75C86.9689 179.793 87.0035 179.844 87.0272 179.9C87.0508 179.956 87.063 180.016 87.063 180.077Z" fill="#C7C7C7"/>
<path d="M58.4468 178.038C58.4468 177.771 58.5262 177.509 58.6749 177.288C58.8235 177.066 59.0347 176.893 59.2818 176.791C59.5288 176.689 59.8005 176.663 60.0623 176.716C60.3242 176.769 60.5644 176.899 60.7525 177.088C60.9407 177.278 61.0682 177.519 61.1189 177.782C61.1697 178.044 61.1414 178.315 61.0377 178.562C60.9339 178.808 60.7593 179.017 60.5361 179.164C60.3129 179.311 60.0512 179.388 59.784 179.386C59.6075 179.386 59.4327 179.351 59.2697 179.283C59.1067 179.215 58.9588 179.116 58.8345 178.991C58.7102 178.865 58.6119 178.716 58.5454 178.553C58.4789 178.389 58.4454 178.214 58.4468 178.038Z" fill="#C7C7C7"/>
<path d="M62.6702 178.038C62.6746 177.772 62.7574 177.514 62.9082 177.295C63.059 177.076 63.2711 176.907 63.5178 176.808C63.7646 176.71 64.035 176.686 64.295 176.741C64.5551 176.795 64.7933 176.925 64.9796 177.115C65.1659 177.304 65.2922 177.544 65.3424 177.805C65.3927 178.066 65.3647 178.336 65.262 178.581C65.1593 178.826 64.9865 179.036 64.7653 179.183C64.5441 179.33 64.2843 179.409 64.0186 179.409C63.8396 179.409 63.6625 179.373 63.4974 179.304C63.3323 179.235 63.1827 179.133 63.0572 179.006C62.9317 178.878 62.8328 178.727 62.7664 178.561C62.7 178.395 62.6673 178.217 62.6702 178.038Z" fill="#C7C7C7"/>
<path d="M66.9047 178.038C66.9091 177.772 66.9919 177.514 67.1427 177.295C67.2935 177.076 67.5056 176.907 67.7523 176.808C67.9991 176.71 68.2695 176.686 68.5295 176.741C68.7896 176.795 69.0277 176.925 69.2141 177.115C69.4004 177.304 69.5267 177.544 69.5769 177.805C69.6272 178.066 69.5992 178.336 69.4965 178.581C69.3938 178.826 69.221 179.036 68.9998 179.183C68.7786 179.33 68.5188 179.409 68.2531 179.409C68.0741 179.409 67.8969 179.373 67.7319 179.304C67.5668 179.235 67.4172 179.133 67.2917 179.006C67.1662 178.878 67.0673 178.727 67.0009 178.561C66.9345 178.395 66.9018 178.217 66.9047 178.038Z" fill="#C7C7C7"/>
<path d="M71.1391 178.038C71.1435 177.772 71.2266 177.513 71.3779 177.294C71.5292 177.075 71.7419 176.906 71.9893 176.807C72.2367 176.709 72.5076 176.686 72.768 176.741C73.0284 176.797 73.2665 176.928 73.4524 177.119C73.6383 177.309 73.7636 177.551 73.8126 177.812C73.8616 178.074 73.832 178.344 73.7276 178.589C73.6232 178.834 73.4487 179.042 73.226 179.188C73.0033 179.334 72.7425 179.411 72.4763 179.409C72.2978 179.409 72.1212 179.373 71.9567 179.304C71.7923 179.234 71.6433 179.133 71.5187 179.005C71.3941 178.877 71.2963 178.726 71.2311 178.56C71.1659 178.394 71.1346 178.216 71.1391 178.038Z" fill="#C7C7C7"/>
<path d="M75.3737 178.038C75.3781 177.772 75.4612 177.513 75.6125 177.294C75.7638 177.075 75.9766 176.906 76.2239 176.807C76.4713 176.709 76.7422 176.686 77.0026 176.741C77.263 176.797 77.5011 176.928 77.687 177.119C77.8729 177.309 77.9982 177.551 78.0472 177.812C78.0962 178.074 78.0666 178.344 77.9622 178.589C77.8578 178.834 77.6833 179.042 77.4606 179.188C77.238 179.334 76.9771 179.411 76.7109 179.409C76.5325 179.409 76.3558 179.373 76.1913 179.304C76.0269 179.234 75.878 179.133 75.7533 179.005C75.6287 178.877 75.5309 178.726 75.4657 178.56C75.4005 178.394 75.3692 178.216 75.3737 178.038Z" fill="#C7C7C7"/>
<path d="M232.729 180.98H221.775V175.898H232.729V180.98ZM222.355 180.412H232.161V176.467H222.355V180.412Z" fill="#C7C7C7"/>
<path d="M229.743 176.768H222.689V180.111H229.743V176.768Z" fill="#C7C7C7"/>
<path d="M233.699 177.08H232.729V179.787H233.699V177.08Z" fill="#C7C7C7"/>
<path d="M76.0311 548.254H74.4821V555.33H71.6071V551.719H66.5035V555.33H63.6285V548.254H62.0907L69.0553 541.044L76.0311 548.254Z" fill="#EBEBEB"/>
<path d="M231.08 541.044H214.276V543.44H231.08V541.044Z" fill="#EBEBEB"/>
<path d="M231.08 546.983H214.276V549.379H231.08V546.983Z" fill="#EBEBEB"/>
<path d="M231.08 552.923H214.276V555.319H231.08V552.923Z" fill="#EBEBEB"/>
<path d="M151.36 547.229L146.58 552.332L141.799 547.229L142.646 546.449L146.58 550.639L150.513 546.449L151.36 547.229Z" fill="#EBEBEB"/>
<path d="M146.58 557.603C144.863 557.603 143.185 557.094 141.757 556.14C140.329 555.186 139.217 553.831 138.56 552.244C137.903 550.658 137.731 548.913 138.066 547.229C138.401 545.545 139.228 543.998 140.442 542.784C141.656 541.57 143.202 540.743 144.886 540.408C146.57 540.074 148.316 540.245 149.902 540.902C151.488 541.56 152.844 542.672 153.797 544.1C154.751 545.527 155.26 547.206 155.26 548.922C155.255 551.223 154.338 553.427 152.711 555.054C151.085 556.681 148.88 557.597 146.58 557.603ZM146.58 541.389C145.09 541.389 143.633 541.831 142.395 542.659C141.156 543.487 140.19 544.663 139.62 546.04C139.05 547.416 138.901 548.931 139.192 550.392C139.482 551.853 140.2 553.195 141.253 554.249C142.307 555.302 143.649 556.02 145.11 556.311C146.571 556.601 148.086 556.452 149.462 555.882C150.839 555.312 152.015 554.346 152.843 553.107C153.671 551.869 154.113 550.412 154.113 548.922C154.113 546.925 153.319 545.008 151.906 543.596C150.494 542.183 148.578 541.389 146.58 541.389Z" fill="#EBEBEB"/>
<path d="M133.62 517.732C133.62 518.305 133.45 518.865 133.132 519.342C132.813 519.818 132.361 520.19 131.831 520.409C131.302 520.628 130.72 520.686 130.157 520.574C129.595 520.462 129.079 520.186 128.674 519.781C128.269 519.376 127.993 518.86 127.881 518.297C127.769 517.735 127.827 517.153 128.046 516.624C128.265 516.094 128.637 515.642 129.113 515.323C129.59 515.005 130.15 514.835 130.723 514.835C131.104 514.834 131.481 514.907 131.833 515.053C132.185 515.198 132.505 515.411 132.775 515.68C133.044 515.95 133.257 516.27 133.402 516.622C133.548 516.974 133.621 517.351 133.62 517.732Z" fill="#DBDBDB"/>
<path d="M151.282 517.732C151.282 518.601 151.025 519.449 150.542 520.171C150.06 520.894 149.374 521.456 148.572 521.789C147.77 522.121 146.887 522.208 146.035 522.038C145.184 521.869 144.401 521.451 143.787 520.837C143.173 520.223 142.755 519.44 142.586 518.589C142.416 517.737 142.503 516.854 142.836 516.052C143.168 515.25 143.731 514.564 144.453 514.082C145.175 513.599 146.023 513.342 146.892 513.342C148.056 513.342 149.173 513.804 149.996 514.628C150.82 515.451 151.282 516.568 151.282 517.732Z" fill="#4E7AC7"/>
<path d="M165.958 517.732C165.958 518.305 165.788 518.865 165.47 519.342C165.151 519.818 164.699 520.19 164.169 520.409C163.64 520.628 163.058 520.686 162.496 520.574C161.933 520.462 161.417 520.186 161.012 519.781C160.607 519.376 160.331 518.86 160.219 518.297C160.107 517.735 160.165 517.153 160.384 516.624C160.603 516.094 160.975 515.642 161.451 515.323C161.928 515.005 162.488 514.835 163.061 514.835C163.442 514.834 163.819 514.907 164.171 515.053C164.523 515.198 164.843 515.411 165.113 515.68C165.382 515.95 165.595 516.27 165.74 516.622C165.886 516.974 165.959 517.351 165.958 517.732Z" fill="#DBDBDB"/>
<path d="M185.058 437.01H106.854V461.882H185.058V437.01Z" fill="#4E7AC7"/>
<path d="M128.75 452.934V446.248C128.749 446.165 128.764 446.083 128.795 446.007C128.826 445.931 128.872 445.861 128.93 445.803C128.988 445.745 129.057 445.699 129.134 445.668C129.21 445.637 129.292 445.622 129.374 445.624C129.457 445.622 129.54 445.637 129.617 445.668C129.694 445.699 129.764 445.744 129.823 445.802C129.882 445.861 129.929 445.93 129.961 446.006C129.993 446.083 130.01 446.165 130.01 446.248V452.343H133.107C133.276 452.343 133.437 452.41 133.557 452.529C133.676 452.648 133.743 452.81 133.743 452.978C133.743 453.147 133.676 453.308 133.557 453.427C133.437 453.547 133.276 453.613 133.107 453.613H129.374C129.288 453.614 129.202 453.596 129.122 453.561C129.042 453.526 128.971 453.475 128.912 453.411C128.854 453.347 128.809 453.272 128.781 453.19C128.753 453.107 128.743 453.02 128.75 452.934Z" fill="white"/>
<path d="M141.008 446.56C141.751 447.337 142.165 448.371 142.165 449.446C142.165 450.521 141.751 451.555 141.008 452.332C140.665 452.714 140.246 453.02 139.778 453.231C139.309 453.442 138.803 453.553 138.289 453.558C137.764 453.557 137.244 453.447 136.763 453.236C136.282 453.025 135.849 452.718 135.492 452.332C134.762 451.548 134.356 450.517 134.356 449.446C134.356 448.375 134.762 447.344 135.492 446.56C135.847 446.172 136.28 445.863 136.761 445.652C137.243 445.441 137.763 445.332 138.289 445.334C138.803 445.336 139.31 445.447 139.779 445.658C140.247 445.869 140.666 446.176 141.008 446.56ZM140.863 449.446C140.863 448.707 140.585 447.994 140.083 447.451C139.857 447.199 139.58 446.996 139.271 446.856C138.963 446.716 138.628 446.642 138.289 446.638C137.941 446.636 137.596 446.708 137.278 446.848C136.959 446.988 136.673 447.194 136.439 447.451C135.934 447.992 135.655 448.706 135.659 449.446C135.652 450.183 135.932 450.894 136.439 451.429C136.673 451.688 136.958 451.896 137.277 452.038C137.595 452.18 137.94 452.253 138.289 452.254C138.629 452.248 138.964 452.171 139.272 452.029C139.581 451.887 139.857 451.683 140.083 451.429C140.57 450.885 140.832 450.176 140.819 449.446H140.863Z" fill="white"/>
<path d="M144.017 449.457C144.035 448.674 144.27 447.912 144.697 447.256C145.123 446.599 145.723 446.074 146.43 445.739C147.138 445.404 147.924 445.272 148.702 445.358C149.48 445.443 150.219 445.744 150.836 446.225C150.972 446.332 151.061 446.488 151.081 446.659C151.102 446.83 151.054 447.003 150.948 447.139C150.842 447.275 150.685 447.363 150.514 447.384C150.343 447.405 150.17 447.357 150.034 447.25C149.521 446.853 148.889 446.638 148.24 446.638C147.858 446.632 147.479 446.703 147.124 446.846C146.77 446.99 146.449 447.203 146.179 447.473C145.908 447.726 145.692 448.031 145.545 448.37C145.397 448.71 145.321 449.076 145.321 449.446C145.321 449.816 145.397 450.182 145.545 450.521C145.692 450.86 145.908 451.166 146.179 451.418C146.449 451.688 146.77 451.902 147.124 452.045C147.479 452.189 147.858 452.26 148.24 452.254C148.789 452.25 149.328 452.1 149.8 451.819V450.259H148.162C147.991 450.254 147.828 450.182 147.707 450.06C147.587 449.937 147.519 449.773 147.516 449.602C147.519 449.432 147.588 449.271 147.709 449.152C147.83 449.033 147.993 448.967 148.162 448.967H150.391C150.477 448.964 150.562 448.978 150.642 449.008C150.723 449.039 150.796 449.085 150.858 449.144C150.921 449.203 150.97 449.274 151.005 449.353C151.039 449.431 151.058 449.516 151.059 449.602V452.131C151.066 452.194 151.066 452.258 151.059 452.321C151.019 452.436 150.94 452.535 150.836 452.599C150.222 453.081 149.486 453.382 148.71 453.469C147.934 453.557 147.149 453.427 146.443 453.094C145.737 452.761 145.137 452.238 144.71 451.584C144.284 450.93 144.048 450.171 144.028 449.39L144.017 449.457Z" fill="white"/>
<path d="M153.756 446.192C153.755 446.11 153.77 446.028 153.8 445.951C153.831 445.875 153.877 445.806 153.936 445.747C153.994 445.689 154.063 445.643 154.14 445.612C154.216 445.582 154.298 445.566 154.38 445.568C154.464 445.566 154.546 445.581 154.624 445.612C154.702 445.643 154.773 445.688 154.833 445.746C154.893 445.804 154.941 445.873 154.974 445.95C155.007 446.026 155.025 446.109 155.026 446.192V452.878C155.021 453.046 154.95 453.204 154.829 453.321C154.709 453.437 154.548 453.502 154.38 453.502C154.298 453.504 154.216 453.488 154.14 453.458C154.063 453.427 153.994 453.381 153.936 453.323C153.877 453.264 153.831 453.195 153.8 453.119C153.77 453.042 153.755 452.96 153.756 452.878V446.192Z" fill="white"/>
<path d="M158.414 452.933C158.414 453.099 158.348 453.258 158.231 453.375C158.114 453.492 157.956 453.557 157.79 453.557C157.625 453.557 157.466 453.492 157.349 453.375C157.232 453.258 157.166 453.099 157.166 452.933V446.247C157.164 446.146 157.186 446.045 157.231 445.954C157.275 445.863 157.341 445.784 157.422 445.724C157.557 445.632 157.722 445.595 157.883 445.62C158.044 445.645 158.19 445.729 158.292 445.857L161.98 450.961V446.292C161.98 446.211 161.996 446.132 162.027 446.057C162.057 445.983 162.103 445.915 162.159 445.859C162.216 445.802 162.284 445.756 162.358 445.726C162.433 445.695 162.512 445.679 162.593 445.679C162.756 445.679 162.914 445.743 163.03 445.858C163.147 445.972 163.214 446.128 163.217 446.292V452.978C163.214 453.143 163.147 453.3 163.031 453.416C162.915 453.532 162.757 453.599 162.593 453.602C162.502 453.601 162.413 453.579 162.332 453.538C162.251 453.498 162.18 453.44 162.125 453.368L162.069 453.301L158.414 448.231V452.933Z" fill="white"/>
<path d="M165.524 244.474V252.62H159.762V244.474C159.762 236.674 153.868 230.423 146.624 230.423C139.381 230.423 133.486 236.719 133.486 244.474V264.867H127.636V244.474C127.636 233.331 136.116 224.338 146.58 224.338C157.043 224.338 165.524 233.376 165.524 244.474Z" fill="#C7C7C7"/>
<path d="M127.681 252.643L133.442 252.877V264.867H127.681V252.643Z" fill="#A6A6A6"/>
<path d="M172.867 258.036H120.293V305.73H172.867V258.036Z" fill="#4E7AC7"/>
<path opacity="0.1" d="M172.867 258.036H146.58V305.73H172.867V258.036Z" fill="#16193B"/>
<path d="M148.808 283.633L151.037 294.063H141.699L143.928 283.633C143.063 283.096 142.397 282.292 142.03 281.343C141.664 280.394 141.616 279.351 141.895 278.373C142.174 277.394 142.764 276.534 143.576 275.921C144.389 275.308 145.378 274.976 146.396 274.976C147.413 274.976 148.403 275.308 149.215 275.921C150.027 276.534 150.618 277.394 150.897 278.373C151.176 279.351 151.128 280.394 150.761 281.343C150.395 282.292 149.729 283.096 148.864 283.633H148.808Z" fill="#263238"/>
<path d="M214.287 358.36H78.8839V381.538H214.287V358.36Z" fill="white"/>
<path d="M214.833 382.095H78.3267V357.803H214.833V382.095ZM79.441 380.981H213.719V358.917H79.441V380.981Z" fill="#EBEBEB"/>
<path d="M92.9356 364.756H91.8213V374.663H92.9356V364.756Z" fill="#37474F"/>
<path d="M97.3372 369.146H87.4308V370.261H97.3372V369.146Z" fill="#37474F"/>
<path d="M95.4938 365.802L88.4865 372.804L89.2741 373.592L96.2815 366.59L95.4938 365.802Z" fill="#37474F"/>
<path d="M89.266 365.808L88.478 366.596L95.4829 373.601L96.2709 372.813L89.266 365.808Z" fill="#37474F"/>
<path d="M109.74 364.756H108.625V374.663H109.74V364.756Z" fill="#37474F"/>
<path d="M114.141 369.146H104.235V370.261H114.141V369.146Z" fill="#37474F"/>
<path d="M112.295 365.813L105.287 372.816L106.075 373.604L113.082 366.602L112.295 365.813Z" fill="#37474F"/>
<path d="M106.074 365.804L105.286 366.592L112.291 373.597L113.079 372.809L106.074 365.804Z" fill="#37474F"/>
<path d="M126.544 364.756H125.43V374.663H126.544V364.756Z" fill="#37474F"/>
<path d="M130.946 369.146H121.039V370.261H130.946V369.146Z" fill="#37474F"/>
<path d="M129.095 365.814L122.088 372.817L122.876 373.605L129.883 366.603L129.095 365.814Z" fill="#37474F"/>
<path d="M122.881 365.801L122.093 366.589L129.098 373.594L129.886 372.806L122.881 365.801Z" fill="#37474F"/>
<path d="M143.359 364.756H142.245V374.663H143.359V364.756Z" fill="#37474F"/>
<path d="M147.75 369.146H137.843V370.261H147.75V369.146Z" fill="#37474F"/>
<path d="M145.907 365.815L138.9 372.817L139.687 373.606L146.695 366.603L145.907 365.815Z" fill="#37474F"/>
<path d="M139.697 365.812L138.909 366.6L145.914 373.605L146.702 372.817L139.697 365.812Z" fill="#37474F"/>
<path d="M160.164 364.756H159.049V374.663H160.164V364.756Z" fill="#37474F"/>
<path d="M164.554 369.146H154.648V370.261H164.554V369.146Z" fill="#37474F"/>
<path d="M162.708 365.815L155.7 372.818L156.488 373.606L163.495 366.604L162.708 365.815Z" fill="#37474F"/>
<path d="M156.494 365.797L155.706 366.585L162.71 373.59L163.498 372.802L156.494 365.797Z" fill="#37474F"/>
<path d="M176.968 364.756H175.853V374.663H176.968V364.756Z" fill="#37474F"/>
<path d="M181.369 369.146H171.463V370.261H181.369V369.146Z" fill="#37474F"/>
<path d="M179.516 365.808L172.509 372.811L173.297 373.599L180.304 366.596L179.516 365.808Z" fill="#37474F"/>
<path d="M173.301 365.794L172.513 366.582L179.518 373.586L180.306 372.799L173.301 365.794Z" fill="#37474F"/>
<path d="M202.72 373.526C201.511 373.453 200.332 373.116 199.268 372.539C198.203 371.961 197.278 371.157 196.558 370.183L196.313 369.848L196.558 369.525C197.232 368.519 198.144 367.693 199.213 367.123C200.282 366.552 201.475 366.254 202.687 366.254C203.898 366.254 205.091 366.552 206.16 367.123C207.229 367.693 208.141 368.519 208.815 369.525L209.049 369.848L208.815 370.183C208.103 371.149 207.189 371.949 206.136 372.526C205.084 373.103 203.918 373.444 202.72 373.526ZM197.728 369.893C198.302 370.685 199.056 371.329 199.928 371.774C200.8 372.218 201.764 372.45 202.742 372.45C203.721 372.45 204.685 372.218 205.557 371.774C206.428 371.329 207.182 370.685 207.757 369.893C207.182 369.101 206.428 368.457 205.557 368.012C204.685 367.568 203.721 367.336 202.742 367.336C201.764 367.336 200.8 367.568 199.928 368.012C199.056 368.457 198.302 369.101 197.728 369.893Z" fill="#EBEBEB"/>
<path d="M202.709 372.4C204.094 372.4 205.216 371.278 205.216 369.893C205.216 368.508 204.094 367.386 202.709 367.386C201.324 367.386 200.202 368.508 200.202 369.893C200.202 371.278 201.324 372.4 202.709 372.4Z" fill="#EBEBEB"/>
<path d="M206.837 364.866L197.933 373.77L198.721 374.557L207.625 365.654L206.837 364.866Z" fill="#EBEBEB"/>
<path d="M110.174 334.223H108.392V337.355C108.392 337.567 108.307 337.771 108.157 337.922C108.006 338.072 107.802 338.157 107.589 338.157C107.376 338.157 107.172 338.072 107.022 337.922C106.871 337.771 106.787 337.567 106.787 337.355V328.83C106.787 328.725 106.808 328.621 106.848 328.525C106.889 328.428 106.948 328.34 107.023 328.267C107.097 328.193 107.186 328.135 107.283 328.096C107.38 328.057 107.484 328.037 107.589 328.039H110.174C110.596 328.013 111.019 328.075 111.416 328.219C111.813 328.363 112.176 328.586 112.484 328.876C112.792 329.165 113.037 329.515 113.204 329.903C113.372 330.291 113.458 330.709 113.458 331.131C113.458 331.554 113.372 331.971 113.204 332.359C113.037 332.747 112.792 333.097 112.484 333.386C112.176 333.676 111.813 333.9 111.416 334.044C111.019 334.187 110.596 334.249 110.174 334.223ZM108.392 332.619H110.174C110.381 332.637 110.588 332.611 110.784 332.545C110.98 332.478 111.16 332.371 111.313 332.232C111.465 332.092 111.587 331.922 111.67 331.732C111.754 331.543 111.797 331.338 111.797 331.131C111.797 330.924 111.754 330.719 111.67 330.53C111.587 330.341 111.465 330.17 111.313 330.031C111.16 329.891 110.98 329.784 110.784 329.717C110.588 329.651 110.381 329.626 110.174 329.643H108.392V332.619Z" fill="#4E7AC7"/>
<path d="M119.368 335.761H115.857L115.144 337.644C115.082 337.791 114.978 337.917 114.845 338.006C114.713 338.095 114.557 338.144 114.398 338.146C114.306 338.163 114.211 338.163 114.119 338.146C113.919 338.071 113.757 337.92 113.667 337.726C113.577 337.532 113.568 337.311 113.64 337.11L116.838 328.596C116.902 328.446 117.009 328.318 117.146 328.228C117.283 328.139 117.444 328.093 117.607 328.095C117.769 328.09 117.929 328.136 118.065 328.226C118.201 328.315 118.305 328.445 118.365 328.596L121.563 337.11C121.635 337.311 121.625 337.532 121.536 337.726C121.446 337.92 121.284 338.071 121.084 338.146C120.992 338.165 120.897 338.165 120.805 338.146C120.646 338.146 120.491 338.098 120.36 338.008C120.229 337.919 120.128 337.792 120.07 337.644L119.368 335.761ZM118.777 334.179L117.607 331.07L116.493 334.179H118.777Z" fill="#4E7AC7"/>
<path d="M122.978 335.639C123.041 335.554 123.121 335.483 123.213 335.431C123.305 335.379 123.407 335.347 123.513 335.337C123.618 335.328 123.724 335.341 123.824 335.376C123.924 335.41 124.016 335.466 124.093 335.538C124.869 336.199 125.839 336.59 126.856 336.653C127.499 336.666 128.13 336.479 128.661 336.118C128.842 336.009 128.993 335.858 129.102 335.677C129.211 335.497 129.274 335.292 129.285 335.082C129.289 334.919 129.242 334.76 129.152 334.625C129.039 334.45 128.891 334.302 128.717 334.19C128.104 333.842 127.431 333.611 126.733 333.51C126.088 333.4 125.459 333.209 124.861 332.942C124.318 332.707 123.853 332.32 123.524 331.828C123.3 331.475 123.184 331.064 123.19 330.647C123.199 330.231 123.305 329.824 123.498 329.457C123.692 329.09 123.967 328.772 124.304 328.529C125.037 328.022 125.91 327.757 126.8 327.772C127.939 327.82 129.037 328.208 129.954 328.886C130.035 328.94 130.104 329.009 130.158 329.09C130.212 329.171 130.249 329.261 130.268 329.357C130.286 329.452 130.286 329.55 130.267 329.645C130.247 329.74 130.209 329.831 130.154 329.911C130.103 329.995 130.036 330.067 129.956 330.124C129.876 330.181 129.786 330.221 129.69 330.242C129.594 330.263 129.495 330.264 129.398 330.246C129.302 330.227 129.211 330.189 129.129 330.134C128.465 329.596 127.653 329.273 126.8 329.209C126.224 329.199 125.658 329.371 125.185 329.699C125.025 329.794 124.891 329.927 124.795 330.087C124.7 330.246 124.646 330.427 124.639 330.613C124.628 330.754 124.663 330.895 124.739 331.014C124.843 331.165 124.975 331.293 125.129 331.393C125.684 331.719 126.297 331.935 126.934 332.028C127.62 332.15 128.29 332.352 128.929 332.63C129.515 332.888 130.017 333.305 130.377 333.834C130.602 334.203 130.721 334.627 130.723 335.059C130.707 335.503 130.585 335.937 130.368 336.324C130.151 336.712 129.845 337.042 129.475 337.288C128.698 337.841 127.765 338.13 126.811 338.113C125.452 338.051 124.152 337.541 123.112 336.664C122.964 336.542 122.868 336.368 122.843 336.178C122.818 335.987 122.867 335.795 122.978 335.639Z" fill="#4E7AC7"/>
<path d="M132.483 335.639C132.545 335.562 132.621 335.499 132.707 335.453C132.794 335.406 132.888 335.377 132.986 335.368C133.084 335.359 133.182 335.369 133.276 335.398C133.369 335.427 133.456 335.475 133.531 335.538C134.307 336.199 135.277 336.59 136.294 336.653C136.937 336.668 137.569 336.481 138.1 336.118C138.28 336.009 138.432 335.858 138.54 335.677C138.649 335.497 138.712 335.292 138.724 335.082C138.727 334.919 138.68 334.76 138.59 334.625C138.481 334.448 138.332 334.299 138.155 334.19C137.547 333.841 136.877 333.611 136.183 333.51C135.541 333.402 134.915 333.211 134.322 332.942C133.777 332.705 133.31 332.318 132.974 331.828C132.754 331.473 132.638 331.064 132.639 330.647C132.649 330.231 132.754 329.824 132.948 329.457C133.141 329.09 133.417 328.772 133.754 328.529C134.486 328.022 135.359 327.757 136.25 327.772C137.389 327.82 138.487 328.208 139.403 328.886C139.484 328.94 139.554 329.009 139.607 329.09C139.661 329.171 139.699 329.261 139.717 329.357C139.736 329.452 139.736 329.55 139.716 329.645C139.697 329.74 139.659 329.831 139.604 329.911C139.553 329.995 139.485 330.067 139.406 330.124C139.326 330.181 139.235 330.221 139.139 330.242C139.043 330.263 138.944 330.264 138.848 330.246C138.752 330.227 138.66 330.189 138.579 330.134C137.915 329.596 137.102 329.273 136.25 329.209C135.673 329.199 135.108 329.371 134.634 329.699C134.474 329.794 134.34 329.927 134.245 330.087C134.15 330.246 134.096 330.427 134.088 330.613C134.077 330.754 134.113 330.895 134.188 331.014C134.292 331.165 134.425 331.293 134.578 331.393C135.134 331.717 135.747 331.933 136.384 332.028C137.07 332.15 137.739 332.352 138.378 332.63C138.962 332.886 139.461 333.303 139.816 333.834C140.048 334.2 140.168 334.626 140.161 335.059C140.147 335.502 140.028 335.936 139.813 336.323C139.597 336.711 139.293 337.042 138.924 337.288C138.144 337.843 137.207 338.132 136.25 338.113C134.891 338.051 133.59 337.541 132.55 336.664C132.415 336.531 132.333 336.353 132.32 336.164C132.308 335.975 132.366 335.788 132.483 335.639Z" fill="#4E7AC7"/>
<path d="M155.405 329.231L151.862 337.644C151.847 337.695 151.82 337.74 151.784 337.778C151.784 337.778 151.784 337.834 151.717 337.867L151.617 337.934C151.617 337.934 151.55 338.012 151.483 338.023H151.36H151.015H150.915C150.864 338.01 150.82 337.978 150.792 337.934L150.692 337.867C150.692 337.867 150.692 337.811 150.636 337.778C150.63 337.734 150.63 337.689 150.636 337.644L148.742 333.187L146.847 337.644C146.847 337.644 146.847 337.745 146.792 337.778L146.702 337.867C146.668 337.883 146.638 337.906 146.613 337.934L146.502 338.023C146.465 338.015 146.427 338.015 146.39 338.023H146.034H145.922C145.872 338.004 145.826 337.974 145.789 337.934C145.789 337.934 145.733 337.934 145.688 337.867L145.621 337.778C145.621 337.778 145.621 337.689 145.543 337.644L141.989 329.22C141.925 329.03 141.935 328.822 142.018 328.639C142.102 328.456 142.251 328.312 142.437 328.236C142.623 328.159 142.83 328.156 143.018 328.227C143.206 328.298 143.36 328.438 143.449 328.618L146.279 335.304L148.151 330.847C148.213 330.7 148.317 330.575 148.45 330.488C148.583 330.401 148.739 330.355 148.898 330.357C149.057 330.359 149.213 330.406 149.347 330.492C149.481 330.579 149.588 330.702 149.655 330.847L151.516 335.304L154.336 328.618C154.419 328.424 154.576 328.27 154.772 328.191C154.968 328.111 155.188 328.113 155.383 328.195C155.511 328.336 155.583 328.518 155.588 328.709C155.592 328.899 155.527 329.085 155.405 329.231Z" fill="#4E7AC7"/>
<path d="M165.523 329.287C166.462 330.275 166.985 331.585 166.985 332.947C166.985 334.31 166.462 335.62 165.523 336.608C165.084 337.088 164.551 337.472 163.956 337.737C163.362 338.001 162.72 338.14 162.069 338.146C161.405 338.142 160.749 338.004 160.14 337.74C159.531 337.475 158.982 337.09 158.525 336.608C157.609 335.609 157.101 334.303 157.101 332.947C157.101 331.592 157.609 330.286 158.525 329.287C158.98 328.802 159.529 328.416 160.138 328.152C160.748 327.887 161.405 327.75 162.069 327.749C162.72 327.752 163.363 327.89 163.958 328.154C164.553 328.419 165.086 328.805 165.523 329.287ZM165.334 332.942C165.334 332.009 164.984 331.11 164.353 330.423C164.066 330.102 163.714 329.844 163.32 329.668C162.927 329.491 162.5 329.399 162.069 329.398C161.629 329.395 161.193 329.485 160.79 329.661C160.386 329.838 160.025 330.098 159.729 330.423C159.094 331.108 158.744 332.008 158.748 332.942C158.739 333.876 159.09 334.778 159.729 335.46C160.026 335.786 160.387 336.046 160.79 336.225C161.193 336.403 161.628 336.496 162.069 336.497C162.501 336.491 162.926 336.395 163.32 336.217C163.713 336.039 164.065 335.781 164.353 335.46C164.971 334.768 165.305 333.869 165.289 332.942H165.334Z" fill="#4E7AC7"/>
<path d="M176.477 336.953C176.512 337.052 176.527 337.157 176.52 337.261C176.514 337.366 176.486 337.468 176.439 337.561C176.393 337.655 176.327 337.738 176.248 337.806C176.168 337.874 176.076 337.925 175.976 337.956C175.869 337.974 175.76 337.974 175.653 337.956C175.456 337.961 175.262 337.907 175.096 337.8C174.899 337.676 174.738 337.504 174.628 337.299C174.398 336.75 174.295 336.155 174.327 335.561C174.325 335.34 174.263 335.125 174.148 334.937C174.041 334.764 173.892 334.622 173.714 334.524C173.468 334.365 173.196 334.249 172.912 334.179H171.207V337.31C171.205 337.415 171.183 337.519 171.141 337.616C171.1 337.713 171.039 337.801 170.964 337.874C170.888 337.948 170.799 338.006 170.701 338.044C170.603 338.083 170.499 338.103 170.393 338.101C170.183 338.101 169.982 338.018 169.834 337.87C169.685 337.721 169.602 337.52 169.602 337.31V328.785C169.601 328.681 169.62 328.578 169.659 328.481C169.698 328.384 169.757 328.296 169.83 328.223C169.904 328.149 169.992 328.091 170.089 328.051C170.185 328.012 170.289 327.993 170.393 327.994H172.978C173.616 327.992 174.238 328.186 174.76 328.552C175.282 328.917 175.679 329.435 175.895 330.034C176.111 330.634 176.136 331.285 175.967 331.9C175.798 332.514 175.443 333.061 174.951 333.466C175.143 333.619 175.312 333.799 175.452 334C175.766 334.46 175.933 335.004 175.931 335.561C175.91 335.848 175.929 336.137 175.987 336.419C176.108 336.458 176.217 336.528 176.303 336.621C176.389 336.715 176.449 336.83 176.477 336.953ZM174.438 331.137C174.44 330.94 174.402 330.745 174.328 330.563C174.253 330.382 174.143 330.216 174.004 330.077C173.865 329.939 173.7 329.829 173.518 329.754C173.336 329.68 173.142 329.642 172.945 329.643H171.173V332.619H172.945C173.339 332.619 173.717 332.463 173.997 332.185C174.277 331.908 174.435 331.531 174.438 331.137Z" fill="#4E7AC7"/>
<path d="M178.829 337.355V328.83C178.827 328.726 178.847 328.622 178.886 328.525C178.925 328.429 178.983 328.341 179.057 328.267C179.131 328.193 179.219 328.135 179.315 328.096C179.412 328.057 179.516 328.037 179.62 328.039H181.325C182.624 328.1 183.85 328.659 184.748 329.6C185.646 330.541 186.147 331.791 186.147 333.092C186.147 334.393 185.646 335.644 184.748 336.585C183.85 337.526 182.624 338.085 181.325 338.146H179.62C179.41 338.146 179.209 338.062 179.06 337.914C178.912 337.766 178.829 337.564 178.829 337.355ZM180.433 336.541H181.325C182.206 336.491 183.034 336.106 183.64 335.464C184.246 334.823 184.583 333.974 184.583 333.092C184.583 332.21 184.246 331.361 183.64 330.72C183.034 330.079 182.206 329.693 181.325 329.643H180.433V336.541Z" fill="#4E7AC7"/>
<path d="M15 126.47H44.5077V114H15V126.47Z" fill="#EBEBEB"/>
<path d="M4.3869e-05 79.3296H29.5077V66.8602H4.3869e-05V79.3296Z" fill="#EBEBEB"/>
<path d="M240.62 113.47C240.827 113.117 241.129 112.829 241.491 112.638C241.853 112.447 242.262 112.361 242.67 112.39H244.04C244.439 112.369 244.837 112.457 245.189 112.646C245.542 112.835 245.836 113.116 246.04 113.46L247.46 115.93L255.46 111.29L254.04 108.83C253.837 108.476 253.736 108.072 253.75 107.664C253.765 107.255 253.893 106.859 254.12 106.52C254.373 106.127 254.603 105.727 254.81 105.32C254.996 104.95 255.281 104.639 255.635 104.423C255.989 104.207 256.396 104.095 256.81 104.1H259.65V94.82H256.81C256.397 94.8266 255.99 94.7166 255.636 94.5026C255.282 94.2886 254.996 93.9792 254.81 93.61C254.604 93.1967 254.373 92.796 254.12 92.41C253.893 92.0707 253.765 91.6746 253.75 91.2664C253.736 90.8582 253.837 90.4542 254.04 90.1L255.46 87.63L247.46 83L246.03 85.47C245.827 85.8158 245.534 86.0993 245.181 86.2898C244.828 86.4802 244.43 86.5702 244.03 86.55C243.8 86.55 243.57 86.55 243.34 86.55C243.11 86.55 242.89 86.55 242.66 86.55C242.252 86.5751 241.845 86.4876 241.484 86.2971C241.122 86.1067 240.82 85.8205 240.61 85.47L239.19 83L231.19 87.63L232.61 90.09C232.813 90.4442 232.914 90.8482 232.9 91.2564C232.885 91.6646 232.757 92.0607 232.53 92.4C232.283 92.7933 232.053 93.1933 231.84 93.6C231.655 93.9711 231.37 94.2825 231.016 94.4984C230.662 94.7142 230.254 94.8257 229.84 94.82H227V104.1H229.84C230.254 104.095 230.661 104.207 231.015 104.423C231.369 104.639 231.654 104.95 231.84 105.32C232.046 105.733 232.277 106.134 232.53 106.52C232.757 106.859 232.885 107.255 232.9 107.664C232.914 108.072 232.813 108.476 232.61 108.83L231.19 111.29L239.19 115.93L240.62 113.47ZM235.75 99.47C235.748 97.9664 236.192 96.4961 237.026 95.2449C237.86 93.9938 239.046 93.0181 240.435 92.4414C241.823 91.8646 243.352 91.7127 244.827 92.0048C246.301 92.2969 247.657 93.02 248.72 94.0824C249.784 95.1449 250.509 96.4991 250.803 97.9736C251.097 99.4481 250.947 100.977 250.372 102.366C249.798 103.755 248.823 104.943 247.573 105.778C246.323 106.614 244.854 107.06 243.35 107.06C241.339 107.055 239.411 106.253 237.989 104.831C236.567 103.409 235.765 101.481 235.76 99.47H235.75Z" fill="#EBEBEB"/>
</svg>
