<svg width="263" height="518" viewBox="0 0 263 518" fill="none" xmlns="http://www.w3.org/2000/svg">
<path d="M235.56 20.6899L262.04 20.6899V9.49994L235.56 9.49994V20.6899Z" fill="#EBEBEB"/>
<path d="M220.8 34.8004L234.15 34.5504L240.73 34.4403C242.92 34.4403 245.09 34.4403 247.28 34.4403L246.83 34.8804V23.6903L247.33 24.1903L234.08 24.0504C229.66 24.0504 225.25 23.9404 220.84 23.8804L221.11 23.6103C221.11 25.4403 221.02 27.2803 220.98 29.1503L220.8 34.8004ZM220.8 34.8004L220.65 29.2704C220.65 27.4004 220.54 25.5103 220.52 23.6103V23.3404H220.8C225.21 23.3404 229.62 23.1803 234.04 23.1703L247.28 23.1104H247.78V23.6103L247.72 34.8004V35.2503H247.28C245.04 35.2503 242.81 35.2503 240.58 35.1903L233.92 35.0803L220.8 34.8004Z" fill="#EBEBEB"/>
<path d="M222.46 97.2202C222.814 97.4267 223.102 97.7283 223.293 98.0906C223.484 98.453 223.57 98.8617 223.54 99.2702C223.54 99.4902 223.54 99.7202 223.54 99.9502C223.54 100.18 223.54 100.41 223.54 100.64C223.561 101.039 223.473 101.437 223.284 101.789C223.095 102.142 222.814 102.436 222.47 102.64L220 104.06L224.64 112.06L227.08 110.71C227.435 110.509 227.839 110.41 228.246 110.424C228.654 110.438 229.05 110.565 229.39 110.79C229.78 111.04 230.18 111.28 230.59 111.49C230.954 111.67 231.261 111.948 231.477 112.292C231.692 112.636 231.807 113.034 231.81 113.44V116.28H241.08V113.44C241.08 113.035 241.194 112.638 241.408 112.293C241.621 111.949 241.927 111.671 242.29 111.49C242.703 111.281 243.104 111.047 243.49 110.79C243.83 110.565 244.226 110.438 244.634 110.424C245.041 110.41 245.445 110.509 245.8 110.71L248.27 112.13L252.9 104.13L250.43 102.7C250.086 102.495 249.805 102.201 249.615 101.849C249.425 101.497 249.333 101.1 249.35 100.7C249.35 100.47 249.35 100.25 249.35 100.02C249.35 99.7902 249.35 99.5602 249.35 99.3402C249.324 98.9322 249.411 98.5248 249.601 98.1631C249.792 97.8014 250.079 97.4993 250.43 97.2902L252.9 95.8702L248.27 87.8702L245.81 89.2902C245.456 89.4936 245.052 89.5939 244.644 89.5798C244.235 89.5656 243.839 89.4376 243.5 89.2102C243.113 88.9635 242.713 88.7335 242.3 88.5202C241.929 88.3356 241.617 88.0499 241.402 87.6961C241.186 87.3422 241.074 86.9346 241.08 86.5202V83.6802H231.83V86.5202C231.835 86.9344 231.723 87.3415 231.507 87.6951C231.291 88.0488 230.98 88.3346 230.61 88.5202C230.197 88.7263 229.796 88.9567 229.41 89.2102C229.069 89.4374 228.671 89.5652 228.261 89.5793C227.852 89.5935 227.446 89.4933 227.09 89.2902L224.64 87.8702L220 95.8702L222.46 97.2202ZM236.46 92.3502C237.964 92.3482 239.434 92.7923 240.685 93.6262C241.936 94.46 242.912 95.6463 243.489 97.0348C244.065 98.4234 244.217 99.9518 243.925 101.427C243.633 102.902 242.91 104.257 241.848 105.321C240.785 106.385 239.431 107.109 237.956 107.403C236.482 107.697 234.953 107.548 233.564 106.973C232.175 106.398 230.987 105.424 230.152 104.174C229.316 102.924 228.87 101.454 228.87 99.9502C228.873 97.9371 229.673 96.007 231.095 94.5826C232.518 93.1582 234.447 92.3555 236.46 92.3502Z" fill="#EBEBEB"/>
<path d="M46.5517 207.786H147.549V186.87H46.5517V207.786Z" fill="#C7C7C7"/>
<path d="M120.443 207.613L123.264 234.345L158.187 484.592H168.163L140.61 234.345L138.379 207.613H120.443Z" fill="#C7C7C7"/>
<path d="M25.9092 484.592H35.8995L70.8224 234.345L73.6439 207.613H55.7074L53.4761 234.345L25.9092 484.592Z" fill="#C7C7C7"/>
<path d="M42.766 402.842H154.171V396.565H42.766V402.842Z" fill="#C7C7C7"/>
<path d="M140.61 233.41H123.264L120.443 207.613H138.379L140.61 233.41Z" fill="#A6A6A6"/>
<path d="M53.4761 233.41H70.8224L73.6438 207.613H55.7073L53.4761 233.41Z" fill="#A6A6A6"/>
<path d="M60.0258 86.3479C64.3444 88.5647 65.0929 96.2086 78.5381 95.7912C80.4527 95.7912 82.0218 94.9706 83.778 95.6184C86.3547 96.5541 88.3845 98.6126 90.6733 100.11C92.5142 101.347 94.6102 102.154 96.8057 102.471C101.018 102.969 105.272 101.986 108.84 99.6923C111.043 98.3391 112.885 96.4677 115.016 94.9994C117.146 93.5311 130.001 90.4217 132.175 83.1953C133.614 78.6032 133.341 73.3777 127.856 66.6695C126.593 65.4732 125.733 63.9137 125.395 62.207C125.398 60.7113 125.738 59.2354 126.388 57.8884C127.142 56.3596 127.418 54.6389 127.18 52.9509C126.568 51.3367 125.581 49.8911 124.301 48.733C122.285 46.3002 122.66 42.7878 124.301 38.4692C124.951 36.6367 125.173 34.6793 124.948 32.7476C124.724 30.816 124.059 28.9616 123.005 27.3273C121.684 25.4549 120.126 23.7614 118.37 22.289C115.908 19.9569 115.491 17.7976 114.382 14.5011C112.295 8.16721 109.027 5.33135 105.184 3.3736C101.714 1.63177 101.83 2.29395 98.1157 2.85537C94.3528 0.559136 89.9231 -0.394806 85.5486 0.149052C81.4891 0.667282 78.135 3.38799 75.0689 5.99353C72.3338 8.32557 69.829 10.8303 69.685 14.7602C69.5987 17.0203 70.1457 19.266 70.0449 21.526C69.901 24.4051 68.3031 26.2333 66.3885 28.0471C63.5337 30.4749 61.5644 33.7807 60.7888 37.4472C60.2849 40.5134 63.3079 45.2782 59.7667 49.8127C56.6573 53.8146 51.1295 58.4499 49.69 63.4594C45.2995 79.1071 55.952 84.2174 60.0258 86.3479Z" fill="#263238"/>
<path d="M112.093 94.7833C118.269 93.8477 127.755 95.0137 131.037 88.1327C132.336 87.0743 133.365 85.7221 134.038 84.1878C134.711 82.6534 135.01 80.981 134.91 79.3084C134.486 75.7362 132.832 72.4229 130.231 69.9371C128.723 68.5169 127.406 66.9053 126.316 65.1435C125.967 63.7708 125.712 62.3761 125.553 60.9689C125.807 59.168 126.291 57.4071 126.992 55.729C125.639 58.6081 124.387 61.7174 125.639 64.8844C125.823 65.3361 126.04 65.774 126.287 66.1944C126.737 67.8599 127.354 69.4756 128.13 71.0168C130.159 75.0475 132.016 78.6894 131.743 83.3967C131.695 84.9692 131.317 86.5141 130.634 87.9312C127.963 90.2742 124.626 91.7237 121.09 92.077C121.004 92.077 121.004 92.2354 121.09 92.221C124.288 91.8977 127.355 90.7846 130.015 88.9821C126.431 94.1212 118.096 93.4158 112.064 94.6106C111.906 94.6106 111.964 94.7977 112.093 94.7833ZM131.512 86.9667V86.8372C132.581 83.0228 132.307 78.957 130.735 75.321C129.756 72.9169 128.288 70.7577 127.323 68.3393C127.165 67.9218 127.007 67.5043 126.863 67.0725C128.302 68.9583 130.116 70.5273 131.469 72.3699C134.348 76.3718 135.27 81.1366 132.52 85.4696C132.223 85.9934 131.886 86.4939 131.512 86.9667Z" fill="#263238"/>
<path d="M117.564 21.3529C119.868 23.3553 122.064 25.4792 124.142 27.7156C125.592 29.1834 126.462 31.1266 126.59 33.1858C126.643 35.2605 125.988 37.2915 124.733 38.9439C124.272 39.6349 123.797 40.3834 123.379 41.06C123.281 42.4002 123.493 43.745 123.998 44.9899C125.006 47.3652 127.237 48.8335 128.317 51.2375C129.987 55.1242 128.13 58.3199 126.489 61.7892C127.684 58.9101 129.368 56.1319 128.418 52.9073C127.669 50.273 125.74 48.8478 124.286 46.703C123.401 45.3406 122.904 43.7632 122.847 42.1397C121.551 44.7596 121.105 47.5235 123.394 50.273C123.495 50.4026 123.394 50.5753 123.221 50.4601C120.342 47.5811 121.091 43.9679 122.861 40.8729C122.97 39.0447 123.374 37.2462 124.056 35.5466C124.056 35.3739 124.387 35.5466 124.358 35.6762C124.099 37.0293 123.754 38.3825 123.567 39.7213L123.869 39.275C126.172 35.9785 127.079 32.0774 124.43 28.6225C122.444 25.9882 119.737 23.9153 117.521 21.4249C117.42 21.3961 117.506 21.2953 117.564 21.3529Z" fill="#263238"/>
<path d="M134.881 293.165C134.881 293.165 109.099 350.429 109.071 350.472C104.09 361.398 99.9008 371.057 98.2166 376.268C98.2054 376.296 98.2054 376.327 98.2166 376.355C97.6844 377.528 97.433 378.81 97.4824 380.097C97.4824 380.097 97.4824 380.169 97.4824 380.184C99.7281 383.883 185.869 426.249 189.382 426.753C192.894 427.256 194.492 417.28 192.462 412.962C190.433 408.643 164.694 377.665 164.694 377.665L189.972 320.17L134.881 293.165Z" fill="#EB9481"/>
<path d="M114.368 338.668C114.368 338.668 109.099 350.386 109.07 350.429C104.09 361.355 99.9006 371.014 98.2163 376.225C98.2051 376.253 98.2051 376.284 98.2163 376.312C97.8205 377.525 97.5739 378.782 97.4822 380.054C97.4822 380.054 97.4822 380.126 97.4822 380.141C99.7278 383.84 185.869 426.206 189.381 426.709C192.894 427.213 194.492 417.237 192.462 412.919C190.432 408.6 164.694 377.622 164.694 377.622L170.236 365.76L114.368 338.668Z" fill="#EBEBEB"/>
<path d="M189.353 426.637C185.84 426.177 99.6703 383.855 97.4103 380.155C96.5322 378.716 101.959 365.846 108.926 350.429L109.142 349.939L165.054 376.628L164.564 377.564C164.564 377.564 190.317 408.528 192.361 412.847C194.406 417.165 192.851 427.112 189.353 426.637Z" fill="#263238"/>
<path d="M192.189 424.191C193.441 425.544 190.562 430.568 189.31 430.438C188.057 430.309 94.3009 383.74 92.8613 382.588C91.4218 381.437 94.8335 376.01 96.8344 376.629C98.8354 377.248 192.189 424.191 192.189 424.191Z" fill="#4E7AC7"/>
<path d="M169.214 380.025C164.017 376.153 156.603 373.59 150.226 375.519C149.982 375.519 150.097 375.951 150.313 375.98C156.642 376.898 162.853 378.495 168.839 380.745C168.93 380.767 169.026 380.758 169.111 380.72C169.196 380.681 169.266 380.615 169.309 380.532C169.353 380.449 169.367 380.354 169.349 380.262C169.332 380.17 169.284 380.087 169.214 380.025Z" fill="white"/>
<path d="M172.122 384.546C166.925 380.659 159.511 378.111 153.134 380.04C152.89 380.112 153.005 380.457 153.221 380.5C159.549 381.413 165.761 383.006 171.747 385.251C171.839 385.284 171.939 385.283 172.03 385.249C172.121 385.214 172.196 385.147 172.242 385.061C172.287 384.975 172.3 384.876 172.278 384.781C172.256 384.686 172.201 384.602 172.122 384.546Z" fill="white"/>
<path d="M175.03 389.052C169.833 385.179 162.405 382.617 156.042 384.546C155.797 384.632 155.898 384.978 156.042 385.006C162.376 385.922 168.593 387.52 174.583 389.771C174.679 389.83 174.794 389.849 174.903 389.824C175.012 389.798 175.107 389.73 175.166 389.635C175.225 389.539 175.244 389.424 175.219 389.315C175.193 389.205 175.125 389.111 175.03 389.052Z" fill="white"/>
<path d="M118.701 366.58C113.979 360.39 104.306 367.703 109.07 373.908C113.835 380.112 123.423 372.785 118.701 366.58Z" fill="white"/>
<path d="M150.083 243.386C149.507 260.041 117.405 331.974 117.405 331.974L173.705 357.886C173.705 357.886 219.151 277.891 214.933 241.039C211.334 209.773 132.664 151.947 120.04 135.652C118.168 133.233 118.802 123.502 118.802 123.502H67.7273V135.695C87.2329 177.095 145.577 226.759 149.895 241.342C150.066 242.009 150.129 242.699 150.083 243.386Z" fill="#37474F"/>
<path d="M173.389 345.865C164.118 341.417 166.839 342.555 157.554 338.222C152.991 336.106 130.102 325.381 125.496 324.186C125.471 324.175 125.442 324.174 125.417 324.183C125.391 324.193 125.37 324.212 125.359 324.237C125.347 324.261 125.346 324.29 125.356 324.315C125.365 324.341 125.384 324.362 125.409 324.373C129.354 327.051 152.487 337.228 157.079 339.258C166.479 343.404 163.83 342.137 173.273 346.139C173.432 346.225 173.561 345.937 173.389 345.865Z" fill="#263238"/>
<path d="M80.5679 144.404C95.9844 167.901 113.22 190.153 132.117 210.953C136.753 216.006 141.517 220.915 146.282 225.838C150.313 229.998 154.43 234.619 155.423 240.536C156.546 247.129 153.984 253.693 151.925 259.84C149.665 266.606 147.391 273.357 144.987 280.079C142.396 287.277 131.801 313.462 130.059 316.989C129.181 318.745 144.08 281.001 146.498 274.033C148.917 267.066 151.364 260.142 153.422 253.088C154.615 249.497 155.104 245.709 154.862 241.932C154.394 238.291 152.941 234.846 150.658 231.971C146.513 226.443 141.129 221.75 136.422 216.712C126.662 206.261 117.357 195.407 108.509 184.15C98.4395 171.434 89.041 158.201 80.352 144.505C80.3454 144.491 80.3416 144.475 80.3409 144.46C80.3402 144.444 80.3427 144.429 80.348 144.414C80.3533 144.399 80.3615 144.386 80.3721 144.374C80.3827 144.363 80.3954 144.353 80.4096 144.347C80.4238 144.34 80.4391 144.336 80.4547 144.336C80.4704 144.335 80.486 144.337 80.5007 144.343C80.5154 144.348 80.5289 144.356 80.5404 144.367C80.552 144.377 80.5613 144.39 80.5679 144.404Z" fill="#263238"/>
<path d="M50.3378 418.015C50.3378 418.015 47.833 480.792 47.8186 480.836C48.1065 492.841 48.5672 503.364 49.2581 508.777C49.2522 508.81 49.2522 508.844 49.2581 508.877C49.3247 510.173 49.6945 511.436 50.3378 512.563V512.635C53.9654 514.967 149.982 515.514 153.336 514.405C156.69 513.297 153.796 503.638 150.097 500.643C146.397 497.649 109.689 481.008 109.689 481.008L111.604 418.274L50.3378 418.015Z" fill="#EB9481"/>
<path d="M48.2795 468.412C48.2795 468.412 47.79 480.792 47.7756 480.835C48.0635 492.841 48.5242 503.364 49.2152 508.777C49.2092 508.81 49.2092 508.844 49.2152 508.877C49.4453 510.145 49.8221 511.382 50.338 512.563V512.635C53.9656 514.967 149.982 515.514 153.336 514.405C156.69 513.297 153.797 503.637 150.097 500.643C146.398 497.649 109.69 481.008 109.69 481.008L110.078 468.312L48.2795 468.412Z" fill="#EBEBEB"/>
<path d="M153.264 514.29C149.91 515.398 53.9365 514.952 50.2513 512.62C48.8118 511.756 48.1064 497.764 47.689 480.821V480.288L109.589 479.885V480.936C109.589 480.936 146.268 497.548 150.01 500.542C153.753 503.537 156.632 513.196 153.264 514.29Z" fill="#263238"/>
<path d="M154.747 510.864C156.46 511.54 156.071 517.313 154.819 517.759C153.566 518.205 48.8983 517.27 47.1133 516.867C45.3283 516.464 46.0193 510.072 48.0922 509.755C50.1651 509.439 154.747 510.864 154.747 510.864Z" fill="#4E7AC7"/>
<path d="M114.8 481.181C108.437 479.957 100.635 480.907 95.7548 485.413C95.5676 485.586 95.7548 485.859 96.0139 485.787C102.099 483.857 108.372 482.583 114.728 481.987C114.835 481.996 114.941 481.963 115.023 481.894C115.106 481.825 115.157 481.727 115.167 481.62C115.176 481.513 115.143 481.407 115.074 481.324C115.005 481.242 114.907 481.19 114.8 481.181Z" fill="white"/>
<path d="M119.435 483.959C113.072 482.735 105.285 483.686 100.39 488.191C100.203 488.364 100.39 488.637 100.664 488.566C106.748 486.633 113.022 485.359 119.378 484.765C119.484 484.773 119.59 484.738 119.671 484.667C119.752 484.597 119.802 484.498 119.809 484.391C119.817 484.284 119.782 484.178 119.712 484.097C119.642 484.016 119.542 483.967 119.435 483.959Z" fill="white"/>
<path d="M123.97 486.752C117.607 485.529 109.805 486.464 104.925 490.984C104.723 491.157 104.925 491.431 105.184 491.359C111.268 489.426 117.542 488.152 123.898 487.558C124.004 487.568 124.111 487.535 124.193 487.466C124.275 487.397 124.327 487.298 124.337 487.191C124.346 487.084 124.313 486.978 124.244 486.896C124.175 486.813 124.076 486.762 123.97 486.752Z" fill="white"/>
<path d="M63.4806 491.129C56.5277 487.616 51.0575 498.413 58.0104 501.925C64.9633 505.437 70.4911 494.655 63.4806 491.129Z" fill="white"/>
<path d="M111.374 460.826L48.6104 461.344C48.6104 461.344 59.0613 205.008 52.0652 196.63C35.4243 176.721 38.073 150.176 49.2869 123.516H106.479C106.479 123.516 103.73 163.996 104.003 165.176C121.594 241.903 111.374 460.826 111.374 460.826Z" fill="#37474F"/>
<path d="M107.919 447.971C94.229 446.906 58.1689 448.072 53.62 448.763C53.5989 448.774 53.5811 448.79 53.5687 448.811C53.5564 448.831 53.5498 448.854 53.5498 448.878C53.5498 448.902 53.5564 448.925 53.5687 448.946C53.5811 448.966 53.5989 448.983 53.62 448.993C58.1257 449.9 99.4689 448.605 107.905 448.274C107.937 448.265 107.967 448.247 107.988 448.22C108.009 448.194 108.022 448.162 108.023 448.128C108.025 448.094 108.016 448.061 107.997 448.032C107.978 448.004 107.951 447.983 107.919 447.971Z" fill="#263238"/>
<path d="M107.832 139.25C107.257 146.448 107.544 158.856 103.355 159.044C99.1664 159.231 99.9006 144.116 99.7854 140.632C99.6703 137.48 98.5906 137.911 98.4755 141.625C98.1588 151.702 98.4755 160.613 103.773 160.195C109.07 159.778 109.085 144.159 108.955 140.589C108.883 138.746 108.005 136.961 107.832 139.25Z" fill="#263238"/>
<path d="M103.6 159.519C103.34 162.064 103.393 164.631 103.759 167.163C103.831 167.364 104.637 167.163 104.723 167.033C105.212 165.983 104.824 161.031 104.953 159.692C104.976 159.512 104.927 159.331 104.816 159.188C104.761 159.117 104.693 159.058 104.616 159.013C104.538 158.969 104.452 158.94 104.363 158.929C104.184 158.906 104.003 158.955 103.859 159.066C103.716 159.177 103.623 159.34 103.6 159.519Z" fill="#263238"/>
<path d="M105.4 168.444C107.185 174.778 109.013 186.899 108.581 190.037C108.581 190.325 108.12 190.426 108.063 190.124C107.487 186.726 104.953 170.388 104.694 168.675C104.435 166.962 104.896 166.674 105.4 168.444Z" fill="#263238"/>
<path d="M94.3871 173.44C95.2225 172.621 96.1175 171.866 97.0646 171.179C98.0003 170.445 98.936 169.74 99.9437 169.035C101.93 167.595 103.974 166.357 106.062 165.119C108.149 163.881 110.193 162.801 112.324 161.722C114.454 160.642 116.901 159.75 119.118 158.641C119.248 158.569 119.363 158.756 119.233 158.828C117.132 159.994 115.174 161.448 113.13 162.729C111.086 164.011 109.041 165.335 106.983 166.616C104.924 167.897 102.981 169.15 100.966 170.388C99.9197 171.04 98.8545 171.674 97.77 172.288C96.7994 172.913 95.7897 173.476 94.747 173.972C94.4015 174.102 94.2 173.655 94.3871 173.44Z" fill="#263238"/>
<path d="M58.0681 327.454C58.975 306.912 60.4145 283.966 60.76 263.452C60.9231 253.174 60.9999 242.891 60.9903 232.603C60.9903 222.397 60.9903 208.765 60.5297 198.573C60.2562 193.391 51.1296 189.389 49.2726 174.303C47.986 165.711 48.6703 156.939 51.2735 148.65C51.9211 146.635 52.6854 144.66 53.5624 142.734C53.5624 142.604 53.8071 142.734 53.7495 142.849C50.0965 151.32 48.579 160.559 49.3302 169.754C49.5956 174.389 50.5664 178.957 52.2092 183.3C54.6564 189.389 60.688 194.326 61.0047 197.565C61.4798 202.388 61.5517 206.562 61.6093 211.413C61.6669 216.265 61.7245 221.49 61.7533 226.529C61.8109 236.816 61.7821 247.099 61.6669 257.378C61.4366 277.848 60.8992 298.308 60.0546 318.759C59.1909 339.215 53.8935 441.637 53.548 443.998C53.548 444.257 53.0873 444.199 53.1017 443.998C53.7351 433.676 57.1468 347.996 58.0681 327.454Z" fill="#263238"/>
<path d="M91.9688 76.2711C105.587 104.371 122.875 134.802 139.056 139.61C154.459 144.145 184.314 106.328 193.758 96.4245C197.126 92.8257 169.761 72.2404 165.514 75.3642C157.51 81.2519 143.13 97.2882 140.711 96.7268C138.293 96.1653 118.096 76.9621 99.9006 60.8394C88.8739 51.065 82.5399 56.7943 91.9688 76.2711Z" fill="#EB9481"/>
<path d="M217.438 78.589C221.181 77.0199 250 76.0986 250 69.8511C250 63.6036 213.307 65.3598 213.307 65.3598L217.438 78.589Z" fill="#EB9481"/>
<path d="M162.16 79.3234C167.198 73.0614 171.632 66.3676 176.008 65.0721C179.046 64.2083 211.665 65.6191 216.776 65.3168C221.886 65.0145 240.053 65.4751 240.485 69.9377C241.075 76.2572 219.54 76.1996 217.251 79.4385C209.319 90.5804 179.161 107.077 179.161 107.077L162.16 79.3234Z" fill="#EB9481"/>
<path d="M240.96 70.0382C240.644 68.8532 239.901 67.8273 238.872 67.1591C236.641 65.6045 233.704 65.4605 231.084 65.259C227.112 64.8875 223.115 64.8538 219.136 65.1582C219.117 65.1582 219.099 65.1658 219.086 65.1793C219.072 65.1928 219.064 65.2111 219.064 65.2302C219.064 65.2493 219.072 65.2676 219.086 65.2811C219.099 65.2946 219.117 65.3022 219.136 65.3022C222.116 65.3022 225.096 65.3741 228.076 65.6189C230.805 65.7333 233.513 66.1484 236.152 66.8568C237.344 67.1738 238.422 67.8228 239.261 68.7282C239.558 69.0444 239.771 69.4305 239.879 69.8508C239.987 70.271 239.988 70.7118 239.88 71.1322C239.002 73.8817 233.575 74.7023 231.07 75.2637C227.802 75.9978 224.405 76.7032 221.109 77.3078C220.965 77.3078 221.109 77.5669 221.181 77.5381C224.592 76.8616 228.205 76.588 231.632 75.969C234.41 75.4652 237.39 74.9038 239.635 73.09C240.119 72.7554 240.499 72.2923 240.733 71.753C240.967 71.2137 241.045 70.6198 240.96 70.0382Z" fill="#263238"/>
<path d="M190.232 56.4302L191.182 51.57L247.893 62.6449C248.406 62.7452 248.859 63.0453 249.151 63.4791C249.443 63.913 249.551 64.4452 249.45 64.9585L249.257 65.9475C249.157 66.4608 248.857 66.9133 248.423 67.2054C247.989 67.4976 247.457 67.6054 246.944 67.5051L190.232 56.4302Z" fill="#4E7AC7"/>
<path opacity="0.1" d="M191.175 51.5803L190.226 56.4404L197.064 57.7758L198.013 52.9157L191.175 51.5803Z" fill="#16193B"/>
<path d="M169.487 45.3931L167.817 54.0302C167.245 56.9509 167.856 59.9794 169.516 62.4496C171.176 64.9198 173.75 66.6292 176.67 67.2019C179.591 67.7746 182.62 67.1636 185.09 65.5033C187.56 63.843 189.269 61.2695 189.842 58.3488L191.526 49.7117C191.81 48.2646 191.806 46.7758 191.514 45.3303C191.222 43.8848 190.648 42.511 189.826 41.2872C189.003 40.0634 187.947 39.0137 186.719 38.1979C185.49 37.3822 184.113 36.8164 182.666 36.5328C181.219 36.2493 179.73 36.2535 178.285 36.5453C176.839 36.8371 175.465 37.4108 174.242 38.2335C171.77 39.8951 170.06 42.4705 169.487 45.3931ZM188 47.538C187.697 48.8161 187.006 49.969 186.021 50.8379C185.036 51.7067 183.806 52.2487 182.501 52.3892C183.651 53.0184 184.583 53.9843 185.169 55.1575C185.756 56.3307 185.97 57.6552 185.783 58.9534C185.106 62.3795 181.335 64.5388 177.347 63.7614C173.36 62.9841 170.668 59.558 171.33 56.1463C171.639 54.869 172.334 53.7179 173.32 52.8498C174.307 51.9818 175.537 51.4389 176.843 51.2951C175.687 50.6722 174.751 49.7074 174.163 48.5325C173.576 47.3575 173.366 46.0299 173.561 44.7309C174.238 41.2904 178.009 39.1599 181.997 39.9373C185.984 40.7146 188.676 44.1119 188 47.538Z" fill="#4E7AC7"/>
<path d="M191.604 49.3807L189.796 58.6348C189.7 59.1264 190.021 59.6027 190.513 59.6987L190.965 59.787C191.456 59.883 191.933 59.5623 192.029 59.0707L193.836 49.8167C193.932 49.3251 193.611 48.8488 193.12 48.7528L192.667 48.6645C192.176 48.5685 191.7 48.8891 191.604 49.3807Z" fill="#4E7AC7"/>
<path d="M193.837 49.8211L192.03 59.0752C191.934 59.5668 192.254 60.0432 192.746 60.1392L193.198 60.2274C193.69 60.3234 194.166 60.0028 194.262 59.5112L196.069 50.2571C196.165 49.7655 195.845 49.2892 195.353 49.1932L194.901 49.1049C194.409 49.0089 193.933 49.3296 193.837 49.8211Z" fill="#4E7AC7"/>
<path d="M234.309 57.9168L235.993 58.2479L236.944 53.3391L238.397 53.6271L237.894 56.1894L239.578 56.5205L240.082 53.9581L241.349 54.2029L240.571 58.2479L242.255 58.579L243.047 54.5339L244.861 54.8938L243.81 60.292L245.494 60.6231L246.545 55.2249L248.258 55.556L246.919 62.4513L231.833 59.5147L233.172 52.605L235.259 53.0225L234.309 57.9168Z" fill="#4E7AC7"/>
<path d="M41.0674 132.182L121.422 133.507L115.117 109.438C117.213 106.417 118.623 102.974 119.247 99.3511C119.871 95.7278 119.695 92.0117 118.73 88.4638C116.801 81.3814 107.66 70.7721 102.046 63.9919C88.399 47.5813 76.5373 54.9949 72.7513 59.2127C58.3129 75.3786 41.0674 132.182 41.0674 132.182Z" fill="#4E7AC7"/>
<path d="M80.6397 68.5699V63.9922L83.6771 67.3895L86.9592 66.3674L85.3613 69.2464L86.9016 70.8587L84.512 71.1034V74.2128L81.8921 72.0247L79.7616 73.7954L80.0063 71.1754L76.8969 69.7359L80.6397 68.5699ZM114.872 120.004L112.338 122.322L110.006 121.084L110.827 123.747L107.804 125.316L110.683 126.554L109.977 128.857L112.079 128.051L114.152 130.671L114.469 127.245L118.787 125.805L114.584 123.977L114.872 120.004ZM85.4909 102.917L87.9525 107.811L90.3853 103.133L95.0206 103.939L92.559 99.0159L95.9994 95.7337L91.1194 95.9065L90.1406 91.1272L87.5782 96.0792L81.0716 95.5754L84.9007 99.5341L81.3595 102.255L85.4909 102.917ZM104.651 74.6303L105.831 72.6437L103.615 72.8453L102.852 71.0171L101.657 73.0036L99.7134 72.5286L100.879 74.2272L99.4399 75.6667L101.786 75.4508L103.082 77.8692L103.615 75.6236L105.371 76.257L104.651 74.6303ZM66.9642 127.058L68.1446 125.086L65.9421 125.273L65.1648 123.445L63.9844 125.446L62.041 124.956L63.207 126.655L61.7675 128.094L64.1139 127.893L65.4095 130.311L65.9421 128.051L67.7128 128.699L66.9642 127.058ZM80.1791 91.372L81.3595 89.3998L79.1426 89.587L78.3796 87.7587L77.1992 89.7597L75.2415 89.2703L76.4075 90.9689L74.968 92.4084L77.3144 92.2069L78.61 94.6109L79.1426 92.3652L80.9132 92.9986L80.1791 91.372ZM65.8702 96.727L65.4671 95.4314L64.6898 96.4823L63.5813 96.0936L63.9844 97.4036L63.0199 98.0658L64.2147 98.2241V99.4333L65.0352 98.3105L66.6043 98.6992L65.827 97.5763L66.8059 97.0437L65.8702 96.727ZM103.168 127.605L102.765 126.309L101.973 127.36L100.879 126.986L101.282 128.281L100.304 128.958L101.513 129.102V130.311L102.333 129.203L103.902 129.577L103.125 128.454L104.104 127.936L103.168 127.605ZM114.325 89.9756L115.347 89.0687L114.065 88.7952L113.95 87.6292L112.928 88.5361L111.921 87.9315L112.28 89.0831L111.201 89.6301L112.554 89.918L112.856 91.5159L113.562 90.3355L114.44 91.0121L114.325 89.9756ZM94.1712 114.289L95.1789 113.382L93.8977 113.109L93.7826 111.943L92.7749 112.85L91.7528 112.245L92.1127 113.397L91.0331 113.944L92.3862 114.232L92.6885 115.83L93.3939 114.649L94.272 115.326L94.1712 114.289ZM52.6841 121.919L53.6918 121.012L52.4106 120.724L52.3098 119.558L51.2878 120.479L50.3377 119.86L50.6832 121.026L49.6035 121.559L50.9567 121.861L51.2734 123.445L51.9643 122.279L52.8424 122.955L52.6841 121.919Z" fill="white"/>
<path d="M93.6244 108.027C97.0605 107.711 100.515 107.653 103.96 107.854C105.673 107.97 107.372 108.171 109.071 108.416C109.905 108.531 110.755 108.617 111.604 108.704C112.493 108.812 113.392 108.812 114.282 108.704C114.282 108.704 114.382 108.804 114.282 108.833C113.46 109.018 112.629 109.152 111.791 109.236C110.971 109.287 110.149 109.287 109.33 109.236C107.602 109.121 105.86 108.934 104.133 108.819C100.635 108.56 97.1368 108.315 93.6244 108.315C93.5236 108.344 93.5236 108.041 93.6244 108.027Z" fill="#263238"/>
<path d="M85.8221 112.533C88.5531 111.737 91.326 111.093 94.1281 110.604C95.5677 110.374 97.0072 110.215 98.3603 110.1L100.39 109.956C101.139 109.956 101.83 109.956 102.636 109.956C102.722 109.956 102.737 110.071 102.636 110.086C101.93 110.158 101.196 110.345 100.534 110.446L98.4323 110.777L94.2289 111.439C91.4266 111.842 88.6244 112.293 85.8221 112.792C85.7069 112.792 85.6781 112.576 85.8221 112.533Z" fill="#263238"/>
<path d="M80.5679 58.3061C80.9134 59.7456 87.7656 69.0306 94.3154 68.7139C96.4459 68.5987 96.3883 56.9385 96.3883 56.9385L96.5755 56.0748L99.2818 43.9972L85.1168 34.9282L83.0727 33.7334C83.0727 33.7334 82.5545 37.0875 81.9499 41.2621C81.9499 41.4636 81.9499 41.6508 81.9499 41.8523C81.9499 42.0539 81.8635 42.313 81.8347 42.5433C81.7339 43.1623 81.6332 43.7957 81.5612 44.4291C81.4892 45.0625 81.4316 45.3936 81.3741 45.8686L81.2013 47.3945C80.7458 51.0134 80.5342 54.6588 80.5679 58.3061Z" fill="#EB9481"/>
<path d="M82.0073 41.2477C83.2358 44.6346 85.1849 47.7144 87.72 50.2743C90.2551 52.8343 93.3158 54.8134 96.6905 56.0748L99.2816 43.9972L85.1167 34.9282L83.0726 33.7334C83.0726 33.7334 82.5543 37.0731 82.0073 41.2477Z" fill="#263238"/>
<path d="M116.311 24.2902C120.529 45.5952 108.235 50.5184 103.643 51.4253C99.483 52.2458 85.1742 54.4915 78.7827 33.7479C72.3912 13.0043 80.9707 4.3096 90.414 1.93439C99.8573 -0.44083 112.108 2.99963 116.311 24.2902Z" fill="#EB9481"/>
<path d="M110.093 21.0368C109.618 21.1448 109.137 21.2265 108.653 21.2815C108.148 21.4474 107.603 21.4474 107.098 21.2815C106.952 21.1933 106.84 21.0596 106.777 20.9009C106.715 20.7422 106.706 20.5674 106.753 20.4034C106.896 20.0928 107.12 19.8262 107.401 19.6312C107.682 19.4363 108.01 19.3202 108.351 19.295C109.03 19.1363 109.745 19.2391 110.352 19.5829C110.476 19.6734 110.573 19.7972 110.631 19.9401C110.688 20.083 110.705 20.2393 110.678 20.391C110.651 20.5428 110.581 20.6838 110.478 20.798C110.374 20.9122 110.241 20.995 110.093 21.0368Z" fill="#263238"/>
<path d="M94.963 25.3981C95.4481 25.324 95.9287 25.223 96.4025 25.0958C96.9348 25.0651 97.4415 24.8574 97.8421 24.5056C97.9509 24.3739 98.0105 24.2085 98.0105 24.0377C98.0105 23.8669 97.9509 23.7015 97.8421 23.5699C97.5999 23.328 97.2961 23.1571 96.9636 23.0759C96.6311 22.9947 96.2827 23.0062 95.9563 23.1092C95.2631 23.1986 94.63 23.5486 94.1857 24.0881C94.086 24.2182 94.0275 24.3751 94.0178 24.5387C94.0081 24.7023 94.0476 24.8651 94.1312 25.006C94.2149 25.147 94.3388 25.2596 94.4871 25.3295C94.6353 25.3994 94.8011 25.4233 94.963 25.3981Z" fill="#263238"/>
<path d="M98.1588 28.1333C98.1588 28.1333 98.058 28.1333 98.0724 28.2773C98.3315 29.7168 98.3891 31.4442 97.1511 32.1208C97.1511 32.1208 97.1511 32.2216 97.1511 32.2072C98.749 31.7321 98.6482 29.4577 98.1588 28.1333Z" fill="#263238"/>
<path d="M96.6328 26.7947C94.2576 26.9675 94.7758 31.7179 96.9783 31.5452C99.1807 31.3724 98.6193 26.6508 96.6328 26.7947Z" fill="#263238"/>
<path d="M95.7262 27.1546C95.3375 27.4569 94.992 27.9752 94.4882 28.0903C93.9843 28.2055 93.4373 27.7592 93.0486 27.3274C93.135 28.2343 93.5813 29.1268 94.5745 29.1556C95.5678 29.1844 96.0141 28.3062 96.1436 27.3706C96.0573 27.2554 95.8845 27.0251 95.7262 27.1546Z" fill="#263238"/>
<path d="M107.185 26.7515C107.185 26.7515 107.3 26.7515 107.3 26.8666C107.415 28.3062 107.775 30.0192 109.157 30.3647V30.451C107.501 30.3935 107.041 28.1622 107.185 26.7515Z" fill="#263238"/>
<path d="M108.336 25.0817C110.683 24.6642 111.345 29.4003 109.171 29.7745C106.998 30.1488 106.364 25.4416 108.336 25.0817Z" fill="#263238"/>
<path d="M109.358 25.2545C109.776 25.4561 110.208 25.8591 110.654 25.8159C111.1 25.7728 111.489 25.2113 111.748 24.6787C111.748 24.6787 111.748 24.6787 111.834 24.6787C111.978 25.5712 111.834 26.5645 110.971 26.8524C110.107 27.1403 109.531 26.4349 109.171 25.5568C109.114 25.4417 109.2 25.1682 109.358 25.2545Z" fill="#263238"/>
<path d="M100.836 40.5421C101.21 40.8732 101.599 41.3195 102.132 41.3339C102.682 41.2839 103.215 41.1222 103.701 40.8588C103.701 40.8588 103.787 40.8588 103.701 40.8588C103.51 41.1616 103.24 41.4071 102.921 41.5693C102.601 41.7314 102.244 41.8043 101.887 41.7801C101.612 41.7205 101.358 41.5872 101.153 41.3945C100.947 41.2018 100.798 40.9569 100.721 40.6861C100.721 40.6861 100.721 40.4989 100.836 40.5421Z" fill="#263238"/>
<path d="M106.321 34.4958C106.321 34.4958 106.897 36.6407 107.026 37.6772C107.026 37.7779 106.796 37.8499 106.436 37.9219C105.566 38.1909 104.64 38.2164 103.756 37.9956C102.873 37.7748 102.067 37.3162 101.427 36.6695C101.427 36.5831 101.427 36.4536 101.57 36.5112C103 37.2525 104.632 37.5101 106.22 37.2453C106.22 36.9574 105.112 33.5889 105.27 33.5601C106.083 33.5337 106.897 33.616 107.688 33.8049C106.638 29.2847 104.809 24.9662 103.874 20.4461C103.874 20.2877 104.075 20.2013 104.133 20.3453C106.18 24.9106 107.762 29.6707 108.854 34.5534C108.984 35.1292 106.767 34.611 106.321 34.4958Z" fill="#263238"/>
<path d="M106.292 37.5483C105.822 38.4643 105.123 39.2429 104.262 39.8083C103.784 40.1055 103.226 40.2464 102.664 40.2114C101.455 40.1106 101.225 39.0454 101.225 38.0953C101.262 37.6068 101.354 37.124 101.498 36.6558C102.958 37.4616 104.64 37.7747 106.292 37.5483Z" fill="#263238"/>
<path d="M104.262 39.8079C103.784 40.1051 103.226 40.246 102.664 40.2109C101.455 40.1102 101.225 39.0449 101.225 38.0948C101.851 37.9907 102.493 38.1038 103.046 38.4155C103.598 38.7271 104.028 39.2185 104.262 39.8079Z" fill="#FF9ABB"/>
<path d="M81.1579 35.6191C85.2318 35.6191 84.9583 26.2621 84.9583 26.2621C84.9583 26.2621 101.599 20.9503 101.081 6.88611C104.031 12.2233 108.923 16.2189 114.742 18.0424C114.742 18.0424 111.993 2.92742 99.5119 1.67504C99.5119 1.67504 83.7779 -1.65027 77.0409 11.4206C70.3039 24.4915 78.4228 35.6622 81.1579 35.6191Z" fill="#263238"/>
<path d="M100.994 5.84912C101.491 7.96085 101.535 10.1538 101.124 12.2838C100.75 14.4507 99.9264 16.5153 98.7056 18.3442C98.4036 18.8021 98.0718 19.2397 97.7124 19.6542L97.2085 20.3019C97.0214 20.5035 96.8199 20.6906 96.6183 20.8778C96.4168 21.0649 95.841 21.6407 95.4379 22.0006L94.1136 22.9795C93.8976 23.1378 93.6817 23.2962 93.4514 23.4401L92.746 23.8432L91.3065 24.6349C90.3276 25.0668 89.3199 25.4411 88.3123 25.8009C89.2336 25.2395 90.1836 24.7789 91.0762 24.2175L92.4005 23.325L93.0483 22.8787C93.2642 22.7204 93.4514 22.5476 93.6529 22.3749L94.8477 21.3672C95.2364 21.0073 95.5819 20.6187 95.9417 20.2444L96.4888 19.683L96.9638 19.064C97.2916 18.6655 97.5944 18.2473 97.8707 17.8116C99.0386 16.0531 99.8911 14.1046 100.39 12.0535C100.648 11.0372 100.826 10.0024 100.923 8.95849C101.029 7.92559 101.053 6.88585 100.994 5.84912Z" fill="#263238"/>
<path d="M74.8097 22.8213L73.802 24.8654L80.539 29.7886L82.6983 25.1965L74.8097 22.8213ZM80.0639 27.6869L75.4143 24.6639L75.6302 24.1888L80.8557 26.0746L80.0639 27.6869Z" fill="#4E7AC7"/>
<path d="M75.0978 19.2085L74.9395 21.483L83.044 23.5127L83.3175 18.4312L75.0978 19.2085ZM81.806 21.7277L76.3502 20.6912V20.1586L81.9068 19.9426L81.806 21.7277Z" fill="#4E7AC7"/>
<path d="M84.282 33.7909C84.282 33.7909 78.8262 27.5577 75.9615 29.5731C73.0969 31.5884 77.6889 40.9741 81.4173 41.9098C81.8876 42.0665 82.3849 42.1258 82.8789 42.0843C83.3729 42.0428 83.8533 41.9013 84.2909 41.6684C84.7285 41.4354 85.1141 41.116 85.4244 40.7293C85.7347 40.3427 85.9631 39.897 86.0958 39.4194L84.282 33.7909Z" fill="#EB9481"/>
<path d="M77.3433 32.2359C77.3433 32.2359 77.3433 32.3079 77.3433 32.3223C78.5585 32.7724 79.6656 33.4727 80.593 34.3778C81.5205 35.2829 82.2475 36.3727 82.7271 37.5766C82.554 37.3408 82.3317 37.1455 82.0756 37.0043C81.8195 36.8631 81.5357 36.7792 81.244 36.7587C80.9522 36.7381 80.6595 36.7814 80.3861 36.8853C80.1128 36.9893 79.8653 37.1515 79.6609 37.3607C79.6609 37.3607 79.6609 37.5046 79.7473 37.4902C80.1718 37.2999 80.645 37.2462 81.1015 37.3364C81.5579 37.4267 81.975 37.6565 82.2952 37.9941C82.8397 38.5653 83.3223 39.1926 83.7347 39.8654C83.8643 40.0813 84.2674 39.8654 84.1522 39.6639C83.8067 36.3674 80.8269 32.1784 77.3433 32.2359Z" fill="#263238"/>
<path d="M67.972 64.0063C49.6613 95.5895 22.2959 168.084 17.3439 178.449C13.9898 185.488 50.7841 204.043 52.3532 198.919C54.3397 192.369 79.8769 107.926 81.5468 70.2539C82.3241 52.8068 73.8309 53.9009 67.972 64.0063Z" fill="#EB9481"/>
<path d="M37.3823 215.041C39.3256 213.343 40.2613 214.35 39.3832 218.842C38.5051 223.333 31.3939 240.435 37.555 242.378C43.7162 244.321 53.3898 220.152 54.2823 212.565C55.1748 204.979 53.7929 192.412 53.7929 192.412C50.957 196.759 43.1404 206.606 37.3823 215.041Z" fill="#EB9481"/>
<path d="M48.1785 241.442L2.11368 233.151C0.67415 233.036 -0.203959 232.086 0.0407602 231.02L4.25857 212.191C4.48934 211.635 4.89927 211.171 5.4234 210.874C5.94752 210.576 6.55586 210.463 7.15201 210.55L53.2168 218.799C54.6564 218.928 55.5345 219.878 55.2898 220.929L51.0719 239.758C50.8551 240.328 50.4495 240.805 49.923 241.112C49.3964 241.418 48.7807 241.535 48.1785 241.442Z" fill="#A6A6A6"/>
<path d="M48.7111 239.226L2.55987 230.934C1.12034 230.804 0.256622 229.854 0.486946 228.803L4.71916 209.974C4.93328 209.406 5.33614 208.929 5.86027 208.622C6.3844 208.316 6.99796 208.198 7.59821 208.29L53.7494 216.582C55.1889 216.697 56.0526 217.647 55.8223 218.698L51.6333 237.541C51.4132 238.115 51.0027 238.595 50.4707 238.901C49.9387 239.208 49.3174 239.323 48.7111 239.226Z" fill="#C7C7C7"/>
<path d="M47.8471 233.251C46.7819 232.848 45.7742 233.251 45.6015 234.144C45.5784 234.656 45.7254 235.161 46.0197 235.58C46.314 235.999 46.739 236.309 47.2281 236.461C48.2934 236.864 49.3011 236.461 49.4738 235.583C49.5002 235.069 49.3547 234.561 49.0601 234.138C48.7656 233.716 48.3388 233.404 47.8471 233.251Z" fill="#263238"/>
<path d="M19.8056 175.138C10.4055 187.806 2.085 202.719 1.88347 219.202C1.82248 221.032 2.37473 222.831 3.45255 224.312C3.23662 231.682 6.6483 234.014 6.6483 234.014C8.54847 240.938 12.4064 242.839 12.4064 242.839C12.4064 242.839 12.9534 248.784 17.1424 248.697C21.3315 248.611 23.6347 238.866 27.2191 231.754C35.6116 215.43 50.8705 196.889 53.7496 192.426L19.8056 175.138Z" fill="#EB9481"/>
<path d="M22.7995 210.781C20.2956 215.531 18.1169 220.447 16.2785 225.492C14.6049 231.15 13.3538 236.924 12.5357 242.767C12.5357 242.805 12.5205 242.842 12.4935 242.869C12.4666 242.896 12.4299 242.911 12.3918 242.911C12.3536 242.911 12.317 242.896 12.29 242.869C12.263 242.842 12.2478 242.805 12.2478 242.767C12.706 231.352 16.2805 220.28 22.5836 210.752C22.7276 210.449 22.9867 210.55 22.7995 210.781Z" fill="#263238"/>
<path d="M13.6876 204.288C11.6434 209.139 8.10219 217.676 6.82101 234.029C6.82101 234.029 6.73464 234.029 6.72025 234.029C6.16018 223.65 8.49244 213.319 13.4572 204.187C13.6156 203.9 13.8315 203.957 13.6876 204.288Z" fill="#263238"/>
<path d="M8.73541 200.891C5.56846 209.269 4.61837 214.955 3.49554 224.269H3.39478C3.56752 213.544 4.8343 209.658 8.46191 200.733C8.59146 200.473 8.85058 200.56 8.73541 200.891Z" fill="#263238"/>
</svg>
